%TF.GenerationSoftware,KiCad,Pcbnew,8.0.5*%
%TF.CreationDate,2024-11-12T15:31:54+01:00*%
%TF.ProjectId,Core4GPZ_rev0-1,436f7265-3447-4505-9a5f-726576302d31,rev?*%
%TF.SameCoordinates,Original*%
%TF.FileFunction,Legend,Bot*%
%TF.FilePolarity,Positive*%
%FSLAX46Y46*%
G04 Gerber Fmt 4.6, Leading zero omitted, Abs format (unit mm)*
G04 Created by KiCad (PCBNEW 8.0.5) date 2024-11-12 15:31:54*
%MOMM*%
%LPD*%
G01*
G04 APERTURE LIST*
%ADD10C,0.150000*%
%ADD11C,0.120000*%
G04 APERTURE END LIST*
D10*
X117299819Y-40346333D02*
X116823628Y-40013000D01*
X117299819Y-39774905D02*
X116299819Y-39774905D01*
X116299819Y-39774905D02*
X116299819Y-40155857D01*
X116299819Y-40155857D02*
X116347438Y-40251095D01*
X116347438Y-40251095D02*
X116395057Y-40298714D01*
X116395057Y-40298714D02*
X116490295Y-40346333D01*
X116490295Y-40346333D02*
X116633152Y-40346333D01*
X116633152Y-40346333D02*
X116728390Y-40298714D01*
X116728390Y-40298714D02*
X116776009Y-40251095D01*
X116776009Y-40251095D02*
X116823628Y-40155857D01*
X116823628Y-40155857D02*
X116823628Y-39774905D01*
X116395057Y-40727286D02*
X116347438Y-40774905D01*
X116347438Y-40774905D02*
X116299819Y-40870143D01*
X116299819Y-40870143D02*
X116299819Y-41108238D01*
X116299819Y-41108238D02*
X116347438Y-41203476D01*
X116347438Y-41203476D02*
X116395057Y-41251095D01*
X116395057Y-41251095D02*
X116490295Y-41298714D01*
X116490295Y-41298714D02*
X116585533Y-41298714D01*
X116585533Y-41298714D02*
X116728390Y-41251095D01*
X116728390Y-41251095D02*
X117299819Y-40679667D01*
X117299819Y-40679667D02*
X117299819Y-41298714D01*
X114759819Y-40206905D02*
X113759819Y-40206905D01*
X113759819Y-40206905D02*
X113759819Y-40445000D01*
X113759819Y-40445000D02*
X113807438Y-40587857D01*
X113807438Y-40587857D02*
X113902676Y-40683095D01*
X113902676Y-40683095D02*
X113997914Y-40730714D01*
X113997914Y-40730714D02*
X114188390Y-40778333D01*
X114188390Y-40778333D02*
X114331247Y-40778333D01*
X114331247Y-40778333D02*
X114521723Y-40730714D01*
X114521723Y-40730714D02*
X114616961Y-40683095D01*
X114616961Y-40683095D02*
X114712200Y-40587857D01*
X114712200Y-40587857D02*
X114759819Y-40445000D01*
X114759819Y-40445000D02*
X114759819Y-40206905D01*
X113759819Y-41111667D02*
X113759819Y-41730714D01*
X113759819Y-41730714D02*
X114140771Y-41397381D01*
X114140771Y-41397381D02*
X114140771Y-41540238D01*
X114140771Y-41540238D02*
X114188390Y-41635476D01*
X114188390Y-41635476D02*
X114236009Y-41683095D01*
X114236009Y-41683095D02*
X114331247Y-41730714D01*
X114331247Y-41730714D02*
X114569342Y-41730714D01*
X114569342Y-41730714D02*
X114664580Y-41683095D01*
X114664580Y-41683095D02*
X114712200Y-41635476D01*
X114712200Y-41635476D02*
X114759819Y-41540238D01*
X114759819Y-41540238D02*
X114759819Y-41254524D01*
X114759819Y-41254524D02*
X114712200Y-41159286D01*
X114712200Y-41159286D02*
X114664580Y-41111667D01*
X109679819Y-40206905D02*
X108679819Y-40206905D01*
X108679819Y-40206905D02*
X108679819Y-40445000D01*
X108679819Y-40445000D02*
X108727438Y-40587857D01*
X108727438Y-40587857D02*
X108822676Y-40683095D01*
X108822676Y-40683095D02*
X108917914Y-40730714D01*
X108917914Y-40730714D02*
X109108390Y-40778333D01*
X109108390Y-40778333D02*
X109251247Y-40778333D01*
X109251247Y-40778333D02*
X109441723Y-40730714D01*
X109441723Y-40730714D02*
X109536961Y-40683095D01*
X109536961Y-40683095D02*
X109632200Y-40587857D01*
X109632200Y-40587857D02*
X109679819Y-40445000D01*
X109679819Y-40445000D02*
X109679819Y-40206905D01*
X109679819Y-41730714D02*
X109679819Y-41159286D01*
X109679819Y-41445000D02*
X108679819Y-41445000D01*
X108679819Y-41445000D02*
X108822676Y-41349762D01*
X108822676Y-41349762D02*
X108917914Y-41254524D01*
X108917914Y-41254524D02*
X108965533Y-41159286D01*
X119839819Y-40473333D02*
X119363628Y-40140000D01*
X119839819Y-39901905D02*
X118839819Y-39901905D01*
X118839819Y-39901905D02*
X118839819Y-40282857D01*
X118839819Y-40282857D02*
X118887438Y-40378095D01*
X118887438Y-40378095D02*
X118935057Y-40425714D01*
X118935057Y-40425714D02*
X119030295Y-40473333D01*
X119030295Y-40473333D02*
X119173152Y-40473333D01*
X119173152Y-40473333D02*
X119268390Y-40425714D01*
X119268390Y-40425714D02*
X119316009Y-40378095D01*
X119316009Y-40378095D02*
X119363628Y-40282857D01*
X119363628Y-40282857D02*
X119363628Y-39901905D01*
X119839819Y-41425714D02*
X119839819Y-40854286D01*
X119839819Y-41140000D02*
X118839819Y-41140000D01*
X118839819Y-41140000D02*
X118982676Y-41044762D01*
X118982676Y-41044762D02*
X119077914Y-40949524D01*
X119077914Y-40949524D02*
X119125533Y-40854286D01*
X112219819Y-40206905D02*
X111219819Y-40206905D01*
X111219819Y-40206905D02*
X111219819Y-40445000D01*
X111219819Y-40445000D02*
X111267438Y-40587857D01*
X111267438Y-40587857D02*
X111362676Y-40683095D01*
X111362676Y-40683095D02*
X111457914Y-40730714D01*
X111457914Y-40730714D02*
X111648390Y-40778333D01*
X111648390Y-40778333D02*
X111791247Y-40778333D01*
X111791247Y-40778333D02*
X111981723Y-40730714D01*
X111981723Y-40730714D02*
X112076961Y-40683095D01*
X112076961Y-40683095D02*
X112172200Y-40587857D01*
X112172200Y-40587857D02*
X112219819Y-40445000D01*
X112219819Y-40445000D02*
X112219819Y-40206905D01*
X111315057Y-41159286D02*
X111267438Y-41206905D01*
X111267438Y-41206905D02*
X111219819Y-41302143D01*
X111219819Y-41302143D02*
X111219819Y-41540238D01*
X111219819Y-41540238D02*
X111267438Y-41635476D01*
X111267438Y-41635476D02*
X111315057Y-41683095D01*
X111315057Y-41683095D02*
X111410295Y-41730714D01*
X111410295Y-41730714D02*
X111505533Y-41730714D01*
X111505533Y-41730714D02*
X111648390Y-41683095D01*
X111648390Y-41683095D02*
X112219819Y-41111667D01*
X112219819Y-41111667D02*
X112219819Y-41730714D01*
D11*
%TO.C,R2*%
X116322500Y-43132742D02*
X116322500Y-43607258D01*
X117367500Y-43132742D02*
X117367500Y-43607258D01*
%TO.C,D3*%
X113570000Y-42532500D02*
X113570000Y-44817500D01*
X113570000Y-44817500D02*
X115040000Y-44817500D01*
X115040000Y-44817500D02*
X115040000Y-42532500D01*
%TO.C,D1*%
X108490000Y-42532500D02*
X108490000Y-44817500D01*
X108490000Y-44817500D02*
X109960000Y-44817500D01*
X109960000Y-44817500D02*
X109960000Y-42532500D01*
%TO.C,R1*%
X118862500Y-43132742D02*
X118862500Y-43607258D01*
X119907500Y-43132742D02*
X119907500Y-43607258D01*
%TO.C,D2*%
X111030000Y-42532500D02*
X111030000Y-44817500D01*
X111030000Y-44817500D02*
X112500000Y-44817500D01*
X112500000Y-44817500D02*
X112500000Y-42532500D01*
%TD*%
M02*
