%TF.GenerationSoftware,KiCad,Pcbnew,8.0.5*%
%TF.CreationDate,2024-11-12T15:31:54+01:00*%
%TF.ProjectId,Core4GPZ_rev0-1,436f7265-3447-4505-9a5f-726576302d31,rev?*%
%TF.SameCoordinates,Original*%
%TF.FileFunction,Paste,Top*%
%TF.FilePolarity,Positive*%
%FSLAX46Y46*%
G04 Gerber Fmt 4.6, Leading zero omitted, Abs format (unit mm)*
G04 Created by KiCad (PCBNEW 8.0.5) date 2024-11-12 15:31:54*
%MOMM*%
%LPD*%
G01*
G04 APERTURE LIST*
G04 Aperture macros list*
%AMRoundRect*
0 Rectangle with rounded corners*
0 $1 Rounding radius*
0 $2 $3 $4 $5 $6 $7 $8 $9 X,Y pos of 4 corners*
0 Add a 4 corners polygon primitive as box body*
4,1,4,$2,$3,$4,$5,$6,$7,$8,$9,$2,$3,0*
0 Add four circle primitives for the rounded corners*
1,1,$1+$1,$2,$3*
1,1,$1+$1,$4,$5*
1,1,$1+$1,$6,$7*
1,1,$1+$1,$8,$9*
0 Add four rect primitives between the rounded corners*
20,1,$1+$1,$2,$3,$4,$5,0*
20,1,$1+$1,$4,$5,$6,$7,0*
20,1,$1+$1,$6,$7,$8,$9,0*
20,1,$1+$1,$8,$9,$2,$3,0*%
G04 Aperture macros list end*
%ADD10RoundRect,0.250000X0.312500X0.625000X-0.312500X0.625000X-0.312500X-0.625000X0.312500X-0.625000X0*%
%ADD11RoundRect,0.250000X0.262500X0.450000X-0.262500X0.450000X-0.262500X-0.450000X0.262500X-0.450000X0*%
%ADD12RoundRect,0.250000X-0.500000X0.950000X-0.500000X-0.950000X0.500000X-0.950000X0.500000X0.950000X0*%
%ADD13RoundRect,0.250000X-0.500000X0.275000X-0.500000X-0.275000X0.500000X-0.275000X0.500000X0.275000X0*%
%ADD14RoundRect,0.250000X-0.625000X0.312500X-0.625000X-0.312500X0.625000X-0.312500X0.625000X0.312500X0*%
%ADD15RoundRect,0.250000X-0.450000X0.350000X-0.450000X-0.350000X0.450000X-0.350000X0.450000X0.350000X0*%
%ADD16RoundRect,0.250000X-0.475000X0.250000X-0.475000X-0.250000X0.475000X-0.250000X0.475000X0.250000X0*%
%ADD17RoundRect,0.250000X-0.550000X1.500000X-0.550000X-1.500000X0.550000X-1.500000X0.550000X1.500000X0*%
%ADD18RoundRect,0.250000X0.475000X-0.337500X0.475000X0.337500X-0.475000X0.337500X-0.475000X-0.337500X0*%
%ADD19RoundRect,0.250000X0.350000X-0.850000X0.350000X0.850000X-0.350000X0.850000X-0.350000X-0.850000X0*%
%ADD20RoundRect,0.250000X1.125000X-1.275000X1.125000X1.275000X-1.125000X1.275000X-1.125000X-1.275000X0*%
%ADD21RoundRect,0.250000X-0.250000X-0.475000X0.250000X-0.475000X0.250000X0.475000X-0.250000X0.475000X0*%
%ADD22RoundRect,0.162500X0.617500X0.162500X-0.617500X0.162500X-0.617500X-0.162500X0.617500X-0.162500X0*%
%ADD23RoundRect,0.250000X0.250000X0.475000X-0.250000X0.475000X-0.250000X-0.475000X0.250000X-0.475000X0*%
%ADD24RoundRect,0.250000X0.450000X-0.350000X0.450000X0.350000X-0.450000X0.350000X-0.450000X-0.350000X0*%
%ADD25RoundRect,0.187500X-0.812500X-0.187500X0.812500X-0.187500X0.812500X0.187500X-0.812500X0.187500X0*%
%ADD26RoundRect,0.250000X-0.262500X-0.450000X0.262500X-0.450000X0.262500X0.450000X-0.262500X0.450000X0*%
%ADD27RoundRect,0.100000X0.100000X-0.712500X0.100000X0.712500X-0.100000X0.712500X-0.100000X-0.712500X0*%
G04 APERTURE END LIST*
D10*
%TO.C,R7*%
X127057750Y-78939000D03*
X124132750Y-78939000D03*
%TD*%
D11*
%TO.C,R3*%
X106318500Y-78734000D03*
X104493500Y-78734000D03*
%TD*%
D12*
%TO.C,D4*%
X135133000Y-87338000D03*
D13*
X135133000Y-84963000D03*
%TD*%
D14*
%TO.C,R8*%
X119131000Y-78554000D03*
X119131000Y-81479000D03*
%TD*%
D15*
%TO.C,R14*%
X128529000Y-95377000D03*
X128529000Y-97377000D03*
%TD*%
D14*
%TO.C,R9*%
X121671000Y-78554000D03*
X121671000Y-81479000D03*
%TD*%
D16*
%TO.C,C9*%
X116210000Y-93030000D03*
X116210000Y-94930000D03*
%TD*%
D17*
%TO.C,C1*%
X133228000Y-60071000D03*
X133228000Y-65471000D03*
%TD*%
D18*
%TO.C,C3*%
X135895000Y-94869000D03*
X135895000Y-92794000D03*
%TD*%
D19*
%TO.C,Q2*%
X101351000Y-92075000D03*
D20*
X102106000Y-87450000D03*
X105156000Y-87450000D03*
X102106000Y-84100000D03*
X105156000Y-84100000D03*
D19*
X105911000Y-92075000D03*
%TD*%
D15*
%TO.C,R11*%
X125735000Y-110871000D03*
X125735000Y-112871000D03*
%TD*%
D16*
%TO.C,C8*%
X118496000Y-93030000D03*
X118496000Y-94930000D03*
%TD*%
D19*
%TO.C,Q1*%
X101318500Y-76194000D03*
D20*
X102073500Y-71569000D03*
X105123500Y-71569000D03*
X102073500Y-68219000D03*
X105123500Y-68219000D03*
D19*
X105878500Y-76194000D03*
%TD*%
D10*
%TO.C,R10*%
X127057750Y-83511000D03*
X124132750Y-83511000D03*
%TD*%
D21*
%TO.C,C7*%
X124196250Y-85797000D03*
X126096250Y-85797000D03*
%TD*%
D18*
%TO.C,C2*%
X138181000Y-94869000D03*
X138181000Y-92794000D03*
%TD*%
D16*
%TO.C,C6*%
X120782000Y-93030000D03*
X120782000Y-94930000D03*
%TD*%
D22*
%TO.C,U4*%
X123228000Y-112776000D03*
X123228000Y-111826000D03*
X123228000Y-110876000D03*
X120528000Y-110876000D03*
X120528000Y-112776000D03*
%TD*%
D23*
%TO.C,C5*%
X126096250Y-81225000D03*
X124196250Y-81225000D03*
%TD*%
D24*
%TO.C,R12*%
X127767000Y-112871000D03*
X127767000Y-110871000D03*
%TD*%
D25*
%TO.C,U3*%
X138816000Y-99509000D03*
X138816000Y-100779000D03*
X138816000Y-102049000D03*
X138816000Y-103319000D03*
X148722000Y-103319000D03*
X148722000Y-102049000D03*
X148722000Y-100779000D03*
X148722000Y-99509000D03*
%TD*%
D15*
%TO.C,R13*%
X124465000Y-95377000D03*
X124465000Y-97377000D03*
%TD*%
D26*
%TO.C,R4*%
X100763500Y-78734000D03*
X102588500Y-78734000D03*
%TD*%
%TO.C,R6*%
X100796000Y-94609000D03*
X102621000Y-94609000D03*
%TD*%
D27*
%TO.C,IC1*%
X117861000Y-88942500D03*
X118496000Y-88942500D03*
X119131000Y-88942500D03*
X119766000Y-88942500D03*
X120401000Y-88942500D03*
X121036000Y-88942500D03*
X121671000Y-88942500D03*
X122306000Y-88942500D03*
X122306000Y-83667500D03*
X121671000Y-83667500D03*
X121036000Y-83667500D03*
X120401000Y-83667500D03*
X119766000Y-83667500D03*
X119131000Y-83667500D03*
X118496000Y-83667500D03*
X117861000Y-83667500D03*
%TD*%
D11*
%TO.C,R5*%
X106231000Y-94609000D03*
X104406000Y-94609000D03*
%TD*%
M02*
