%TF.GenerationSoftware,KiCad,Pcbnew,8.0.5*%
%TF.CreationDate,2024-11-27T16:11:48+01:00*%
%TF.ProjectId,Core4GPZ_rev0-1,436f7265-3447-4505-9a5f-726576302d31,rev?*%
%TF.SameCoordinates,Original*%
%TF.FileFunction,Soldermask,Top*%
%TF.FilePolarity,Negative*%
%FSLAX46Y46*%
G04 Gerber Fmt 4.6, Leading zero omitted, Abs format (unit mm)*
G04 Created by KiCad (PCBNEW 8.0.5) date 2024-11-27 16:11:48*
%MOMM*%
%LPD*%
G01*
G04 APERTURE LIST*
G04 Aperture macros list*
%AMRoundRect*
0 Rectangle with rounded corners*
0 $1 Rounding radius*
0 $2 $3 $4 $5 $6 $7 $8 $9 X,Y pos of 4 corners*
0 Add a 4 corners polygon primitive as box body*
4,1,4,$2,$3,$4,$5,$6,$7,$8,$9,$2,$3,0*
0 Add four circle primitives for the rounded corners*
1,1,$1+$1,$2,$3*
1,1,$1+$1,$4,$5*
1,1,$1+$1,$6,$7*
1,1,$1+$1,$8,$9*
0 Add four rect primitives between the rounded corners*
20,1,$1+$1,$2,$3,$4,$5,0*
20,1,$1+$1,$4,$5,$6,$7,0*
20,1,$1+$1,$6,$7,$8,$9,0*
20,1,$1+$1,$8,$9,$2,$3,0*%
%AMFreePoly0*
4,1,19,0.550000,-0.750000,0.000000,-0.750000,0.000000,-0.744911,-0.071157,-0.744911,-0.207708,-0.704816,-0.327430,-0.627875,-0.420627,-0.520320,-0.479746,-0.390866,-0.500000,-0.250000,-0.500000,0.250000,-0.479746,0.390866,-0.420627,0.520320,-0.327430,0.627875,-0.207708,0.704816,-0.071157,0.744911,0.000000,0.744911,0.000000,0.750000,0.550000,0.750000,0.550000,-0.750000,0.550000,-0.750000,
$1*%
%AMFreePoly1*
4,1,19,0.000000,0.744911,0.071157,0.744911,0.207708,0.704816,0.327430,0.627875,0.420627,0.520320,0.479746,0.390866,0.500000,0.250000,0.500000,-0.250000,0.479746,-0.390866,0.420627,-0.520320,0.327430,-0.627875,0.207708,-0.704816,0.071157,-0.744911,0.000000,-0.744911,0.000000,-0.750000,-0.550000,-0.750000,-0.550000,0.750000,0.000000,0.750000,0.000000,0.744911,0.000000,0.744911,
$1*%
%AMFreePoly2*
4,1,19,0.500000,-0.750000,0.000000,-0.750000,0.000000,-0.744911,-0.071157,-0.744911,-0.207708,-0.704816,-0.327430,-0.627875,-0.420627,-0.520320,-0.479746,-0.390866,-0.500000,-0.250000,-0.500000,0.250000,-0.479746,0.390866,-0.420627,0.520320,-0.327430,0.627875,-0.207708,0.704816,-0.071157,0.744911,0.000000,0.744911,0.000000,0.750000,0.500000,0.750000,0.500000,-0.750000,0.500000,-0.750000,
$1*%
%AMFreePoly3*
4,1,19,0.000000,0.744911,0.071157,0.744911,0.207708,0.704816,0.327430,0.627875,0.420627,0.520320,0.479746,0.390866,0.500000,0.250000,0.500000,-0.250000,0.479746,-0.390866,0.420627,-0.520320,0.327430,-0.627875,0.207708,-0.704816,0.071157,-0.744911,0.000000,-0.744911,0.000000,-0.750000,-0.500000,-0.750000,-0.500000,0.750000,0.000000,0.750000,0.000000,0.744911,0.000000,0.744911,
$1*%
G04 Aperture macros list end*
%ADD10RoundRect,0.100000X0.100000X-0.712500X0.100000X0.712500X-0.100000X0.712500X-0.100000X-0.712500X0*%
%ADD11R,2.200000X2.200000*%
%ADD12O,2.200000X2.200000*%
%ADD13RoundRect,0.250000X0.350000X0.450000X-0.350000X0.450000X-0.350000X-0.450000X0.350000X-0.450000X0*%
%ADD14RoundRect,0.250000X-0.500000X0.950000X-0.500000X-0.950000X0.500000X-0.950000X0.500000X0.950000X0*%
%ADD15RoundRect,0.250000X-0.500000X0.275000X-0.500000X-0.275000X0.500000X-0.275000X0.500000X0.275000X0*%
%ADD16RoundRect,0.250000X-0.450000X0.350000X-0.450000X-0.350000X0.450000X-0.350000X0.450000X0.350000X0*%
%ADD17FreePoly0,270.000000*%
%ADD18R,1.500000X1.000000*%
%ADD19FreePoly1,270.000000*%
%ADD20RoundRect,0.250000X-0.475000X0.337500X-0.475000X-0.337500X0.475000X-0.337500X0.475000X0.337500X0*%
%ADD21RoundRect,0.250000X-0.550000X1.500000X-0.550000X-1.500000X0.550000X-1.500000X0.550000X1.500000X0*%
%ADD22RoundRect,0.250000X0.475000X-0.337500X0.475000X0.337500X-0.475000X0.337500X-0.475000X-0.337500X0*%
%ADD23RoundRect,0.187500X-0.812500X-0.187500X0.812500X-0.187500X0.812500X0.187500X-0.812500X0.187500X0*%
%ADD24FreePoly2,270.000000*%
%ADD25FreePoly3,270.000000*%
%ADD26RoundRect,0.250000X0.350000X-0.850000X0.350000X0.850000X-0.350000X0.850000X-0.350000X-0.850000X0*%
%ADD27RoundRect,0.249997X2.650003X-2.950003X2.650003X2.950003X-2.650003X2.950003X-2.650003X-2.950003X0*%
%ADD28FreePoly2,90.000000*%
%ADD29FreePoly3,90.000000*%
%ADD30C,5.600000*%
%ADD31RoundRect,0.250000X-0.337500X-0.475000X0.337500X-0.475000X0.337500X0.475000X-0.337500X0.475000X0*%
%ADD32FreePoly0,0.000000*%
%ADD33R,1.000000X1.500000*%
%ADD34FreePoly1,0.000000*%
%ADD35FreePoly0,90.000000*%
%ADD36FreePoly1,90.000000*%
%ADD37C,1.800000*%
%ADD38C,5.500000*%
%ADD39RoundRect,0.162500X0.617500X0.162500X-0.617500X0.162500X-0.617500X-0.162500X0.617500X-0.162500X0*%
%ADD40C,1.500000*%
%ADD41RoundRect,0.250000X0.337500X0.475000X-0.337500X0.475000X-0.337500X-0.475000X0.337500X-0.475000X0*%
%ADD42RoundRect,0.250000X0.450000X-0.350000X0.450000X0.350000X-0.450000X0.350000X-0.450000X-0.350000X0*%
%ADD43R,1.600000X1.600000*%
%ADD44O,1.600000X1.600000*%
%ADD45RoundRect,0.250000X-0.350000X-0.450000X0.350000X-0.450000X0.350000X0.450000X-0.350000X0.450000X0*%
G04 APERTURE END LIST*
D10*
%TO.C,IC1*%
X117861000Y-88900000D03*
X118496000Y-88900000D03*
X119131000Y-88900000D03*
X119766000Y-88900000D03*
X120401000Y-88900000D03*
X121036000Y-88900000D03*
X121671000Y-88900000D03*
X122306000Y-88900000D03*
X122306000Y-83625000D03*
X121671000Y-83625000D03*
X121036000Y-83625000D03*
X120401000Y-83625000D03*
X119766000Y-83625000D03*
X119131000Y-83625000D03*
X118496000Y-83625000D03*
X117861000Y-83625000D03*
%TD*%
D11*
%TO.C,D5*%
X98176000Y-67759000D03*
D12*
X98176000Y-77919000D03*
%TD*%
D13*
%TO.C,R7*%
X126595250Y-78939000D03*
X124595250Y-78939000D03*
%TD*%
%TO.C,R3*%
X106406000Y-78734000D03*
X104406000Y-78734000D03*
%TD*%
D14*
%TO.C,D4*%
X135133000Y-87338000D03*
D15*
X135133000Y-84963000D03*
%TD*%
D16*
%TO.C,R8*%
X119131000Y-79407000D03*
X119131000Y-81407000D03*
%TD*%
%TO.C,R14*%
X128529000Y-95377000D03*
X128529000Y-97377000D03*
%TD*%
D17*
%TO.C,JP1*%
X94747000Y-77284000D03*
D18*
X94747000Y-78584000D03*
D19*
X94747000Y-79884000D03*
%TD*%
D16*
%TO.C,R9*%
X121671000Y-79407000D03*
X121671000Y-81407000D03*
%TD*%
D20*
%TO.C,C9*%
X116210000Y-92942500D03*
X116210000Y-95017500D03*
%TD*%
D21*
%TO.C,C1*%
X133228000Y-60071000D03*
X133228000Y-65471000D03*
%TD*%
D22*
%TO.C,C3*%
X135895000Y-94869000D03*
X135895000Y-92794000D03*
%TD*%
D23*
%TO.C,U3*%
X138816000Y-99509000D03*
X138816000Y-100779000D03*
X138816000Y-102049000D03*
X138816000Y-103319000D03*
X148722000Y-103319000D03*
X148722000Y-102049000D03*
X148722000Y-100779000D03*
X148722000Y-99509000D03*
%TD*%
D24*
%TO.C,JP7*%
X124465000Y-92045000D03*
D25*
X124465000Y-93345000D03*
%TD*%
D24*
%TO.C,JP8*%
X128529000Y-91821000D03*
D25*
X128529000Y-93121000D03*
%TD*%
D26*
%TO.C,Q2*%
X101351000Y-92075000D03*
D27*
X103631000Y-85775000D03*
D26*
X105911000Y-92075000D03*
%TD*%
D28*
%TO.C,JP6*%
X123195000Y-108712000D03*
D29*
X123195000Y-107412000D03*
%TD*%
D30*
%TO.C,M3*%
X82047000Y-62611000D03*
%TD*%
D16*
%TO.C,R11*%
X125735000Y-110871000D03*
X125735000Y-112871000D03*
%TD*%
D20*
%TO.C,C8*%
X118496000Y-92942500D03*
X118496000Y-95017500D03*
%TD*%
D26*
%TO.C,Q1*%
X101318500Y-76194000D03*
D27*
X103598500Y-69894000D03*
D26*
X105878500Y-76194000D03*
%TD*%
D13*
%TO.C,R10*%
X126595250Y-83511000D03*
X124595250Y-83511000D03*
%TD*%
D31*
%TO.C,C7*%
X124465000Y-85797000D03*
X126540000Y-85797000D03*
%TD*%
D22*
%TO.C,C2*%
X138181000Y-94869000D03*
X138181000Y-92794000D03*
%TD*%
D20*
%TO.C,C6*%
X120782000Y-92942500D03*
X120782000Y-95017500D03*
%TD*%
D30*
%TO.C,M3*%
X97287000Y-139319000D03*
%TD*%
D32*
%TO.C,JP3*%
X119131000Y-65854000D03*
D33*
X120431000Y-65854000D03*
D34*
X121731000Y-65854000D03*
%TD*%
D35*
%TO.C,JP5*%
X125862000Y-108712000D03*
D18*
X125862000Y-107412000D03*
D36*
X125862000Y-106112000D03*
%TD*%
D37*
%TO.C,U2*%
X85546000Y-75759000D03*
X85546000Y-78299000D03*
X85546000Y-80839000D03*
X85546000Y-83379000D03*
X85546000Y-85919000D03*
X85546000Y-88459000D03*
X85546000Y-90999000D03*
X85546000Y-93539000D03*
X85546000Y-96079000D03*
X85546000Y-98619000D03*
X85546000Y-101159000D03*
X85546000Y-103699000D03*
X85546000Y-106239000D03*
X85546000Y-108779000D03*
X85546000Y-111319000D03*
X85546000Y-113859000D03*
X85546000Y-116399000D03*
X85546000Y-118939000D03*
X85546000Y-121479000D03*
X85546000Y-124019000D03*
X85546000Y-126559000D03*
X85546000Y-129099000D03*
X85546000Y-131639000D03*
X85546000Y-134179000D03*
X132076000Y-75699000D03*
X132076000Y-78239000D03*
X132076000Y-80779000D03*
X132076000Y-83319000D03*
X132076000Y-85859000D03*
X132076000Y-88399000D03*
X132076000Y-90939000D03*
X132076000Y-93479000D03*
X132076000Y-96019000D03*
X132076000Y-98559000D03*
X132076000Y-101099000D03*
X132076000Y-103639000D03*
X132076000Y-106179000D03*
X132076000Y-108719000D03*
X132076000Y-111259000D03*
X132076000Y-113799000D03*
X132076000Y-116339000D03*
X132076000Y-118879000D03*
X132076000Y-121419000D03*
X132076000Y-123959000D03*
X132076000Y-126499000D03*
X132076000Y-129039000D03*
X132076000Y-131579000D03*
X132076000Y-134119000D03*
X108966000Y-99509000D03*
X108966000Y-102049000D03*
X111506000Y-99509000D03*
X111506000Y-102049000D03*
X114046000Y-99509000D03*
X114046000Y-102049000D03*
X116586000Y-99509000D03*
X116586000Y-102049000D03*
X119126000Y-99509000D03*
X119126000Y-102049000D03*
X121666000Y-99509000D03*
X121666000Y-102049000D03*
X124206000Y-99509000D03*
X124206000Y-102049000D03*
D38*
X86546000Y-70759000D03*
X131196000Y-70739000D03*
X131196000Y-139149000D03*
X86546000Y-139159000D03*
%TD*%
D30*
%TO.C,M3*%
X151643000Y-62611000D03*
%TD*%
D39*
%TO.C,U4*%
X123228000Y-112776000D03*
X123228000Y-111826000D03*
X123228000Y-110876000D03*
X120528000Y-110876000D03*
X120528000Y-112776000D03*
%TD*%
D40*
%TO.C,U1*%
X131831000Y-53855000D03*
X129331000Y-53855000D03*
X126831000Y-53855000D03*
X124331000Y-53855000D03*
X121831000Y-53855000D03*
X119331000Y-53855000D03*
X116831000Y-53855000D03*
X114331000Y-53855000D03*
X111831000Y-53855000D03*
X109331000Y-53855000D03*
X131831000Y-51355000D03*
X129331000Y-51355000D03*
X126831000Y-51355000D03*
X124331000Y-51355000D03*
X121831000Y-51355000D03*
X119331000Y-51355000D03*
X116831000Y-51355000D03*
X114331000Y-51355000D03*
X111831000Y-51355000D03*
X109331000Y-51355000D03*
X131831000Y-48855000D03*
X129331000Y-48855000D03*
X126831000Y-48855000D03*
X124331000Y-48855000D03*
X121831000Y-48855000D03*
X119331000Y-48855000D03*
X116831000Y-48855000D03*
X114331000Y-48855000D03*
X111831000Y-48855000D03*
X109331000Y-48855000D03*
X131831000Y-46355000D03*
X129331000Y-46355000D03*
X126831000Y-46355000D03*
X124331000Y-46355000D03*
X121831000Y-46355000D03*
X119331000Y-46355000D03*
X116831000Y-46355000D03*
X114331000Y-46355000D03*
X111831000Y-46355000D03*
X109331000Y-46355000D03*
X105831000Y-53855000D03*
X102131000Y-53855000D03*
X105831000Y-51355000D03*
X102131000Y-51355000D03*
X105831000Y-48855000D03*
X102131000Y-48855000D03*
X105831000Y-46355000D03*
X102131000Y-46355000D03*
%TD*%
D32*
%TO.C,JP4*%
X124211000Y-65854000D03*
D33*
X125511000Y-65854000D03*
D34*
X126811000Y-65854000D03*
%TD*%
D41*
%TO.C,C5*%
X126540000Y-81225000D03*
X124465000Y-81225000D03*
%TD*%
D17*
%TO.C,JP2*%
X94826000Y-93159000D03*
D18*
X94826000Y-94459000D03*
D19*
X94826000Y-95759000D03*
%TD*%
D42*
%TO.C,R12*%
X127767000Y-112871000D03*
X127767000Y-110871000D03*
%TD*%
D43*
%TO.C,A1*%
X138181000Y-69723000D03*
D44*
X138181000Y-72263000D03*
X138181000Y-74803000D03*
X138181000Y-77343000D03*
X138181000Y-79883000D03*
X138181000Y-82423000D03*
X138181000Y-84963000D03*
X138181000Y-87503000D03*
X150881000Y-87503000D03*
X150881000Y-84963000D03*
X150881000Y-82423000D03*
X150881000Y-79883000D03*
X150881000Y-77343000D03*
X150881000Y-74803000D03*
X150881000Y-72263000D03*
X150881000Y-69723000D03*
%TD*%
D11*
%TO.C,D6*%
X98176000Y-83634000D03*
D12*
X98176000Y-93794000D03*
%TD*%
D16*
%TO.C,R13*%
X124465000Y-95377000D03*
X124465000Y-97377000D03*
%TD*%
D45*
%TO.C,R4*%
X100676000Y-78734000D03*
X102676000Y-78734000D03*
%TD*%
%TO.C,R6*%
X100708500Y-94609000D03*
X102708500Y-94609000D03*
%TD*%
D30*
%TO.C,M3*%
X151643000Y-139319000D03*
%TD*%
D13*
%TO.C,R5*%
X106653000Y-94615000D03*
X104653000Y-94615000D03*
%TD*%
M02*
