%TF.GenerationSoftware,KiCad,Pcbnew,8.0.5*%
%TF.CreationDate,2024-12-02T15:09:44+01:00*%
%TF.ProjectId,Core4GPZ_rev0-1,436f7265-3447-4505-9a5f-726576302d31,rev?*%
%TF.SameCoordinates,Original*%
%TF.FileFunction,Copper,L2,Bot*%
%TF.FilePolarity,Positive*%
%FSLAX46Y46*%
G04 Gerber Fmt 4.6, Leading zero omitted, Abs format (unit mm)*
G04 Created by KiCad (PCBNEW 8.0.5) date 2024-12-02 15:09:44*
%MOMM*%
%LPD*%
G01*
G04 APERTURE LIST*
G04 Aperture macros list*
%AMRoundRect*
0 Rectangle with rounded corners*
0 $1 Rounding radius*
0 $2 $3 $4 $5 $6 $7 $8 $9 X,Y pos of 4 corners*
0 Add a 4 corners polygon primitive as box body*
4,1,4,$2,$3,$4,$5,$6,$7,$8,$9,$2,$3,0*
0 Add four circle primitives for the rounded corners*
1,1,$1+$1,$2,$3*
1,1,$1+$1,$4,$5*
1,1,$1+$1,$6,$7*
1,1,$1+$1,$8,$9*
0 Add four rect primitives between the rounded corners*
20,1,$1+$1,$2,$3,$4,$5,0*
20,1,$1+$1,$4,$5,$6,$7,0*
20,1,$1+$1,$6,$7,$8,$9,0*
20,1,$1+$1,$8,$9,$2,$3,0*%
G04 Aperture macros list end*
%TA.AperFunction,SMDPad,CuDef*%
%ADD10RoundRect,0.250000X0.450000X-0.350000X0.450000X0.350000X-0.450000X0.350000X-0.450000X-0.350000X0*%
%TD*%
%TA.AperFunction,SMDPad,CuDef*%
%ADD11RoundRect,0.250000X0.250000X-0.250000X0.250000X0.250000X-0.250000X0.250000X-0.250000X-0.250000X0*%
%TD*%
%TA.AperFunction,ComponentPad*%
%ADD12R,2.200000X2.200000*%
%TD*%
%TA.AperFunction,ComponentPad*%
%ADD13O,2.200000X2.200000*%
%TD*%
%TA.AperFunction,ComponentPad*%
%ADD14C,5.500000*%
%TD*%
%TA.AperFunction,ComponentPad*%
%ADD15C,1.800000*%
%TD*%
%TA.AperFunction,ComponentPad*%
%ADD16C,5.600000*%
%TD*%
%TA.AperFunction,ComponentPad*%
%ADD17R,1.600000X1.600000*%
%TD*%
%TA.AperFunction,ComponentPad*%
%ADD18O,1.600000X1.600000*%
%TD*%
%TA.AperFunction,ComponentPad*%
%ADD19C,1.500000*%
%TD*%
%TA.AperFunction,ViaPad*%
%ADD20C,0.800000*%
%TD*%
%TA.AperFunction,ViaPad*%
%ADD21C,1.000000*%
%TD*%
%TA.AperFunction,ViaPad*%
%ADD22C,1.200000*%
%TD*%
%TA.AperFunction,Conductor*%
%ADD23C,0.250000*%
%TD*%
%TA.AperFunction,Conductor*%
%ADD24C,0.300000*%
%TD*%
%TA.AperFunction,Conductor*%
%ADD25C,0.750000*%
%TD*%
%TA.AperFunction,Conductor*%
%ADD26C,0.500000*%
%TD*%
%TA.AperFunction,Conductor*%
%ADD27C,0.400000*%
%TD*%
G04 APERTURE END LIST*
D10*
%TO.P,R2,1*%
%TO.N,SNSR_+5V*%
X119385000Y-43942000D03*
%TO.P,R2,2*%
%TO.N,SAFE_SIGNAL*%
X119385000Y-41942000D03*
%TD*%
%TO.P,R1,2*%
%TO.N,SHIFT+*%
X116845000Y-41942000D03*
%TO.P,R1,1*%
%TO.N,SNSR_+5V*%
X116845000Y-43942000D03*
%TD*%
D11*
%TO.P,D3,1,K*%
%TO.N,NEUTRAL_SW*%
X114305000Y-44069000D03*
%TO.P,D3,2,A*%
%TO.N,SAFE_SIGNAL*%
X114305000Y-41569000D03*
%TD*%
%TO.P,D2,1,K*%
%TO.N,Clutch_SW*%
X111765000Y-44069000D03*
%TO.P,D2,2,A*%
%TO.N,SAFE_SIGNAL*%
X111765000Y-41569000D03*
%TD*%
%TO.P,D1,1,K*%
%TO.N,SideStand_SW*%
X109225000Y-44029000D03*
%TO.P,D1,2,A*%
%TO.N,SAFE_SIGNAL*%
X109225000Y-41529000D03*
%TD*%
D12*
%TO.P,D5,1,K*%
%TO.N,IGN_COIL1_DRIVE*%
X98176000Y-67759000D03*
D13*
%TO.P,D5,2,A*%
%TO.N,GND*%
X98176000Y-77919000D03*
%TD*%
D14*
%TO.P,U2,101*%
%TO.N,GND*%
X86603000Y-70819000D03*
%TO.P,U2,103*%
X86603000Y-139219000D03*
%TO.P,U2,102*%
X131253000Y-70799000D03*
%TO.P,U2,104*%
X131253000Y-139209000D03*
D15*
%TO.P,U2,1,INJ1*%
%TO.N,/INJ1_TRIG*%
X85603000Y-75819000D03*
%TO.P,U2,2,INJ1*%
%TO.N,unconnected-(U2A-INJ1-Pad2)*%
X85603000Y-78359000D03*
%TO.P,U2,3,INJ2*%
%TO.N,/INJ2_TRIG*%
X85603000Y-80899000D03*
%TO.P,U2,4,INJ2*%
%TO.N,unconnected-(U2A-INJ2-Pad4)*%
X85603000Y-83439000D03*
%TO.P,U2,5,INJ3*%
%TO.N,unconnected-(U2A-INJ3-Pad5)*%
X85603000Y-85979000D03*
%TO.P,U2,6,INJ3*%
%TO.N,unconnected-(U2A-INJ3-Pad6)*%
X85603000Y-88519000D03*
%TO.P,U2,7,INJ4*%
%TO.N,unconnected-(U2A-INJ4-Pad7)*%
X85603000Y-91059000D03*
%TO.P,U2,8,INJ4*%
%TO.N,unconnected-(U2A-INJ4-Pad8)*%
X85603000Y-93599000D03*
%TO.P,U2,9,BOOST*%
%TO.N,unconnected-(U2A-BOOST-Pad9)*%
X85603000Y-96139000D03*
%TO.P,U2,10,VVT*%
%TO.N,unconnected-(U2A-VVT-Pad10)*%
X85603000Y-98679000D03*
%TO.P,U2,11,IDLED2*%
%TO.N,unconnected-(U2A-IDLED2-Pad11)*%
X85603000Y-101219000D03*
%TO.P,U2,12,IDLED1*%
%TO.N,/IDLE_1*%
X85603000Y-103759000D03*
%TO.P,U2,13,TACHO*%
%TO.N,/TACHO_OUT*%
X85603000Y-106299000D03*
%TO.P,U2,14,FUELP*%
%TO.N,/FUEL_PUMP*%
X85603000Y-108839000D03*
%TO.P,U2,15,FAN*%
%TO.N,/FAN_CTL*%
X85603000Y-111379000D03*
%TO.P,U2,16,LC1*%
%TO.N,unconnected-(U2A-LC1-Pad16)*%
X85603000Y-113919000D03*
%TO.P,U2,17,D36*%
%TO.N,unconnected-(U2A-D36-Pad17)*%
X85603000Y-116459000D03*
%TO.P,U2,18,D35*%
%TO.N,unconnected-(U2A-D35-Pad18)*%
X85603000Y-118999000D03*
%TO.P,U2,19,D34*%
%TO.N,unconnected-(U2A-D34-Pad19)*%
X85603000Y-121539000D03*
%TO.P,U2,20,D33*%
%TO.N,unconnected-(U2A-D33-Pad20)*%
X85603000Y-124079000D03*
%TO.P,U2,21,IGN1*%
%TO.N,IGN_TRIG_1*%
X85603000Y-126619000D03*
%TO.P,U2,22,IGN2*%
%TO.N,IGN_TRIG_2*%
X85603000Y-129159000D03*
%TO.P,U2,23,IGN3*%
%TO.N,unconnected-(U2A-IGN3-Pad23)*%
X85603000Y-131699000D03*
%TO.P,U2,24,IGN4*%
%TO.N,unconnected-(U2A-IGN4-Pad24)*%
X85603000Y-134239000D03*
%TO.P,U2,25,+12V*%
%TO.N,BIKE_+12V_SWITCHED_IN*%
X132133000Y-75759000D03*
%TO.P,U2,26,EARTH*%
%TO.N,GND*%
X132133000Y-78299000D03*
%TO.P,U2,27,EARTH*%
X132133000Y-80839000D03*
%TO.P,U2,28,EARTH*%
X132133000Y-83379000D03*
%TO.P,U2,29,EARTH*%
X132133000Y-85919000D03*
%TO.P,U2,30,EARTH*%
X132133000Y-88459000D03*
%TO.P,U2,31,EARTH*%
X132133000Y-90999000D03*
%TO.P,U2,32,EARTH*%
X132133000Y-93539000D03*
%TO.P,U2,33,+5V*%
%TO.N,SNSR_+5V*%
X132133000Y-96079000D03*
%TO.P,U2,34,RPM1*%
%TO.N,CRANK_SIGNAL*%
X132133000Y-98619000D03*
%TO.P,U2,35,RPM2*%
%TO.N,CAM_SIGNAL*%
X132133000Y-101159000D03*
%TO.P,U2,36,MAP_IN*%
%TO.N,Net-(U2B-MAP_IN)*%
X132133000Y-103699000D03*
%TO.P,U2,37,TPS*%
%TO.N,/TPS_SNSR*%
X132133000Y-106239000D03*
%TO.P,U2,38,CLT*%
%TO.N,CLT_5V*%
X132133000Y-108779000D03*
%TO.P,U2,39,IAT*%
%TO.N,/IAT_SNSR*%
X132133000Y-111319000D03*
%TO.P,U2,40,02*%
%TO.N,/02_SNSR*%
X132133000Y-113859000D03*
%TO.P,U2,41,LAUNCH*%
%TO.N,unconnected-(U2B-LAUNCH-Pad41)*%
X132133000Y-116399000D03*
%TO.P,U2,42,KNOCK*%
%TO.N,unconnected-(U2B-KNOCK-Pad42)*%
X132133000Y-118939000D03*
%TO.P,U2,43,FLEX*%
%TO.N,/FLEX_SNSR*%
X132133000Y-121479000D03*
%TO.P,U2,44,SPR_IN1*%
%TO.N,SHIFT+*%
X132133000Y-124019000D03*
%TO.P,U2,45,SPR_IN2*%
%TO.N,SAFE_SIGNAL*%
X132133000Y-126559000D03*
%TO.P,U2,46,ENBL*%
%TO.N,EN*%
X132133000Y-129099000D03*
%TO.P,U2,47,STEP*%
%TO.N,STEP*%
X132133000Y-131639000D03*
%TO.P,U2,48,DIR*%
%TO.N,DIR*%
X132133000Y-134179000D03*
%TO.P,U2,49,RST*%
%TO.N,unconnected-(U2C-RST-Pad49)*%
X109023000Y-99569000D03*
%TO.P,U2,50,SS1*%
%TO.N,unconnected-(U2C-SS1-Pad50)*%
X109023000Y-102109000D03*
%TO.P,U2,51,MISO*%
%TO.N,unconnected-(U2C-MISO-Pad51)*%
X111563000Y-99569000D03*
%TO.P,U2,52,MOSI*%
%TO.N,unconnected-(U2C-MOSI-Pad52)*%
X111563000Y-102109000D03*
%TO.P,U2,53,SCK*%
%TO.N,unconnected-(U2C-SCK-Pad53)*%
X114103000Y-99569000D03*
%TO.P,U2,54,SS0*%
%TO.N,unconnected-(U2C-SS0-Pad54)*%
X114103000Y-102109000D03*
%TO.P,U2,55,TX2*%
%TO.N,unconnected-(U2C-TX2-Pad55)*%
X116643000Y-99569000D03*
%TO.P,U2,56,RX2*%
%TO.N,unconnected-(U2C-RX2-Pad56)*%
X116643000Y-102109000D03*
%TO.P,U2,57,RX0*%
%TO.N,unconnected-(U2C-RX0-Pad57)*%
X119183000Y-99569000D03*
%TO.P,U2,58,TX0*%
%TO.N,unconnected-(U2C-TX0-Pad58)*%
X119183000Y-102109000D03*
%TO.P,U2,59,TX3*%
%TO.N,unconnected-(U2C-TX3-Pad59)*%
X121723000Y-99569000D03*
%TO.P,U2,60,RX3*%
%TO.N,unconnected-(U2C-RX3-Pad60)*%
X121723000Y-102109000D03*
%TO.P,U2,61,EARTH*%
%TO.N,GND*%
X124263000Y-99569000D03*
%TO.P,U2,62,+5V*%
%TO.N,unconnected-(U2C-+5V-Pad62)*%
X124263000Y-102109000D03*
%TD*%
D16*
%TO.P,M3,1*%
%TO.N,GND*%
X82047000Y-62611000D03*
%TD*%
%TO.P,M3,1*%
%TO.N,GND*%
X97287000Y-139319000D03*
%TD*%
%TO.P,M3,1*%
%TO.N,GND*%
X151643000Y-62611000D03*
%TD*%
D17*
%TO.P,A1,1,GND*%
%TO.N,GND*%
X138181000Y-69723000D03*
D18*
%TO.P,A1,2,~{FLT}*%
%TO.N,unconnected-(A1-~{FLT}-Pad2)*%
X138181000Y-72263000D03*
%TO.P,A1,3,A2*%
%TO.N,Stepper_A2*%
X138181000Y-74803000D03*
%TO.P,A1,4,A1*%
%TO.N,Stepper_A1*%
X138181000Y-77343000D03*
%TO.P,A1,5,B1*%
%TO.N,Stepper_B1*%
X138181000Y-79883000D03*
%TO.P,A1,6,B2*%
%TO.N,Stepper_B2*%
X138181000Y-82423000D03*
%TO.P,A1,7,GND*%
%TO.N,GND*%
X138181000Y-84963000D03*
%TO.P,A1,8,VMOT*%
%TO.N,Net-(A1-VMOT)*%
X138181000Y-87503000D03*
%TO.P,A1,9,~{EN}*%
%TO.N,EN*%
X150881000Y-87503000D03*
%TO.P,A1,10,M0*%
%TO.N,unconnected-(A1-M0-Pad10)*%
X150881000Y-84963000D03*
%TO.P,A1,11,M1*%
%TO.N,unconnected-(A1-M1-Pad11)*%
X150881000Y-82423000D03*
%TO.P,A1,12,M2*%
%TO.N,unconnected-(A1-M2-Pad12)*%
X150881000Y-79883000D03*
%TO.P,A1,13,~{RST}*%
%TO.N,SNSR_+5V*%
X150881000Y-77343000D03*
%TO.P,A1,14,~{SLP}*%
X150881000Y-74803000D03*
%TO.P,A1,15,STEP*%
%TO.N,STEP*%
X150881000Y-72263000D03*
%TO.P,A1,16,DIR*%
%TO.N,DIR*%
X150881000Y-69723000D03*
%TD*%
D12*
%TO.P,D6,1,K*%
%TO.N,IGN_COIL2_DRIVE*%
X98176000Y-83634000D03*
D13*
%TO.P,D6,2,A*%
%TO.N,GND*%
X98176000Y-93794000D03*
%TD*%
D16*
%TO.P,M3,1*%
%TO.N,GND*%
X151643000Y-139319000D03*
%TD*%
D19*
%TO.P,U1,1,1A*%
%TO.N,CAM_SNSR*%
X131813000Y-53848000D03*
%TO.P,U1,2,1B*%
%TO.N,CRANK_SNSR*%
X129313000Y-53848000D03*
%TO.P,U1,3,1C*%
%TO.N,unconnected-(U1A-1C-Pad3)*%
X126813000Y-53848000D03*
%TO.P,U1,4,1D*%
%TO.N,unconnected-(U1A-1D-Pad4)*%
X124313000Y-53848000D03*
%TO.P,U1,5,1E*%
%TO.N,unconnected-(U1A-1E-Pad5)*%
X121813000Y-53848000D03*
%TO.P,U1,6,1F*%
%TO.N,/FUEL_PUMP*%
X119313000Y-53848000D03*
%TO.P,U1,7,1G*%
%TO.N,IGN_COIL2_DRIVE*%
X116813000Y-53848000D03*
%TO.P,U1,8,1H*%
%TO.N,IGN_COIL1_DRIVE*%
X114313000Y-53848000D03*
%TO.P,U1,9,1J*%
%TO.N,/INJ2_TRIG*%
X111813000Y-53848000D03*
%TO.P,U1,10,1K*%
%TO.N,/INJ1_TRIG*%
X109313000Y-53848000D03*
%TO.P,U1,11,2A*%
%TO.N,CAM_SNSR_VR-*%
X131813000Y-51348000D03*
%TO.P,U1,12,2B*%
%TO.N,CRANK_SNSR_VR-*%
X129313000Y-51348000D03*
%TO.P,U1,13,2C*%
%TO.N,unconnected-(U1A-2C-Pad13)*%
X126813000Y-51348000D03*
%TO.P,U1,14,2D*%
%TO.N,unconnected-(U1A-2D-Pad14)*%
X124313000Y-51348000D03*
%TO.P,U1,15,2E*%
%TO.N,unconnected-(U1A-2E-Pad15)*%
X121813000Y-51348000D03*
%TO.P,U1,16,2F*%
%TO.N,/FAN_CTL*%
X119313000Y-51348000D03*
%TO.P,U1,17,2G*%
%TO.N,/IDLE_1*%
X116813000Y-51348000D03*
%TO.P,U1,18,2H*%
%TO.N,unconnected-(U1A-2H-Pad18)*%
X114313000Y-51348000D03*
%TO.P,U1,19,2J*%
%TO.N,/TACHO_OUT*%
X111813000Y-51348000D03*
%TO.P,U1,20,2K*%
%TO.N,BIKE_+12V_SWITCHED_IN*%
X109313000Y-51348000D03*
%TO.P,U1,21,3A*%
%TO.N,Stepper_B1*%
X131813000Y-48848000D03*
%TO.P,U1,22,3B*%
%TO.N,Stepper_B2*%
X129313000Y-48848000D03*
%TO.P,U1,23,3C*%
%TO.N,Stepper_A2*%
X126813000Y-48848000D03*
%TO.P,U1,24,3D*%
%TO.N,Stepper_A1*%
X124313000Y-48848000D03*
%TO.P,U1,25,3E*%
%TO.N,unconnected-(U1B-3E-Pad25)*%
X121813000Y-48848000D03*
%TO.P,U1,26,3F*%
%TO.N,unconnected-(U1B-3F-Pad26)*%
X119313000Y-48848000D03*
%TO.P,U1,27,3G*%
%TO.N,unconnected-(U1B-3G-Pad27)*%
X116813000Y-48848000D03*
%TO.P,U1,28,3H*%
%TO.N,unconnected-(U1B-3H-Pad28)*%
X114313000Y-48848000D03*
%TO.P,U1,29,3J*%
%TO.N,unconnected-(U1B-3J-Pad29)*%
X111813000Y-48848000D03*
%TO.P,U1,30,3K*%
%TO.N,unconnected-(U1B-3K-Pad30)*%
X109313000Y-48848000D03*
%TO.P,U1,31,4A*%
%TO.N,/TPS_SNSR*%
X131813000Y-46348000D03*
%TO.P,U1,32,4B*%
%TO.N,CLT_SNSR*%
X129313000Y-46348000D03*
%TO.P,U1,33,4C*%
%TO.N,/IAT_SNSR*%
X126813000Y-46348000D03*
%TO.P,U1,34,4D*%
%TO.N,/02_SNSR*%
X124313000Y-46348000D03*
%TO.P,U1,35,4E*%
%TO.N,/FLEX_SNSR*%
X121813000Y-46348000D03*
%TO.P,U1,36,4F*%
%TO.N,SNSR_+5V*%
X119313000Y-46348000D03*
%TO.P,U1,37,4G*%
%TO.N,SHIFT+*%
X116813000Y-46348000D03*
%TO.P,U1,38,4H*%
%TO.N,NEUTRAL_SW*%
X114313000Y-46348000D03*
%TO.P,U1,39,4J*%
%TO.N,Clutch_SW*%
X111813000Y-46348000D03*
%TO.P,U1,40,4K*%
%TO.N,SideStand_SW*%
X109313000Y-46348000D03*
%TO.P,U1,41,1L*%
%TO.N,BIKE_+12V_SWITCHED_IN*%
X105813000Y-53848000D03*
%TO.P,U1,42,1M*%
X102113000Y-53848000D03*
%TO.P,U1,43,2L*%
%TO.N,GND*%
X105813000Y-51348000D03*
%TO.P,U1,44,2M*%
X102113000Y-51348000D03*
%TO.P,U1,45,3L*%
X105813000Y-48848000D03*
%TO.P,U1,46,3M*%
X102113000Y-48848000D03*
%TO.P,U1,47,4L*%
X105813000Y-46348000D03*
%TO.P,U1,48,4M*%
X102113000Y-46348000D03*
%TD*%
D20*
%TO.N,GND*%
X122433000Y-41275000D03*
X122433000Y-44069000D03*
X121163000Y-44069000D03*
D21*
%TO.N,BIKE_+12V_SWITCHED_IN*%
X133228000Y-60325000D03*
X133228000Y-59055000D03*
X133228000Y-61595000D03*
D22*
%TO.N,SNSR_+5V*%
X144222925Y-85539000D03*
D20*
%TO.N,IGN_TRIG_1*%
X92461000Y-78554000D03*
%TO.N,IGN_TRIG_2*%
X92461000Y-94429000D03*
%TO.N,CRANK_SIGNAL*%
X125037000Y-75311000D03*
X126597331Y-91944669D03*
%TO.N,CAM_SIGNAL*%
X124211000Y-69215000D03*
X124211000Y-90619000D03*
%TO.N,/FAN_CTL*%
X117988000Y-58039000D03*
D21*
%TO.N,Stepper_A1*%
X135260000Y-53340000D03*
D20*
%TO.N,/TACHO_OUT*%
X90048000Y-65151000D03*
%TO.N,GND*%
X116845000Y-75565000D03*
X121734500Y-86732500D03*
X127767000Y-68961000D03*
X104406000Y-90170000D03*
X133355000Y-57023000D03*
X109479000Y-91567000D03*
X141991000Y-129354000D03*
X110495000Y-75819000D03*
X115575000Y-70485000D03*
X149103000Y-94615000D03*
X117607000Y-109855000D03*
X154691000Y-94615000D03*
X140086000Y-84904000D03*
X127259000Y-63119000D03*
X136403000Y-78359000D03*
X123195000Y-87503000D03*
X143896000Y-127449000D03*
X102621000Y-106494000D03*
X143261000Y-121734000D03*
X87578000Y-87189000D03*
X104488500Y-74329000D03*
X107701000Y-58420000D03*
X129799000Y-67183000D03*
X87761000Y-120209000D03*
X104488500Y-76869000D03*
X124465000Y-41275000D03*
X109479000Y-84963000D03*
X119131000Y-91254000D03*
X119385000Y-72517000D03*
X141356000Y-84904000D03*
X144150000Y-62679000D03*
X110876000Y-62103000D03*
X127259000Y-60579000D03*
X140721000Y-102049000D03*
X118369000Y-96393000D03*
X116845000Y-81280000D03*
X92715000Y-90551000D03*
X92715000Y-88011000D03*
X121163000Y-70739000D03*
X154691000Y-77343000D03*
X91572000Y-71374000D03*
X147071000Y-117924000D03*
X134371000Y-109944000D03*
X116845000Y-85090000D03*
X110495000Y-73279000D03*
X110876000Y-60579000D03*
X88016000Y-130624000D03*
X106050000Y-74329000D03*
X137800000Y-59563000D03*
X154691000Y-74803000D03*
X138816000Y-97604000D03*
X122941000Y-72517000D03*
X127005000Y-41275000D03*
X140086000Y-86174000D03*
X148341000Y-84904000D03*
X125735000Y-114935000D03*
X121290000Y-74549000D03*
X134371000Y-112484000D03*
X123703000Y-57531000D03*
X87578000Y-82109000D03*
X113035000Y-58547000D03*
X140975000Y-46990000D03*
X104406000Y-92710000D03*
X144209475Y-77284000D03*
X115575000Y-81280000D03*
X99446000Y-102049000D03*
X136911000Y-97604000D03*
X140975000Y-89984000D03*
X134371000Y-121539000D03*
X140086000Y-83634000D03*
X138181000Y-133164000D03*
X103510000Y-109855000D03*
X132085000Y-41275000D03*
X134371000Y-101981000D03*
X99319000Y-72263000D03*
X123703000Y-114935000D03*
X122941000Y-74549000D03*
X150881000Y-114114000D03*
X148341000Y-72204000D03*
X112400000Y-95250000D03*
X106050000Y-107315000D03*
X122941000Y-76581000D03*
X127513000Y-98933000D03*
X144531000Y-99509000D03*
X128021000Y-72771000D03*
X87578000Y-99889000D03*
X126243000Y-101981000D03*
X91572000Y-69723000D03*
X137800000Y-62611000D03*
X122179000Y-57531000D03*
X87578000Y-94809000D03*
X129545000Y-41275000D03*
X140340000Y-48260000D03*
X98811000Y-63119000D03*
X148976000Y-116019000D03*
X137800000Y-57785000D03*
X91572000Y-66675000D03*
X122179000Y-55753000D03*
X116337000Y-68961000D03*
X92715000Y-82677000D03*
X149103000Y-90619000D03*
X110495000Y-78867000D03*
X118877000Y-60325000D03*
X148341000Y-74744000D03*
X149611000Y-121734000D03*
X144209475Y-72204000D03*
X136403000Y-80899000D03*
X97223500Y-90551000D03*
X107320000Y-106045000D03*
X103383000Y-61595000D03*
X129799000Y-78359000D03*
X138943000Y-89984000D03*
X92715000Y-83947000D03*
X105161000Y-103954000D03*
X113670000Y-95250000D03*
X137927000Y-117983000D03*
X140848000Y-112209000D03*
X116210000Y-88900000D03*
X139705000Y-46990000D03*
X129799000Y-80899000D03*
X141610000Y-48260000D03*
X154691000Y-99695000D03*
X137800000Y-49530000D03*
X134371000Y-99949000D03*
X128783000Y-58547000D03*
X127767000Y-114935000D03*
X93731000Y-100144000D03*
X129799000Y-85979000D03*
X148341000Y-108399000D03*
X133228000Y-64643000D03*
X140086000Y-131259000D03*
X148341000Y-69664000D03*
X92715000Y-81407000D03*
X129799000Y-83439000D03*
X118606000Y-86732500D03*
X104488500Y-75599000D03*
X144150000Y-59631000D03*
X154691000Y-97155000D03*
X136911000Y-102049000D03*
X154691000Y-82423000D03*
X145801000Y-125544000D03*
X99319000Y-87904000D03*
X139578000Y-113479000D03*
X148341000Y-109669000D03*
X137038000Y-116019000D03*
X103891000Y-105224000D03*
X140721000Y-99509000D03*
X117607000Y-111887000D03*
X149611000Y-109669000D03*
X138308000Y-114749000D03*
X92715000Y-89281000D03*
X112400000Y-96520000D03*
X97287000Y-72263000D03*
X110495000Y-70739000D03*
X154691000Y-79883000D03*
X141356000Y-123639000D03*
X113670000Y-96520000D03*
X114305000Y-57277000D03*
X122941000Y-103505000D03*
X137800000Y-61087000D03*
X102240000Y-111125000D03*
X100843000Y-61595000D03*
X91572000Y-68199000D03*
X99446000Y-100144000D03*
X141356000Y-83634000D03*
X145801000Y-109669000D03*
X121671000Y-111887000D03*
X120655000Y-60325000D03*
X139705000Y-41275000D03*
X120147000Y-86741000D03*
X115575000Y-77470000D03*
X153421000Y-117924000D03*
X131323000Y-65659000D03*
X126497000Y-94869000D03*
X144209475Y-69664000D03*
X120655000Y-58801000D03*
X133355000Y-52959000D03*
X144531000Y-97604000D03*
X154691000Y-102235000D03*
X97287000Y-75311000D03*
X135260000Y-46990000D03*
X136530000Y-48260000D03*
X129799000Y-112484000D03*
X130307000Y-57023000D03*
X123703000Y-55753000D03*
X120147000Y-105029000D03*
X140721000Y-97604000D03*
X110495000Y-65659000D03*
X112019000Y-59563000D03*
X147706000Y-123639000D03*
X100081000Y-109034000D03*
X106050000Y-90170000D03*
X96779000Y-64643000D03*
X129799000Y-90297000D03*
X116210000Y-96334000D03*
X144150000Y-61155000D03*
X136911000Y-90043000D03*
X137165000Y-41275000D03*
X149103000Y-92583000D03*
X151516000Y-119829000D03*
X145801000Y-108399000D03*
X126497000Y-96393000D03*
X138689000Y-105029000D03*
X108971000Y-57277000D03*
X109479000Y-82931000D03*
X133228000Y-66675000D03*
X149611000Y-108399000D03*
X99319000Y-75311000D03*
X97541000Y-100144000D03*
X95636000Y-102049000D03*
X115575000Y-85090000D03*
X120909000Y-107696000D03*
X135895000Y-120015000D03*
X144531000Y-101414000D03*
X87635000Y-115174000D03*
X145166000Y-119829000D03*
X144209475Y-74744000D03*
X144150000Y-57785000D03*
X149103000Y-96647000D03*
X120655000Y-96334000D03*
X129799000Y-102743000D03*
X109479000Y-89027000D03*
X106685000Y-64770000D03*
X99319000Y-90551000D03*
X122179000Y-58801000D03*
X109479000Y-86995000D03*
X117480000Y-91254000D03*
X127513000Y-100711000D03*
X125989000Y-76835000D03*
X116337000Y-72009000D03*
X104406000Y-91440000D03*
X95636000Y-100144000D03*
X91572000Y-65151000D03*
X134625000Y-41275000D03*
X147071000Y-109669000D03*
X116210000Y-90170000D03*
X101351000Y-107764000D03*
X123195000Y-89281000D03*
X133355000Y-54991000D03*
X103383000Y-64643000D03*
X123703000Y-105791000D03*
X140467000Y-115443000D03*
X134371000Y-117564000D03*
X134371000Y-104864000D03*
X117353000Y-61849000D03*
X133228000Y-65659000D03*
X127767000Y-104267000D03*
X134879000Y-90043000D03*
X97541000Y-102049000D03*
X104780000Y-108585000D03*
X148341000Y-77284000D03*
X121671000Y-114935000D03*
X93731000Y-102049000D03*
X106685000Y-63500000D03*
X126243000Y-74549000D03*
X116337000Y-65405000D03*
X87381000Y-77029000D03*
X115575000Y-67310000D03*
X117607000Y-107823000D03*
X119385000Y-70739000D03*
X97223500Y-87904000D03*
X121163000Y-72517000D03*
X148341000Y-82364000D03*
X141356000Y-86174000D03*
X118877000Y-61849000D03*
X116845000Y-77470000D03*
X129799000Y-109944000D03*
X110495000Y-68199000D03*
X115575000Y-73660000D03*
X147071000Y-108399000D03*
X125989000Y-98933000D03*
X129799000Y-114935000D03*
%TO.N,Net-(JP1-B)*%
X128275000Y-106239000D03*
X125735000Y-110903000D03*
%TD*%
D23*
%TO.N,SHIFT+*%
X116721753Y-46341587D02*
X116845000Y-46218340D01*
X115670261Y-45290095D02*
X116721753Y-46341587D01*
X116845000Y-41942000D02*
X115670261Y-43116739D01*
X115670261Y-43116739D02*
X115670261Y-45290095D01*
D24*
%TO.N,SAFE_SIGNAL*%
X113971000Y-41529000D02*
X109225000Y-41529000D01*
X114011000Y-41569000D02*
X113971000Y-41529000D01*
X114305000Y-41569000D02*
X114011000Y-41569000D01*
X114882000Y-40992000D02*
X114305000Y-41569000D01*
X118435000Y-40992000D02*
X114882000Y-40992000D01*
X119385000Y-41942000D02*
X118435000Y-40992000D01*
X139324000Y-52251894D02*
X139324000Y-48695893D01*
X142998000Y-55925894D02*
X139324000Y-52251894D01*
X139324000Y-48695893D02*
X133170107Y-42542000D01*
X142998000Y-115577000D02*
X142998000Y-55925894D01*
X119985000Y-42542000D02*
X119385000Y-41942000D01*
X132076000Y-126499000D02*
X142998000Y-115577000D01*
X133170107Y-42542000D02*
X119985000Y-42542000D01*
D23*
%TO.N,SHIFT+*%
X132938000Y-43017000D02*
X133216000Y-43295000D01*
X117920000Y-43017000D02*
X132938000Y-43017000D01*
X116845000Y-41942000D02*
X117920000Y-43017000D01*
%TO.N,SNSR_+5V*%
X116845000Y-43942000D02*
X119385000Y-43942000D01*
X119385000Y-43942000D02*
X119385000Y-46178340D01*
D24*
%TO.N,SHIFT+*%
X133908894Y-123959000D02*
X132076000Y-123959000D01*
X142498000Y-115369894D02*
X133908894Y-123959000D01*
X142498000Y-56133000D02*
X142498000Y-115369894D01*
X138816000Y-52451000D02*
X142498000Y-56133000D01*
X138816000Y-48895000D02*
X138816000Y-52451000D01*
X133216000Y-43295000D02*
X138816000Y-48895000D01*
D25*
%TO.N,BIKE_+12V_SWITCHED_IN*%
X105813000Y-53855000D02*
X102035166Y-53855000D01*
X105813000Y-60088000D02*
X105813000Y-53932834D01*
X109352000Y-63627000D02*
X105813000Y-60088000D01*
X133228000Y-61595000D02*
X133228000Y-61722000D01*
X132146000Y-75699000D02*
X132076000Y-75699000D01*
X120147000Y-63627000D02*
X109352000Y-63627000D01*
X133228000Y-61722000D02*
X125735000Y-69215000D01*
X133228000Y-59055000D02*
X133228000Y-60325000D01*
X132076000Y-75699000D02*
X129044000Y-75699000D01*
D26*
X106708340Y-53855000D02*
X109221753Y-51341587D01*
X105813000Y-53855000D02*
X106708340Y-53855000D01*
D25*
X102035166Y-53855000D02*
X102021753Y-53841587D01*
X133228000Y-60325000D02*
X133228000Y-61595000D01*
X125735000Y-72390000D02*
X125735000Y-69215000D01*
X125735000Y-69215000D02*
X120147000Y-63627000D01*
X129044000Y-75699000D02*
X125735000Y-72390000D01*
D24*
%TO.N,SNSR_+5V*%
X144222925Y-83942075D02*
X150881000Y-77284000D01*
D27*
X132151000Y-96019000D02*
X132076000Y-96019000D01*
D24*
X144222925Y-85539000D02*
X144222925Y-83942075D01*
X150881000Y-77284000D02*
X150881000Y-74744000D01*
D23*
%TO.N,SideStand_SW*%
X109225000Y-46338340D02*
X109221753Y-46341587D01*
X109225000Y-46405000D02*
X109195000Y-46435000D01*
D24*
X109225000Y-44120000D02*
X109225000Y-46338340D01*
%TO.N,Clutch_SW*%
X111765000Y-44120000D02*
X111765000Y-46298340D01*
D23*
X111765000Y-46365000D02*
X111695000Y-46435000D01*
X111765000Y-46298340D02*
X111721753Y-46341587D01*
%TO.N,NEUTRAL_SW*%
X114305000Y-46258340D02*
X114221753Y-46341587D01*
D24*
X114305000Y-44120000D02*
X114305000Y-46258340D01*
D23*
X114305000Y-46225000D02*
X114095000Y-46435000D01*
D27*
%TO.N,IGN_TRIG_1*%
X90556000Y-123004000D02*
X87001000Y-126559000D01*
X90556000Y-80459000D02*
X90556000Y-123004000D01*
X87001000Y-126559000D02*
X85546000Y-126559000D01*
X92461000Y-78554000D02*
X90556000Y-80459000D01*
%TO.N,IGN_TRIG_2*%
X91191000Y-123217528D02*
X85546000Y-128862528D01*
X85546000Y-128862528D02*
X85546000Y-129099000D01*
X91191000Y-95699000D02*
X91191000Y-123217528D01*
X92461000Y-94429000D02*
X91191000Y-95699000D01*
D23*
%TO.N,CRANK_SNSR*%
X129195000Y-53935000D02*
X129260305Y-53935000D01*
D24*
%TO.N,CRANK_SIGNAL*%
X130561000Y-97044000D02*
X132076000Y-98559000D01*
X126597331Y-91944669D02*
X130561000Y-95908338D01*
X124719000Y-76835000D02*
X125037000Y-76517000D01*
X126597331Y-91944669D02*
X124719000Y-90066338D01*
X124719000Y-90066338D02*
X124719000Y-76835000D01*
X125037000Y-76517000D02*
X125037000Y-75311000D01*
X130561000Y-95908338D02*
X130561000Y-97044000D01*
%TO.N,CAM_SIGNAL*%
X124211000Y-90619000D02*
X124211000Y-69215000D01*
X130053000Y-96461000D02*
X130053000Y-99076000D01*
X124211000Y-90619000D02*
X130053000Y-96461000D01*
X130053000Y-99076000D02*
X132076000Y-101099000D01*
D27*
%TO.N,Stepper_B1*%
X131775166Y-48895000D02*
X131721753Y-48841587D01*
%TO.N,/FAN_CTL*%
X117988000Y-52575340D02*
X119221753Y-51341587D01*
X117988000Y-58039000D02*
X117988000Y-52575340D01*
D23*
%TO.N,SHIFT+*%
X116845000Y-46185000D02*
X116595000Y-46435000D01*
D27*
%TO.N,Net-(U2B-MAP_IN)*%
X132371000Y-103344000D02*
X132076000Y-103639000D01*
%TO.N,Stepper_A1*%
X125545166Y-50165000D02*
X124221753Y-48841587D01*
X135260000Y-53340000D02*
X135260000Y-52705000D01*
X132720000Y-50165000D02*
X125545166Y-50165000D01*
X135260000Y-52705000D02*
X132720000Y-50165000D01*
D23*
%TO.N,/TACHO_OUT*%
X90048000Y-65151000D02*
X90048000Y-79883000D01*
X90048000Y-79883000D02*
X89540000Y-80391000D01*
X89540000Y-102245000D02*
X85546000Y-106239000D01*
X89540000Y-80391000D02*
X89540000Y-102245000D01*
%TO.N,GND*%
X87518000Y-87249000D02*
X83828000Y-87249000D01*
X134371000Y-104864000D02*
X134268141Y-104966859D01*
X87578000Y-87189000D02*
X87518000Y-87249000D01*
X83469000Y-130414000D02*
X83260000Y-130623000D01*
X130619712Y-117660712D02*
X130434000Y-117475000D01*
X129668859Y-104966859D02*
X129566000Y-104864000D01*
X134371000Y-117564000D02*
X134274288Y-117660712D01*
X87381000Y-77029000D02*
X87336000Y-77074000D01*
X134274288Y-117660712D02*
X130619712Y-117660712D01*
X87518000Y-82169000D02*
X87578000Y-82109000D01*
X134268141Y-104966859D02*
X129668859Y-104966859D01*
X87806000Y-130414000D02*
X83469000Y-130414000D01*
X88016000Y-130624000D02*
X87806000Y-130414000D01*
X87336000Y-77074000D02*
X83781000Y-77074000D01*
X83260000Y-82109000D02*
X83320000Y-82169000D01*
X83320000Y-82169000D02*
X87518000Y-82169000D01*
X83828000Y-87249000D02*
X83768000Y-87189000D01*
%TO.N,Net-(JP1-B)*%
X128275000Y-107315000D02*
X128275000Y-106239000D01*
X125735000Y-109855000D02*
X128275000Y-107315000D01*
X125735000Y-110903000D02*
X125735000Y-109855000D01*
%TD*%
%TA.AperFunction,Conductor*%
%TO.N,GND*%
G36*
X89774834Y-102997269D02*
G01*
X89830767Y-103039141D01*
X89855184Y-103104605D01*
X89855500Y-103113451D01*
X89855500Y-122662480D01*
X89835815Y-122729519D01*
X89819181Y-122750161D01*
X86852020Y-125717321D01*
X86790697Y-125750806D01*
X86721005Y-125745822D01*
X86673109Y-125713623D01*
X86656745Y-125695847D01*
X86554784Y-125585087D01*
X86377180Y-125446853D01*
X86336368Y-125390143D01*
X86332693Y-125320370D01*
X86367324Y-125259687D01*
X86377181Y-125251146D01*
X86381407Y-125247857D01*
X86554784Y-125112913D01*
X86711979Y-124942153D01*
X86838924Y-124747849D01*
X86932157Y-124535300D01*
X86989134Y-124310305D01*
X86989135Y-124310297D01*
X87008300Y-124079006D01*
X87008300Y-124078993D01*
X86989135Y-123847702D01*
X86989133Y-123847691D01*
X86932157Y-123622699D01*
X86838924Y-123410151D01*
X86711983Y-123215852D01*
X86711980Y-123215849D01*
X86711979Y-123215847D01*
X86554784Y-123045087D01*
X86377180Y-122906853D01*
X86336368Y-122850143D01*
X86332693Y-122780370D01*
X86367324Y-122719687D01*
X86377181Y-122711146D01*
X86381407Y-122707857D01*
X86554784Y-122572913D01*
X86711979Y-122402153D01*
X86838924Y-122207849D01*
X86932157Y-121995300D01*
X86989134Y-121770305D01*
X86989135Y-121770297D01*
X87008300Y-121539006D01*
X87008300Y-121538993D01*
X86989135Y-121307702D01*
X86989133Y-121307691D01*
X86932157Y-121082699D01*
X86838924Y-120870151D01*
X86711983Y-120675852D01*
X86711980Y-120675849D01*
X86711979Y-120675847D01*
X86554784Y-120505087D01*
X86377180Y-120366853D01*
X86336368Y-120310143D01*
X86332693Y-120240370D01*
X86367324Y-120179687D01*
X86377181Y-120171146D01*
X86381407Y-120167857D01*
X86554784Y-120032913D01*
X86711979Y-119862153D01*
X86838924Y-119667849D01*
X86932157Y-119455300D01*
X86989134Y-119230305D01*
X86989135Y-119230297D01*
X87008300Y-118999006D01*
X87008300Y-118998993D01*
X86989135Y-118767702D01*
X86989133Y-118767691D01*
X86932157Y-118542699D01*
X86838924Y-118330151D01*
X86711983Y-118135852D01*
X86711980Y-118135849D01*
X86711979Y-118135847D01*
X86554784Y-117965087D01*
X86377180Y-117826853D01*
X86336368Y-117770143D01*
X86332693Y-117700370D01*
X86367324Y-117639687D01*
X86377181Y-117631146D01*
X86381407Y-117627857D01*
X86554784Y-117492913D01*
X86711979Y-117322153D01*
X86838924Y-117127849D01*
X86932157Y-116915300D01*
X86989134Y-116690305D01*
X86989135Y-116690297D01*
X87008300Y-116459006D01*
X87008300Y-116458993D01*
X86989135Y-116227702D01*
X86989133Y-116227691D01*
X86932157Y-116002699D01*
X86838924Y-115790151D01*
X86711983Y-115595852D01*
X86711980Y-115595849D01*
X86711979Y-115595847D01*
X86554784Y-115425087D01*
X86377180Y-115286853D01*
X86336368Y-115230143D01*
X86332693Y-115160370D01*
X86367324Y-115099687D01*
X86377181Y-115091146D01*
X86381407Y-115087857D01*
X86554784Y-114952913D01*
X86711979Y-114782153D01*
X86838924Y-114587849D01*
X86932157Y-114375300D01*
X86989134Y-114150305D01*
X86989135Y-114150297D01*
X87008300Y-113919006D01*
X87008300Y-113918993D01*
X86989135Y-113687702D01*
X86989133Y-113687691D01*
X86932157Y-113462699D01*
X86838924Y-113250151D01*
X86711983Y-113055852D01*
X86711980Y-113055849D01*
X86711979Y-113055847D01*
X86554784Y-112885087D01*
X86377180Y-112746853D01*
X86336368Y-112690143D01*
X86332693Y-112620370D01*
X86367324Y-112559687D01*
X86377181Y-112551146D01*
X86381407Y-112547857D01*
X86554784Y-112412913D01*
X86711979Y-112242153D01*
X86838924Y-112047849D01*
X86932157Y-111835300D01*
X86989134Y-111610305D01*
X86991986Y-111575888D01*
X87008300Y-111379006D01*
X87008300Y-111378993D01*
X86989135Y-111147702D01*
X86989133Y-111147691D01*
X86932157Y-110922699D01*
X86838924Y-110710151D01*
X86711983Y-110515852D01*
X86711980Y-110515849D01*
X86711979Y-110515847D01*
X86554784Y-110345087D01*
X86377180Y-110206853D01*
X86336368Y-110150143D01*
X86332693Y-110080370D01*
X86367324Y-110019687D01*
X86377181Y-110011146D01*
X86381407Y-110007857D01*
X86554784Y-109872913D01*
X86711979Y-109702153D01*
X86838924Y-109507849D01*
X86932157Y-109295300D01*
X86989134Y-109070305D01*
X86989135Y-109070297D01*
X87008300Y-108839006D01*
X87008300Y-108838993D01*
X86989135Y-108607702D01*
X86989133Y-108607691D01*
X86932157Y-108382699D01*
X86838924Y-108170151D01*
X86711983Y-107975852D01*
X86711980Y-107975849D01*
X86711979Y-107975847D01*
X86554784Y-107805087D01*
X86377180Y-107666853D01*
X86336368Y-107610143D01*
X86332693Y-107540370D01*
X86367324Y-107479687D01*
X86377181Y-107471146D01*
X86381407Y-107467857D01*
X86554784Y-107332913D01*
X86711979Y-107162153D01*
X86838924Y-106967849D01*
X86932157Y-106755300D01*
X86989134Y-106530305D01*
X86989135Y-106530297D01*
X87008300Y-106299006D01*
X87008300Y-106298993D01*
X86989135Y-106067702D01*
X86989133Y-106067691D01*
X86939253Y-105870722D01*
X86932157Y-105842700D01*
X86932155Y-105842696D01*
X86930494Y-105837857D01*
X86932800Y-105837065D01*
X86925190Y-105777808D01*
X86955169Y-105714696D01*
X86959949Y-105709639D01*
X89643821Y-103025768D01*
X89705142Y-102992285D01*
X89774834Y-102997269D01*
G37*
%TD.AperFunction*%
%TA.AperFunction,Conductor*%
G36*
X132666602Y-43662185D02*
G01*
X132702665Y-43697609D01*
X132710724Y-43709671D01*
X132710727Y-43709674D01*
X138129181Y-49128127D01*
X138162666Y-49189450D01*
X138165500Y-49215808D01*
X138165500Y-52515068D01*
X138173370Y-52554630D01*
X138173370Y-52554633D01*
X138190497Y-52640736D01*
X138190499Y-52640744D01*
X138238076Y-52755606D01*
X138239535Y-52759127D01*
X138296605Y-52844539D01*
X138310726Y-52865673D01*
X138310727Y-52865674D01*
X141811181Y-56366127D01*
X141844666Y-56427450D01*
X141847500Y-56453808D01*
X141847500Y-115049086D01*
X141827815Y-115116125D01*
X141811181Y-115136767D01*
X133675767Y-123272181D01*
X133614444Y-123305666D01*
X133588086Y-123308500D01*
X133408818Y-123308500D01*
X133341779Y-123288815D01*
X133305009Y-123252322D01*
X133241981Y-123155850D01*
X133241980Y-123155849D01*
X133241979Y-123155847D01*
X133084784Y-122985087D01*
X132907180Y-122846853D01*
X132866368Y-122790143D01*
X132862693Y-122720370D01*
X132897324Y-122659687D01*
X132907181Y-122651146D01*
X133084784Y-122512913D01*
X133241979Y-122342153D01*
X133368924Y-122147849D01*
X133462157Y-121935300D01*
X133519134Y-121710305D01*
X133533328Y-121539006D01*
X133538300Y-121479006D01*
X133538300Y-121478993D01*
X133519135Y-121247702D01*
X133519133Y-121247691D01*
X133462157Y-121022699D01*
X133368924Y-120810151D01*
X133241983Y-120615852D01*
X133241980Y-120615849D01*
X133241979Y-120615847D01*
X133084784Y-120445087D01*
X132907180Y-120306853D01*
X132866368Y-120250143D01*
X132862693Y-120180370D01*
X132897324Y-120119687D01*
X132907181Y-120111146D01*
X133084784Y-119972913D01*
X133241979Y-119802153D01*
X133368924Y-119607849D01*
X133462157Y-119395300D01*
X133519134Y-119170305D01*
X133533328Y-118999006D01*
X133538300Y-118939006D01*
X133538300Y-118938993D01*
X133519135Y-118707702D01*
X133519133Y-118707691D01*
X133462157Y-118482699D01*
X133368924Y-118270151D01*
X133241983Y-118075852D01*
X133241980Y-118075849D01*
X133241979Y-118075847D01*
X133084784Y-117905087D01*
X132907180Y-117766853D01*
X132866368Y-117710143D01*
X132862693Y-117640370D01*
X132897324Y-117579687D01*
X132907181Y-117571146D01*
X133084784Y-117432913D01*
X133241979Y-117262153D01*
X133368924Y-117067849D01*
X133462157Y-116855300D01*
X133519134Y-116630305D01*
X133533328Y-116459006D01*
X133538300Y-116399006D01*
X133538300Y-116398993D01*
X133519135Y-116167702D01*
X133519133Y-116167691D01*
X133462157Y-115942699D01*
X133368924Y-115730151D01*
X133241983Y-115535852D01*
X133241980Y-115535849D01*
X133241979Y-115535847D01*
X133084784Y-115365087D01*
X132907180Y-115226853D01*
X132866368Y-115170143D01*
X132862693Y-115100370D01*
X132897324Y-115039687D01*
X132907181Y-115031146D01*
X133084784Y-114892913D01*
X133241979Y-114722153D01*
X133368924Y-114527849D01*
X133462157Y-114315300D01*
X133519134Y-114090305D01*
X133533328Y-113919006D01*
X133538300Y-113859006D01*
X133538300Y-113858993D01*
X133519135Y-113627702D01*
X133519133Y-113627691D01*
X133462157Y-113402699D01*
X133368924Y-113190151D01*
X133241983Y-112995852D01*
X133241980Y-112995849D01*
X133241979Y-112995847D01*
X133084784Y-112825087D01*
X132907180Y-112686853D01*
X132866368Y-112630143D01*
X132862693Y-112560370D01*
X132897324Y-112499687D01*
X132907181Y-112491146D01*
X133084784Y-112352913D01*
X133241979Y-112182153D01*
X133368924Y-111987849D01*
X133462157Y-111775300D01*
X133519134Y-111550305D01*
X133519135Y-111550297D01*
X133538300Y-111319006D01*
X133538300Y-111318993D01*
X133519135Y-111087702D01*
X133519133Y-111087691D01*
X133462157Y-110862699D01*
X133368924Y-110650151D01*
X133241983Y-110455852D01*
X133241980Y-110455849D01*
X133241979Y-110455847D01*
X133084784Y-110285087D01*
X132907180Y-110146853D01*
X132866368Y-110090143D01*
X132862693Y-110020370D01*
X132897324Y-109959687D01*
X132907181Y-109951146D01*
X133084784Y-109812913D01*
X133241979Y-109642153D01*
X133368924Y-109447849D01*
X133462157Y-109235300D01*
X133519134Y-109010305D01*
X133533328Y-108839006D01*
X133538300Y-108779006D01*
X133538300Y-108778993D01*
X133519135Y-108547702D01*
X133519133Y-108547691D01*
X133462157Y-108322699D01*
X133368924Y-108110151D01*
X133241983Y-107915852D01*
X133241980Y-107915849D01*
X133241979Y-107915847D01*
X133084784Y-107745087D01*
X132907180Y-107606853D01*
X132866368Y-107550143D01*
X132862693Y-107480370D01*
X132897324Y-107419687D01*
X132907181Y-107411146D01*
X133084784Y-107272913D01*
X133241979Y-107102153D01*
X133368924Y-106907849D01*
X133462157Y-106695300D01*
X133519134Y-106470305D01*
X133533328Y-106299006D01*
X133538300Y-106239006D01*
X133538300Y-106238993D01*
X133519135Y-106007702D01*
X133519133Y-106007691D01*
X133462157Y-105782699D01*
X133368924Y-105570151D01*
X133241983Y-105375852D01*
X133241980Y-105375849D01*
X133241979Y-105375847D01*
X133084784Y-105205087D01*
X132907180Y-105066853D01*
X132866368Y-105010143D01*
X132862693Y-104940370D01*
X132897324Y-104879687D01*
X132907181Y-104871146D01*
X133084784Y-104732913D01*
X133241979Y-104562153D01*
X133368924Y-104367849D01*
X133462157Y-104155300D01*
X133519134Y-103930305D01*
X133519135Y-103930297D01*
X133538300Y-103699006D01*
X133538300Y-103698993D01*
X133519135Y-103467702D01*
X133519133Y-103467691D01*
X133462157Y-103242699D01*
X133368924Y-103030151D01*
X133241983Y-102835852D01*
X133241980Y-102835849D01*
X133241979Y-102835847D01*
X133084784Y-102665087D01*
X132907180Y-102526853D01*
X132866368Y-102470143D01*
X132862693Y-102400370D01*
X132897324Y-102339687D01*
X132907181Y-102331146D01*
X133084784Y-102192913D01*
X133241979Y-102022153D01*
X133368924Y-101827849D01*
X133462157Y-101615300D01*
X133519134Y-101390305D01*
X133520090Y-101378773D01*
X133538300Y-101159006D01*
X133538300Y-101158993D01*
X133519135Y-100927702D01*
X133519133Y-100927691D01*
X133462157Y-100702699D01*
X133368924Y-100490151D01*
X133241983Y-100295852D01*
X133241980Y-100295849D01*
X133241979Y-100295847D01*
X133084784Y-100125087D01*
X132907180Y-99986853D01*
X132866368Y-99930143D01*
X132862693Y-99860370D01*
X132897324Y-99799687D01*
X132907181Y-99791146D01*
X133084784Y-99652913D01*
X133241979Y-99482153D01*
X133368924Y-99287849D01*
X133462157Y-99075300D01*
X133519134Y-98850305D01*
X133520090Y-98838773D01*
X133538300Y-98619006D01*
X133538300Y-98618993D01*
X133519135Y-98387702D01*
X133519133Y-98387691D01*
X133462157Y-98162699D01*
X133368924Y-97950151D01*
X133241983Y-97755852D01*
X133241980Y-97755849D01*
X133241979Y-97755847D01*
X133084784Y-97585087D01*
X132907180Y-97446853D01*
X132866368Y-97390143D01*
X132862693Y-97320370D01*
X132897324Y-97259687D01*
X132907181Y-97251146D01*
X133084784Y-97112913D01*
X133241979Y-96942153D01*
X133368924Y-96747849D01*
X133462157Y-96535300D01*
X133519134Y-96310305D01*
X133533328Y-96139006D01*
X133538300Y-96079006D01*
X133538300Y-96078993D01*
X133519135Y-95847702D01*
X133519133Y-95847691D01*
X133462157Y-95622699D01*
X133368924Y-95410151D01*
X133241983Y-95215852D01*
X133241980Y-95215849D01*
X133241979Y-95215847D01*
X133084784Y-95045087D01*
X133084779Y-95045083D01*
X133084777Y-95045081D01*
X132901634Y-94902535D01*
X132901628Y-94902531D01*
X132697504Y-94792064D01*
X132697495Y-94792061D01*
X132477984Y-94716702D01*
X132306282Y-94688050D01*
X132249049Y-94678500D01*
X132016951Y-94678500D01*
X131971164Y-94686140D01*
X131788015Y-94716702D01*
X131568504Y-94792061D01*
X131568495Y-94792064D01*
X131364371Y-94902531D01*
X131364365Y-94902535D01*
X131181222Y-95045081D01*
X131181219Y-95045084D01*
X131024022Y-95215845D01*
X131024019Y-95215849D01*
X131014451Y-95230495D01*
X130961304Y-95275852D01*
X130892073Y-95285275D01*
X130828737Y-95255772D01*
X130822962Y-95250354D01*
X127532139Y-91959531D01*
X127498654Y-91898208D01*
X127496499Y-91884810D01*
X127483005Y-91756414D01*
X127473723Y-91727848D01*
X127424510Y-91576385D01*
X127329864Y-91412453D01*
X127203202Y-91271781D01*
X127203201Y-91271780D01*
X127050065Y-91160520D01*
X127050060Y-91160517D01*
X126877138Y-91083526D01*
X126877133Y-91083524D01*
X126731332Y-91052534D01*
X126691977Y-91044169D01*
X126691976Y-91044169D01*
X126668138Y-91044169D01*
X126601099Y-91024484D01*
X126580457Y-91007850D01*
X125405819Y-89833211D01*
X125372334Y-89771888D01*
X125369500Y-89745530D01*
X125369500Y-87502998D01*
X136875532Y-87502998D01*
X136875532Y-87503001D01*
X136895364Y-87729686D01*
X136895366Y-87729697D01*
X136954258Y-87949488D01*
X136954261Y-87949497D01*
X137050431Y-88155732D01*
X137050432Y-88155734D01*
X137180954Y-88342141D01*
X137341858Y-88503045D01*
X137341861Y-88503047D01*
X137528266Y-88633568D01*
X137734504Y-88729739D01*
X137954308Y-88788635D01*
X138116230Y-88802801D01*
X138180998Y-88808468D01*
X138181000Y-88808468D01*
X138181002Y-88808468D01*
X138237673Y-88803509D01*
X138407692Y-88788635D01*
X138627496Y-88729739D01*
X138833734Y-88633568D01*
X139020139Y-88503047D01*
X139181047Y-88342139D01*
X139311568Y-88155734D01*
X139407739Y-87949496D01*
X139466635Y-87729692D01*
X139486468Y-87503000D01*
X139466635Y-87276308D01*
X139407739Y-87056504D01*
X139311568Y-86850266D01*
X139181047Y-86663861D01*
X139181045Y-86663858D01*
X139020141Y-86502954D01*
X138833734Y-86372432D01*
X138833732Y-86372431D01*
X138627497Y-86276261D01*
X138627488Y-86276258D01*
X138407697Y-86217366D01*
X138407693Y-86217365D01*
X138407692Y-86217365D01*
X138407691Y-86217364D01*
X138407686Y-86217364D01*
X138181002Y-86197532D01*
X138180998Y-86197532D01*
X137954313Y-86217364D01*
X137954302Y-86217366D01*
X137734511Y-86276258D01*
X137734502Y-86276261D01*
X137528267Y-86372431D01*
X137528265Y-86372432D01*
X137341858Y-86502954D01*
X137180954Y-86663858D01*
X137050432Y-86850265D01*
X137050431Y-86850267D01*
X136954261Y-87056502D01*
X136954258Y-87056511D01*
X136895366Y-87276302D01*
X136895364Y-87276313D01*
X136875532Y-87502998D01*
X125369500Y-87502998D01*
X125369500Y-77155808D01*
X125389185Y-77088769D01*
X125405814Y-77068131D01*
X125542277Y-76931669D01*
X125613465Y-76825127D01*
X125662501Y-76706744D01*
X125665779Y-76690266D01*
X125679329Y-76622147D01*
X125687500Y-76581071D01*
X125687500Y-75981921D01*
X125707185Y-75914882D01*
X125719351Y-75898948D01*
X125720109Y-75898106D01*
X125769533Y-75843216D01*
X125864179Y-75679284D01*
X125922674Y-75499256D01*
X125942460Y-75311000D01*
X125922674Y-75122744D01*
X125864179Y-74942716D01*
X125769533Y-74778784D01*
X125642871Y-74638112D01*
X125566376Y-74582535D01*
X125489734Y-74526851D01*
X125489729Y-74526848D01*
X125316807Y-74449857D01*
X125316802Y-74449855D01*
X125169283Y-74418500D01*
X125131646Y-74410500D01*
X124985500Y-74410500D01*
X124918461Y-74390815D01*
X124872706Y-74338011D01*
X124861500Y-74286500D01*
X124861500Y-73054006D01*
X124881185Y-72986967D01*
X124933989Y-72941212D01*
X125003147Y-72931268D01*
X125066703Y-72960293D01*
X125073181Y-72966325D01*
X128363955Y-76257099D01*
X128449809Y-76342953D01*
X128485902Y-76379046D01*
X128629288Y-76474854D01*
X128629301Y-76474861D01*
X128777236Y-76536137D01*
X128777241Y-76536139D01*
X128788626Y-76540855D01*
X128957766Y-76574499D01*
X128957769Y-76574500D01*
X128957771Y-76574500D01*
X129130229Y-76574500D01*
X130926311Y-76574500D01*
X130993350Y-76594185D01*
X131020190Y-76618706D01*
X131020547Y-76618379D01*
X131024020Y-76622152D01*
X131024021Y-76622153D01*
X131181216Y-76792913D01*
X131181219Y-76792915D01*
X131181222Y-76792918D01*
X131364365Y-76935464D01*
X131364371Y-76935468D01*
X131364374Y-76935470D01*
X131568497Y-77045936D01*
X131682487Y-77085068D01*
X131788015Y-77121297D01*
X131788017Y-77121297D01*
X131788019Y-77121298D01*
X132016951Y-77159500D01*
X132016952Y-77159500D01*
X132249048Y-77159500D01*
X132249049Y-77159500D01*
X132477981Y-77121298D01*
X132697503Y-77045936D01*
X132901626Y-76935470D01*
X133084784Y-76792913D01*
X133241979Y-76622153D01*
X133368924Y-76427849D01*
X133462157Y-76215300D01*
X133519134Y-75990305D01*
X133521594Y-75960618D01*
X133538300Y-75759006D01*
X133538300Y-75758993D01*
X133519135Y-75527702D01*
X133519133Y-75527691D01*
X133462157Y-75302699D01*
X133368924Y-75090151D01*
X133241983Y-74895852D01*
X133241980Y-74895849D01*
X133241979Y-74895847D01*
X133084784Y-74725087D01*
X133084779Y-74725083D01*
X133084777Y-74725081D01*
X132901634Y-74582535D01*
X132901628Y-74582531D01*
X132697504Y-74472064D01*
X132697495Y-74472061D01*
X132477984Y-74396702D01*
X132306282Y-74368050D01*
X132249049Y-74358500D01*
X132016951Y-74358500D01*
X131971164Y-74366140D01*
X131788015Y-74396702D01*
X131568504Y-74472061D01*
X131568495Y-74472064D01*
X131364371Y-74582531D01*
X131364365Y-74582535D01*
X131181222Y-74725081D01*
X131181212Y-74725090D01*
X131127458Y-74783483D01*
X131067571Y-74819474D01*
X131036229Y-74823500D01*
X129458006Y-74823500D01*
X129390967Y-74803815D01*
X129370325Y-74787181D01*
X126846142Y-72262998D01*
X136875532Y-72262998D01*
X136875532Y-72263001D01*
X136895364Y-72489686D01*
X136895366Y-72489697D01*
X136954258Y-72709488D01*
X136954261Y-72709497D01*
X137050431Y-72915732D01*
X137050432Y-72915734D01*
X137180954Y-73102141D01*
X137341858Y-73263045D01*
X137341861Y-73263047D01*
X137528266Y-73393568D01*
X137586275Y-73420618D01*
X137638714Y-73466791D01*
X137657866Y-73533984D01*
X137637650Y-73600865D01*
X137586275Y-73645382D01*
X137528267Y-73672431D01*
X137528265Y-73672432D01*
X137341858Y-73802954D01*
X137180954Y-73963858D01*
X137050432Y-74150265D01*
X137050431Y-74150267D01*
X136954261Y-74356502D01*
X136954258Y-74356511D01*
X136895366Y-74576302D01*
X136895364Y-74576313D01*
X136875532Y-74802998D01*
X136875532Y-74803001D01*
X136895364Y-75029686D01*
X136895366Y-75029697D01*
X136954258Y-75249488D01*
X136954261Y-75249497D01*
X137050431Y-75455732D01*
X137050432Y-75455734D01*
X137180954Y-75642141D01*
X137341858Y-75803045D01*
X137341861Y-75803047D01*
X137528266Y-75933568D01*
X137586275Y-75960618D01*
X137638714Y-76006791D01*
X137657866Y-76073984D01*
X137637650Y-76140865D01*
X137586275Y-76185382D01*
X137528267Y-76212431D01*
X137528265Y-76212432D01*
X137341858Y-76342954D01*
X137180954Y-76503858D01*
X137126890Y-76581071D01*
X137050432Y-76690266D01*
X137050431Y-76690267D01*
X136954261Y-76896502D01*
X136954258Y-76896511D01*
X136895366Y-77116302D01*
X136895364Y-77116313D01*
X136875532Y-77342998D01*
X136875532Y-77343001D01*
X136895364Y-77569686D01*
X136895366Y-77569697D01*
X136954258Y-77789488D01*
X136954261Y-77789497D01*
X137050431Y-77995732D01*
X137050432Y-77995734D01*
X137180954Y-78182141D01*
X137341858Y-78343045D01*
X137388693Y-78375839D01*
X137528266Y-78473568D01*
X137586275Y-78500618D01*
X137638714Y-78546791D01*
X137657866Y-78613984D01*
X137637650Y-78680865D01*
X137586275Y-78725382D01*
X137528267Y-78752431D01*
X137528265Y-78752432D01*
X137341858Y-78882954D01*
X137180954Y-79043858D01*
X137050432Y-79230265D01*
X137050431Y-79230267D01*
X136954261Y-79436502D01*
X136954258Y-79436511D01*
X136895366Y-79656302D01*
X136895364Y-79656313D01*
X136875532Y-79882998D01*
X136875532Y-79883001D01*
X136895364Y-80109686D01*
X136895366Y-80109697D01*
X136954258Y-80329488D01*
X136954261Y-80329497D01*
X137050431Y-80535732D01*
X137050432Y-80535734D01*
X137180954Y-80722141D01*
X137341858Y-80883045D01*
X137341861Y-80883047D01*
X137528266Y-81013568D01*
X137586275Y-81040618D01*
X137638714Y-81086791D01*
X137657866Y-81153984D01*
X137637650Y-81220865D01*
X137586275Y-81265382D01*
X137528267Y-81292431D01*
X137528265Y-81292432D01*
X137341858Y-81422954D01*
X137180954Y-81583858D01*
X137050432Y-81770265D01*
X137050431Y-81770267D01*
X136954261Y-81976502D01*
X136954258Y-81976511D01*
X136895366Y-82196302D01*
X136895364Y-82196313D01*
X136875532Y-82422998D01*
X136875532Y-82423001D01*
X136895364Y-82649686D01*
X136895366Y-82649697D01*
X136954258Y-82869488D01*
X136954261Y-82869497D01*
X137050431Y-83075732D01*
X137050432Y-83075734D01*
X137180954Y-83262141D01*
X137341858Y-83423045D01*
X137341861Y-83423047D01*
X137528266Y-83553568D01*
X137734504Y-83649739D01*
X137954308Y-83708635D01*
X138116230Y-83722801D01*
X138180998Y-83728468D01*
X138181000Y-83728468D01*
X138181002Y-83728468D01*
X138237673Y-83723509D01*
X138407692Y-83708635D01*
X138627496Y-83649739D01*
X138833734Y-83553568D01*
X139020139Y-83423047D01*
X139181047Y-83262139D01*
X139311568Y-83075734D01*
X139407739Y-82869496D01*
X139466635Y-82649692D01*
X139486468Y-82423000D01*
X139466635Y-82196308D01*
X139407739Y-81976504D01*
X139311568Y-81770266D01*
X139181047Y-81583861D01*
X139181045Y-81583858D01*
X139020141Y-81422954D01*
X138833734Y-81292432D01*
X138833728Y-81292429D01*
X138775725Y-81265382D01*
X138723285Y-81219210D01*
X138704133Y-81152017D01*
X138724348Y-81085135D01*
X138775725Y-81040618D01*
X138833734Y-81013568D01*
X139020139Y-80883047D01*
X139181047Y-80722139D01*
X139311568Y-80535734D01*
X139407739Y-80329496D01*
X139466635Y-80109692D01*
X139486468Y-79883000D01*
X139466635Y-79656308D01*
X139407739Y-79436504D01*
X139311568Y-79230266D01*
X139181047Y-79043861D01*
X139181045Y-79043858D01*
X139020141Y-78882954D01*
X138833734Y-78752432D01*
X138833728Y-78752429D01*
X138775725Y-78725382D01*
X138723285Y-78679210D01*
X138704133Y-78612017D01*
X138724348Y-78545135D01*
X138775725Y-78500618D01*
X138833734Y-78473568D01*
X139020139Y-78343047D01*
X139181047Y-78182139D01*
X139311568Y-77995734D01*
X139407739Y-77789496D01*
X139466635Y-77569692D01*
X139486468Y-77343000D01*
X139466635Y-77116308D01*
X139407739Y-76896504D01*
X139311568Y-76690266D01*
X139181047Y-76503861D01*
X139181045Y-76503858D01*
X139020141Y-76342954D01*
X138833734Y-76212432D01*
X138833728Y-76212429D01*
X138806038Y-76199517D01*
X138775724Y-76185381D01*
X138723285Y-76139210D01*
X138704133Y-76072017D01*
X138724348Y-76005135D01*
X138775725Y-75960618D01*
X138833734Y-75933568D01*
X139020139Y-75803047D01*
X139181047Y-75642139D01*
X139311568Y-75455734D01*
X139407739Y-75249496D01*
X139466635Y-75029692D01*
X139483634Y-74835384D01*
X139486468Y-74803001D01*
X139486468Y-74802998D01*
X139472429Y-74642531D01*
X139466635Y-74576308D01*
X139407739Y-74356504D01*
X139311568Y-74150266D01*
X139181047Y-73963861D01*
X139181045Y-73963858D01*
X139020141Y-73802954D01*
X138833734Y-73672432D01*
X138833728Y-73672429D01*
X138775725Y-73645382D01*
X138723285Y-73599210D01*
X138704133Y-73532017D01*
X138724348Y-73465135D01*
X138775725Y-73420618D01*
X138833734Y-73393568D01*
X139020139Y-73263047D01*
X139181047Y-73102139D01*
X139311568Y-72915734D01*
X139407739Y-72709496D01*
X139466635Y-72489692D01*
X139486468Y-72263000D01*
X139466635Y-72036308D01*
X139407739Y-71816504D01*
X139311568Y-71610266D01*
X139181047Y-71423861D01*
X139181045Y-71423858D01*
X139020141Y-71262954D01*
X138833734Y-71132432D01*
X138833732Y-71132431D01*
X138627497Y-71036261D01*
X138627488Y-71036258D01*
X138407697Y-70977366D01*
X138407693Y-70977365D01*
X138407692Y-70977365D01*
X138407691Y-70977364D01*
X138407686Y-70977364D01*
X138181002Y-70957532D01*
X138180998Y-70957532D01*
X137954313Y-70977364D01*
X137954302Y-70977366D01*
X137734511Y-71036258D01*
X137734502Y-71036261D01*
X137528267Y-71132431D01*
X137528265Y-71132432D01*
X137341858Y-71262954D01*
X137180954Y-71423858D01*
X137050432Y-71610265D01*
X137050431Y-71610267D01*
X136954261Y-71816502D01*
X136954258Y-71816511D01*
X136895366Y-72036302D01*
X136895364Y-72036313D01*
X136875532Y-72262998D01*
X126846142Y-72262998D01*
X126646819Y-72063675D01*
X126613334Y-72002352D01*
X126610500Y-71975994D01*
X126610500Y-69629005D01*
X126630185Y-69561966D01*
X126646814Y-69541329D01*
X133710579Y-62477563D01*
X133739804Y-62455889D01*
X133786538Y-62430910D01*
X133938883Y-62305883D01*
X134063910Y-62153538D01*
X134156814Y-61979727D01*
X134214024Y-61791132D01*
X134233341Y-61595000D01*
X134214024Y-61398868D01*
X134156814Y-61210273D01*
X134118142Y-61137922D01*
X134103500Y-61079469D01*
X134103500Y-60840530D01*
X134118142Y-60782076D01*
X134156812Y-60709730D01*
X134156814Y-60709727D01*
X134214024Y-60521132D01*
X134233341Y-60325000D01*
X134214024Y-60128868D01*
X134156814Y-59940273D01*
X134118142Y-59867922D01*
X134103500Y-59809469D01*
X134103500Y-59570530D01*
X134118142Y-59512076D01*
X134156812Y-59439730D01*
X134156814Y-59439727D01*
X134214024Y-59251132D01*
X134233341Y-59055000D01*
X134214024Y-58858868D01*
X134156814Y-58670273D01*
X134156811Y-58670269D01*
X134156811Y-58670266D01*
X134063913Y-58496467D01*
X134063909Y-58496460D01*
X133938883Y-58344116D01*
X133786539Y-58219090D01*
X133786532Y-58219086D01*
X133612733Y-58126188D01*
X133612727Y-58126186D01*
X133424132Y-58068976D01*
X133424129Y-58068975D01*
X133228000Y-58049659D01*
X133031870Y-58068975D01*
X132843266Y-58126188D01*
X132669467Y-58219086D01*
X132669460Y-58219090D01*
X132517116Y-58344116D01*
X132392090Y-58496460D01*
X132392086Y-58496467D01*
X132299188Y-58670266D01*
X132241975Y-58858870D01*
X132222659Y-59055000D01*
X132241975Y-59251129D01*
X132299187Y-59439730D01*
X132337858Y-59512076D01*
X132352500Y-59570530D01*
X132352500Y-59809469D01*
X132337858Y-59867922D01*
X132299188Y-59940267D01*
X132241975Y-60128870D01*
X132222659Y-60325000D01*
X132241975Y-60521129D01*
X132299187Y-60709730D01*
X132337858Y-60782076D01*
X132352500Y-60840530D01*
X132352500Y-61079469D01*
X132337858Y-61137922D01*
X132299188Y-61210267D01*
X132241975Y-61398871D01*
X132238566Y-61433485D01*
X132212404Y-61498271D01*
X132202844Y-61509010D01*
X125822681Y-67889174D01*
X125761358Y-67922659D01*
X125691666Y-67917675D01*
X125647319Y-67889174D01*
X120705102Y-62946957D01*
X120705098Y-62946954D01*
X120561711Y-62851145D01*
X120561698Y-62851138D01*
X120402378Y-62785146D01*
X120402366Y-62785143D01*
X120233232Y-62751500D01*
X120233229Y-62751500D01*
X109766006Y-62751500D01*
X109698967Y-62731815D01*
X109678325Y-62715181D01*
X106724819Y-59761675D01*
X106691334Y-59700352D01*
X106688500Y-59673994D01*
X106688500Y-54792337D01*
X106708185Y-54725298D01*
X106724820Y-54704655D01*
X106774592Y-54654883D01*
X106774598Y-54654877D01*
X106784972Y-54640059D01*
X106839546Y-54596436D01*
X106862346Y-54589568D01*
X106927253Y-54576658D01*
X107063835Y-54520084D01*
X107130352Y-54475639D01*
X107130352Y-54475638D01*
X107130354Y-54475638D01*
X107158554Y-54456795D01*
X107186756Y-54437952D01*
X107847082Y-53777624D01*
X107908405Y-53744140D01*
X107978096Y-53749124D01*
X108034030Y-53790995D01*
X108058291Y-53854499D01*
X108072314Y-54014784D01*
X108075472Y-54050883D01*
X108076793Y-54065975D01*
X108076793Y-54065979D01*
X108133422Y-54277322D01*
X108133424Y-54277326D01*
X108133425Y-54277330D01*
X108163956Y-54342804D01*
X108225897Y-54475638D01*
X108250998Y-54511486D01*
X108351402Y-54654877D01*
X108506123Y-54809598D01*
X108685361Y-54935102D01*
X108883670Y-55027575D01*
X109095023Y-55084207D01*
X109277926Y-55100208D01*
X109312998Y-55103277D01*
X109313000Y-55103277D01*
X109313002Y-55103277D01*
X109341254Y-55100805D01*
X109530977Y-55084207D01*
X109742330Y-55027575D01*
X109940639Y-54935102D01*
X110119877Y-54809598D01*
X110274598Y-54654877D01*
X110400102Y-54475639D01*
X110450618Y-54367306D01*
X110496790Y-54314867D01*
X110563984Y-54295715D01*
X110630865Y-54315931D01*
X110675381Y-54367306D01*
X110725898Y-54475639D01*
X110851402Y-54654877D01*
X111006123Y-54809598D01*
X111185361Y-54935102D01*
X111383670Y-55027575D01*
X111595023Y-55084207D01*
X111777926Y-55100208D01*
X111812998Y-55103277D01*
X111813000Y-55103277D01*
X111813002Y-55103277D01*
X111841254Y-55100805D01*
X112030977Y-55084207D01*
X112242330Y-55027575D01*
X112440639Y-54935102D01*
X112619877Y-54809598D01*
X112774598Y-54654877D01*
X112900102Y-54475639D01*
X112950618Y-54367306D01*
X112996790Y-54314867D01*
X113063984Y-54295715D01*
X113130865Y-54315931D01*
X113175381Y-54367306D01*
X113225898Y-54475639D01*
X113351402Y-54654877D01*
X113506123Y-54809598D01*
X113685361Y-54935102D01*
X113883670Y-55027575D01*
X114095023Y-55084207D01*
X114277926Y-55100208D01*
X114312998Y-55103277D01*
X114313000Y-55103277D01*
X114313002Y-55103277D01*
X114341254Y-55100805D01*
X114530977Y-55084207D01*
X114742330Y-55027575D01*
X114940639Y-54935102D01*
X115119877Y-54809598D01*
X115274598Y-54654877D01*
X115400102Y-54475639D01*
X115450618Y-54367306D01*
X115496790Y-54314867D01*
X115563984Y-54295715D01*
X115630865Y-54315931D01*
X115675381Y-54367306D01*
X115725898Y-54475639D01*
X115851402Y-54654877D01*
X116006123Y-54809598D01*
X116185361Y-54935102D01*
X116383670Y-55027575D01*
X116595023Y-55084207D01*
X116777926Y-55100208D01*
X116812998Y-55103277D01*
X116813000Y-55103277D01*
X116813002Y-55103277D01*
X116841254Y-55100805D01*
X117030977Y-55084207D01*
X117131409Y-55057296D01*
X117201256Y-55058959D01*
X117259118Y-55098121D01*
X117286623Y-55162349D01*
X117287500Y-55177071D01*
X117287500Y-57423608D01*
X117267815Y-57490647D01*
X117255656Y-57506574D01*
X117255468Y-57506782D01*
X117255464Y-57506787D01*
X117160821Y-57670715D01*
X117160818Y-57670722D01*
X117102327Y-57850740D01*
X117102326Y-57850744D01*
X117082540Y-58039000D01*
X117102326Y-58227256D01*
X117102327Y-58227259D01*
X117160818Y-58407277D01*
X117160821Y-58407284D01*
X117255467Y-58571216D01*
X117344659Y-58670273D01*
X117382129Y-58711888D01*
X117535265Y-58823148D01*
X117535270Y-58823151D01*
X117708192Y-58900142D01*
X117708197Y-58900144D01*
X117893354Y-58939500D01*
X117893355Y-58939500D01*
X118082644Y-58939500D01*
X118082646Y-58939500D01*
X118267803Y-58900144D01*
X118440730Y-58823151D01*
X118593871Y-58711888D01*
X118720533Y-58571216D01*
X118815179Y-58407284D01*
X118873674Y-58227256D01*
X118893460Y-58039000D01*
X118873674Y-57850744D01*
X118815179Y-57670716D01*
X118720533Y-57506784D01*
X118720344Y-57506574D01*
X118720273Y-57506427D01*
X118716714Y-57501528D01*
X118717610Y-57500876D01*
X118690119Y-57443580D01*
X118688500Y-57423608D01*
X118688500Y-55131206D01*
X118708185Y-55064167D01*
X118760989Y-55018412D01*
X118830147Y-55008468D01*
X118864903Y-55018823D01*
X118883670Y-55027575D01*
X119095023Y-55084207D01*
X119277926Y-55100208D01*
X119312998Y-55103277D01*
X119313000Y-55103277D01*
X119313002Y-55103277D01*
X119341254Y-55100805D01*
X119530977Y-55084207D01*
X119742330Y-55027575D01*
X119940639Y-54935102D01*
X120119877Y-54809598D01*
X120274598Y-54654877D01*
X120400102Y-54475639D01*
X120450618Y-54367306D01*
X120496790Y-54314867D01*
X120563984Y-54295715D01*
X120630865Y-54315931D01*
X120675381Y-54367306D01*
X120725898Y-54475639D01*
X120851402Y-54654877D01*
X121006123Y-54809598D01*
X121185361Y-54935102D01*
X121383670Y-55027575D01*
X121595023Y-55084207D01*
X121777926Y-55100208D01*
X121812998Y-55103277D01*
X121813000Y-55103277D01*
X121813002Y-55103277D01*
X121841254Y-55100805D01*
X122030977Y-55084207D01*
X122242330Y-55027575D01*
X122440639Y-54935102D01*
X122619877Y-54809598D01*
X122774598Y-54654877D01*
X122900102Y-54475639D01*
X122950618Y-54367306D01*
X122996790Y-54314867D01*
X123063984Y-54295715D01*
X123130865Y-54315931D01*
X123175381Y-54367306D01*
X123225898Y-54475639D01*
X123351402Y-54654877D01*
X123506123Y-54809598D01*
X123685361Y-54935102D01*
X123883670Y-55027575D01*
X124095023Y-55084207D01*
X124277926Y-55100208D01*
X124312998Y-55103277D01*
X124313000Y-55103277D01*
X124313002Y-55103277D01*
X124341254Y-55100805D01*
X124530977Y-55084207D01*
X124742330Y-55027575D01*
X124940639Y-54935102D01*
X125119877Y-54809598D01*
X125274598Y-54654877D01*
X125400102Y-54475639D01*
X125450618Y-54367306D01*
X125496790Y-54314867D01*
X125563984Y-54295715D01*
X125630865Y-54315931D01*
X125675381Y-54367306D01*
X125725898Y-54475639D01*
X125851402Y-54654877D01*
X126006123Y-54809598D01*
X126185361Y-54935102D01*
X126383670Y-55027575D01*
X126595023Y-55084207D01*
X126777926Y-55100208D01*
X126812998Y-55103277D01*
X126813000Y-55103277D01*
X126813002Y-55103277D01*
X126841254Y-55100805D01*
X127030977Y-55084207D01*
X127242330Y-55027575D01*
X127440639Y-54935102D01*
X127619877Y-54809598D01*
X127774598Y-54654877D01*
X127900102Y-54475639D01*
X127950618Y-54367306D01*
X127996790Y-54314867D01*
X128063984Y-54295715D01*
X128130865Y-54315931D01*
X128175381Y-54367306D01*
X128225898Y-54475639D01*
X128351402Y-54654877D01*
X128506123Y-54809598D01*
X128685361Y-54935102D01*
X128883670Y-55027575D01*
X129095023Y-55084207D01*
X129277926Y-55100208D01*
X129312998Y-55103277D01*
X129313000Y-55103277D01*
X129313002Y-55103277D01*
X129341254Y-55100805D01*
X129530977Y-55084207D01*
X129742330Y-55027575D01*
X129940639Y-54935102D01*
X130119877Y-54809598D01*
X130274598Y-54654877D01*
X130400102Y-54475639D01*
X130450618Y-54367306D01*
X130496790Y-54314867D01*
X130563984Y-54295715D01*
X130630865Y-54315931D01*
X130675381Y-54367306D01*
X130725898Y-54475639D01*
X130851402Y-54654877D01*
X131006123Y-54809598D01*
X131185361Y-54935102D01*
X131383670Y-55027575D01*
X131595023Y-55084207D01*
X131777926Y-55100208D01*
X131812998Y-55103277D01*
X131813000Y-55103277D01*
X131813002Y-55103277D01*
X131841254Y-55100805D01*
X132030977Y-55084207D01*
X132242330Y-55027575D01*
X132440639Y-54935102D01*
X132565042Y-54847994D01*
X137160498Y-54847994D01*
X137160498Y-54848005D01*
X137180420Y-55056639D01*
X137180423Y-55056656D01*
X137239470Y-55257755D01*
X137335518Y-55444062D01*
X137465079Y-55608810D01*
X137465083Y-55608814D01*
X137623481Y-55746068D01*
X137623492Y-55746076D01*
X137805002Y-55850870D01*
X137805004Y-55850871D01*
X138003075Y-55919424D01*
X138210541Y-55949253D01*
X138419902Y-55939280D01*
X138623593Y-55889865D01*
X138814251Y-55802795D01*
X138984985Y-55681215D01*
X139129625Y-55529522D01*
X139242943Y-55353196D01*
X139320843Y-55158611D01*
X139360510Y-54952799D01*
X139363000Y-54848000D01*
X139360510Y-54743201D01*
X139320843Y-54537389D01*
X139242943Y-54342804D01*
X139129625Y-54166478D01*
X139033799Y-54065979D01*
X138984987Y-54014786D01*
X138984984Y-54014784D01*
X138814253Y-53893206D01*
X138814251Y-53893205D01*
X138623593Y-53806135D01*
X138419902Y-53756720D01*
X138230489Y-53747697D01*
X138210543Y-53746747D01*
X138210542Y-53746747D01*
X138210541Y-53746747D01*
X138003075Y-53776576D01*
X138003074Y-53776576D01*
X138003069Y-53776577D01*
X137805002Y-53845129D01*
X137623492Y-53949923D01*
X137623481Y-53949931D01*
X137465083Y-54087185D01*
X137465079Y-54087189D01*
X137335518Y-54251937D01*
X137239470Y-54438244D01*
X137180423Y-54639343D01*
X137180420Y-54639360D01*
X137160498Y-54847994D01*
X132565042Y-54847994D01*
X132619877Y-54809598D01*
X132774598Y-54654877D01*
X132900102Y-54475639D01*
X132992575Y-54277330D01*
X133049207Y-54065977D01*
X133065805Y-53876254D01*
X133068277Y-53848002D01*
X133068277Y-53847997D01*
X133060291Y-53756720D01*
X133049207Y-53630023D01*
X132992575Y-53418670D01*
X132900102Y-53220362D01*
X132900100Y-53220359D01*
X132900099Y-53220357D01*
X132774599Y-53041124D01*
X132710141Y-52976666D01*
X132619877Y-52886402D01*
X132440639Y-52760898D01*
X132429290Y-52755606D01*
X132332307Y-52710382D01*
X132279867Y-52664210D01*
X132260715Y-52597016D01*
X132280931Y-52530135D01*
X132332307Y-52485618D01*
X132440639Y-52435102D01*
X132619877Y-52309598D01*
X132774598Y-52154877D01*
X132900102Y-51975639D01*
X132992575Y-51777330D01*
X133010760Y-51709461D01*
X133047124Y-51649801D01*
X133109971Y-51619271D01*
X133179346Y-51627565D01*
X133218216Y-51653873D01*
X134331792Y-52767448D01*
X134365277Y-52828771D01*
X134360293Y-52898463D01*
X134353470Y-52913580D01*
X134331188Y-52955268D01*
X134331187Y-52955270D01*
X134331186Y-52955273D01*
X134323837Y-52979500D01*
X134273975Y-53143870D01*
X134254659Y-53340000D01*
X134273975Y-53536129D01*
X134331188Y-53724733D01*
X134424086Y-53898532D01*
X134424090Y-53898539D01*
X134549116Y-54050883D01*
X134701460Y-54175909D01*
X134701467Y-54175913D01*
X134875266Y-54268811D01*
X134875269Y-54268811D01*
X134875273Y-54268814D01*
X135063868Y-54326024D01*
X135260000Y-54345341D01*
X135456132Y-54326024D01*
X135644727Y-54268814D01*
X135818538Y-54175910D01*
X135970883Y-54050883D01*
X136095910Y-53898538D01*
X136161100Y-53776576D01*
X136188811Y-53724733D01*
X136188811Y-53724732D01*
X136188814Y-53724727D01*
X136246024Y-53536132D01*
X136265341Y-53340000D01*
X136246024Y-53143868D01*
X136188814Y-52955273D01*
X136188811Y-52955269D01*
X136188811Y-52955266D01*
X136095913Y-52781467D01*
X136095909Y-52781460D01*
X135975073Y-52634222D01*
X135949309Y-52579750D01*
X135933580Y-52500672D01*
X135933578Y-52500667D01*
X135880778Y-52373195D01*
X135880771Y-52373182D01*
X135804115Y-52258459D01*
X135804114Y-52258458D01*
X135706542Y-52160886D01*
X135111633Y-51565977D01*
X133166546Y-49620888D01*
X133166545Y-49620887D01*
X133051810Y-49544224D01*
X133017527Y-49530024D01*
X132963124Y-49486182D01*
X132941060Y-49419888D01*
X132952599Y-49363058D01*
X132992575Y-49277330D01*
X133049207Y-49065977D01*
X133068277Y-48848000D01*
X133049207Y-48630023D01*
X132992575Y-48418670D01*
X132900102Y-48220362D01*
X132900100Y-48220359D01*
X132900099Y-48220357D01*
X132774599Y-48041124D01*
X132774596Y-48041121D01*
X132619877Y-47886402D01*
X132440639Y-47760898D01*
X132332306Y-47710381D01*
X132279867Y-47664210D01*
X132260715Y-47597016D01*
X132280931Y-47530135D01*
X132332307Y-47485618D01*
X132440639Y-47435102D01*
X132619877Y-47309598D01*
X132774598Y-47154877D01*
X132900102Y-46975639D01*
X132992575Y-46777330D01*
X133049207Y-46565977D01*
X133068277Y-46348000D01*
X133049207Y-46130023D01*
X132992575Y-45918670D01*
X132900102Y-45720362D01*
X132900100Y-45720359D01*
X132900099Y-45720357D01*
X132774599Y-45541124D01*
X132774596Y-45541121D01*
X132619877Y-45386402D01*
X132471500Y-45282507D01*
X132440638Y-45260897D01*
X132328299Y-45208513D01*
X132242330Y-45168425D01*
X132242326Y-45168424D01*
X132242322Y-45168422D01*
X132030977Y-45111793D01*
X131813002Y-45092723D01*
X131812998Y-45092723D01*
X131667682Y-45105436D01*
X131595023Y-45111793D01*
X131595020Y-45111793D01*
X131383677Y-45168422D01*
X131383668Y-45168426D01*
X131185361Y-45260898D01*
X131185357Y-45260900D01*
X131006121Y-45386402D01*
X130851402Y-45541121D01*
X130725900Y-45720357D01*
X130725898Y-45720362D01*
X130675382Y-45828693D01*
X130629209Y-45881132D01*
X130562016Y-45900284D01*
X130495135Y-45880068D01*
X130450618Y-45828693D01*
X130443156Y-45812692D01*
X130400102Y-45720362D01*
X130400099Y-45720358D01*
X130400099Y-45720357D01*
X130274599Y-45541124D01*
X130274596Y-45541121D01*
X130119877Y-45386402D01*
X129971500Y-45282507D01*
X129940638Y-45260897D01*
X129828299Y-45208513D01*
X129742330Y-45168425D01*
X129742326Y-45168424D01*
X129742322Y-45168422D01*
X129530977Y-45111793D01*
X129313002Y-45092723D01*
X129312998Y-45092723D01*
X129167682Y-45105436D01*
X129095023Y-45111793D01*
X129095020Y-45111793D01*
X128883677Y-45168422D01*
X128883668Y-45168426D01*
X128685361Y-45260898D01*
X128685357Y-45260900D01*
X128506121Y-45386402D01*
X128351402Y-45541121D01*
X128225900Y-45720357D01*
X128225898Y-45720362D01*
X128175382Y-45828693D01*
X128129209Y-45881132D01*
X128062016Y-45900284D01*
X127995135Y-45880068D01*
X127950618Y-45828693D01*
X127943156Y-45812692D01*
X127900102Y-45720362D01*
X127900099Y-45720358D01*
X127900099Y-45720357D01*
X127774599Y-45541124D01*
X127774596Y-45541121D01*
X127619877Y-45386402D01*
X127471500Y-45282507D01*
X127440638Y-45260897D01*
X127328299Y-45208513D01*
X127242330Y-45168425D01*
X127242326Y-45168424D01*
X127242322Y-45168422D01*
X127030977Y-45111793D01*
X126813002Y-45092723D01*
X126812998Y-45092723D01*
X126667682Y-45105436D01*
X126595023Y-45111793D01*
X126595020Y-45111793D01*
X126383677Y-45168422D01*
X126383668Y-45168426D01*
X126185361Y-45260898D01*
X126185357Y-45260900D01*
X126006121Y-45386402D01*
X125851402Y-45541121D01*
X125725900Y-45720357D01*
X125725898Y-45720362D01*
X125675382Y-45828693D01*
X125629209Y-45881132D01*
X125562016Y-45900284D01*
X125495135Y-45880068D01*
X125450618Y-45828693D01*
X125443156Y-45812692D01*
X125400102Y-45720362D01*
X125400099Y-45720358D01*
X125400099Y-45720357D01*
X125274599Y-45541124D01*
X125274596Y-45541121D01*
X125119877Y-45386402D01*
X124971500Y-45282507D01*
X124940638Y-45260897D01*
X124828299Y-45208513D01*
X124742330Y-45168425D01*
X124742326Y-45168424D01*
X124742322Y-45168422D01*
X124530977Y-45111793D01*
X124313002Y-45092723D01*
X124312998Y-45092723D01*
X124167682Y-45105436D01*
X124095023Y-45111793D01*
X124095020Y-45111793D01*
X123883677Y-45168422D01*
X123883668Y-45168426D01*
X123685361Y-45260898D01*
X123685357Y-45260900D01*
X123506121Y-45386402D01*
X123351402Y-45541121D01*
X123225900Y-45720357D01*
X123225898Y-45720362D01*
X123175382Y-45828693D01*
X123129209Y-45881132D01*
X123062016Y-45900284D01*
X122995135Y-45880068D01*
X122950618Y-45828693D01*
X122943156Y-45812692D01*
X122900102Y-45720362D01*
X122900099Y-45720358D01*
X122900099Y-45720357D01*
X122774599Y-45541124D01*
X122774596Y-45541121D01*
X122619877Y-45386402D01*
X122471500Y-45282507D01*
X122440638Y-45260897D01*
X122328299Y-45208513D01*
X122242330Y-45168425D01*
X122242326Y-45168424D01*
X122242322Y-45168422D01*
X122030977Y-45111793D01*
X121813002Y-45092723D01*
X121812998Y-45092723D01*
X121667682Y-45105436D01*
X121595023Y-45111793D01*
X121595020Y-45111793D01*
X121383677Y-45168422D01*
X121383668Y-45168426D01*
X121185361Y-45260898D01*
X121185357Y-45260900D01*
X121006121Y-45386402D01*
X120851402Y-45541121D01*
X120725900Y-45720357D01*
X120725898Y-45720362D01*
X120675382Y-45828693D01*
X120629209Y-45881132D01*
X120562016Y-45900284D01*
X120495135Y-45880068D01*
X120450618Y-45828693D01*
X120443156Y-45812692D01*
X120400102Y-45720362D01*
X120400099Y-45720358D01*
X120400099Y-45720357D01*
X120274599Y-45541124D01*
X120274596Y-45541121D01*
X120119877Y-45386402D01*
X120104375Y-45375547D01*
X120063375Y-45346838D01*
X120019751Y-45292260D01*
X120010500Y-45245264D01*
X120010500Y-45114016D01*
X120030185Y-45046977D01*
X120082989Y-45001222D01*
X120095488Y-44996313D01*
X120154334Y-44976814D01*
X120303656Y-44884712D01*
X120427712Y-44760656D01*
X120519814Y-44611334D01*
X120574999Y-44444797D01*
X120585500Y-44342009D01*
X120585499Y-43766499D01*
X120605183Y-43699461D01*
X120657987Y-43653706D01*
X120709499Y-43642500D01*
X132599563Y-43642500D01*
X132666602Y-43662185D01*
G37*
%TD.AperFunction*%
%TA.AperFunction,Conductor*%
G36*
X152674677Y-38754685D02*
G01*
X152695319Y-38771319D01*
X156178681Y-42254681D01*
X156212166Y-42316004D01*
X156215000Y-42342362D01*
X156215000Y-140283638D01*
X156195315Y-140350677D01*
X156178681Y-140371319D01*
X152695319Y-143854681D01*
X152633996Y-143888166D01*
X152607638Y-143891000D01*
X81082362Y-143891000D01*
X81015323Y-143871315D01*
X80994681Y-143854681D01*
X77511319Y-140371319D01*
X77477834Y-140309996D01*
X77475000Y-140283638D01*
X77475000Y-75818993D01*
X84197700Y-75818993D01*
X84197700Y-75819006D01*
X84216864Y-76050297D01*
X84216866Y-76050308D01*
X84273842Y-76275300D01*
X84367075Y-76487848D01*
X84494016Y-76682147D01*
X84494019Y-76682151D01*
X84494021Y-76682153D01*
X84651216Y-76852913D01*
X84651219Y-76852915D01*
X84651222Y-76852918D01*
X84828818Y-76991147D01*
X84869631Y-77047857D01*
X84873306Y-77117630D01*
X84838674Y-77178313D01*
X84828818Y-77186853D01*
X84651222Y-77325081D01*
X84651219Y-77325084D01*
X84494016Y-77495852D01*
X84367075Y-77690151D01*
X84273842Y-77902699D01*
X84216866Y-78127691D01*
X84216864Y-78127702D01*
X84197700Y-78358993D01*
X84197700Y-78359006D01*
X84216864Y-78590297D01*
X84216866Y-78590308D01*
X84273842Y-78815300D01*
X84367075Y-79027848D01*
X84494016Y-79222147D01*
X84494019Y-79222151D01*
X84494021Y-79222153D01*
X84651216Y-79392913D01*
X84651219Y-79392915D01*
X84651222Y-79392918D01*
X84828818Y-79531147D01*
X84869631Y-79587857D01*
X84873306Y-79657630D01*
X84838674Y-79718313D01*
X84828818Y-79726853D01*
X84651222Y-79865081D01*
X84651219Y-79865084D01*
X84494016Y-80035852D01*
X84367075Y-80230151D01*
X84273842Y-80442699D01*
X84216866Y-80667691D01*
X84216864Y-80667702D01*
X84197700Y-80898993D01*
X84197700Y-80899006D01*
X84216864Y-81130297D01*
X84216866Y-81130308D01*
X84273842Y-81355300D01*
X84367075Y-81567848D01*
X84494016Y-81762147D01*
X84494019Y-81762151D01*
X84494021Y-81762153D01*
X84651216Y-81932913D01*
X84651219Y-81932915D01*
X84651222Y-81932918D01*
X84828818Y-82071147D01*
X84869631Y-82127857D01*
X84873306Y-82197630D01*
X84838674Y-82258313D01*
X84828818Y-82266853D01*
X84651222Y-82405081D01*
X84651219Y-82405084D01*
X84651216Y-82405086D01*
X84651216Y-82405087D01*
X84592267Y-82469122D01*
X84494016Y-82575852D01*
X84367075Y-82770151D01*
X84273842Y-82982699D01*
X84216866Y-83207691D01*
X84216864Y-83207702D01*
X84197700Y-83438993D01*
X84197700Y-83439006D01*
X84216864Y-83670297D01*
X84216866Y-83670308D01*
X84273842Y-83895300D01*
X84367075Y-84107848D01*
X84494016Y-84302147D01*
X84494019Y-84302151D01*
X84494021Y-84302153D01*
X84651216Y-84472913D01*
X84651219Y-84472915D01*
X84651222Y-84472918D01*
X84828818Y-84611147D01*
X84869631Y-84667857D01*
X84873306Y-84737630D01*
X84838674Y-84798313D01*
X84828818Y-84806853D01*
X84651222Y-84945081D01*
X84651219Y-84945084D01*
X84651216Y-84945086D01*
X84651216Y-84945087D01*
X84640085Y-84957179D01*
X84494016Y-85115852D01*
X84367075Y-85310151D01*
X84273842Y-85522699D01*
X84216866Y-85747691D01*
X84216864Y-85747702D01*
X84197700Y-85978993D01*
X84197700Y-85979006D01*
X84216864Y-86210297D01*
X84216866Y-86210308D01*
X84273842Y-86435300D01*
X84367075Y-86647848D01*
X84494016Y-86842147D01*
X84494019Y-86842151D01*
X84494021Y-86842153D01*
X84651216Y-87012913D01*
X84651219Y-87012915D01*
X84651222Y-87012918D01*
X84828818Y-87151147D01*
X84869631Y-87207857D01*
X84873306Y-87277630D01*
X84838674Y-87338313D01*
X84828818Y-87346853D01*
X84651222Y-87485081D01*
X84651219Y-87485084D01*
X84494016Y-87655852D01*
X84367075Y-87850151D01*
X84273842Y-88062699D01*
X84216866Y-88287691D01*
X84216864Y-88287702D01*
X84197700Y-88518993D01*
X84197700Y-88519006D01*
X84216864Y-88750297D01*
X84216866Y-88750308D01*
X84273842Y-88975300D01*
X84367075Y-89187848D01*
X84494016Y-89382147D01*
X84494019Y-89382151D01*
X84494021Y-89382153D01*
X84651216Y-89552913D01*
X84651219Y-89552915D01*
X84651222Y-89552918D01*
X84828818Y-89691147D01*
X84869631Y-89747857D01*
X84873306Y-89817630D01*
X84838674Y-89878313D01*
X84828818Y-89886853D01*
X84651222Y-90025081D01*
X84651219Y-90025084D01*
X84494016Y-90195852D01*
X84367075Y-90390151D01*
X84273842Y-90602699D01*
X84216866Y-90827691D01*
X84216864Y-90827702D01*
X84197700Y-91058993D01*
X84197700Y-91059006D01*
X84216864Y-91290297D01*
X84216866Y-91290308D01*
X84273842Y-91515300D01*
X84367075Y-91727848D01*
X84494016Y-91922147D01*
X84494019Y-91922151D01*
X84494021Y-91922153D01*
X84651216Y-92092913D01*
X84651219Y-92092915D01*
X84651222Y-92092918D01*
X84828818Y-92231147D01*
X84869631Y-92287857D01*
X84873306Y-92357630D01*
X84838674Y-92418313D01*
X84828818Y-92426853D01*
X84651222Y-92565081D01*
X84651219Y-92565084D01*
X84494016Y-92735852D01*
X84367075Y-92930151D01*
X84273842Y-93142699D01*
X84216866Y-93367691D01*
X84216864Y-93367702D01*
X84197700Y-93598993D01*
X84197700Y-93599006D01*
X84216864Y-93830297D01*
X84216866Y-93830308D01*
X84273842Y-94055300D01*
X84367075Y-94267848D01*
X84494016Y-94462147D01*
X84494019Y-94462151D01*
X84494021Y-94462153D01*
X84651216Y-94632913D01*
X84651219Y-94632915D01*
X84651222Y-94632918D01*
X84828818Y-94771147D01*
X84869631Y-94827857D01*
X84873306Y-94897630D01*
X84838674Y-94958313D01*
X84828818Y-94966853D01*
X84651222Y-95105081D01*
X84651219Y-95105084D01*
X84494016Y-95275852D01*
X84367075Y-95470151D01*
X84273842Y-95682699D01*
X84216866Y-95907691D01*
X84216864Y-95907702D01*
X84197700Y-96138993D01*
X84197700Y-96139006D01*
X84216864Y-96370297D01*
X84216866Y-96370308D01*
X84273842Y-96595300D01*
X84367075Y-96807848D01*
X84494016Y-97002147D01*
X84494019Y-97002151D01*
X84494021Y-97002153D01*
X84651216Y-97172913D01*
X84651219Y-97172915D01*
X84651222Y-97172918D01*
X84828818Y-97311147D01*
X84869631Y-97367857D01*
X84873306Y-97437630D01*
X84838674Y-97498313D01*
X84828818Y-97506853D01*
X84651222Y-97645081D01*
X84651219Y-97645084D01*
X84494016Y-97815852D01*
X84367075Y-98010151D01*
X84273842Y-98222699D01*
X84216866Y-98447691D01*
X84216864Y-98447702D01*
X84197700Y-98678993D01*
X84197700Y-98679006D01*
X84216864Y-98910297D01*
X84216866Y-98910308D01*
X84273842Y-99135300D01*
X84367075Y-99347848D01*
X84494016Y-99542147D01*
X84494019Y-99542151D01*
X84494021Y-99542153D01*
X84651216Y-99712913D01*
X84651219Y-99712915D01*
X84651222Y-99712918D01*
X84828818Y-99851147D01*
X84869631Y-99907857D01*
X84873306Y-99977630D01*
X84838674Y-100038313D01*
X84828818Y-100046853D01*
X84651222Y-100185081D01*
X84651219Y-100185084D01*
X84494016Y-100355852D01*
X84367075Y-100550151D01*
X84273842Y-100762699D01*
X84216866Y-100987691D01*
X84216864Y-100987702D01*
X84197700Y-101218993D01*
X84197700Y-101219006D01*
X84216864Y-101450297D01*
X84216866Y-101450308D01*
X84273842Y-101675300D01*
X84367075Y-101887848D01*
X84494016Y-102082147D01*
X84494019Y-102082151D01*
X84494021Y-102082153D01*
X84651216Y-102252913D01*
X84651219Y-102252915D01*
X84651222Y-102252918D01*
X84828818Y-102391147D01*
X84869631Y-102447857D01*
X84873306Y-102517630D01*
X84838674Y-102578313D01*
X84828818Y-102586853D01*
X84651222Y-102725081D01*
X84651219Y-102725084D01*
X84494016Y-102895852D01*
X84367075Y-103090151D01*
X84273842Y-103302699D01*
X84216866Y-103527691D01*
X84216864Y-103527702D01*
X84197700Y-103758993D01*
X84197700Y-103759006D01*
X84216864Y-103990297D01*
X84216866Y-103990308D01*
X84273842Y-104215300D01*
X84367075Y-104427848D01*
X84494016Y-104622147D01*
X84494019Y-104622151D01*
X84494021Y-104622153D01*
X84651216Y-104792913D01*
X84651219Y-104792915D01*
X84651222Y-104792918D01*
X84828818Y-104931147D01*
X84869631Y-104987857D01*
X84873306Y-105057630D01*
X84838674Y-105118313D01*
X84828818Y-105126853D01*
X84651222Y-105265081D01*
X84651219Y-105265084D01*
X84494016Y-105435852D01*
X84367075Y-105630151D01*
X84273842Y-105842699D01*
X84216866Y-106067691D01*
X84216864Y-106067702D01*
X84197700Y-106298993D01*
X84197700Y-106299006D01*
X84216864Y-106530297D01*
X84216866Y-106530308D01*
X84273842Y-106755300D01*
X84367075Y-106967848D01*
X84494016Y-107162147D01*
X84494019Y-107162151D01*
X84494021Y-107162153D01*
X84651216Y-107332913D01*
X84651219Y-107332915D01*
X84651222Y-107332918D01*
X84828818Y-107471147D01*
X84869631Y-107527857D01*
X84873306Y-107597630D01*
X84838674Y-107658313D01*
X84828818Y-107666853D01*
X84651222Y-107805081D01*
X84651219Y-107805084D01*
X84494016Y-107975852D01*
X84367075Y-108170151D01*
X84273842Y-108382699D01*
X84216866Y-108607691D01*
X84216864Y-108607702D01*
X84197700Y-108838993D01*
X84197700Y-108839006D01*
X84216864Y-109070297D01*
X84216866Y-109070308D01*
X84273842Y-109295300D01*
X84367075Y-109507848D01*
X84494016Y-109702147D01*
X84494019Y-109702151D01*
X84494021Y-109702153D01*
X84651216Y-109872913D01*
X84651219Y-109872915D01*
X84651222Y-109872918D01*
X84828818Y-110011147D01*
X84869631Y-110067857D01*
X84873306Y-110137630D01*
X84838674Y-110198313D01*
X84828818Y-110206853D01*
X84651222Y-110345081D01*
X84651219Y-110345084D01*
X84494016Y-110515852D01*
X84367075Y-110710151D01*
X84273842Y-110922699D01*
X84216866Y-111147691D01*
X84216864Y-111147702D01*
X84197700Y-111378993D01*
X84197700Y-111379006D01*
X84216864Y-111610297D01*
X84216866Y-111610308D01*
X84273842Y-111835300D01*
X84367075Y-112047848D01*
X84494016Y-112242147D01*
X84494019Y-112242151D01*
X84494021Y-112242153D01*
X84651216Y-112412913D01*
X84651219Y-112412915D01*
X84651222Y-112412918D01*
X84828818Y-112551147D01*
X84869631Y-112607857D01*
X84873306Y-112677630D01*
X84838674Y-112738313D01*
X84828818Y-112746853D01*
X84651222Y-112885081D01*
X84651219Y-112885084D01*
X84494016Y-113055852D01*
X84367075Y-113250151D01*
X84273842Y-113462699D01*
X84216866Y-113687691D01*
X84216864Y-113687702D01*
X84197700Y-113918993D01*
X84197700Y-113919006D01*
X84216864Y-114150297D01*
X84216866Y-114150308D01*
X84273842Y-114375300D01*
X84367075Y-114587848D01*
X84494016Y-114782147D01*
X84494019Y-114782151D01*
X84494021Y-114782153D01*
X84651216Y-114952913D01*
X84651219Y-114952915D01*
X84651222Y-114952918D01*
X84828818Y-115091147D01*
X84869631Y-115147857D01*
X84873306Y-115217630D01*
X84838674Y-115278313D01*
X84828818Y-115286853D01*
X84651222Y-115425081D01*
X84651219Y-115425084D01*
X84494016Y-115595852D01*
X84367075Y-115790151D01*
X84273842Y-116002699D01*
X84216866Y-116227691D01*
X84216864Y-116227702D01*
X84197700Y-116458993D01*
X84197700Y-116459006D01*
X84216864Y-116690297D01*
X84216866Y-116690308D01*
X84273842Y-116915300D01*
X84367075Y-117127848D01*
X84494016Y-117322147D01*
X84494019Y-117322151D01*
X84494021Y-117322153D01*
X84651216Y-117492913D01*
X84651219Y-117492915D01*
X84651222Y-117492918D01*
X84828818Y-117631147D01*
X84869631Y-117687857D01*
X84873306Y-117757630D01*
X84838674Y-117818313D01*
X84828818Y-117826853D01*
X84651222Y-117965081D01*
X84651219Y-117965084D01*
X84494016Y-118135852D01*
X84367075Y-118330151D01*
X84273842Y-118542699D01*
X84216866Y-118767691D01*
X84216864Y-118767702D01*
X84197700Y-118998993D01*
X84197700Y-118999006D01*
X84216864Y-119230297D01*
X84216866Y-119230308D01*
X84273842Y-119455300D01*
X84367075Y-119667848D01*
X84494016Y-119862147D01*
X84494019Y-119862151D01*
X84494021Y-119862153D01*
X84651216Y-120032913D01*
X84651219Y-120032915D01*
X84651222Y-120032918D01*
X84828818Y-120171147D01*
X84869631Y-120227857D01*
X84873306Y-120297630D01*
X84838674Y-120358313D01*
X84828818Y-120366853D01*
X84651222Y-120505081D01*
X84651219Y-120505084D01*
X84494016Y-120675852D01*
X84367075Y-120870151D01*
X84273842Y-121082699D01*
X84216866Y-121307691D01*
X84216864Y-121307702D01*
X84197700Y-121538993D01*
X84197700Y-121539006D01*
X84216864Y-121770297D01*
X84216866Y-121770308D01*
X84273842Y-121995300D01*
X84367075Y-122207848D01*
X84494016Y-122402147D01*
X84494019Y-122402151D01*
X84494021Y-122402153D01*
X84651216Y-122572913D01*
X84651219Y-122572915D01*
X84651222Y-122572918D01*
X84828818Y-122711147D01*
X84869631Y-122767857D01*
X84873306Y-122837630D01*
X84838674Y-122898313D01*
X84828818Y-122906853D01*
X84651222Y-123045081D01*
X84651219Y-123045084D01*
X84494016Y-123215852D01*
X84367075Y-123410151D01*
X84273842Y-123622699D01*
X84216866Y-123847691D01*
X84216864Y-123847702D01*
X84197700Y-124078993D01*
X84197700Y-124079006D01*
X84216864Y-124310297D01*
X84216866Y-124310308D01*
X84273842Y-124535300D01*
X84367075Y-124747848D01*
X84494016Y-124942147D01*
X84494019Y-124942151D01*
X84494021Y-124942153D01*
X84651216Y-125112913D01*
X84651219Y-125112915D01*
X84651222Y-125112918D01*
X84828818Y-125251147D01*
X84869631Y-125307857D01*
X84873306Y-125377630D01*
X84838674Y-125438313D01*
X84828818Y-125446853D01*
X84651222Y-125585081D01*
X84651219Y-125585084D01*
X84494016Y-125755852D01*
X84367075Y-125950151D01*
X84273842Y-126162699D01*
X84216866Y-126387691D01*
X84216864Y-126387702D01*
X84197700Y-126618993D01*
X84197700Y-126619006D01*
X84216864Y-126850297D01*
X84216866Y-126850308D01*
X84273842Y-127075300D01*
X84367075Y-127287848D01*
X84494016Y-127482147D01*
X84494019Y-127482151D01*
X84494021Y-127482153D01*
X84651216Y-127652913D01*
X84651219Y-127652915D01*
X84651222Y-127652918D01*
X84828818Y-127791147D01*
X84869631Y-127847857D01*
X84873306Y-127917630D01*
X84838674Y-127978313D01*
X84828818Y-127986853D01*
X84651222Y-128125081D01*
X84651219Y-128125084D01*
X84494016Y-128295852D01*
X84367075Y-128490151D01*
X84273842Y-128702699D01*
X84216866Y-128927691D01*
X84216864Y-128927702D01*
X84197700Y-129158993D01*
X84197700Y-129159006D01*
X84216864Y-129390297D01*
X84216866Y-129390308D01*
X84273842Y-129615300D01*
X84367075Y-129827848D01*
X84494016Y-130022147D01*
X84494019Y-130022151D01*
X84494021Y-130022153D01*
X84651216Y-130192913D01*
X84651219Y-130192915D01*
X84651222Y-130192918D01*
X84828818Y-130331147D01*
X84869631Y-130387857D01*
X84873306Y-130457630D01*
X84838674Y-130518313D01*
X84828818Y-130526853D01*
X84651222Y-130665081D01*
X84651219Y-130665084D01*
X84494016Y-130835852D01*
X84367075Y-131030151D01*
X84273842Y-131242699D01*
X84216866Y-131467691D01*
X84216864Y-131467702D01*
X84197700Y-131698993D01*
X84197700Y-131699006D01*
X84216864Y-131930297D01*
X84216866Y-131930308D01*
X84273842Y-132155300D01*
X84367075Y-132367848D01*
X84494016Y-132562147D01*
X84494019Y-132562151D01*
X84494021Y-132562153D01*
X84651216Y-132732913D01*
X84651219Y-132732915D01*
X84651222Y-132732918D01*
X84828818Y-132871147D01*
X84869631Y-132927857D01*
X84873306Y-132997630D01*
X84838674Y-133058313D01*
X84828818Y-133066853D01*
X84651222Y-133205081D01*
X84651219Y-133205084D01*
X84494016Y-133375852D01*
X84367075Y-133570151D01*
X84273842Y-133782699D01*
X84216866Y-134007691D01*
X84216864Y-134007702D01*
X84197700Y-134238993D01*
X84197700Y-134239006D01*
X84216864Y-134470297D01*
X84216866Y-134470308D01*
X84273842Y-134695300D01*
X84367075Y-134907848D01*
X84494016Y-135102147D01*
X84494019Y-135102151D01*
X84494021Y-135102153D01*
X84651216Y-135272913D01*
X84651219Y-135272915D01*
X84651222Y-135272918D01*
X84834365Y-135415464D01*
X84834371Y-135415468D01*
X84834374Y-135415470D01*
X85038497Y-135525936D01*
X85152487Y-135565068D01*
X85258015Y-135601297D01*
X85258017Y-135601297D01*
X85258019Y-135601298D01*
X85486951Y-135639500D01*
X85486952Y-135639500D01*
X85719048Y-135639500D01*
X85719049Y-135639500D01*
X85947981Y-135601298D01*
X86167503Y-135525936D01*
X86371626Y-135415470D01*
X86554784Y-135272913D01*
X86711979Y-135102153D01*
X86838924Y-134907849D01*
X86932157Y-134695300D01*
X86989134Y-134470305D01*
X86989135Y-134470297D01*
X87008300Y-134239006D01*
X87008300Y-134238993D01*
X86989135Y-134007702D01*
X86989133Y-134007691D01*
X86932157Y-133782699D01*
X86838924Y-133570151D01*
X86711983Y-133375852D01*
X86711980Y-133375849D01*
X86711979Y-133375847D01*
X86554784Y-133205087D01*
X86377180Y-133066853D01*
X86336368Y-133010143D01*
X86332693Y-132940370D01*
X86367324Y-132879687D01*
X86377181Y-132871146D01*
X86381407Y-132867857D01*
X86554784Y-132732913D01*
X86711979Y-132562153D01*
X86838924Y-132367849D01*
X86932157Y-132155300D01*
X86989134Y-131930305D01*
X86989135Y-131930297D01*
X87008300Y-131699006D01*
X87008300Y-131698993D01*
X86989135Y-131467702D01*
X86989133Y-131467691D01*
X86932157Y-131242699D01*
X86838924Y-131030151D01*
X86711983Y-130835852D01*
X86711980Y-130835849D01*
X86711979Y-130835847D01*
X86554784Y-130665087D01*
X86377180Y-130526853D01*
X86336368Y-130470143D01*
X86332693Y-130400370D01*
X86367324Y-130339687D01*
X86377181Y-130331146D01*
X86381407Y-130327857D01*
X86554784Y-130192913D01*
X86711979Y-130022153D01*
X86838924Y-129827849D01*
X86932157Y-129615300D01*
X86989134Y-129390305D01*
X86989135Y-129390297D01*
X87008300Y-129159006D01*
X87008300Y-129158993D01*
X86989135Y-128927702D01*
X86989133Y-128927691D01*
X86932157Y-128702699D01*
X86894332Y-128616467D01*
X86885429Y-128547167D01*
X86915406Y-128484055D01*
X86920189Y-128478994D01*
X91735114Y-123664071D01*
X91811775Y-123549339D01*
X91864580Y-123421856D01*
X91878843Y-123350151D01*
X91891500Y-123286524D01*
X91891500Y-110903000D01*
X124829540Y-110903000D01*
X124849326Y-111091256D01*
X124849327Y-111091259D01*
X124907818Y-111271277D01*
X124907821Y-111271284D01*
X125002467Y-111435216D01*
X125106087Y-111550297D01*
X125129129Y-111575888D01*
X125282265Y-111687148D01*
X125282270Y-111687151D01*
X125455192Y-111764142D01*
X125455197Y-111764144D01*
X125640354Y-111803500D01*
X125640355Y-111803500D01*
X125829644Y-111803500D01*
X125829646Y-111803500D01*
X126014803Y-111764144D01*
X126187730Y-111687151D01*
X126340871Y-111575888D01*
X126467533Y-111435216D01*
X126562179Y-111271284D01*
X126620674Y-111091256D01*
X126640460Y-110903000D01*
X126620674Y-110714744D01*
X126562179Y-110534716D01*
X126467533Y-110370784D01*
X126392350Y-110287284D01*
X126362120Y-110224292D01*
X126360500Y-110204312D01*
X126360500Y-110165452D01*
X126380185Y-110098413D01*
X126396819Y-110077771D01*
X128760854Y-107713737D01*
X128760857Y-107713734D01*
X128792182Y-107666853D01*
X128829311Y-107611286D01*
X128876463Y-107497452D01*
X128900500Y-107376607D01*
X128900500Y-107253394D01*
X128900500Y-106937687D01*
X128920185Y-106870648D01*
X128932350Y-106854715D01*
X128950891Y-106834122D01*
X129007533Y-106771216D01*
X129102179Y-106607284D01*
X129160674Y-106427256D01*
X129180460Y-106239000D01*
X129160674Y-106050744D01*
X129102179Y-105870716D01*
X129007533Y-105706784D01*
X128880871Y-105566112D01*
X128880870Y-105566111D01*
X128727734Y-105454851D01*
X128727729Y-105454848D01*
X128554807Y-105377857D01*
X128554802Y-105377855D01*
X128409001Y-105346865D01*
X128369646Y-105338500D01*
X128180354Y-105338500D01*
X128147897Y-105345398D01*
X127995197Y-105377855D01*
X127995192Y-105377857D01*
X127822270Y-105454848D01*
X127822265Y-105454851D01*
X127669129Y-105566111D01*
X127542466Y-105706785D01*
X127447821Y-105870715D01*
X127447818Y-105870722D01*
X127403311Y-106007702D01*
X127389326Y-106050744D01*
X127369540Y-106239000D01*
X127389326Y-106427256D01*
X127389327Y-106427259D01*
X127447818Y-106607277D01*
X127447821Y-106607284D01*
X127542467Y-106771216D01*
X127585772Y-106819310D01*
X127617650Y-106854715D01*
X127647880Y-106917706D01*
X127649500Y-106937687D01*
X127649500Y-107004547D01*
X127629815Y-107071586D01*
X127613181Y-107092228D01*
X125249144Y-109456264D01*
X125249138Y-109456272D01*
X125180690Y-109558708D01*
X125180688Y-109558713D01*
X125133540Y-109672538D01*
X125133535Y-109672554D01*
X125112264Y-109779497D01*
X125112263Y-109779502D01*
X125109500Y-109793389D01*
X125109500Y-110204312D01*
X125089815Y-110271351D01*
X125077650Y-110287284D01*
X125002466Y-110370784D01*
X124907821Y-110534715D01*
X124907818Y-110534722D01*
X124850818Y-110710151D01*
X124849326Y-110714744D01*
X124829540Y-110903000D01*
X91891500Y-110903000D01*
X91891500Y-99568993D01*
X107617700Y-99568993D01*
X107617700Y-99569006D01*
X107636864Y-99800297D01*
X107636866Y-99800308D01*
X107693842Y-100025300D01*
X107787075Y-100237848D01*
X107914016Y-100432147D01*
X107914019Y-100432151D01*
X107914021Y-100432153D01*
X108071216Y-100602913D01*
X108071219Y-100602915D01*
X108071222Y-100602918D01*
X108248818Y-100741147D01*
X108289631Y-100797857D01*
X108293306Y-100867630D01*
X108258674Y-100928313D01*
X108248818Y-100936853D01*
X108071222Y-101075081D01*
X108071219Y-101075084D01*
X107914016Y-101245852D01*
X107787075Y-101440151D01*
X107693842Y-101652699D01*
X107636866Y-101877691D01*
X107636864Y-101877702D01*
X107617700Y-102108993D01*
X107617700Y-102109006D01*
X107636864Y-102340297D01*
X107636866Y-102340308D01*
X107693842Y-102565300D01*
X107787075Y-102777848D01*
X107914016Y-102972147D01*
X107914019Y-102972151D01*
X107914021Y-102972153D01*
X108071216Y-103142913D01*
X108071219Y-103142915D01*
X108071222Y-103142918D01*
X108254365Y-103285464D01*
X108254371Y-103285468D01*
X108254374Y-103285470D01*
X108458497Y-103395936D01*
X108572487Y-103435068D01*
X108678015Y-103471297D01*
X108678017Y-103471297D01*
X108678019Y-103471298D01*
X108906951Y-103509500D01*
X108906952Y-103509500D01*
X109139048Y-103509500D01*
X109139049Y-103509500D01*
X109367981Y-103471298D01*
X109587503Y-103395936D01*
X109791626Y-103285470D01*
X109974784Y-103142913D01*
X110131979Y-102972153D01*
X110189191Y-102884582D01*
X110242337Y-102839226D01*
X110311568Y-102829802D01*
X110374904Y-102859304D01*
X110396809Y-102884583D01*
X110454016Y-102972147D01*
X110454019Y-102972151D01*
X110454021Y-102972153D01*
X110611216Y-103142913D01*
X110611219Y-103142915D01*
X110611222Y-103142918D01*
X110794365Y-103285464D01*
X110794371Y-103285468D01*
X110794374Y-103285470D01*
X110998497Y-103395936D01*
X111112487Y-103435068D01*
X111218015Y-103471297D01*
X111218017Y-103471297D01*
X111218019Y-103471298D01*
X111446951Y-103509500D01*
X111446952Y-103509500D01*
X111679048Y-103509500D01*
X111679049Y-103509500D01*
X111907981Y-103471298D01*
X112127503Y-103395936D01*
X112331626Y-103285470D01*
X112514784Y-103142913D01*
X112671979Y-102972153D01*
X112729191Y-102884582D01*
X112782337Y-102839226D01*
X112851568Y-102829802D01*
X112914904Y-102859304D01*
X112936809Y-102884583D01*
X112994016Y-102972147D01*
X112994019Y-102972151D01*
X112994021Y-102972153D01*
X113151216Y-103142913D01*
X113151219Y-103142915D01*
X113151222Y-103142918D01*
X113334365Y-103285464D01*
X113334371Y-103285468D01*
X113334374Y-103285470D01*
X113538497Y-103395936D01*
X113652487Y-103435068D01*
X113758015Y-103471297D01*
X113758017Y-103471297D01*
X113758019Y-103471298D01*
X113986951Y-103509500D01*
X113986952Y-103509500D01*
X114219048Y-103509500D01*
X114219049Y-103509500D01*
X114447981Y-103471298D01*
X114667503Y-103395936D01*
X114871626Y-103285470D01*
X115054784Y-103142913D01*
X115211979Y-102972153D01*
X115269191Y-102884582D01*
X115322337Y-102839226D01*
X115391568Y-102829802D01*
X115454904Y-102859304D01*
X115476809Y-102884583D01*
X115534016Y-102972147D01*
X115534019Y-102972151D01*
X115534021Y-102972153D01*
X115691216Y-103142913D01*
X115691219Y-103142915D01*
X115691222Y-103142918D01*
X115874365Y-103285464D01*
X115874371Y-103285468D01*
X115874374Y-103285470D01*
X116078497Y-103395936D01*
X116192487Y-103435068D01*
X116298015Y-103471297D01*
X116298017Y-103471297D01*
X116298019Y-103471298D01*
X116526951Y-103509500D01*
X116526952Y-103509500D01*
X116759048Y-103509500D01*
X116759049Y-103509500D01*
X116987981Y-103471298D01*
X117207503Y-103395936D01*
X117411626Y-103285470D01*
X117594784Y-103142913D01*
X117751979Y-102972153D01*
X117809191Y-102884582D01*
X117862337Y-102839226D01*
X117931568Y-102829802D01*
X117994904Y-102859304D01*
X118016809Y-102884583D01*
X118074016Y-102972147D01*
X118074019Y-102972151D01*
X118074021Y-102972153D01*
X118231216Y-103142913D01*
X118231219Y-103142915D01*
X118231222Y-103142918D01*
X118414365Y-103285464D01*
X118414371Y-103285468D01*
X118414374Y-103285470D01*
X118618497Y-103395936D01*
X118732487Y-103435068D01*
X118838015Y-103471297D01*
X118838017Y-103471297D01*
X118838019Y-103471298D01*
X119066951Y-103509500D01*
X119066952Y-103509500D01*
X119299048Y-103509500D01*
X119299049Y-103509500D01*
X119527981Y-103471298D01*
X119747503Y-103395936D01*
X119951626Y-103285470D01*
X120134784Y-103142913D01*
X120291979Y-102972153D01*
X120349191Y-102884582D01*
X120402337Y-102839226D01*
X120471568Y-102829802D01*
X120534904Y-102859304D01*
X120556809Y-102884583D01*
X120614016Y-102972147D01*
X120614019Y-102972151D01*
X120614021Y-102972153D01*
X120771216Y-103142913D01*
X120771219Y-103142915D01*
X120771222Y-103142918D01*
X120954365Y-103285464D01*
X120954371Y-103285468D01*
X120954374Y-103285470D01*
X121158497Y-103395936D01*
X121272487Y-103435068D01*
X121378015Y-103471297D01*
X121378017Y-103471297D01*
X121378019Y-103471298D01*
X121606951Y-103509500D01*
X121606952Y-103509500D01*
X121839048Y-103509500D01*
X121839049Y-103509500D01*
X122067981Y-103471298D01*
X122287503Y-103395936D01*
X122491626Y-103285470D01*
X122674784Y-103142913D01*
X122831979Y-102972153D01*
X122889191Y-102884582D01*
X122942337Y-102839226D01*
X123011568Y-102829802D01*
X123074904Y-102859304D01*
X123096809Y-102884583D01*
X123154016Y-102972147D01*
X123154019Y-102972151D01*
X123154021Y-102972153D01*
X123311216Y-103142913D01*
X123311219Y-103142915D01*
X123311222Y-103142918D01*
X123494365Y-103285464D01*
X123494371Y-103285468D01*
X123494374Y-103285470D01*
X123698497Y-103395936D01*
X123812487Y-103435068D01*
X123918015Y-103471297D01*
X123918017Y-103471297D01*
X123918019Y-103471298D01*
X124146951Y-103509500D01*
X124146952Y-103509500D01*
X124379048Y-103509500D01*
X124379049Y-103509500D01*
X124607981Y-103471298D01*
X124827503Y-103395936D01*
X125031626Y-103285470D01*
X125214784Y-103142913D01*
X125371979Y-102972153D01*
X125498924Y-102777849D01*
X125592157Y-102565300D01*
X125649134Y-102340305D01*
X125649135Y-102340297D01*
X125668300Y-102109006D01*
X125668300Y-102108993D01*
X125649135Y-101877702D01*
X125649133Y-101877691D01*
X125592157Y-101652699D01*
X125498924Y-101440151D01*
X125371983Y-101245852D01*
X125371980Y-101245849D01*
X125371979Y-101245847D01*
X125214784Y-101075087D01*
X125214779Y-101075083D01*
X125214777Y-101075081D01*
X125031634Y-100932535D01*
X125031628Y-100932531D01*
X124827504Y-100822064D01*
X124827495Y-100822061D01*
X124607984Y-100746702D01*
X124436282Y-100718050D01*
X124379049Y-100708500D01*
X124146951Y-100708500D01*
X124101164Y-100716140D01*
X123918015Y-100746702D01*
X123698504Y-100822061D01*
X123698495Y-100822064D01*
X123494371Y-100932531D01*
X123494365Y-100932535D01*
X123311222Y-101075081D01*
X123311219Y-101075084D01*
X123154016Y-101245852D01*
X123096809Y-101333416D01*
X123043662Y-101378773D01*
X122974431Y-101388197D01*
X122911095Y-101358695D01*
X122889191Y-101333416D01*
X122831983Y-101245852D01*
X122831980Y-101245849D01*
X122831979Y-101245847D01*
X122674784Y-101075087D01*
X122497180Y-100936853D01*
X122456368Y-100880143D01*
X122452693Y-100810370D01*
X122487324Y-100749687D01*
X122497181Y-100741146D01*
X122674784Y-100602913D01*
X122831979Y-100432153D01*
X122958924Y-100237849D01*
X123052157Y-100025300D01*
X123109134Y-99800305D01*
X123109135Y-99800297D01*
X123128300Y-99569006D01*
X123128300Y-99568993D01*
X123109135Y-99337702D01*
X123109133Y-99337691D01*
X123052157Y-99112699D01*
X122958924Y-98900151D01*
X122831983Y-98705852D01*
X122831980Y-98705849D01*
X122831979Y-98705847D01*
X122674784Y-98535087D01*
X122674779Y-98535083D01*
X122674777Y-98535081D01*
X122491634Y-98392535D01*
X122491628Y-98392531D01*
X122287504Y-98282064D01*
X122287495Y-98282061D01*
X122067984Y-98206702D01*
X121896282Y-98178050D01*
X121839049Y-98168500D01*
X121606951Y-98168500D01*
X121561164Y-98176140D01*
X121378015Y-98206702D01*
X121158504Y-98282061D01*
X121158495Y-98282064D01*
X120954371Y-98392531D01*
X120954365Y-98392535D01*
X120771222Y-98535081D01*
X120771219Y-98535084D01*
X120614016Y-98705852D01*
X120556809Y-98793416D01*
X120503662Y-98838773D01*
X120434431Y-98848197D01*
X120371095Y-98818695D01*
X120349191Y-98793416D01*
X120291983Y-98705852D01*
X120291980Y-98705849D01*
X120291979Y-98705847D01*
X120134784Y-98535087D01*
X120134779Y-98535083D01*
X120134777Y-98535081D01*
X119951634Y-98392535D01*
X119951628Y-98392531D01*
X119747504Y-98282064D01*
X119747495Y-98282061D01*
X119527984Y-98206702D01*
X119356282Y-98178050D01*
X119299049Y-98168500D01*
X119066951Y-98168500D01*
X119021164Y-98176140D01*
X118838015Y-98206702D01*
X118618504Y-98282061D01*
X118618495Y-98282064D01*
X118414371Y-98392531D01*
X118414365Y-98392535D01*
X118231222Y-98535081D01*
X118231219Y-98535084D01*
X118074016Y-98705852D01*
X118016809Y-98793416D01*
X117963662Y-98838773D01*
X117894431Y-98848197D01*
X117831095Y-98818695D01*
X117809191Y-98793416D01*
X117751983Y-98705852D01*
X117751980Y-98705849D01*
X117751979Y-98705847D01*
X117594784Y-98535087D01*
X117594779Y-98535083D01*
X117594777Y-98535081D01*
X117411634Y-98392535D01*
X117411628Y-98392531D01*
X117207504Y-98282064D01*
X117207495Y-98282061D01*
X116987984Y-98206702D01*
X116816282Y-98178050D01*
X116759049Y-98168500D01*
X116526951Y-98168500D01*
X116481164Y-98176140D01*
X116298015Y-98206702D01*
X116078504Y-98282061D01*
X116078495Y-98282064D01*
X115874371Y-98392531D01*
X115874365Y-98392535D01*
X115691222Y-98535081D01*
X115691219Y-98535084D01*
X115534016Y-98705852D01*
X115476809Y-98793416D01*
X115423662Y-98838773D01*
X115354431Y-98848197D01*
X115291095Y-98818695D01*
X115269191Y-98793416D01*
X115211983Y-98705852D01*
X115211980Y-98705849D01*
X115211979Y-98705847D01*
X115054784Y-98535087D01*
X115054779Y-98535083D01*
X115054777Y-98535081D01*
X114871634Y-98392535D01*
X114871628Y-98392531D01*
X114667504Y-98282064D01*
X114667495Y-98282061D01*
X114447984Y-98206702D01*
X114276282Y-98178050D01*
X114219049Y-98168500D01*
X113986951Y-98168500D01*
X113941164Y-98176140D01*
X113758015Y-98206702D01*
X113538504Y-98282061D01*
X113538495Y-98282064D01*
X113334371Y-98392531D01*
X113334365Y-98392535D01*
X113151222Y-98535081D01*
X113151219Y-98535084D01*
X112994016Y-98705852D01*
X112936809Y-98793416D01*
X112883662Y-98838773D01*
X112814431Y-98848197D01*
X112751095Y-98818695D01*
X112729191Y-98793416D01*
X112671983Y-98705852D01*
X112671980Y-98705849D01*
X112671979Y-98705847D01*
X112514784Y-98535087D01*
X112514779Y-98535083D01*
X112514777Y-98535081D01*
X112331634Y-98392535D01*
X112331628Y-98392531D01*
X112127504Y-98282064D01*
X112127495Y-98282061D01*
X111907984Y-98206702D01*
X111736282Y-98178050D01*
X111679049Y-98168500D01*
X111446951Y-98168500D01*
X111401164Y-98176140D01*
X111218015Y-98206702D01*
X110998504Y-98282061D01*
X110998495Y-98282064D01*
X110794371Y-98392531D01*
X110794365Y-98392535D01*
X110611222Y-98535081D01*
X110611219Y-98535084D01*
X110454016Y-98705852D01*
X110396809Y-98793416D01*
X110343662Y-98838773D01*
X110274431Y-98848197D01*
X110211095Y-98818695D01*
X110189191Y-98793416D01*
X110131983Y-98705852D01*
X110131980Y-98705849D01*
X110131979Y-98705847D01*
X109974784Y-98535087D01*
X109974779Y-98535083D01*
X109974777Y-98535081D01*
X109791634Y-98392535D01*
X109791628Y-98392531D01*
X109587504Y-98282064D01*
X109587495Y-98282061D01*
X109367984Y-98206702D01*
X109196282Y-98178050D01*
X109139049Y-98168500D01*
X108906951Y-98168500D01*
X108861164Y-98176140D01*
X108678015Y-98206702D01*
X108458504Y-98282061D01*
X108458495Y-98282064D01*
X108254371Y-98392531D01*
X108254365Y-98392535D01*
X108071222Y-98535081D01*
X108071219Y-98535084D01*
X107914016Y-98705852D01*
X107787075Y-98900151D01*
X107693842Y-99112699D01*
X107636866Y-99337691D01*
X107636864Y-99337702D01*
X107617700Y-99568993D01*
X91891500Y-99568993D01*
X91891500Y-96040519D01*
X91911185Y-95973480D01*
X91927819Y-95952838D01*
X92197958Y-95682699D01*
X92523975Y-95356681D01*
X92585296Y-95323198D01*
X92585362Y-95323183D01*
X92740803Y-95290144D01*
X92740807Y-95290142D01*
X92740808Y-95290142D01*
X92818003Y-95255772D01*
X92913730Y-95213151D01*
X93066871Y-95101888D01*
X93193533Y-94961216D01*
X93288179Y-94797284D01*
X93346674Y-94617256D01*
X93366460Y-94429000D01*
X93346674Y-94240744D01*
X93288179Y-94060716D01*
X93193533Y-93896784D01*
X93066871Y-93756112D01*
X93066870Y-93756111D01*
X92913734Y-93644851D01*
X92913729Y-93644848D01*
X92740807Y-93567857D01*
X92740802Y-93567855D01*
X92595001Y-93536865D01*
X92555646Y-93528500D01*
X92366354Y-93528500D01*
X92333897Y-93535398D01*
X92181197Y-93567855D01*
X92181192Y-93567857D01*
X92008270Y-93644848D01*
X92008265Y-93644851D01*
X91855129Y-93756111D01*
X91728466Y-93896785D01*
X91633821Y-94060715D01*
X91633818Y-94060722D01*
X91575327Y-94240739D01*
X91575325Y-94240750D01*
X91570134Y-94290129D01*
X91543549Y-94354743D01*
X91534495Y-94364846D01*
X91468180Y-94431161D01*
X91406859Y-94464646D01*
X91337167Y-94459662D01*
X91281233Y-94417791D01*
X91256816Y-94352327D01*
X91256500Y-94343480D01*
X91256500Y-82486135D01*
X96575500Y-82486135D01*
X96575500Y-84781870D01*
X96575501Y-84781876D01*
X96581908Y-84841483D01*
X96632202Y-84976328D01*
X96632206Y-84976335D01*
X96718452Y-85091544D01*
X96718455Y-85091547D01*
X96833664Y-85177793D01*
X96833671Y-85177797D01*
X96968517Y-85228091D01*
X96968516Y-85228091D01*
X96975444Y-85228835D01*
X97028127Y-85234500D01*
X99323872Y-85234499D01*
X99383483Y-85228091D01*
X99518331Y-85177796D01*
X99633546Y-85091546D01*
X99719796Y-84976331D01*
X99770091Y-84841483D01*
X99776500Y-84781873D01*
X99776499Y-82486128D01*
X99770091Y-82426517D01*
X99768779Y-82423000D01*
X99719797Y-82291671D01*
X99719793Y-82291664D01*
X99633547Y-82176455D01*
X99633544Y-82176452D01*
X99518335Y-82090206D01*
X99518328Y-82090202D01*
X99383482Y-82039908D01*
X99383483Y-82039908D01*
X99323883Y-82033501D01*
X99323881Y-82033500D01*
X99323873Y-82033500D01*
X99323864Y-82033500D01*
X97028129Y-82033500D01*
X97028123Y-82033501D01*
X96968516Y-82039908D01*
X96833671Y-82090202D01*
X96833664Y-82090206D01*
X96718455Y-82176452D01*
X96718452Y-82176455D01*
X96632206Y-82291664D01*
X96632202Y-82291671D01*
X96581908Y-82426517D01*
X96575501Y-82486116D01*
X96575501Y-82486123D01*
X96575500Y-82486135D01*
X91256500Y-82486135D01*
X91256500Y-80800519D01*
X91276185Y-80733480D01*
X91292819Y-80712838D01*
X91895971Y-80109686D01*
X92523975Y-79481681D01*
X92585296Y-79448198D01*
X92585362Y-79448183D01*
X92740803Y-79415144D01*
X92740807Y-79415142D01*
X92740808Y-79415142D01*
X92799058Y-79389206D01*
X92913730Y-79338151D01*
X93066871Y-79226888D01*
X93193533Y-79086216D01*
X93288179Y-78922284D01*
X93346674Y-78742256D01*
X93366460Y-78554000D01*
X93346674Y-78365744D01*
X93288179Y-78185716D01*
X93193533Y-78021784D01*
X93066871Y-77881112D01*
X93066870Y-77881111D01*
X92913734Y-77769851D01*
X92913729Y-77769848D01*
X92740807Y-77692857D01*
X92740802Y-77692855D01*
X92595001Y-77661865D01*
X92555646Y-77653500D01*
X92366354Y-77653500D01*
X92333897Y-77660398D01*
X92181197Y-77692855D01*
X92181192Y-77692857D01*
X92008270Y-77769848D01*
X92008265Y-77769851D01*
X91855129Y-77881111D01*
X91728466Y-78021785D01*
X91633821Y-78185715D01*
X91633818Y-78185722D01*
X91575327Y-78365739D01*
X91575325Y-78365750D01*
X91570134Y-78415129D01*
X91543549Y-78479743D01*
X91534495Y-78489846D01*
X90885181Y-79139161D01*
X90823858Y-79172646D01*
X90754167Y-79167662D01*
X90698233Y-79125791D01*
X90673816Y-79060326D01*
X90673500Y-79051480D01*
X90673500Y-66611135D01*
X96575500Y-66611135D01*
X96575500Y-68906870D01*
X96575501Y-68906876D01*
X96581908Y-68966483D01*
X96632202Y-69101328D01*
X96632206Y-69101335D01*
X96718452Y-69216544D01*
X96718455Y-69216547D01*
X96833664Y-69302793D01*
X96833671Y-69302797D01*
X96968517Y-69353091D01*
X96968516Y-69353091D01*
X96975444Y-69353835D01*
X97028127Y-69359500D01*
X99323872Y-69359499D01*
X99383483Y-69353091D01*
X99518331Y-69302796D01*
X99633546Y-69216546D01*
X99719796Y-69101331D01*
X99770091Y-68966483D01*
X99776500Y-68906873D01*
X99776499Y-66611128D01*
X99770091Y-66551517D01*
X99719796Y-66416669D01*
X99719795Y-66416668D01*
X99719793Y-66416664D01*
X99633547Y-66301455D01*
X99633544Y-66301452D01*
X99518335Y-66215206D01*
X99518328Y-66215202D01*
X99383482Y-66164908D01*
X99383483Y-66164908D01*
X99323883Y-66158501D01*
X99323881Y-66158500D01*
X99323873Y-66158500D01*
X99323864Y-66158500D01*
X97028129Y-66158500D01*
X97028123Y-66158501D01*
X96968516Y-66164908D01*
X96833671Y-66215202D01*
X96833664Y-66215206D01*
X96718455Y-66301452D01*
X96718452Y-66301455D01*
X96632206Y-66416664D01*
X96632202Y-66416671D01*
X96581908Y-66551517D01*
X96575501Y-66611116D01*
X96575501Y-66611123D01*
X96575500Y-66611135D01*
X90673500Y-66611135D01*
X90673500Y-65849687D01*
X90693185Y-65782648D01*
X90705350Y-65766715D01*
X90723891Y-65746122D01*
X90780533Y-65683216D01*
X90875179Y-65519284D01*
X90933674Y-65339256D01*
X90953460Y-65151000D01*
X90933674Y-64962744D01*
X90875179Y-64782716D01*
X90780533Y-64618784D01*
X90653871Y-64478112D01*
X90653870Y-64478111D01*
X90500734Y-64366851D01*
X90500729Y-64366848D01*
X90327807Y-64289857D01*
X90327802Y-64289855D01*
X90182001Y-64258865D01*
X90142646Y-64250500D01*
X89953354Y-64250500D01*
X89920897Y-64257398D01*
X89768197Y-64289855D01*
X89768192Y-64289857D01*
X89595270Y-64366848D01*
X89595265Y-64366851D01*
X89442129Y-64478111D01*
X89315466Y-64618785D01*
X89220821Y-64782715D01*
X89220818Y-64782722D01*
X89162327Y-64962740D01*
X89162326Y-64962744D01*
X89142540Y-65151000D01*
X89162326Y-65339256D01*
X89162327Y-65339259D01*
X89220818Y-65519277D01*
X89220821Y-65519284D01*
X89315467Y-65683216D01*
X89358772Y-65731310D01*
X89390650Y-65766715D01*
X89420880Y-65829706D01*
X89422500Y-65849687D01*
X89422500Y-79572547D01*
X89402815Y-79639586D01*
X89386181Y-79660228D01*
X89141269Y-79905140D01*
X89141267Y-79905142D01*
X89097704Y-79948705D01*
X89054141Y-79992267D01*
X89040649Y-80012458D01*
X89040650Y-80012459D01*
X88985686Y-80094717D01*
X88985685Y-80094718D01*
X88952347Y-80175207D01*
X88946823Y-80188543D01*
X88938537Y-80208545D01*
X88938535Y-80208553D01*
X88914500Y-80329389D01*
X88914500Y-101934547D01*
X88894815Y-102001586D01*
X88878181Y-102022228D01*
X87207651Y-103692757D01*
X87146328Y-103726242D01*
X87076636Y-103721258D01*
X87020703Y-103679386D01*
X86996394Y-103615319D01*
X86989134Y-103527695D01*
X86932157Y-103302700D01*
X86924599Y-103285470D01*
X86838924Y-103090151D01*
X86711983Y-102895852D01*
X86711980Y-102895849D01*
X86711979Y-102895847D01*
X86554784Y-102725087D01*
X86377180Y-102586853D01*
X86336368Y-102530143D01*
X86332693Y-102460370D01*
X86367324Y-102399687D01*
X86377181Y-102391146D01*
X86381407Y-102387857D01*
X86554784Y-102252913D01*
X86711979Y-102082153D01*
X86838924Y-101887849D01*
X86932157Y-101675300D01*
X86989134Y-101450305D01*
X86989135Y-101450297D01*
X87008300Y-101219006D01*
X87008300Y-101218993D01*
X86989135Y-100987702D01*
X86989133Y-100987691D01*
X86932157Y-100762699D01*
X86838924Y-100550151D01*
X86711983Y-100355852D01*
X86711980Y-100355849D01*
X86711979Y-100355847D01*
X86554784Y-100185087D01*
X86377180Y-100046853D01*
X86336368Y-99990143D01*
X86332693Y-99920370D01*
X86367324Y-99859687D01*
X86377181Y-99851146D01*
X86554784Y-99712913D01*
X86711979Y-99542153D01*
X86838924Y-99347849D01*
X86932157Y-99135300D01*
X86989134Y-98910305D01*
X86989135Y-98910297D01*
X87008300Y-98679006D01*
X87008300Y-98678993D01*
X86989135Y-98447702D01*
X86989133Y-98447691D01*
X86932157Y-98222699D01*
X86838924Y-98010151D01*
X86711983Y-97815852D01*
X86711980Y-97815849D01*
X86711979Y-97815847D01*
X86554784Y-97645087D01*
X86377180Y-97506853D01*
X86336368Y-97450143D01*
X86332693Y-97380370D01*
X86367324Y-97319687D01*
X86377181Y-97311146D01*
X86554784Y-97172913D01*
X86711979Y-97002153D01*
X86838924Y-96807849D01*
X86932157Y-96595300D01*
X86989134Y-96370305D01*
X86989135Y-96370297D01*
X87008300Y-96139006D01*
X87008300Y-96138993D01*
X86989135Y-95907702D01*
X86989133Y-95907691D01*
X86932157Y-95682699D01*
X86838924Y-95470151D01*
X86711983Y-95275852D01*
X86711980Y-95275849D01*
X86711979Y-95275847D01*
X86554784Y-95105087D01*
X86377180Y-94966853D01*
X86336368Y-94910143D01*
X86332693Y-94840370D01*
X86367324Y-94779687D01*
X86377181Y-94771146D01*
X86554784Y-94632913D01*
X86711979Y-94462153D01*
X86713607Y-94459662D01*
X86740962Y-94417791D01*
X86838924Y-94267849D01*
X86932157Y-94055300D01*
X86989134Y-93830305D01*
X87008300Y-93599000D01*
X87008300Y-93598993D01*
X86989135Y-93367702D01*
X86989133Y-93367691D01*
X86932157Y-93142699D01*
X86838924Y-92930151D01*
X86711983Y-92735852D01*
X86711980Y-92735849D01*
X86711979Y-92735847D01*
X86554784Y-92565087D01*
X86377180Y-92426853D01*
X86336368Y-92370143D01*
X86332693Y-92300370D01*
X86367324Y-92239687D01*
X86377181Y-92231146D01*
X86554784Y-92092913D01*
X86711979Y-91922153D01*
X86838924Y-91727849D01*
X86932157Y-91515300D01*
X86989134Y-91290305D01*
X86999888Y-91160520D01*
X87008300Y-91059006D01*
X87008300Y-91058993D01*
X86989135Y-90827702D01*
X86989133Y-90827691D01*
X86932157Y-90602699D01*
X86838924Y-90390151D01*
X86711983Y-90195852D01*
X86711980Y-90195849D01*
X86711979Y-90195847D01*
X86554784Y-90025087D01*
X86377180Y-89886853D01*
X86336368Y-89830143D01*
X86332693Y-89760370D01*
X86367324Y-89699687D01*
X86377181Y-89691146D01*
X86554784Y-89552913D01*
X86711979Y-89382153D01*
X86838924Y-89187849D01*
X86932157Y-88975300D01*
X86989134Y-88750305D01*
X86990838Y-88729739D01*
X87008300Y-88519006D01*
X87008300Y-88518993D01*
X86989135Y-88287702D01*
X86989133Y-88287691D01*
X86932157Y-88062699D01*
X86838924Y-87850151D01*
X86711983Y-87655852D01*
X86711980Y-87655849D01*
X86711979Y-87655847D01*
X86554784Y-87485087D01*
X86377180Y-87346853D01*
X86336368Y-87290143D01*
X86332693Y-87220370D01*
X86367324Y-87159687D01*
X86377181Y-87151146D01*
X86554784Y-87012913D01*
X86711979Y-86842153D01*
X86838924Y-86647849D01*
X86932157Y-86435300D01*
X86989134Y-86210305D01*
X86989135Y-86210297D01*
X87008300Y-85979006D01*
X87008300Y-85978993D01*
X86989135Y-85747702D01*
X86989133Y-85747691D01*
X86932157Y-85522699D01*
X86838924Y-85310151D01*
X86711983Y-85115852D01*
X86711980Y-85115849D01*
X86711979Y-85115847D01*
X86554784Y-84945087D01*
X86377180Y-84806853D01*
X86336368Y-84750143D01*
X86332693Y-84680370D01*
X86367324Y-84619687D01*
X86377181Y-84611146D01*
X86554784Y-84472913D01*
X86711979Y-84302153D01*
X86838924Y-84107849D01*
X86932157Y-83895300D01*
X86989134Y-83670305D01*
X86990838Y-83649739D01*
X87008300Y-83439006D01*
X87008300Y-83438993D01*
X86989135Y-83207702D01*
X86989133Y-83207691D01*
X86932157Y-82982699D01*
X86838924Y-82770151D01*
X86711983Y-82575852D01*
X86711980Y-82575849D01*
X86711979Y-82575847D01*
X86554784Y-82405087D01*
X86377180Y-82266853D01*
X86336368Y-82210143D01*
X86332693Y-82140370D01*
X86367324Y-82079687D01*
X86377181Y-82071146D01*
X86554784Y-81932913D01*
X86711979Y-81762153D01*
X86838924Y-81567849D01*
X86932157Y-81355300D01*
X86989134Y-81130305D01*
X86992877Y-81085135D01*
X87008300Y-80899006D01*
X87008300Y-80898993D01*
X86989135Y-80667702D01*
X86989133Y-80667691D01*
X86932157Y-80442699D01*
X86838924Y-80230151D01*
X86711983Y-80035852D01*
X86711980Y-80035849D01*
X86711979Y-80035847D01*
X86554784Y-79865087D01*
X86377180Y-79726853D01*
X86336368Y-79670143D01*
X86332693Y-79600370D01*
X86367324Y-79539687D01*
X86377181Y-79531146D01*
X86554784Y-79392913D01*
X86711979Y-79222153D01*
X86838924Y-79027849D01*
X86932157Y-78815300D01*
X86989134Y-78590305D01*
X86990838Y-78569739D01*
X87008300Y-78359006D01*
X87008300Y-78358993D01*
X86989135Y-78127702D01*
X86989133Y-78127691D01*
X86932157Y-77902699D01*
X86838924Y-77690151D01*
X86711983Y-77495852D01*
X86711980Y-77495849D01*
X86711979Y-77495847D01*
X86554784Y-77325087D01*
X86377180Y-77186853D01*
X86336368Y-77130143D01*
X86332693Y-77060370D01*
X86367324Y-76999687D01*
X86377181Y-76991146D01*
X86554784Y-76852913D01*
X86711979Y-76682153D01*
X86838924Y-76487849D01*
X86932157Y-76275300D01*
X86989134Y-76050305D01*
X86993329Y-75999682D01*
X87008300Y-75819006D01*
X87008300Y-75818993D01*
X86989135Y-75587702D01*
X86989133Y-75587691D01*
X86932157Y-75362699D01*
X86838924Y-75150151D01*
X86711983Y-74955852D01*
X86711980Y-74955849D01*
X86711979Y-74955847D01*
X86554784Y-74785087D01*
X86554779Y-74785083D01*
X86554777Y-74785081D01*
X86371634Y-74642535D01*
X86371628Y-74642531D01*
X86167504Y-74532064D01*
X86167495Y-74532061D01*
X85947984Y-74456702D01*
X85774092Y-74427685D01*
X85719049Y-74418500D01*
X85486951Y-74418500D01*
X85441164Y-74426140D01*
X85258015Y-74456702D01*
X85038504Y-74532061D01*
X85038495Y-74532064D01*
X84834371Y-74642531D01*
X84834365Y-74642535D01*
X84651222Y-74785081D01*
X84651219Y-74785084D01*
X84651216Y-74785086D01*
X84651216Y-74785087D01*
X84592267Y-74849122D01*
X84494016Y-74955852D01*
X84367075Y-75150151D01*
X84273842Y-75362699D01*
X84216866Y-75587691D01*
X84216864Y-75587702D01*
X84197700Y-75818993D01*
X77475000Y-75818993D01*
X77475000Y-54847994D01*
X94560498Y-54847994D01*
X94560498Y-54848005D01*
X94580420Y-55056639D01*
X94580423Y-55056656D01*
X94639470Y-55257755D01*
X94735518Y-55444062D01*
X94865079Y-55608810D01*
X94865083Y-55608814D01*
X95023481Y-55746068D01*
X95023492Y-55746076D01*
X95205002Y-55850870D01*
X95205004Y-55850871D01*
X95403075Y-55919424D01*
X95610541Y-55949253D01*
X95819902Y-55939280D01*
X96023593Y-55889865D01*
X96214251Y-55802795D01*
X96384985Y-55681215D01*
X96529625Y-55529522D01*
X96642943Y-55353196D01*
X96720843Y-55158611D01*
X96760510Y-54952799D01*
X96763000Y-54848000D01*
X96760510Y-54743201D01*
X96720843Y-54537389D01*
X96642943Y-54342804D01*
X96529625Y-54166478D01*
X96433799Y-54065979D01*
X96384987Y-54014786D01*
X96384984Y-54014784D01*
X96214253Y-53893206D01*
X96214251Y-53893205D01*
X96115259Y-53847997D01*
X100857723Y-53847997D01*
X100857723Y-53848002D01*
X100861678Y-53893205D01*
X100875472Y-54050883D01*
X100876793Y-54065975D01*
X100876793Y-54065979D01*
X100933422Y-54277322D01*
X100933424Y-54277326D01*
X100933425Y-54277330D01*
X100963956Y-54342804D01*
X101025897Y-54475638D01*
X101050998Y-54511486D01*
X101151402Y-54654877D01*
X101306123Y-54809598D01*
X101485361Y-54935102D01*
X101683670Y-55027575D01*
X101895023Y-55084207D01*
X102077926Y-55100208D01*
X102112998Y-55103277D01*
X102113000Y-55103277D01*
X102113002Y-55103277D01*
X102141254Y-55100805D01*
X102330977Y-55084207D01*
X102542330Y-55027575D01*
X102740639Y-54935102D01*
X102919877Y-54809598D01*
X102962656Y-54766819D01*
X103023979Y-54733334D01*
X103050337Y-54730500D01*
X104813500Y-54730500D01*
X104880539Y-54750185D01*
X104926294Y-54802989D01*
X104937500Y-54854500D01*
X104937500Y-60174233D01*
X104971143Y-60343366D01*
X104971146Y-60343378D01*
X105037138Y-60502698D01*
X105037145Y-60502711D01*
X105132954Y-60646098D01*
X105132957Y-60646102D01*
X108671955Y-64185099D01*
X108737356Y-64250500D01*
X108793902Y-64307046D01*
X108937288Y-64402854D01*
X108937301Y-64402861D01*
X109096621Y-64468853D01*
X109096626Y-64468855D01*
X109265766Y-64502499D01*
X109265769Y-64502500D01*
X109265771Y-64502500D01*
X119732994Y-64502500D01*
X119800033Y-64522185D01*
X119820675Y-64538819D01*
X123629217Y-68347361D01*
X123662702Y-68408684D01*
X123657718Y-68478376D01*
X123615846Y-68534309D01*
X123614425Y-68535357D01*
X123605132Y-68542109D01*
X123605129Y-68542111D01*
X123478466Y-68682785D01*
X123383821Y-68846715D01*
X123383818Y-68846722D01*
X123364271Y-68906883D01*
X123325326Y-69026744D01*
X123305540Y-69215000D01*
X123325326Y-69403256D01*
X123325327Y-69403259D01*
X123383818Y-69583277D01*
X123383821Y-69583284D01*
X123478466Y-69747215D01*
X123528649Y-69802948D01*
X123558880Y-69865940D01*
X123560500Y-69885921D01*
X123560500Y-89948078D01*
X123540815Y-90015117D01*
X123528650Y-90031050D01*
X123478466Y-90086785D01*
X123383821Y-90250715D01*
X123383818Y-90250722D01*
X123325327Y-90430740D01*
X123325326Y-90430744D01*
X123305540Y-90619000D01*
X123325326Y-90807256D01*
X123325327Y-90807259D01*
X123383818Y-90987277D01*
X123383821Y-90987284D01*
X123478467Y-91151216D01*
X123587024Y-91271780D01*
X123605129Y-91291888D01*
X123758265Y-91403148D01*
X123758270Y-91403151D01*
X123931192Y-91480142D01*
X123931197Y-91480144D01*
X124116354Y-91519500D01*
X124140192Y-91519500D01*
X124207231Y-91539185D01*
X124227873Y-91555819D01*
X129366181Y-96694127D01*
X129399666Y-96755450D01*
X129402500Y-96781808D01*
X129402500Y-99140069D01*
X129402500Y-99140071D01*
X129402499Y-99140071D01*
X129425715Y-99256778D01*
X129427498Y-99265744D01*
X129427499Y-99265745D01*
X129476533Y-99384125D01*
X129547726Y-99490673D01*
X129547727Y-99490674D01*
X130745112Y-100688058D01*
X130778597Y-100749381D01*
X130777637Y-100806178D01*
X130746867Y-100927687D01*
X130746864Y-100927702D01*
X130727700Y-101158993D01*
X130727700Y-101159006D01*
X130746864Y-101390297D01*
X130746866Y-101390308D01*
X130803842Y-101615300D01*
X130897075Y-101827848D01*
X131024016Y-102022147D01*
X131024019Y-102022151D01*
X131024021Y-102022153D01*
X131181216Y-102192913D01*
X131181219Y-102192915D01*
X131181222Y-102192918D01*
X131358818Y-102331147D01*
X131399631Y-102387857D01*
X131403306Y-102457630D01*
X131368674Y-102518313D01*
X131358818Y-102526853D01*
X131181222Y-102665081D01*
X131181219Y-102665084D01*
X131181216Y-102665086D01*
X131181216Y-102665087D01*
X131125988Y-102725081D01*
X131024016Y-102835852D01*
X130897075Y-103030151D01*
X130803842Y-103242699D01*
X130746866Y-103467691D01*
X130746864Y-103467702D01*
X130727700Y-103698993D01*
X130727700Y-103699006D01*
X130746864Y-103930297D01*
X130746866Y-103930308D01*
X130803842Y-104155300D01*
X130897075Y-104367848D01*
X131024016Y-104562147D01*
X131024019Y-104562151D01*
X131024021Y-104562153D01*
X131181216Y-104732913D01*
X131181219Y-104732915D01*
X131181222Y-104732918D01*
X131358818Y-104871147D01*
X131399631Y-104927857D01*
X131403306Y-104997630D01*
X131368674Y-105058313D01*
X131358818Y-105066853D01*
X131181222Y-105205081D01*
X131181219Y-105205084D01*
X131024016Y-105375852D01*
X130897075Y-105570151D01*
X130803842Y-105782699D01*
X130746866Y-106007691D01*
X130746864Y-106007702D01*
X130727700Y-106238993D01*
X130727700Y-106239006D01*
X130746864Y-106470297D01*
X130746866Y-106470308D01*
X130803842Y-106695300D01*
X130897075Y-106907848D01*
X131024016Y-107102147D01*
X131024019Y-107102151D01*
X131024021Y-107102153D01*
X131181216Y-107272913D01*
X131181219Y-107272915D01*
X131181222Y-107272918D01*
X131358818Y-107411147D01*
X131399631Y-107467857D01*
X131403306Y-107537630D01*
X131368674Y-107598313D01*
X131358818Y-107606853D01*
X131181222Y-107745081D01*
X131181219Y-107745084D01*
X131024016Y-107915852D01*
X130897075Y-108110151D01*
X130803842Y-108322699D01*
X130746866Y-108547691D01*
X130746864Y-108547702D01*
X130727700Y-108778993D01*
X130727700Y-108779006D01*
X130746864Y-109010297D01*
X130746866Y-109010308D01*
X130803842Y-109235300D01*
X130897075Y-109447848D01*
X131024016Y-109642147D01*
X131024019Y-109642151D01*
X131024021Y-109642153D01*
X131181216Y-109812913D01*
X131181219Y-109812915D01*
X131181222Y-109812918D01*
X131358818Y-109951147D01*
X131399631Y-110007857D01*
X131403306Y-110077630D01*
X131368674Y-110138313D01*
X131358818Y-110146853D01*
X131181222Y-110285081D01*
X131181219Y-110285084D01*
X131024016Y-110455852D01*
X130897075Y-110650151D01*
X130803842Y-110862699D01*
X130746866Y-111087691D01*
X130746864Y-111087702D01*
X130727700Y-111318993D01*
X130727700Y-111319006D01*
X130746864Y-111550297D01*
X130746866Y-111550308D01*
X130803842Y-111775300D01*
X130897075Y-111987848D01*
X131024016Y-112182147D01*
X131024019Y-112182151D01*
X131024021Y-112182153D01*
X131181216Y-112352913D01*
X131181219Y-112352915D01*
X131181222Y-112352918D01*
X131358818Y-112491147D01*
X131399631Y-112547857D01*
X131403306Y-112617630D01*
X131368674Y-112678313D01*
X131358818Y-112686853D01*
X131181222Y-112825081D01*
X131181219Y-112825084D01*
X131024016Y-112995852D01*
X130897075Y-113190151D01*
X130803842Y-113402699D01*
X130746866Y-113627691D01*
X130746864Y-113627702D01*
X130727700Y-113858993D01*
X130727700Y-113859006D01*
X130746864Y-114090297D01*
X130746866Y-114090308D01*
X130803842Y-114315300D01*
X130897075Y-114527848D01*
X131024016Y-114722147D01*
X131024019Y-114722151D01*
X131024021Y-114722153D01*
X131181216Y-114892913D01*
X131181219Y-114892915D01*
X131181222Y-114892918D01*
X131358818Y-115031147D01*
X131399631Y-115087857D01*
X131403306Y-115157630D01*
X131368674Y-115218313D01*
X131358818Y-115226853D01*
X131181222Y-115365081D01*
X131181219Y-115365084D01*
X131024016Y-115535852D01*
X130897075Y-115730151D01*
X130803842Y-115942699D01*
X130746866Y-116167691D01*
X130746864Y-116167702D01*
X130727700Y-116398993D01*
X130727700Y-116399006D01*
X130746864Y-116630297D01*
X130746866Y-116630308D01*
X130803842Y-116855300D01*
X130897075Y-117067848D01*
X131024016Y-117262147D01*
X131024019Y-117262151D01*
X131024021Y-117262153D01*
X131181216Y-117432913D01*
X131181219Y-117432915D01*
X131181222Y-117432918D01*
X131358818Y-117571147D01*
X131399631Y-117627857D01*
X131403306Y-117697630D01*
X131368674Y-117758313D01*
X131358818Y-117766853D01*
X131181222Y-117905081D01*
X131181219Y-117905084D01*
X131024016Y-118075852D01*
X130897075Y-118270151D01*
X130803842Y-118482699D01*
X130746866Y-118707691D01*
X130746864Y-118707702D01*
X130727700Y-118938993D01*
X130727700Y-118939006D01*
X130746864Y-119170297D01*
X130746866Y-119170308D01*
X130803842Y-119395300D01*
X130897075Y-119607848D01*
X131024016Y-119802147D01*
X131024019Y-119802151D01*
X131024021Y-119802153D01*
X131181216Y-119972913D01*
X131181219Y-119972915D01*
X131181222Y-119972918D01*
X131358818Y-120111147D01*
X131399631Y-120167857D01*
X131403306Y-120237630D01*
X131368674Y-120298313D01*
X131358818Y-120306853D01*
X131181222Y-120445081D01*
X131181219Y-120445084D01*
X131024016Y-120615852D01*
X130897075Y-120810151D01*
X130803842Y-121022699D01*
X130746866Y-121247691D01*
X130746864Y-121247702D01*
X130727700Y-121478993D01*
X130727700Y-121479006D01*
X130746864Y-121710297D01*
X130746866Y-121710308D01*
X130803842Y-121935300D01*
X130897075Y-122147848D01*
X131024016Y-122342147D01*
X131024019Y-122342151D01*
X131024021Y-122342153D01*
X131181216Y-122512913D01*
X131181219Y-122512915D01*
X131181222Y-122512918D01*
X131358818Y-122651147D01*
X131399631Y-122707857D01*
X131403306Y-122777630D01*
X131368674Y-122838313D01*
X131358818Y-122846853D01*
X131181222Y-122985081D01*
X131181219Y-122985084D01*
X131024016Y-123155852D01*
X130897075Y-123350151D01*
X130803842Y-123562699D01*
X130746866Y-123787691D01*
X130746864Y-123787702D01*
X130727700Y-124018993D01*
X130727700Y-124019006D01*
X130746864Y-124250297D01*
X130746866Y-124250308D01*
X130803842Y-124475300D01*
X130897075Y-124687848D01*
X131024016Y-124882147D01*
X131024019Y-124882151D01*
X131024021Y-124882153D01*
X131181216Y-125052913D01*
X131181219Y-125052915D01*
X131181222Y-125052918D01*
X131358818Y-125191147D01*
X131399631Y-125247857D01*
X131403306Y-125317630D01*
X131368674Y-125378313D01*
X131358818Y-125386853D01*
X131181222Y-125525081D01*
X131181219Y-125525084D01*
X131024016Y-125695852D01*
X130897075Y-125890151D01*
X130803842Y-126102699D01*
X130746866Y-126327691D01*
X130746864Y-126327702D01*
X130727700Y-126558993D01*
X130727700Y-126559006D01*
X130746864Y-126790297D01*
X130746866Y-126790308D01*
X130803842Y-127015300D01*
X130897075Y-127227848D01*
X131024016Y-127422147D01*
X131024019Y-127422151D01*
X131024021Y-127422153D01*
X131181216Y-127592913D01*
X131181219Y-127592915D01*
X131181222Y-127592918D01*
X131358818Y-127731147D01*
X131399631Y-127787857D01*
X131403306Y-127857630D01*
X131368674Y-127918313D01*
X131358818Y-127926853D01*
X131181222Y-128065081D01*
X131181219Y-128065084D01*
X131024016Y-128235852D01*
X130897075Y-128430151D01*
X130803842Y-128642699D01*
X130746866Y-128867691D01*
X130746864Y-128867702D01*
X130727700Y-129098993D01*
X130727700Y-129099006D01*
X130746864Y-129330297D01*
X130746866Y-129330308D01*
X130803842Y-129555300D01*
X130897075Y-129767848D01*
X131024016Y-129962147D01*
X131024019Y-129962151D01*
X131024021Y-129962153D01*
X131181216Y-130132913D01*
X131181219Y-130132915D01*
X131181222Y-130132918D01*
X131358818Y-130271147D01*
X131399631Y-130327857D01*
X131403306Y-130397630D01*
X131368674Y-130458313D01*
X131358818Y-130466853D01*
X131181222Y-130605081D01*
X131181219Y-130605084D01*
X131024016Y-130775852D01*
X130897075Y-130970151D01*
X130803842Y-131182699D01*
X130746866Y-131407691D01*
X130746864Y-131407702D01*
X130727700Y-131638993D01*
X130727700Y-131639006D01*
X130746864Y-131870297D01*
X130746866Y-131870308D01*
X130803842Y-132095300D01*
X130897075Y-132307848D01*
X131024016Y-132502147D01*
X131024019Y-132502151D01*
X131024021Y-132502153D01*
X131181216Y-132672913D01*
X131181219Y-132672915D01*
X131181222Y-132672918D01*
X131358818Y-132811147D01*
X131399631Y-132867857D01*
X131403306Y-132937630D01*
X131368674Y-132998313D01*
X131358818Y-133006853D01*
X131181222Y-133145081D01*
X131181219Y-133145084D01*
X131024016Y-133315852D01*
X130897075Y-133510151D01*
X130803842Y-133722699D01*
X130746866Y-133947691D01*
X130746864Y-133947702D01*
X130727700Y-134178993D01*
X130727700Y-134179006D01*
X130746864Y-134410297D01*
X130746866Y-134410308D01*
X130803842Y-134635300D01*
X130897075Y-134847848D01*
X131024016Y-135042147D01*
X131024019Y-135042151D01*
X131024021Y-135042153D01*
X131181216Y-135212913D01*
X131181219Y-135212915D01*
X131181222Y-135212918D01*
X131364365Y-135355464D01*
X131364371Y-135355468D01*
X131364374Y-135355470D01*
X131568497Y-135465936D01*
X131682487Y-135505068D01*
X131788015Y-135541297D01*
X131788017Y-135541297D01*
X131788019Y-135541298D01*
X132016951Y-135579500D01*
X132016952Y-135579500D01*
X132249048Y-135579500D01*
X132249049Y-135579500D01*
X132477981Y-135541298D01*
X132697503Y-135465936D01*
X132901626Y-135355470D01*
X133084784Y-135212913D01*
X133241979Y-135042153D01*
X133368924Y-134847849D01*
X133462157Y-134635300D01*
X133519134Y-134410305D01*
X133533328Y-134239006D01*
X133538300Y-134179006D01*
X133538300Y-134178993D01*
X133519135Y-133947702D01*
X133519133Y-133947691D01*
X133462157Y-133722699D01*
X133368924Y-133510151D01*
X133241983Y-133315852D01*
X133241980Y-133315849D01*
X133241979Y-133315847D01*
X133084784Y-133145087D01*
X132907180Y-133006853D01*
X132866368Y-132950143D01*
X132862693Y-132880370D01*
X132897324Y-132819687D01*
X132907181Y-132811146D01*
X133084784Y-132672913D01*
X133241979Y-132502153D01*
X133368924Y-132307849D01*
X133462157Y-132095300D01*
X133519134Y-131870305D01*
X133533328Y-131699006D01*
X133538300Y-131639006D01*
X133538300Y-131638993D01*
X133519135Y-131407702D01*
X133519133Y-131407691D01*
X133462157Y-131182699D01*
X133368924Y-130970151D01*
X133241983Y-130775852D01*
X133241980Y-130775849D01*
X133241979Y-130775847D01*
X133084784Y-130605087D01*
X132907180Y-130466853D01*
X132866368Y-130410143D01*
X132862693Y-130340370D01*
X132897324Y-130279687D01*
X132907181Y-130271146D01*
X133084784Y-130132913D01*
X133241979Y-129962153D01*
X133368924Y-129767849D01*
X133462157Y-129555300D01*
X133519134Y-129330305D01*
X133533328Y-129159006D01*
X133538300Y-129099006D01*
X133538300Y-129098993D01*
X133519135Y-128867702D01*
X133519133Y-128867691D01*
X133462157Y-128642699D01*
X133368924Y-128430151D01*
X133241983Y-128235852D01*
X133241980Y-128235849D01*
X133241979Y-128235847D01*
X133084784Y-128065087D01*
X132907180Y-127926853D01*
X132866368Y-127870143D01*
X132862693Y-127800370D01*
X132897324Y-127739687D01*
X132907181Y-127731146D01*
X133084784Y-127592913D01*
X133241979Y-127422153D01*
X133368924Y-127227849D01*
X133462157Y-127015300D01*
X133519134Y-126790305D01*
X133533328Y-126619006D01*
X133538300Y-126559006D01*
X133538300Y-126558993D01*
X133519135Y-126327702D01*
X133519134Y-126327699D01*
X133519134Y-126327695D01*
X133465326Y-126115214D01*
X133467951Y-126045394D01*
X133497849Y-125997095D01*
X143503277Y-115991669D01*
X143574466Y-115885126D01*
X143623501Y-115766743D01*
X143641150Y-115678021D01*
X143648500Y-115641069D01*
X143648500Y-86677681D01*
X143668185Y-86610642D01*
X143720989Y-86564887D01*
X143790147Y-86554943D01*
X143817293Y-86562053D01*
X143920469Y-86602024D01*
X144120949Y-86639500D01*
X144120951Y-86639500D01*
X144324899Y-86639500D01*
X144324901Y-86639500D01*
X144525381Y-86602024D01*
X144715562Y-86528348D01*
X144888966Y-86420981D01*
X145039689Y-86283579D01*
X145162598Y-86120821D01*
X145253507Y-85938250D01*
X145309322Y-85742083D01*
X145328140Y-85539000D01*
X145309322Y-85335917D01*
X145253507Y-85139750D01*
X145241607Y-85115852D01*
X145172136Y-84976335D01*
X145162598Y-84957179D01*
X145039689Y-84794421D01*
X145039687Y-84794418D01*
X144913887Y-84679737D01*
X144877605Y-84620026D01*
X144873425Y-84588100D01*
X144873425Y-84262882D01*
X144893110Y-84195843D01*
X144909739Y-84175206D01*
X149370450Y-79714494D01*
X149431771Y-79681011D01*
X149501463Y-79685995D01*
X149557396Y-79727867D01*
X149581813Y-79793331D01*
X149581657Y-79812984D01*
X149575532Y-79882997D01*
X149575532Y-79883001D01*
X149595364Y-80109686D01*
X149595366Y-80109697D01*
X149654258Y-80329488D01*
X149654261Y-80329497D01*
X149750431Y-80535732D01*
X149750432Y-80535734D01*
X149880954Y-80722141D01*
X150041858Y-80883045D01*
X150041861Y-80883047D01*
X150228266Y-81013568D01*
X150286275Y-81040618D01*
X150338714Y-81086791D01*
X150357866Y-81153984D01*
X150337650Y-81220865D01*
X150286275Y-81265382D01*
X150228267Y-81292431D01*
X150228265Y-81292432D01*
X150041858Y-81422954D01*
X149880954Y-81583858D01*
X149750432Y-81770265D01*
X149750431Y-81770267D01*
X149654261Y-81976502D01*
X149654258Y-81976511D01*
X149595366Y-82196302D01*
X149595364Y-82196313D01*
X149575532Y-82422998D01*
X149575532Y-82423001D01*
X149595364Y-82649686D01*
X149595366Y-82649697D01*
X149654258Y-82869488D01*
X149654261Y-82869497D01*
X149750431Y-83075732D01*
X149750432Y-83075734D01*
X149880954Y-83262141D01*
X150041858Y-83423045D01*
X150041861Y-83423047D01*
X150228266Y-83553568D01*
X150286275Y-83580618D01*
X150338714Y-83626791D01*
X150357866Y-83693984D01*
X150337650Y-83760865D01*
X150286275Y-83805382D01*
X150228267Y-83832431D01*
X150228265Y-83832432D01*
X150041858Y-83962954D01*
X149880954Y-84123858D01*
X149750432Y-84310265D01*
X149750431Y-84310267D01*
X149654261Y-84516502D01*
X149654258Y-84516511D01*
X149595366Y-84736302D01*
X149595364Y-84736313D01*
X149575532Y-84962998D01*
X149575532Y-84963001D01*
X149595364Y-85189686D01*
X149595366Y-85189697D01*
X149654258Y-85409488D01*
X149654261Y-85409497D01*
X149750431Y-85615732D01*
X149750432Y-85615734D01*
X149880954Y-85802141D01*
X150041858Y-85963045D01*
X150041861Y-85963047D01*
X150228266Y-86093568D01*
X150286275Y-86120618D01*
X150338714Y-86166791D01*
X150357866Y-86233984D01*
X150337650Y-86300865D01*
X150286275Y-86345382D01*
X150228267Y-86372431D01*
X150228265Y-86372432D01*
X150041858Y-86502954D01*
X149880954Y-86663858D01*
X149750432Y-86850265D01*
X149750431Y-86850267D01*
X149654261Y-87056502D01*
X149654258Y-87056511D01*
X149595366Y-87276302D01*
X149595364Y-87276313D01*
X149575532Y-87502998D01*
X149575532Y-87503001D01*
X149595364Y-87729686D01*
X149595366Y-87729697D01*
X149654258Y-87949488D01*
X149654261Y-87949497D01*
X149750431Y-88155732D01*
X149750432Y-88155734D01*
X149880954Y-88342141D01*
X150041858Y-88503045D01*
X150041861Y-88503047D01*
X150228266Y-88633568D01*
X150434504Y-88729739D01*
X150654308Y-88788635D01*
X150816230Y-88802801D01*
X150880998Y-88808468D01*
X150881000Y-88808468D01*
X150881002Y-88808468D01*
X150937673Y-88803509D01*
X151107692Y-88788635D01*
X151327496Y-88729739D01*
X151533734Y-88633568D01*
X151720139Y-88503047D01*
X151881047Y-88342139D01*
X152011568Y-88155734D01*
X152107739Y-87949496D01*
X152166635Y-87729692D01*
X152186468Y-87503000D01*
X152166635Y-87276308D01*
X152107739Y-87056504D01*
X152011568Y-86850266D01*
X151881047Y-86663861D01*
X151881045Y-86663858D01*
X151720141Y-86502954D01*
X151533734Y-86372432D01*
X151533728Y-86372429D01*
X151475725Y-86345382D01*
X151423285Y-86299210D01*
X151404133Y-86232017D01*
X151424348Y-86165135D01*
X151475725Y-86120618D01*
X151533734Y-86093568D01*
X151720139Y-85963047D01*
X151881047Y-85802139D01*
X152011568Y-85615734D01*
X152107739Y-85409496D01*
X152166635Y-85189692D01*
X152186468Y-84963000D01*
X152166635Y-84736308D01*
X152107739Y-84516504D01*
X152011568Y-84310266D01*
X151881047Y-84123861D01*
X151881045Y-84123858D01*
X151720141Y-83962954D01*
X151533734Y-83832432D01*
X151533728Y-83832429D01*
X151475725Y-83805382D01*
X151423285Y-83759210D01*
X151404133Y-83692017D01*
X151424348Y-83625135D01*
X151475725Y-83580618D01*
X151533734Y-83553568D01*
X151720139Y-83423047D01*
X151881047Y-83262139D01*
X152011568Y-83075734D01*
X152107739Y-82869496D01*
X152166635Y-82649692D01*
X152186468Y-82423000D01*
X152166635Y-82196308D01*
X152107739Y-81976504D01*
X152011568Y-81770266D01*
X151881047Y-81583861D01*
X151881045Y-81583858D01*
X151720141Y-81422954D01*
X151533734Y-81292432D01*
X151533728Y-81292429D01*
X151475725Y-81265382D01*
X151423285Y-81219210D01*
X151404133Y-81152017D01*
X151424348Y-81085135D01*
X151475725Y-81040618D01*
X151533734Y-81013568D01*
X151720139Y-80883047D01*
X151881047Y-80722139D01*
X152011568Y-80535734D01*
X152107739Y-80329496D01*
X152166635Y-80109692D01*
X152186468Y-79883000D01*
X152166635Y-79656308D01*
X152107739Y-79436504D01*
X152011568Y-79230266D01*
X151881047Y-79043861D01*
X151881045Y-79043858D01*
X151720141Y-78882954D01*
X151533734Y-78752432D01*
X151533728Y-78752429D01*
X151475725Y-78725382D01*
X151423285Y-78679210D01*
X151404133Y-78612017D01*
X151424348Y-78545135D01*
X151475725Y-78500618D01*
X151533734Y-78473568D01*
X151720139Y-78343047D01*
X151881047Y-78182139D01*
X152011568Y-77995734D01*
X152107739Y-77789496D01*
X152166635Y-77569692D01*
X152186468Y-77343000D01*
X152166635Y-77116308D01*
X152107739Y-76896504D01*
X152011568Y-76690266D01*
X151881047Y-76503861D01*
X151881045Y-76503858D01*
X151720140Y-76342953D01*
X151584377Y-76247891D01*
X151540752Y-76193314D01*
X151531500Y-76146316D01*
X151531500Y-75999682D01*
X151551185Y-75932643D01*
X151584371Y-75898111D01*
X151720139Y-75803047D01*
X151881047Y-75642139D01*
X152011568Y-75455734D01*
X152107739Y-75249496D01*
X152166635Y-75029692D01*
X152183634Y-74835384D01*
X152186468Y-74803001D01*
X152186468Y-74802998D01*
X152172429Y-74642531D01*
X152166635Y-74576308D01*
X152107739Y-74356504D01*
X152011568Y-74150266D01*
X151881047Y-73963861D01*
X151881045Y-73963858D01*
X151720141Y-73802954D01*
X151533734Y-73672432D01*
X151533728Y-73672429D01*
X151475725Y-73645382D01*
X151423285Y-73599210D01*
X151404133Y-73532017D01*
X151424348Y-73465135D01*
X151475725Y-73420618D01*
X151533734Y-73393568D01*
X151720139Y-73263047D01*
X151881047Y-73102139D01*
X152011568Y-72915734D01*
X152107739Y-72709496D01*
X152166635Y-72489692D01*
X152186468Y-72263000D01*
X152166635Y-72036308D01*
X152107739Y-71816504D01*
X152011568Y-71610266D01*
X151881047Y-71423861D01*
X151881045Y-71423858D01*
X151720141Y-71262954D01*
X151533734Y-71132432D01*
X151533728Y-71132429D01*
X151475725Y-71105382D01*
X151423285Y-71059210D01*
X151404133Y-70992017D01*
X151424348Y-70925135D01*
X151475725Y-70880618D01*
X151533734Y-70853568D01*
X151720139Y-70723047D01*
X151881047Y-70562139D01*
X152011568Y-70375734D01*
X152107739Y-70169496D01*
X152166635Y-69949692D01*
X152186468Y-69723000D01*
X152166635Y-69496308D01*
X152107739Y-69276504D01*
X152011568Y-69070266D01*
X151881047Y-68883861D01*
X151881045Y-68883858D01*
X151720141Y-68722954D01*
X151533734Y-68592432D01*
X151533732Y-68592431D01*
X151327497Y-68496261D01*
X151327488Y-68496258D01*
X151107697Y-68437366D01*
X151107693Y-68437365D01*
X151107692Y-68437365D01*
X151107691Y-68437364D01*
X151107686Y-68437364D01*
X150881002Y-68417532D01*
X150880998Y-68417532D01*
X150654313Y-68437364D01*
X150654302Y-68437366D01*
X150434511Y-68496258D01*
X150434502Y-68496261D01*
X150228267Y-68592431D01*
X150228265Y-68592432D01*
X150041858Y-68722954D01*
X149880954Y-68883858D01*
X149750432Y-69070265D01*
X149750431Y-69070267D01*
X149654261Y-69276502D01*
X149654258Y-69276511D01*
X149595366Y-69496302D01*
X149595364Y-69496313D01*
X149575532Y-69722998D01*
X149575532Y-69723001D01*
X149595364Y-69949686D01*
X149595366Y-69949697D01*
X149654258Y-70169488D01*
X149654261Y-70169497D01*
X149750431Y-70375732D01*
X149750432Y-70375734D01*
X149880954Y-70562141D01*
X150041858Y-70723045D01*
X150041861Y-70723047D01*
X150228266Y-70853568D01*
X150286275Y-70880618D01*
X150338714Y-70926791D01*
X150357866Y-70993984D01*
X150337650Y-71060865D01*
X150286275Y-71105382D01*
X150228267Y-71132431D01*
X150228265Y-71132432D01*
X150041858Y-71262954D01*
X149880954Y-71423858D01*
X149750432Y-71610265D01*
X149750431Y-71610267D01*
X149654261Y-71816502D01*
X149654258Y-71816511D01*
X149595366Y-72036302D01*
X149595364Y-72036313D01*
X149575532Y-72262998D01*
X149575532Y-72263001D01*
X149595364Y-72489686D01*
X149595366Y-72489697D01*
X149654258Y-72709488D01*
X149654261Y-72709497D01*
X149750431Y-72915732D01*
X149750432Y-72915734D01*
X149880954Y-73102141D01*
X150041858Y-73263045D01*
X150041861Y-73263047D01*
X150228266Y-73393568D01*
X150286275Y-73420618D01*
X150338714Y-73466791D01*
X150357866Y-73533984D01*
X150337650Y-73600865D01*
X150286275Y-73645382D01*
X150228267Y-73672431D01*
X150228265Y-73672432D01*
X150041858Y-73802954D01*
X149880954Y-73963858D01*
X149750432Y-74150265D01*
X149750431Y-74150267D01*
X149654261Y-74356502D01*
X149654258Y-74356511D01*
X149595366Y-74576302D01*
X149595364Y-74576313D01*
X149575532Y-74802998D01*
X149575532Y-74803001D01*
X149595364Y-75029686D01*
X149595366Y-75029697D01*
X149654258Y-75249488D01*
X149654261Y-75249497D01*
X149750431Y-75455732D01*
X149750432Y-75455734D01*
X149880954Y-75642141D01*
X150041855Y-75803042D01*
X150041858Y-75803044D01*
X150041861Y-75803047D01*
X150177626Y-75898109D01*
X150221248Y-75952683D01*
X150230500Y-75999682D01*
X150230500Y-76146316D01*
X150210815Y-76213355D01*
X150177623Y-76247891D01*
X150041859Y-76342953D01*
X149880954Y-76503858D01*
X149826890Y-76581071D01*
X149750432Y-76690266D01*
X149750431Y-76690267D01*
X149654261Y-76896502D01*
X149654258Y-76896511D01*
X149595366Y-77116302D01*
X149595364Y-77116313D01*
X149575532Y-77342998D01*
X149575532Y-77343001D01*
X149595365Y-77569692D01*
X149596147Y-77574127D01*
X149588403Y-77643566D01*
X149561712Y-77683340D01*
X143860181Y-83384872D01*
X143798858Y-83418357D01*
X143729166Y-83413373D01*
X143673233Y-83371501D01*
X143648816Y-83306037D01*
X143648500Y-83297191D01*
X143648500Y-55861822D01*
X143623502Y-55736154D01*
X143623500Y-55736148D01*
X143603189Y-55687115D01*
X143603187Y-55687110D01*
X143574468Y-55617772D01*
X143574462Y-55617762D01*
X143503278Y-55511226D01*
X143503272Y-55511219D01*
X140010819Y-52018766D01*
X139977334Y-51957443D01*
X139974500Y-51931085D01*
X139974500Y-50855140D01*
X140365548Y-50855140D01*
X140365548Y-51140859D01*
X140406209Y-51423669D01*
X140406211Y-51423679D01*
X140486708Y-51697826D01*
X140605393Y-51957710D01*
X140605402Y-51957726D01*
X140759872Y-52198085D01*
X140759878Y-52198092D01*
X140946978Y-52414019D01*
X140946980Y-52414021D01*
X141162907Y-52601121D01*
X141162914Y-52601127D01*
X141403273Y-52755597D01*
X141403289Y-52755606D01*
X141663173Y-52874291D01*
X141663177Y-52874292D01*
X141663179Y-52874293D01*
X141937326Y-52954790D01*
X142220139Y-52995452D01*
X142505858Y-52995452D01*
X142505861Y-52995452D01*
X142788674Y-52954790D01*
X143062821Y-52874293D01*
X143062824Y-52874291D01*
X143062826Y-52874291D01*
X143322710Y-52755606D01*
X143322714Y-52755603D01*
X143322722Y-52755600D01*
X143563086Y-52601127D01*
X143779020Y-52414020D01*
X143966127Y-52198086D01*
X144120600Y-51957722D01*
X144120603Y-51957714D01*
X144120606Y-51957710D01*
X144239291Y-51697826D01*
X144239291Y-51697824D01*
X144239293Y-51697821D01*
X144319790Y-51423674D01*
X144360452Y-51140861D01*
X144363000Y-50998000D01*
X144360452Y-50855139D01*
X144319790Y-50572326D01*
X144239293Y-50298179D01*
X144239292Y-50298177D01*
X144239291Y-50298173D01*
X144120606Y-50038289D01*
X144120597Y-50038273D01*
X143966127Y-49797914D01*
X143966121Y-49797907D01*
X143779021Y-49581980D01*
X143779019Y-49581978D01*
X143563092Y-49394878D01*
X143563085Y-49394872D01*
X143322726Y-49240402D01*
X143322710Y-49240393D01*
X143062826Y-49121708D01*
X142788679Y-49041211D01*
X142788669Y-49041209D01*
X142648865Y-49021108D01*
X142505861Y-49000548D01*
X142505859Y-49000548D01*
X142220140Y-49000548D01*
X142220139Y-49000548D01*
X142148636Y-49010828D01*
X141937330Y-49041209D01*
X141937320Y-49041211D01*
X141663173Y-49121708D01*
X141403289Y-49240393D01*
X141403273Y-49240402D01*
X141162914Y-49394872D01*
X141162907Y-49394878D01*
X140946980Y-49581978D01*
X140946978Y-49581980D01*
X140759878Y-49797907D01*
X140759872Y-49797914D01*
X140605402Y-50038273D01*
X140605393Y-50038289D01*
X140486708Y-50298173D01*
X140406211Y-50572320D01*
X140406209Y-50572330D01*
X140365548Y-50855140D01*
X139974500Y-50855140D01*
X139974500Y-48631821D01*
X139949502Y-48506154D01*
X139949501Y-48506153D01*
X139949501Y-48506149D01*
X139900465Y-48387766D01*
X139829277Y-48281224D01*
X139829275Y-48281222D01*
X139829273Y-48281219D01*
X133584780Y-42036726D01*
X133584776Y-42036723D01*
X133478234Y-41965535D01*
X133359851Y-41916499D01*
X133359845Y-41916497D01*
X133234178Y-41891500D01*
X133234176Y-41891500D01*
X120709499Y-41891500D01*
X120642460Y-41871815D01*
X120596705Y-41819011D01*
X120585499Y-41767500D01*
X120585499Y-41541998D01*
X120585498Y-41541981D01*
X120574999Y-41439203D01*
X120574998Y-41439200D01*
X120519814Y-41272666D01*
X120427712Y-41123344D01*
X120303656Y-40999288D01*
X120154334Y-40907186D01*
X119987797Y-40852001D01*
X119987795Y-40852000D01*
X119885016Y-40841500D01*
X119885009Y-40841500D01*
X119255808Y-40841500D01*
X119188769Y-40821815D01*
X119168127Y-40805181D01*
X118849674Y-40486727D01*
X118849673Y-40486726D01*
X118743131Y-40415538D01*
X118743127Y-40415535D01*
X118743122Y-40415533D01*
X118624744Y-40366499D01*
X118624738Y-40366497D01*
X118499071Y-40341500D01*
X118499069Y-40341500D01*
X114817931Y-40341500D01*
X114817929Y-40341500D01*
X114692261Y-40366497D01*
X114692255Y-40366499D01*
X114573875Y-40415533D01*
X114573866Y-40415538D01*
X114467334Y-40486721D01*
X114467328Y-40486725D01*
X114421870Y-40532183D01*
X114360547Y-40565667D01*
X114334191Y-40568500D01*
X114004999Y-40568500D01*
X114004980Y-40568501D01*
X113902203Y-40579000D01*
X113902200Y-40579001D01*
X113735668Y-40634185D01*
X113735663Y-40634187D01*
X113586342Y-40726289D01*
X113470451Y-40842181D01*
X113409128Y-40875666D01*
X113382770Y-40878500D01*
X112687230Y-40878500D01*
X112620191Y-40858815D01*
X112599549Y-40842181D01*
X112483657Y-40726289D01*
X112483656Y-40726288D01*
X112334334Y-40634186D01*
X112167797Y-40579001D01*
X112167795Y-40579000D01*
X112065010Y-40568500D01*
X111464998Y-40568500D01*
X111464980Y-40568501D01*
X111362203Y-40579000D01*
X111362200Y-40579001D01*
X111195668Y-40634185D01*
X111195663Y-40634187D01*
X111046342Y-40726289D01*
X110930451Y-40842181D01*
X110869128Y-40875666D01*
X110842770Y-40878500D01*
X110178958Y-40878500D01*
X110111919Y-40858815D01*
X110073420Y-40819598D01*
X110067712Y-40810344D01*
X109943657Y-40686289D01*
X109943656Y-40686288D01*
X109794334Y-40594186D01*
X109627797Y-40539001D01*
X109627795Y-40539000D01*
X109525010Y-40528500D01*
X108924998Y-40528500D01*
X108924980Y-40528501D01*
X108822203Y-40539000D01*
X108822200Y-40539001D01*
X108655668Y-40594185D01*
X108655663Y-40594187D01*
X108506342Y-40686289D01*
X108382289Y-40810342D01*
X108290187Y-40959663D01*
X108290185Y-40959668D01*
X108277056Y-40999289D01*
X108235001Y-41126203D01*
X108235001Y-41126204D01*
X108235000Y-41126204D01*
X108224500Y-41228983D01*
X108224500Y-41829001D01*
X108224501Y-41829019D01*
X108235000Y-41931796D01*
X108235001Y-41931799D01*
X108269770Y-42036723D01*
X108290186Y-42098334D01*
X108382288Y-42247656D01*
X108506344Y-42371712D01*
X108655666Y-42463814D01*
X108822203Y-42518999D01*
X108924991Y-42529500D01*
X109525008Y-42529499D01*
X109525016Y-42529498D01*
X109525019Y-42529498D01*
X109581302Y-42523748D01*
X109627797Y-42518999D01*
X109794334Y-42463814D01*
X109943656Y-42371712D01*
X110067712Y-42247656D01*
X110073420Y-42238402D01*
X110125368Y-42191678D01*
X110178958Y-42179500D01*
X110786370Y-42179500D01*
X110853409Y-42199185D01*
X110891907Y-42238401D01*
X110922288Y-42287656D01*
X111046344Y-42411712D01*
X111195666Y-42503814D01*
X111362203Y-42558999D01*
X111464991Y-42569500D01*
X112065008Y-42569499D01*
X112065016Y-42569498D01*
X112065019Y-42569498D01*
X112121302Y-42563748D01*
X112167797Y-42558999D01*
X112334334Y-42503814D01*
X112483656Y-42411712D01*
X112607712Y-42287656D01*
X112638091Y-42238402D01*
X112690039Y-42191679D01*
X112743630Y-42179500D01*
X113326370Y-42179500D01*
X113393409Y-42199185D01*
X113431907Y-42238401D01*
X113462288Y-42287656D01*
X113586344Y-42411712D01*
X113735666Y-42503814D01*
X113902203Y-42558999D01*
X114004991Y-42569500D01*
X114605008Y-42569499D01*
X114605016Y-42569498D01*
X114605019Y-42569498D01*
X114661302Y-42563748D01*
X114707797Y-42558999D01*
X114874334Y-42503814D01*
X115023656Y-42411712D01*
X115147712Y-42287656D01*
X115239814Y-42138334D01*
X115294999Y-41971797D01*
X115305500Y-41869009D01*
X115305500Y-41766500D01*
X115325185Y-41699461D01*
X115377989Y-41653706D01*
X115429500Y-41642500D01*
X115520500Y-41642500D01*
X115587539Y-41662185D01*
X115633294Y-41714989D01*
X115644500Y-41766500D01*
X115644500Y-42206547D01*
X115624815Y-42273586D01*
X115608181Y-42294228D01*
X115184404Y-42718004D01*
X115184403Y-42718006D01*
X115175227Y-42731740D01*
X115175224Y-42731744D01*
X115115951Y-42820449D01*
X115115946Y-42820458D01*
X115089333Y-42884711D01*
X115089333Y-42884712D01*
X115068798Y-42934286D01*
X115068796Y-42934292D01*
X115046728Y-43045237D01*
X115014343Y-43107148D01*
X114953627Y-43141722D01*
X114883858Y-43137982D01*
X114875554Y-43134591D01*
X114874336Y-43134187D01*
X114874334Y-43134186D01*
X114707797Y-43079001D01*
X114707795Y-43079000D01*
X114605010Y-43068500D01*
X114004998Y-43068500D01*
X114004980Y-43068501D01*
X113902203Y-43079000D01*
X113902200Y-43079001D01*
X113735668Y-43134185D01*
X113735663Y-43134187D01*
X113586342Y-43226289D01*
X113462289Y-43350342D01*
X113370187Y-43499663D01*
X113370186Y-43499666D01*
X113315001Y-43666203D01*
X113315001Y-43666204D01*
X113315000Y-43666204D01*
X113304500Y-43768983D01*
X113304500Y-44369001D01*
X113304501Y-44369019D01*
X113315000Y-44471796D01*
X113315001Y-44471799D01*
X113353237Y-44587185D01*
X113370186Y-44638334D01*
X113462288Y-44787656D01*
X113586344Y-44911712D01*
X113595591Y-44917416D01*
X113642318Y-44969360D01*
X113654500Y-45022957D01*
X113654500Y-45217956D01*
X113634815Y-45284995D01*
X113601625Y-45319530D01*
X113506123Y-45386402D01*
X113351400Y-45541124D01*
X113225900Y-45720357D01*
X113225898Y-45720362D01*
X113175382Y-45828693D01*
X113129209Y-45881132D01*
X113062016Y-45900284D01*
X112995135Y-45880068D01*
X112950618Y-45828693D01*
X112943156Y-45812692D01*
X112900102Y-45720362D01*
X112900099Y-45720358D01*
X112900099Y-45720357D01*
X112774599Y-45541124D01*
X112774596Y-45541121D01*
X112619877Y-45386402D01*
X112468375Y-45280319D01*
X112424751Y-45225742D01*
X112415500Y-45178745D01*
X112415500Y-45022957D01*
X112435185Y-44955918D01*
X112474407Y-44917416D01*
X112483656Y-44911712D01*
X112607712Y-44787656D01*
X112699814Y-44638334D01*
X112754999Y-44471797D01*
X112765500Y-44369009D01*
X112765499Y-43768992D01*
X112765244Y-43766500D01*
X112754999Y-43666203D01*
X112754998Y-43666200D01*
X112750858Y-43653706D01*
X112699814Y-43499666D01*
X112607712Y-43350344D01*
X112483656Y-43226288D01*
X112346552Y-43141722D01*
X112334336Y-43134187D01*
X112334331Y-43134185D01*
X112332862Y-43133698D01*
X112167797Y-43079001D01*
X112167795Y-43079000D01*
X112065010Y-43068500D01*
X111464998Y-43068500D01*
X111464980Y-43068501D01*
X111362203Y-43079000D01*
X111362200Y-43079001D01*
X111195668Y-43134185D01*
X111195663Y-43134187D01*
X111046342Y-43226289D01*
X110922289Y-43350342D01*
X110830187Y-43499663D01*
X110830186Y-43499666D01*
X110775001Y-43666203D01*
X110775001Y-43666204D01*
X110775000Y-43666204D01*
X110764500Y-43768983D01*
X110764500Y-44369001D01*
X110764501Y-44369019D01*
X110775000Y-44471796D01*
X110775001Y-44471799D01*
X110813237Y-44587185D01*
X110830186Y-44638334D01*
X110922288Y-44787656D01*
X111046344Y-44911712D01*
X111055591Y-44917416D01*
X111102318Y-44969360D01*
X111114500Y-45022957D01*
X111114500Y-45245964D01*
X111094815Y-45313003D01*
X111061625Y-45347538D01*
X111006125Y-45386400D01*
X110851400Y-45541124D01*
X110725900Y-45720357D01*
X110725898Y-45720362D01*
X110675382Y-45828693D01*
X110629209Y-45881132D01*
X110562016Y-45900284D01*
X110495135Y-45880068D01*
X110450618Y-45828693D01*
X110443156Y-45812692D01*
X110400102Y-45720362D01*
X110400099Y-45720358D01*
X110400099Y-45720357D01*
X110274599Y-45541124D01*
X110274596Y-45541121D01*
X110119877Y-45386402D01*
X109940639Y-45260898D01*
X109940637Y-45260897D01*
X109940630Y-45260892D01*
X109937495Y-45259082D01*
X109936390Y-45257923D01*
X109936204Y-45257793D01*
X109936230Y-45257755D01*
X109889282Y-45208513D01*
X109875500Y-45151698D01*
X109875500Y-44982957D01*
X109895185Y-44915918D01*
X109934407Y-44877416D01*
X109943656Y-44871712D01*
X110067712Y-44747656D01*
X110159814Y-44598334D01*
X110214999Y-44431797D01*
X110225500Y-44329009D01*
X110225499Y-43728992D01*
X110223525Y-43709671D01*
X110214999Y-43626203D01*
X110214998Y-43626200D01*
X110173069Y-43499668D01*
X110159814Y-43459666D01*
X110067712Y-43310344D01*
X109943656Y-43186288D01*
X109794334Y-43094186D01*
X109627797Y-43039001D01*
X109627795Y-43039000D01*
X109525010Y-43028500D01*
X108924998Y-43028500D01*
X108924980Y-43028501D01*
X108822203Y-43039000D01*
X108822200Y-43039001D01*
X108655668Y-43094185D01*
X108655663Y-43094187D01*
X108506342Y-43186289D01*
X108382289Y-43310342D01*
X108290187Y-43459663D01*
X108290185Y-43459668D01*
X108262349Y-43543670D01*
X108235001Y-43626203D01*
X108235001Y-43626204D01*
X108235000Y-43626204D01*
X108224500Y-43728983D01*
X108224500Y-44329001D01*
X108224501Y-44329019D01*
X108235000Y-44431796D01*
X108235001Y-44431799D01*
X108290185Y-44598331D01*
X108290187Y-44598336D01*
X108307499Y-44626403D01*
X108382288Y-44747656D01*
X108506344Y-44871712D01*
X108515591Y-44877416D01*
X108562318Y-44929360D01*
X108574500Y-44982957D01*
X108574500Y-45273973D01*
X108554815Y-45341012D01*
X108521625Y-45375547D01*
X108506120Y-45386404D01*
X108351402Y-45541121D01*
X108225900Y-45720357D01*
X108225898Y-45720361D01*
X108133426Y-45918668D01*
X108133422Y-45918677D01*
X108076793Y-46130020D01*
X108076793Y-46130024D01*
X108057723Y-46347997D01*
X108057723Y-46348002D01*
X108076793Y-46565975D01*
X108076793Y-46565979D01*
X108133422Y-46777322D01*
X108133424Y-46777326D01*
X108133425Y-46777330D01*
X108150929Y-46814867D01*
X108225897Y-46975638D01*
X108225898Y-46975639D01*
X108351402Y-47154877D01*
X108506123Y-47309598D01*
X108685361Y-47435102D01*
X108793693Y-47485618D01*
X108846132Y-47531790D01*
X108865284Y-47598984D01*
X108845068Y-47665865D01*
X108793693Y-47710382D01*
X108685362Y-47760898D01*
X108685357Y-47760900D01*
X108506121Y-47886402D01*
X108351402Y-48041121D01*
X108225900Y-48220357D01*
X108225898Y-48220361D01*
X108133426Y-48418668D01*
X108133422Y-48418677D01*
X108076793Y-48630020D01*
X108076793Y-48630023D01*
X108072025Y-48684517D01*
X108057723Y-48847997D01*
X108057723Y-48848002D01*
X108076793Y-49065975D01*
X108076793Y-49065979D01*
X108133422Y-49277322D01*
X108133424Y-49277326D01*
X108133425Y-49277330D01*
X108150929Y-49314867D01*
X108225897Y-49475638D01*
X108233280Y-49486182D01*
X108351402Y-49654877D01*
X108506123Y-49809598D01*
X108685361Y-49935102D01*
X108793693Y-49985618D01*
X108846132Y-50031790D01*
X108865284Y-50098984D01*
X108845068Y-50165865D01*
X108793693Y-50210382D01*
X108685362Y-50260898D01*
X108685357Y-50260900D01*
X108506121Y-50386402D01*
X108351402Y-50541121D01*
X108225900Y-50720357D01*
X108225898Y-50720361D01*
X108133426Y-50918668D01*
X108133422Y-50918677D01*
X108076793Y-51130020D01*
X108076793Y-51130024D01*
X108057723Y-51347997D01*
X108057723Y-51348003D01*
X108060426Y-51378904D01*
X108046659Y-51447404D01*
X108024579Y-51477391D01*
X106690916Y-52811054D01*
X106629593Y-52844539D01*
X106559901Y-52839555D01*
X106532111Y-52824948D01*
X106440639Y-52760898D01*
X106242330Y-52668425D01*
X106242326Y-52668424D01*
X106242322Y-52668422D01*
X106030977Y-52611793D01*
X105813002Y-52592723D01*
X105812998Y-52592723D01*
X105716939Y-52601127D01*
X105595023Y-52611793D01*
X105595020Y-52611793D01*
X105383677Y-52668422D01*
X105383668Y-52668426D01*
X105185361Y-52760898D01*
X105185357Y-52760900D01*
X105006124Y-52886400D01*
X104978945Y-52913580D01*
X104949342Y-52943182D01*
X104888022Y-52976666D01*
X104861663Y-52979500D01*
X103064337Y-52979500D01*
X102997298Y-52959815D01*
X102976656Y-52943181D01*
X102919881Y-52886406D01*
X102919877Y-52886402D01*
X102770005Y-52781460D01*
X102740638Y-52760897D01*
X102632307Y-52710382D01*
X102542330Y-52668425D01*
X102542326Y-52668424D01*
X102542322Y-52668422D01*
X102330977Y-52611793D01*
X102113002Y-52592723D01*
X102112998Y-52592723D01*
X102016939Y-52601127D01*
X101895023Y-52611793D01*
X101895020Y-52611793D01*
X101683677Y-52668422D01*
X101683668Y-52668426D01*
X101485361Y-52760898D01*
X101485357Y-52760900D01*
X101306121Y-52886402D01*
X101151402Y-53041121D01*
X101025900Y-53220357D01*
X101025898Y-53220361D01*
X100933426Y-53418668D01*
X100933422Y-53418677D01*
X100876793Y-53630020D01*
X100876793Y-53630024D01*
X100857723Y-53847997D01*
X96115259Y-53847997D01*
X96023593Y-53806135D01*
X95819902Y-53756720D01*
X95630489Y-53747697D01*
X95610543Y-53746747D01*
X95610542Y-53746747D01*
X95610541Y-53746747D01*
X95403075Y-53776576D01*
X95403074Y-53776576D01*
X95403069Y-53776577D01*
X95205002Y-53845129D01*
X95023492Y-53949923D01*
X95023481Y-53949931D01*
X94865083Y-54087185D01*
X94865079Y-54087189D01*
X94735518Y-54251937D01*
X94639470Y-54438244D01*
X94580423Y-54639343D01*
X94580420Y-54639360D01*
X94560498Y-54847994D01*
X77475000Y-54847994D01*
X77475000Y-50855140D01*
X89565548Y-50855140D01*
X89565548Y-51140859D01*
X89606209Y-51423669D01*
X89606211Y-51423679D01*
X89686708Y-51697826D01*
X89805393Y-51957710D01*
X89805402Y-51957726D01*
X89959872Y-52198085D01*
X89959878Y-52198092D01*
X90146978Y-52414019D01*
X90146980Y-52414021D01*
X90362907Y-52601121D01*
X90362914Y-52601127D01*
X90603273Y-52755597D01*
X90603289Y-52755606D01*
X90863173Y-52874291D01*
X90863177Y-52874292D01*
X90863179Y-52874293D01*
X91137326Y-52954790D01*
X91420139Y-52995452D01*
X91705858Y-52995452D01*
X91705861Y-52995452D01*
X91988674Y-52954790D01*
X92262821Y-52874293D01*
X92262824Y-52874291D01*
X92262826Y-52874291D01*
X92522710Y-52755606D01*
X92522714Y-52755603D01*
X92522722Y-52755600D01*
X92763086Y-52601127D01*
X92979020Y-52414020D01*
X93166127Y-52198086D01*
X93320600Y-51957722D01*
X93320603Y-51957714D01*
X93320606Y-51957710D01*
X93439291Y-51697826D01*
X93439291Y-51697824D01*
X93439293Y-51697821D01*
X93519790Y-51423674D01*
X93560452Y-51140861D01*
X93563000Y-50998000D01*
X93560452Y-50855139D01*
X93519790Y-50572326D01*
X93439293Y-50298179D01*
X93439292Y-50298177D01*
X93439291Y-50298173D01*
X93320606Y-50038289D01*
X93320597Y-50038273D01*
X93166127Y-49797914D01*
X93166121Y-49797907D01*
X92979021Y-49581980D01*
X92979019Y-49581978D01*
X92763092Y-49394878D01*
X92763085Y-49394872D01*
X92522726Y-49240402D01*
X92522710Y-49240393D01*
X92262826Y-49121708D01*
X91988679Y-49041211D01*
X91988669Y-49041209D01*
X91848865Y-49021108D01*
X91705861Y-49000548D01*
X91705859Y-49000548D01*
X91420140Y-49000548D01*
X91420139Y-49000548D01*
X91348636Y-49010828D01*
X91137330Y-49041209D01*
X91137320Y-49041211D01*
X90863173Y-49121708D01*
X90603289Y-49240393D01*
X90603273Y-49240402D01*
X90362914Y-49394872D01*
X90362907Y-49394878D01*
X90146980Y-49581978D01*
X90146978Y-49581980D01*
X89959878Y-49797907D01*
X89959872Y-49797914D01*
X89805402Y-50038273D01*
X89805393Y-50038289D01*
X89686708Y-50298173D01*
X89606211Y-50572320D01*
X89606209Y-50572330D01*
X89565548Y-50855140D01*
X77475000Y-50855140D01*
X77475000Y-42342362D01*
X77494685Y-42275323D01*
X77511319Y-42254681D01*
X80994681Y-38771319D01*
X81056004Y-38737834D01*
X81082362Y-38735000D01*
X152607638Y-38735000D01*
X152674677Y-38754685D01*
G37*
%TD.AperFunction*%
%TD*%
M02*
