%TF.GenerationSoftware,KiCad,Pcbnew,8.0.5*%
%TF.CreationDate,2024-11-27T16:11:53+01:00*%
%TF.ProjectId,Core4GPZ_rev0-1,436f7265-3447-4505-9a5f-726576302d31,rev?*%
%TF.SameCoordinates,Original*%
%TF.FileFunction,Drillmap*%
%TF.FilePolarity,Positive*%
%FSLAX45Y45*%
G04 Gerber Fmt 4.5, Leading zero omitted, Abs format (unit mm)*
G04 Created by KiCad (PCBNEW 8.0.5) date 2024-11-27 16:11:53*
%MOMM*%
%LPD*%
G01*
G04 APERTURE LIST*
%ADD10C,0.100000*%
%ADD11C,0.120000*%
%ADD12C,0.200000*%
%ADD13C,0.110000*%
%ADD14C,0.320000*%
%ADD15C,0.350000*%
G04 APERTURE END LIST*
D10*
X15621500Y-14033500D02*
X15265900Y-14389100D01*
X8103100Y-3873500D02*
X15265900Y-3873500D01*
X8103100Y-3873500D02*
X7747500Y-4229100D01*
X15265900Y-14389100D02*
X8103100Y-14389100D01*
X7747500Y-14033500D02*
X8103100Y-14389100D01*
X7747500Y-4229100D02*
X7747500Y-14033500D01*
X15265900Y-3873500D02*
X15621500Y-4229100D01*
X15621500Y-4229100D02*
X15621500Y-14033500D01*
D11*
X9358100Y-5100500D02*
G75*
G02*
X8958100Y-5100500I-200000J0D01*
G01*
X8958100Y-5100500D02*
G75*
G02*
X9358100Y-5100500I200000J0D01*
G01*
X9678100Y-5485500D02*
G75*
G02*
X9458100Y-5485500I-110000J0D01*
G01*
X9458100Y-5485500D02*
G75*
G02*
X9678100Y-5485500I110000J0D01*
G01*
X13938100Y-5485500D02*
G75*
G02*
X13718100Y-5485500I-110000J0D01*
G01*
X13718100Y-5485500D02*
G75*
G02*
X13938100Y-5485500I110000J0D01*
G01*
X14438100Y-5100500D02*
G75*
G02*
X14038100Y-5100500I-200000J0D01*
G01*
X14038100Y-5100500D02*
G75*
G02*
X14438100Y-5100500I200000J0D01*
G01*
D12*
D10*
X8718100Y-7682900D02*
X8758100Y-7722900D01*
X8758100Y-7682900D02*
X8718100Y-7722900D01*
X8737800Y-8190900D02*
X8777800Y-8230900D01*
X8777800Y-8190900D02*
X8737800Y-8230900D01*
X8737800Y-8698900D02*
X8777800Y-8738900D01*
X8777800Y-8698900D02*
X8737800Y-8738900D01*
X8737800Y-9460900D02*
X8777800Y-9500900D01*
X8777800Y-9460900D02*
X8737800Y-9500900D01*
X8737800Y-9968900D02*
X8777800Y-10008900D01*
X8777800Y-9968900D02*
X8737800Y-10008900D01*
X8743500Y-11497400D02*
X8783500Y-11537400D01*
X8783500Y-11497400D02*
X8743500Y-11537400D01*
X8756100Y-12000900D02*
X8796100Y-12040900D01*
X8796100Y-12000900D02*
X8756100Y-12040900D01*
X8781600Y-13042400D02*
X8821600Y-13082400D01*
X8821600Y-13042400D02*
X8781600Y-13082400D01*
X8984800Y-6495100D02*
X9024800Y-6535100D01*
X9024800Y-6495100D02*
X8984800Y-6535100D01*
X9137200Y-6495100D02*
X9177200Y-6535100D01*
X9177200Y-6495100D02*
X9137200Y-6535100D01*
X9137200Y-6647500D02*
X9177200Y-6687500D01*
X9177200Y-6647500D02*
X9137200Y-6687500D01*
X9137200Y-6799900D02*
X9177200Y-6839900D01*
X9177200Y-6799900D02*
X9137200Y-6839900D01*
X9137200Y-6952300D02*
X9177200Y-6992300D01*
X9177200Y-6952300D02*
X9137200Y-6992300D01*
X9137200Y-7117400D02*
X9177200Y-7157400D01*
X9177200Y-7117400D02*
X9137200Y-7157400D01*
X9226100Y-7835400D02*
X9266100Y-7875400D01*
X9266100Y-7835400D02*
X9226100Y-7875400D01*
X9226100Y-9422900D02*
X9266100Y-9462900D01*
X9266100Y-9422900D02*
X9226100Y-9462900D01*
X9251500Y-8120700D02*
X9291500Y-8160700D01*
X9291500Y-8120700D02*
X9251500Y-8160700D01*
X9251500Y-8247700D02*
X9291500Y-8287700D01*
X9291500Y-8247700D02*
X9251500Y-8287700D01*
X9251500Y-8374700D02*
X9291500Y-8414700D01*
X9291500Y-8374700D02*
X9251500Y-8414700D01*
X9251500Y-8781100D02*
X9291500Y-8821100D01*
X9291500Y-8781100D02*
X9251500Y-8821100D01*
X9251500Y-8908100D02*
X9291500Y-8948100D01*
X9291500Y-8908100D02*
X9251500Y-8948100D01*
X9251500Y-9035100D02*
X9291500Y-9075100D01*
X9291500Y-9035100D02*
X9251500Y-9075100D01*
X9353100Y-9994400D02*
X9393100Y-10034400D01*
X9393100Y-9994400D02*
X9353100Y-10034400D01*
X9353100Y-10184900D02*
X9393100Y-10224900D01*
X9393100Y-10184900D02*
X9353100Y-10224900D01*
X9543600Y-9994400D02*
X9583600Y-10034400D01*
X9583600Y-9994400D02*
X9543600Y-10034400D01*
X9543600Y-10184900D02*
X9583600Y-10224900D01*
X9583600Y-10184900D02*
X9543600Y-10224900D01*
X9657900Y-6444300D02*
X9697900Y-6484300D01*
X9697900Y-6444300D02*
X9657900Y-6484300D01*
X9702350Y-8770400D02*
X9742350Y-8810400D01*
X9742350Y-8770400D02*
X9702350Y-8810400D01*
X9702350Y-9035100D02*
X9742350Y-9075100D01*
X9742350Y-9035100D02*
X9702350Y-9075100D01*
X9708700Y-7206300D02*
X9748700Y-7246300D01*
X9748700Y-7206300D02*
X9708700Y-7246300D01*
X9708700Y-7511100D02*
X9748700Y-7551100D01*
X9748700Y-7511100D02*
X9708700Y-7551100D01*
X9734100Y-9994400D02*
X9774100Y-10034400D01*
X9774100Y-9994400D02*
X9734100Y-10034400D01*
X9734100Y-10184900D02*
X9774100Y-10224900D01*
X9774100Y-10184900D02*
X9734100Y-10224900D01*
X9861100Y-6291900D02*
X9901100Y-6331900D01*
X9901100Y-6291900D02*
X9861100Y-6331900D01*
X9911900Y-7206300D02*
X9951900Y-7246300D01*
X9951900Y-7206300D02*
X9911900Y-7246300D01*
X9911900Y-7511100D02*
X9951900Y-7551100D01*
X9951900Y-7511100D02*
X9911900Y-7551100D01*
X9911900Y-8770400D02*
X9951900Y-8810400D01*
X9951900Y-8770400D02*
X9911900Y-8810400D01*
X9911900Y-9035100D02*
X9951900Y-9075100D01*
X9951900Y-9035100D02*
X9911900Y-9075100D01*
X9924600Y-9994400D02*
X9964600Y-10034400D01*
X9964600Y-9994400D02*
X9924600Y-10034400D01*
X9924600Y-10184900D02*
X9964600Y-10224900D01*
X9964600Y-10184900D02*
X9924600Y-10224900D01*
X9988100Y-10883400D02*
X10028100Y-10923400D01*
X10028100Y-10883400D02*
X9988100Y-10923400D01*
X10064300Y-6139500D02*
X10104300Y-6179500D01*
X10104300Y-6139500D02*
X10064300Y-6179500D01*
X10115100Y-10756400D02*
X10155100Y-10796400D01*
X10155100Y-10756400D02*
X10115100Y-10796400D01*
X10204000Y-11092500D02*
X10244000Y-11132500D01*
X10244000Y-11092500D02*
X10204000Y-11132500D01*
X10242100Y-10629400D02*
X10282100Y-10669400D01*
X10282100Y-10629400D02*
X10242100Y-10669400D01*
X10318300Y-6139500D02*
X10358300Y-6179500D01*
X10358300Y-6139500D02*
X10318300Y-6179500D01*
X10318300Y-6444300D02*
X10358300Y-6484300D01*
X10358300Y-6444300D02*
X10318300Y-6484300D01*
X10331000Y-10965500D02*
X10371000Y-11005500D01*
X10371000Y-10965500D02*
X10331000Y-11005500D01*
X10369100Y-10502400D02*
X10409100Y-10542400D01*
X10409100Y-10502400D02*
X10369100Y-10542400D01*
X10420600Y-8997000D02*
X10460600Y-9037000D01*
X10460600Y-8997000D02*
X10420600Y-9037000D01*
X10420600Y-9124000D02*
X10460600Y-9164000D01*
X10460600Y-9124000D02*
X10420600Y-9164000D01*
X10420600Y-9251000D02*
X10460600Y-9291000D01*
X10460600Y-9251000D02*
X10420600Y-9291000D01*
X10428850Y-7412900D02*
X10468850Y-7452900D01*
X10468850Y-7412900D02*
X10428850Y-7452900D01*
X10428850Y-7539900D02*
X10468850Y-7579900D01*
X10468850Y-7539900D02*
X10428850Y-7579900D01*
X10428850Y-7666900D02*
X10468850Y-7706900D01*
X10468850Y-7666900D02*
X10428850Y-7706900D01*
X10458000Y-10838500D02*
X10498000Y-10878500D01*
X10498000Y-10838500D02*
X10458000Y-10878500D01*
X10496100Y-10375400D02*
X10536100Y-10415400D01*
X10536100Y-10375400D02*
X10496100Y-10415400D01*
X10585000Y-7412900D02*
X10625000Y-7452900D01*
X10625000Y-7412900D02*
X10585000Y-7452900D01*
X10585000Y-8997000D02*
X10625000Y-9037000D01*
X10625000Y-8997000D02*
X10585000Y-9037000D01*
X10585000Y-10711500D02*
X10625000Y-10751500D01*
X10625000Y-10711500D02*
X10585000Y-10751500D01*
X10648500Y-6330000D02*
X10688500Y-6370000D01*
X10688500Y-6330000D02*
X10648500Y-6370000D01*
X10648500Y-6457000D02*
X10688500Y-6497000D01*
X10688500Y-6457000D02*
X10648500Y-6497000D01*
X10712000Y-10584500D02*
X10752000Y-10624500D01*
X10752000Y-10584500D02*
X10712000Y-10624500D01*
X10750100Y-5822000D02*
X10790100Y-5862000D01*
X10790100Y-5822000D02*
X10750100Y-5862000D01*
X10877100Y-5707700D02*
X10917100Y-5747700D01*
X10917100Y-5707700D02*
X10877100Y-5747700D01*
X10927900Y-8273100D02*
X10967900Y-8313100D01*
X10967900Y-8273100D02*
X10927900Y-8313100D01*
X10927900Y-8476300D02*
X10967900Y-8516300D01*
X10967900Y-8476300D02*
X10927900Y-8516300D01*
X10927900Y-8679500D02*
X10967900Y-8719500D01*
X10967900Y-8679500D02*
X10927900Y-8719500D01*
X10927900Y-8882700D02*
X10967900Y-8922700D01*
X10967900Y-8882700D02*
X10927900Y-8922700D01*
X10927900Y-9136700D02*
X10967900Y-9176700D01*
X10967900Y-9136700D02*
X10927900Y-9176700D01*
X11029500Y-6545900D02*
X11069500Y-6585900D01*
X11069500Y-6545900D02*
X11029500Y-6585900D01*
X11029500Y-6799900D02*
X11069500Y-6839900D01*
X11069500Y-6799900D02*
X11029500Y-6839900D01*
X11029500Y-7053900D02*
X11069500Y-7093900D01*
X11069500Y-7053900D02*
X11029500Y-7093900D01*
X11029500Y-7307900D02*
X11069500Y-7347900D01*
X11069500Y-7307900D02*
X11029500Y-7347900D01*
X11029500Y-7561900D02*
X11069500Y-7601900D01*
X11069500Y-7561900D02*
X11029500Y-7601900D01*
X11029500Y-7866700D02*
X11069500Y-7906700D01*
X11069500Y-7866700D02*
X11029500Y-7906700D01*
X11067600Y-6037900D02*
X11107600Y-6077900D01*
X11107600Y-6037900D02*
X11067600Y-6077900D01*
X11067600Y-6190300D02*
X11107600Y-6230300D01*
X11107600Y-6190300D02*
X11067600Y-6230300D01*
X11181900Y-5936300D02*
X11221900Y-5976300D01*
X11221900Y-5936300D02*
X11181900Y-5976300D01*
X11220000Y-9505000D02*
X11260000Y-9545000D01*
X11260000Y-9505000D02*
X11220000Y-9545000D01*
X11220000Y-9632000D02*
X11260000Y-9672000D01*
X11260000Y-9632000D02*
X11220000Y-9672000D01*
X11283500Y-5834700D02*
X11323500Y-5874700D01*
X11323500Y-5834700D02*
X11283500Y-5874700D01*
X11347000Y-9505000D02*
X11387000Y-9545000D01*
X11387000Y-9505000D02*
X11347000Y-9545000D01*
X11347000Y-9632000D02*
X11387000Y-9672000D01*
X11387000Y-9632000D02*
X11347000Y-9672000D01*
X11410500Y-5707700D02*
X11450500Y-5747700D01*
X11450500Y-5707700D02*
X11410500Y-5747700D01*
X11537500Y-6711000D02*
X11577500Y-6751000D01*
X11577500Y-6711000D02*
X11537500Y-6751000D01*
X11537500Y-7028500D02*
X11577500Y-7068500D01*
X11577500Y-7028500D02*
X11537500Y-7068500D01*
X11537500Y-7346000D02*
X11577500Y-7386000D01*
X11577500Y-7346000D02*
X11537500Y-7386000D01*
X11537500Y-7727000D02*
X11577500Y-7767000D01*
X11577500Y-7727000D02*
X11537500Y-7767000D01*
X11537500Y-8108000D02*
X11577500Y-8148000D01*
X11577500Y-8108000D02*
X11537500Y-8148000D01*
X11537500Y-8489000D02*
X11577500Y-8529000D01*
X11577500Y-8489000D02*
X11537500Y-8529000D01*
X11601000Y-8870000D02*
X11641000Y-8910000D01*
X11641000Y-8870000D02*
X11601000Y-8910000D01*
X11601000Y-8997000D02*
X11641000Y-9037000D01*
X11641000Y-8997000D02*
X11601000Y-9037000D01*
X11601000Y-9613400D02*
X11641000Y-9653400D01*
X11641000Y-9613400D02*
X11601000Y-9653400D01*
X11613700Y-6520500D02*
X11653700Y-6560500D01*
X11653700Y-6520500D02*
X11613700Y-6560500D01*
X11613700Y-6876100D02*
X11653700Y-6916100D01*
X11653700Y-6876100D02*
X11613700Y-6916100D01*
X11613700Y-7180900D02*
X11653700Y-7220900D01*
X11653700Y-7180900D02*
X11613700Y-7220900D01*
X11664500Y-7536500D02*
X11704500Y-7576500D01*
X11704500Y-7536500D02*
X11664500Y-7576500D01*
X11664500Y-7727000D02*
X11704500Y-7767000D01*
X11704500Y-7727000D02*
X11664500Y-7767000D01*
X11664500Y-8108000D02*
X11704500Y-8148000D01*
X11704500Y-8108000D02*
X11664500Y-8148000D01*
X11664500Y-8489000D02*
X11704500Y-8529000D01*
X11704500Y-8489000D02*
X11664500Y-8529000D01*
X11715300Y-6164900D02*
X11755300Y-6204900D01*
X11755300Y-6164900D02*
X11715300Y-6204900D01*
X11715300Y-7993700D02*
X11755300Y-8033700D01*
X11755300Y-7993700D02*
X11715300Y-8033700D01*
X11728000Y-9105400D02*
X11768000Y-9145400D01*
X11768000Y-9105400D02*
X11728000Y-9145400D01*
X11740700Y-10762300D02*
X11780700Y-10802300D01*
X11780700Y-10762300D02*
X11740700Y-10802300D01*
X11740700Y-10965500D02*
X11780700Y-11005500D01*
X11780700Y-10965500D02*
X11740700Y-11005500D01*
X11740700Y-11168700D02*
X11780700Y-11208700D01*
X11780700Y-11168700D02*
X11740700Y-11208700D01*
X11778800Y-5783900D02*
X11818800Y-5823900D01*
X11818800Y-5783900D02*
X11778800Y-5823900D01*
X11816900Y-9619300D02*
X11856900Y-9659300D01*
X11856900Y-9619300D02*
X11816900Y-9659300D01*
X11840600Y-8653250D02*
X11880600Y-8693250D01*
X11880600Y-8653250D02*
X11840600Y-8693250D01*
X11867700Y-6012500D02*
X11907700Y-6052500D01*
X11907700Y-6012500D02*
X11867700Y-6052500D01*
X11867700Y-6164900D02*
X11907700Y-6204900D01*
X11907700Y-6164900D02*
X11867700Y-6204900D01*
X11893100Y-9105400D02*
X11933100Y-9145400D01*
X11933100Y-9105400D02*
X11893100Y-9145400D01*
X11918500Y-7053900D02*
X11958500Y-7093900D01*
X11958500Y-7053900D02*
X11918500Y-7093900D01*
X11918500Y-7231700D02*
X11958500Y-7271700D01*
X11958500Y-7231700D02*
X11918500Y-7271700D01*
X11994700Y-8654100D02*
X12034700Y-8694100D01*
X12034700Y-8654100D02*
X11994700Y-8694100D01*
X11994700Y-10482900D02*
X12034700Y-10522900D01*
X12034700Y-10482900D02*
X11994700Y-10522900D01*
X12045500Y-5860100D02*
X12085500Y-5900100D01*
X12085500Y-5860100D02*
X12045500Y-5900100D01*
X12045500Y-6012500D02*
X12085500Y-6052500D01*
X12085500Y-6012500D02*
X12045500Y-6052500D01*
X12045500Y-9613400D02*
X12085500Y-9653400D01*
X12085500Y-9613400D02*
X12045500Y-9653400D01*
X12070900Y-10749600D02*
X12110900Y-10789600D01*
X12110900Y-10749600D02*
X12070900Y-10789600D01*
X12096300Y-7053900D02*
X12136300Y-7093900D01*
X12136300Y-7053900D02*
X12096300Y-7093900D01*
X12096300Y-7231700D02*
X12136300Y-7271700D01*
X12136300Y-7231700D02*
X12096300Y-7271700D01*
X12109000Y-7434900D02*
X12149000Y-7474900D01*
X12149000Y-7434900D02*
X12109000Y-7474900D01*
X12147100Y-11168700D02*
X12187100Y-11208700D01*
X12187100Y-11168700D02*
X12147100Y-11208700D01*
X12147100Y-11473500D02*
X12187100Y-11513500D01*
X12187100Y-11473500D02*
X12147100Y-11513500D01*
X12153450Y-8653250D02*
X12193450Y-8693250D01*
X12193450Y-8653250D02*
X12153450Y-8693250D01*
X12197900Y-5555300D02*
X12237900Y-5595300D01*
X12237900Y-5555300D02*
X12197900Y-5595300D01*
X12197900Y-5733100D02*
X12237900Y-5773100D01*
X12237900Y-5733100D02*
X12197900Y-5773100D01*
X12197900Y-5860100D02*
X12237900Y-5900100D01*
X12237900Y-5860100D02*
X12197900Y-5900100D01*
X12274100Y-7231700D02*
X12314100Y-7271700D01*
X12314100Y-7231700D02*
X12274100Y-7271700D01*
X12274100Y-7434900D02*
X12314100Y-7474900D01*
X12314100Y-7434900D02*
X12274100Y-7474900D01*
X12274100Y-7638100D02*
X12314100Y-7678100D01*
X12314100Y-7638100D02*
X12274100Y-7678100D01*
X12274100Y-10330500D02*
X12314100Y-10370500D01*
X12314100Y-10330500D02*
X12274100Y-10370500D01*
X12299500Y-7866700D02*
X12339500Y-7906700D01*
X12339500Y-7866700D02*
X12299500Y-7906700D01*
X12299500Y-8730300D02*
X12339500Y-8770300D01*
X12339500Y-8730300D02*
X12299500Y-8770300D01*
X12299500Y-8908100D02*
X12339500Y-8948100D01*
X12339500Y-8908100D02*
X12299500Y-8948100D01*
X12350300Y-5555300D02*
X12390300Y-5595300D01*
X12390300Y-5555300D02*
X12350300Y-5595300D01*
X12350300Y-5733100D02*
X12390300Y-5773100D01*
X12390300Y-5733100D02*
X12350300Y-5773100D01*
X12350300Y-10559100D02*
X12390300Y-10599100D01*
X12390300Y-10559100D02*
X12350300Y-10599100D01*
X12350300Y-11473500D02*
X12390300Y-11513500D01*
X12390300Y-11473500D02*
X12350300Y-11513500D01*
X12401100Y-6901500D02*
X12441100Y-6941500D01*
X12441100Y-6901500D02*
X12401100Y-6941500D01*
X12401100Y-9041900D02*
X12441100Y-9081900D01*
X12441100Y-9041900D02*
X12401100Y-9081900D01*
X12426500Y-4107500D02*
X12466500Y-4147500D01*
X12466500Y-4107500D02*
X12426500Y-4147500D01*
X12483700Y-7511100D02*
X12523700Y-7551100D01*
X12523700Y-7511100D02*
X12483700Y-7551100D01*
X12553500Y-11070300D02*
X12593500Y-11110300D01*
X12593500Y-11070300D02*
X12553500Y-11110300D01*
X12553500Y-11473500D02*
X12593500Y-11513500D01*
X12593500Y-11473500D02*
X12553500Y-11513500D01*
X12578900Y-7663500D02*
X12618900Y-7703500D01*
X12618900Y-7663500D02*
X12578900Y-7703500D01*
X12578900Y-8755700D02*
X12618900Y-8795700D01*
X12618900Y-8755700D02*
X12578900Y-8795700D01*
X12578900Y-8908100D02*
X12618900Y-8948100D01*
X12618900Y-8908100D02*
X12578900Y-8948100D01*
X12578900Y-9873300D02*
X12618900Y-9913300D01*
X12618900Y-9873300D02*
X12578900Y-9913300D01*
X12604300Y-7434900D02*
X12644300Y-7474900D01*
X12644300Y-7434900D02*
X12604300Y-7474900D01*
X12604300Y-10178100D02*
X12644300Y-10218100D01*
X12644300Y-10178100D02*
X12604300Y-10218100D01*
X12629700Y-9466900D02*
X12669700Y-9506900D01*
X12669700Y-9466900D02*
X12629700Y-9506900D01*
X12629700Y-9619300D02*
X12669700Y-9659300D01*
X12669700Y-9619300D02*
X12629700Y-9659300D01*
X12639733Y-9174467D02*
X12679733Y-9214467D01*
X12679733Y-9174467D02*
X12639733Y-9214467D01*
X12680500Y-4107500D02*
X12720500Y-4147500D01*
X12720500Y-4107500D02*
X12680500Y-4147500D01*
X12705900Y-6037900D02*
X12745900Y-6077900D01*
X12745900Y-6037900D02*
X12705900Y-6077900D01*
X12705900Y-6291900D02*
X12745900Y-6331900D01*
X12745900Y-6291900D02*
X12705900Y-6331900D01*
X12731300Y-9873300D02*
X12771300Y-9913300D01*
X12771300Y-9873300D02*
X12731300Y-9913300D01*
X12731300Y-10051100D02*
X12771300Y-10091100D01*
X12771300Y-10051100D02*
X12731300Y-10091100D01*
X12756700Y-6876100D02*
X12796700Y-6916100D01*
X12796700Y-6876100D02*
X12756700Y-6916100D01*
X12756700Y-10406700D02*
X12796700Y-10446700D01*
X12796700Y-10406700D02*
X12756700Y-10446700D01*
X12756700Y-11473500D02*
X12796700Y-11513500D01*
X12796700Y-11473500D02*
X12756700Y-11513500D01*
X12782100Y-7257100D02*
X12822100Y-7297100D01*
X12822100Y-7257100D02*
X12782100Y-7297100D01*
X12807500Y-8908100D02*
X12847500Y-8948100D01*
X12847500Y-8908100D02*
X12807500Y-8948100D01*
X12807500Y-10603900D02*
X12847500Y-10643900D01*
X12847500Y-10603900D02*
X12807500Y-10643900D01*
X12858300Y-5834700D02*
X12898300Y-5874700D01*
X12898300Y-5834700D02*
X12858300Y-5874700D01*
X12934500Y-4107500D02*
X12974500Y-4147500D01*
X12974500Y-4107500D02*
X12934500Y-4147500D01*
X12959900Y-6698300D02*
X12999900Y-6738300D01*
X12999900Y-6698300D02*
X12959900Y-6738300D01*
X12959900Y-7815900D02*
X12999900Y-7855900D01*
X12999900Y-7815900D02*
X12959900Y-7855900D01*
X12959900Y-8069900D02*
X12999900Y-8109900D01*
X12999900Y-8069900D02*
X12959900Y-8109900D01*
X12959900Y-8323900D02*
X12999900Y-8363900D01*
X12999900Y-8323900D02*
X12959900Y-8363900D01*
X12959900Y-8577900D02*
X12999900Y-8617900D01*
X12999900Y-8577900D02*
X12959900Y-8617900D01*
X12959900Y-8831900D02*
X12999900Y-8871900D01*
X12999900Y-8831900D02*
X12959900Y-8871900D01*
X12959900Y-9009700D02*
X12999900Y-9049700D01*
X12999900Y-9009700D02*
X12959900Y-9049700D01*
X12959900Y-10254300D02*
X12999900Y-10294300D01*
X12999900Y-10254300D02*
X12959900Y-10294300D01*
X12959900Y-10974400D02*
X12999900Y-11014400D01*
X12999900Y-10974400D02*
X12959900Y-11014400D01*
X12959900Y-11228400D02*
X12999900Y-11268400D01*
X12999900Y-11228400D02*
X12959900Y-11268400D01*
X12959900Y-11473500D02*
X12999900Y-11513500D01*
X12999900Y-11473500D02*
X12959900Y-11513500D01*
X13010700Y-5682300D02*
X13050700Y-5722300D01*
X13050700Y-5682300D02*
X13010700Y-5722300D01*
X13112300Y-6545900D02*
X13152300Y-6585900D01*
X13152300Y-6545900D02*
X13112300Y-6585900D01*
X13188500Y-4107500D02*
X13228500Y-4147500D01*
X13228500Y-4107500D02*
X13188500Y-4147500D01*
X13302800Y-6444300D02*
X13342800Y-6484300D01*
X13342800Y-6444300D02*
X13302800Y-6484300D01*
X13302800Y-6545900D02*
X13342800Y-6585900D01*
X13342800Y-6545900D02*
X13302800Y-6585900D01*
X13302800Y-6647500D02*
X13342800Y-6687500D01*
X13342800Y-6647500D02*
X13302800Y-6687500D01*
X13315500Y-5275900D02*
X13355500Y-5315900D01*
X13355500Y-5275900D02*
X13315500Y-5315900D01*
X13315500Y-5479100D02*
X13355500Y-5519100D01*
X13355500Y-5479100D02*
X13315500Y-5519100D01*
X13315500Y-5682300D02*
X13355500Y-5722300D01*
X13355500Y-5682300D02*
X13315500Y-5722300D01*
X13417100Y-9974900D02*
X13457100Y-10014900D01*
X13457100Y-9974900D02*
X13417100Y-10014900D01*
X13417100Y-10178100D02*
X13457100Y-10218100D01*
X13457100Y-10178100D02*
X13417100Y-10218100D01*
X13417100Y-10466400D02*
X13457100Y-10506400D01*
X13457100Y-10466400D02*
X13417100Y-10506400D01*
X13417100Y-10974400D02*
X13457100Y-11014400D01*
X13457100Y-10974400D02*
X13417100Y-11014400D01*
X13417100Y-11228400D02*
X13457100Y-11268400D01*
X13457100Y-11228400D02*
X13417100Y-11268400D01*
X13417100Y-11736400D02*
X13457100Y-11776400D01*
X13457100Y-11736400D02*
X13417100Y-11776400D01*
X13417100Y-12133900D02*
X13457100Y-12173900D01*
X13457100Y-12133900D02*
X13417100Y-12173900D01*
X13442500Y-4107500D02*
X13482500Y-4147500D01*
X13482500Y-4107500D02*
X13442500Y-4147500D01*
X13467900Y-8984300D02*
X13507900Y-9024300D01*
X13507900Y-8984300D02*
X13467900Y-9024300D01*
X13506000Y-4679000D02*
X13546000Y-4719000D01*
X13546000Y-4679000D02*
X13506000Y-4719000D01*
X13569500Y-11981500D02*
X13609500Y-12021500D01*
X13609500Y-11981500D02*
X13569500Y-12021500D01*
X13620300Y-7815900D02*
X13660300Y-7855900D01*
X13660300Y-7815900D02*
X13620300Y-7855900D01*
X13620300Y-8069900D02*
X13660300Y-8109900D01*
X13660300Y-8069900D02*
X13620300Y-8109900D01*
X13633000Y-4806000D02*
X13673000Y-4846000D01*
X13673000Y-4806000D02*
X13633000Y-4846000D01*
X13671100Y-8984300D02*
X13711100Y-9024300D01*
X13711100Y-8984300D02*
X13671100Y-9024300D01*
X13671100Y-9740400D02*
X13711100Y-9780400D01*
X13711100Y-9740400D02*
X13671100Y-9780400D01*
X13671100Y-10184900D02*
X13711100Y-10224900D01*
X13711100Y-10184900D02*
X13671100Y-10224900D01*
X13683800Y-11581900D02*
X13723800Y-11621900D01*
X13723800Y-11581900D02*
X13683800Y-11621900D01*
X13696500Y-4107500D02*
X13736500Y-4147500D01*
X13736500Y-4107500D02*
X13696500Y-4147500D01*
X13760000Y-4933000D02*
X13800000Y-4973000D01*
X13800000Y-4933000D02*
X13760000Y-4973000D01*
X13760000Y-5758500D02*
X13800000Y-5798500D01*
X13800000Y-5758500D02*
X13760000Y-5798500D01*
X13760000Y-5936300D02*
X13800000Y-5976300D01*
X13800000Y-5936300D02*
X13760000Y-5976300D01*
X13760000Y-6088700D02*
X13800000Y-6128700D01*
X13800000Y-6088700D02*
X13760000Y-6128700D01*
X13760000Y-6241100D02*
X13800000Y-6281100D01*
X13800000Y-6241100D02*
X13760000Y-6281100D01*
X13772700Y-11778300D02*
X13812700Y-11818300D01*
X13812700Y-11778300D02*
X13772700Y-11818300D01*
X13798100Y-13296400D02*
X13838100Y-13336400D01*
X13838100Y-13296400D02*
X13798100Y-13336400D01*
X13810800Y-11454900D02*
X13850800Y-11494900D01*
X13850800Y-11454900D02*
X13810800Y-11494900D01*
X13848900Y-10482900D02*
X13888900Y-10522900D01*
X13888900Y-10482900D02*
X13848900Y-10522900D01*
X13861600Y-9740400D02*
X13901600Y-9780400D01*
X13901600Y-9740400D02*
X13861600Y-9780400D01*
X13874300Y-8978400D02*
X13914300Y-9018400D01*
X13914300Y-8978400D02*
X13874300Y-9018400D01*
X13937800Y-11327900D02*
X13977800Y-11367900D01*
X13977800Y-11327900D02*
X13937800Y-11367900D01*
X13950500Y-4107500D02*
X13990500Y-4147500D01*
X13990500Y-4107500D02*
X13950500Y-4147500D01*
X13950500Y-4679000D02*
X13990500Y-4719000D01*
X13990500Y-4679000D02*
X13950500Y-4719000D01*
X13988600Y-8343400D02*
X14028600Y-8383400D01*
X14028600Y-8343400D02*
X13988600Y-8383400D01*
X13988600Y-8470400D02*
X14028600Y-8510400D01*
X14028600Y-8470400D02*
X13988600Y-8510400D01*
X13988600Y-8597400D02*
X14028600Y-8637400D01*
X14028600Y-8597400D02*
X13988600Y-8637400D01*
X13988600Y-13105900D02*
X14028600Y-13145900D01*
X14028600Y-13105900D02*
X13988600Y-13145900D01*
X14014000Y-4806000D02*
X14054000Y-4846000D01*
X14054000Y-4806000D02*
X14014000Y-4846000D01*
X14026700Y-11524300D02*
X14066700Y-11564300D01*
X14066700Y-11524300D02*
X14026700Y-11564300D01*
X14052100Y-9740400D02*
X14092100Y-9780400D01*
X14092100Y-9740400D02*
X14052100Y-9780400D01*
X14052100Y-9930900D02*
X14092100Y-9970900D01*
X14092100Y-9930900D02*
X14052100Y-9970900D01*
X14052100Y-10184900D02*
X14092100Y-10224900D01*
X14092100Y-10184900D02*
X14052100Y-10224900D01*
X14064800Y-11200900D02*
X14104800Y-11240900D01*
X14104800Y-11200900D02*
X14064800Y-11240900D01*
X14077500Y-4679000D02*
X14117500Y-4719000D01*
X14117500Y-4679000D02*
X14077500Y-4719000D01*
X14077500Y-8978400D02*
X14117500Y-9018400D01*
X14117500Y-8978400D02*
X14077500Y-9018400D01*
X14115600Y-8343400D02*
X14155600Y-8383400D01*
X14155600Y-8343400D02*
X14115600Y-8383400D01*
X14115600Y-8470400D02*
X14155600Y-8510400D01*
X14155600Y-8470400D02*
X14115600Y-8510400D01*
X14115600Y-8597400D02*
X14155600Y-8637400D01*
X14155600Y-8597400D02*
X14115600Y-8637400D01*
X14115600Y-12343900D02*
X14155600Y-12383900D01*
X14155600Y-12343900D02*
X14115600Y-12383900D01*
X14141000Y-4806000D02*
X14181000Y-4846000D01*
X14181000Y-4806000D02*
X14141000Y-4846000D01*
X14179100Y-12915400D02*
X14219100Y-12955400D01*
X14219100Y-12915400D02*
X14179100Y-12955400D01*
X14306100Y-12153400D02*
X14346100Y-12193400D01*
X14346100Y-12153400D02*
X14306100Y-12193400D01*
X14369600Y-12724900D02*
X14409600Y-12764900D01*
X14409600Y-12724900D02*
X14369600Y-12764900D01*
X14395000Y-5758500D02*
X14435000Y-5798500D01*
X14435000Y-5758500D02*
X14395000Y-5798500D01*
X14395000Y-5943100D02*
X14435000Y-5983100D01*
X14435000Y-5943100D02*
X14395000Y-5983100D01*
X14395000Y-6095500D02*
X14435000Y-6135500D01*
X14435000Y-6095500D02*
X14395000Y-6135500D01*
X14395000Y-6247900D02*
X14435000Y-6287900D01*
X14435000Y-6247900D02*
X14395000Y-6287900D01*
X14400947Y-6946400D02*
X14440947Y-6986400D01*
X14440947Y-6946400D02*
X14400947Y-6986400D01*
X14400947Y-7200400D02*
X14440947Y-7240400D01*
X14440947Y-7200400D02*
X14400947Y-7240400D01*
X14400947Y-7454400D02*
X14440947Y-7494400D01*
X14440947Y-7454400D02*
X14400947Y-7494400D01*
X14400947Y-7708400D02*
X14440947Y-7748400D01*
X14440947Y-7708400D02*
X14400947Y-7748400D01*
X14433100Y-9740400D02*
X14473100Y-9780400D01*
X14473100Y-9740400D02*
X14433100Y-9780400D01*
X14433100Y-9930900D02*
X14473100Y-9970900D01*
X14473100Y-9930900D02*
X14433100Y-9970900D01*
X14433100Y-10121400D02*
X14473100Y-10161400D01*
X14473100Y-10121400D02*
X14433100Y-10161400D01*
X14496600Y-11962900D02*
X14536600Y-12002900D01*
X14536600Y-11962900D02*
X14496600Y-12002900D01*
X14560100Y-10819900D02*
X14600100Y-10859900D01*
X14600100Y-10819900D02*
X14560100Y-10859900D01*
X14560100Y-10946900D02*
X14600100Y-10986900D01*
X14600100Y-10946900D02*
X14560100Y-10986900D01*
X14560100Y-12534400D02*
X14600100Y-12574400D01*
X14600100Y-12534400D02*
X14560100Y-12574400D01*
X14687100Y-10819900D02*
X14727100Y-10859900D01*
X14727100Y-10819900D02*
X14687100Y-10859900D01*
X14687100Y-10946900D02*
X14727100Y-10986900D01*
X14727100Y-10946900D02*
X14687100Y-10986900D01*
X14687100Y-11772400D02*
X14727100Y-11812400D01*
X14727100Y-11772400D02*
X14687100Y-11812400D01*
X14750600Y-12343900D02*
X14790600Y-12383900D01*
X14790600Y-12343900D02*
X14750600Y-12383900D01*
X14814100Y-6946400D02*
X14854100Y-6986400D01*
X14854100Y-6946400D02*
X14814100Y-6986400D01*
X14814100Y-7200400D02*
X14854100Y-7240400D01*
X14854100Y-7200400D02*
X14814100Y-7240400D01*
X14814100Y-7454400D02*
X14854100Y-7494400D01*
X14854100Y-7454400D02*
X14814100Y-7494400D01*
X14814100Y-7708400D02*
X14854100Y-7748400D01*
X14854100Y-7708400D02*
X14814100Y-7748400D01*
X14814100Y-8216400D02*
X14854100Y-8256400D01*
X14854100Y-8216400D02*
X14814100Y-8256400D01*
X14814100Y-8470400D02*
X14854100Y-8510400D01*
X14854100Y-8470400D02*
X14814100Y-8510400D01*
X14814100Y-10819900D02*
X14854100Y-10859900D01*
X14854100Y-10819900D02*
X14814100Y-10859900D01*
X14814100Y-10946900D02*
X14854100Y-10986900D01*
X14854100Y-10946900D02*
X14814100Y-10986900D01*
X14877600Y-11581900D02*
X14917600Y-11621900D01*
X14917600Y-11581900D02*
X14877600Y-11621900D01*
X14890300Y-9041900D02*
X14930300Y-9081900D01*
X14930300Y-9041900D02*
X14890300Y-9081900D01*
X14890300Y-9238300D02*
X14930300Y-9278300D01*
X14930300Y-9238300D02*
X14890300Y-9278300D01*
X14890300Y-9441500D02*
X14930300Y-9481500D01*
X14930300Y-9441500D02*
X14890300Y-9481500D01*
X14890300Y-9644700D02*
X14930300Y-9684700D01*
X14930300Y-9644700D02*
X14890300Y-9684700D01*
X14941100Y-10819900D02*
X14981100Y-10859900D01*
X14981100Y-10819900D02*
X14941100Y-10859900D01*
X14941100Y-10946900D02*
X14981100Y-10986900D01*
X14981100Y-10946900D02*
X14941100Y-10986900D01*
X14941100Y-12153400D02*
X14981100Y-12193400D01*
X14981100Y-12153400D02*
X14941100Y-12193400D01*
X15068100Y-11391400D02*
X15108100Y-11431400D01*
X15108100Y-11391400D02*
X15068100Y-11431400D01*
X15131600Y-11962900D02*
X15171600Y-12002900D01*
X15171600Y-11962900D02*
X15131600Y-12002900D01*
X15322100Y-11772400D02*
X15362100Y-11812400D01*
X15362100Y-11772400D02*
X15322100Y-11812400D01*
X15449100Y-7460300D02*
X15489100Y-7500300D01*
X15489100Y-7460300D02*
X15449100Y-7500300D01*
X15449100Y-7714300D02*
X15489100Y-7754300D01*
X15489100Y-7714300D02*
X15449100Y-7754300D01*
X15449100Y-7968300D02*
X15489100Y-8008300D01*
X15489100Y-7968300D02*
X15449100Y-8008300D01*
X15449100Y-8222300D02*
X15489100Y-8262300D01*
X15489100Y-8222300D02*
X15449100Y-8262300D01*
X15449100Y-9441500D02*
X15489100Y-9481500D01*
X15489100Y-9441500D02*
X15449100Y-9481500D01*
X15449100Y-9695500D02*
X15489100Y-9735500D01*
X15489100Y-9695500D02*
X15449100Y-9735500D01*
X15449100Y-9949500D02*
X15489100Y-9989500D01*
X15489100Y-9949500D02*
X15449100Y-9989500D01*
X15449100Y-10203500D02*
X15489100Y-10243500D01*
X15489100Y-10203500D02*
X15449100Y-10243500D01*
X13352800Y-5905500D02*
G75*
G02*
X13292800Y-5905500I-30000J0D01*
G01*
X13292800Y-5905500D02*
G75*
G02*
X13352800Y-5905500I30000J0D01*
G01*
X13352800Y-6032500D02*
G75*
G02*
X13292800Y-6032500I-30000J0D01*
G01*
X13292800Y-6032500D02*
G75*
G02*
X13352800Y-6032500I30000J0D01*
G01*
X13352800Y-6159500D02*
G75*
G02*
X13292800Y-6159500I-30000J0D01*
G01*
X13292800Y-6159500D02*
G75*
G02*
X13352800Y-6159500I30000J0D01*
G01*
X13556000Y-5334000D02*
G75*
G02*
X13496000Y-5334000I-30000J0D01*
G01*
X13496000Y-5334000D02*
G75*
G02*
X13556000Y-5334000I30000J0D01*
G01*
X14452292Y-8553900D02*
G75*
G02*
X14392292Y-8553900I-30000J0D01*
G01*
X14392292Y-8553900D02*
G75*
G02*
X14452292Y-8553900I30000J0D01*
G01*
X13818100Y-6932300D02*
X13818100Y-7012300D01*
X13778100Y-6972300D02*
X13858100Y-6972300D01*
X13818100Y-7186300D02*
X13818100Y-7266300D01*
X13778100Y-7226300D02*
X13858100Y-7226300D01*
X13818100Y-7440300D02*
X13818100Y-7520300D01*
X13778100Y-7480300D02*
X13858100Y-7480300D01*
X13818100Y-7694300D02*
X13818100Y-7774300D01*
X13778100Y-7734300D02*
X13858100Y-7734300D01*
X13818100Y-7948300D02*
X13818100Y-8028300D01*
X13778100Y-7988300D02*
X13858100Y-7988300D01*
X13818100Y-8202300D02*
X13818100Y-8282300D01*
X13778100Y-8242300D02*
X13858100Y-8242300D01*
X13818100Y-8456300D02*
X13818100Y-8536300D01*
X13778100Y-8496300D02*
X13858100Y-8496300D01*
X13818100Y-8710300D02*
X13818100Y-8790300D01*
X13778100Y-8750300D02*
X13858100Y-8750300D01*
X15088100Y-6932300D02*
X15088100Y-7012300D01*
X15048100Y-6972300D02*
X15128100Y-6972300D01*
X15088100Y-7186300D02*
X15088100Y-7266300D01*
X15048100Y-7226300D02*
X15128100Y-7226300D01*
X15088100Y-7440300D02*
X15088100Y-7520300D01*
X15048100Y-7480300D02*
X15128100Y-7480300D01*
X15088100Y-7694300D02*
X15088100Y-7774300D01*
X15048100Y-7734300D02*
X15128100Y-7734300D01*
X15088100Y-7948300D02*
X15088100Y-8028300D01*
X15048100Y-7988300D02*
X15128100Y-7988300D01*
X15088100Y-8202300D02*
X15088100Y-8282300D01*
X15048100Y-8242300D02*
X15128100Y-8242300D01*
X15088100Y-8456300D02*
X15088100Y-8536300D01*
X15048100Y-8496300D02*
X15128100Y-8496300D01*
X15088100Y-8710300D02*
X15088100Y-8790300D01*
X15048100Y-8750300D02*
X15128100Y-8750300D01*
X8589956Y-7611256D02*
X8589956Y-7540544D01*
X8519244Y-7540544D01*
X8519244Y-7611256D01*
X8589956Y-7611256D01*
X8589956Y-7865256D02*
X8589956Y-7794544D01*
X8519244Y-7794544D01*
X8519244Y-7865256D01*
X8589956Y-7865256D01*
X8589956Y-8119256D02*
X8589956Y-8048544D01*
X8519244Y-8048544D01*
X8519244Y-8119256D01*
X8589956Y-8119256D01*
X8589956Y-8373256D02*
X8589956Y-8302544D01*
X8519244Y-8302544D01*
X8519244Y-8373256D01*
X8589956Y-8373256D01*
X8589956Y-8627256D02*
X8589956Y-8556544D01*
X8519244Y-8556544D01*
X8519244Y-8627256D01*
X8589956Y-8627256D01*
X8589956Y-8881256D02*
X8589956Y-8810544D01*
X8519244Y-8810544D01*
X8519244Y-8881256D01*
X8589956Y-8881256D01*
X8589956Y-9135256D02*
X8589956Y-9064544D01*
X8519244Y-9064544D01*
X8519244Y-9135256D01*
X8589956Y-9135256D01*
X8589956Y-9389256D02*
X8589956Y-9318544D01*
X8519244Y-9318544D01*
X8519244Y-9389256D01*
X8589956Y-9389256D01*
X8589956Y-9643256D02*
X8589956Y-9572544D01*
X8519244Y-9572544D01*
X8519244Y-9643256D01*
X8589956Y-9643256D01*
X8589956Y-9897256D02*
X8589956Y-9826544D01*
X8519244Y-9826544D01*
X8519244Y-9897256D01*
X8589956Y-9897256D01*
X8589956Y-10151256D02*
X8589956Y-10080544D01*
X8519244Y-10080544D01*
X8519244Y-10151256D01*
X8589956Y-10151256D01*
X8589956Y-10405256D02*
X8589956Y-10334544D01*
X8519244Y-10334544D01*
X8519244Y-10405256D01*
X8589956Y-10405256D01*
X8589956Y-10659256D02*
X8589956Y-10588544D01*
X8519244Y-10588544D01*
X8519244Y-10659256D01*
X8589956Y-10659256D01*
X8589956Y-10913256D02*
X8589956Y-10842544D01*
X8519244Y-10842544D01*
X8519244Y-10913256D01*
X8589956Y-10913256D01*
X8589956Y-11167256D02*
X8589956Y-11096544D01*
X8519244Y-11096544D01*
X8519244Y-11167256D01*
X8589956Y-11167256D01*
X8589956Y-11421256D02*
X8589956Y-11350544D01*
X8519244Y-11350544D01*
X8519244Y-11421256D01*
X8589956Y-11421256D01*
X8589956Y-11675256D02*
X8589956Y-11604544D01*
X8519244Y-11604544D01*
X8519244Y-11675256D01*
X8589956Y-11675256D01*
X8589956Y-11929256D02*
X8589956Y-11858544D01*
X8519244Y-11858544D01*
X8519244Y-11929256D01*
X8589956Y-11929256D01*
X8589956Y-12183256D02*
X8589956Y-12112544D01*
X8519244Y-12112544D01*
X8519244Y-12183256D01*
X8589956Y-12183256D01*
X8589956Y-12437256D02*
X8589956Y-12366544D01*
X8519244Y-12366544D01*
X8519244Y-12437256D01*
X8589956Y-12437256D01*
X8589956Y-12691256D02*
X8589956Y-12620544D01*
X8519244Y-12620544D01*
X8519244Y-12691256D01*
X8589956Y-12691256D01*
X8589956Y-12945256D02*
X8589956Y-12874544D01*
X8519244Y-12874544D01*
X8519244Y-12945256D01*
X8589956Y-12945256D01*
X8589956Y-13199256D02*
X8589956Y-13128544D01*
X8519244Y-13128544D01*
X8519244Y-13199256D01*
X8589956Y-13199256D01*
X8589956Y-13453256D02*
X8589956Y-13382544D01*
X8519244Y-13382544D01*
X8519244Y-13453256D01*
X8589956Y-13453256D01*
X10931956Y-9986256D02*
X10931956Y-9915544D01*
X10861244Y-9915544D01*
X10861244Y-9986256D01*
X10931956Y-9986256D01*
X10931956Y-10240256D02*
X10931956Y-10169544D01*
X10861244Y-10169544D01*
X10861244Y-10240256D01*
X10931956Y-10240256D01*
X11185956Y-9986256D02*
X11185956Y-9915544D01*
X11115244Y-9915544D01*
X11115244Y-9986256D01*
X11185956Y-9986256D01*
X11185956Y-10240256D02*
X11185956Y-10169544D01*
X11115244Y-10169544D01*
X11115244Y-10240256D01*
X11185956Y-10240256D01*
X11439956Y-9986256D02*
X11439956Y-9915544D01*
X11369244Y-9915544D01*
X11369244Y-9986256D01*
X11439956Y-9986256D01*
X11439956Y-10240256D02*
X11439956Y-10169544D01*
X11369244Y-10169544D01*
X11369244Y-10240256D01*
X11439956Y-10240256D01*
X11693956Y-9986256D02*
X11693956Y-9915544D01*
X11623244Y-9915544D01*
X11623244Y-9986256D01*
X11693956Y-9986256D01*
X11693956Y-10240256D02*
X11693956Y-10169544D01*
X11623244Y-10169544D01*
X11623244Y-10240256D01*
X11693956Y-10240256D01*
X11947956Y-9986256D02*
X11947956Y-9915544D01*
X11877244Y-9915544D01*
X11877244Y-9986256D01*
X11947956Y-9986256D01*
X11947956Y-10240256D02*
X11947956Y-10169544D01*
X11877244Y-10169544D01*
X11877244Y-10240256D01*
X11947956Y-10240256D01*
X12201956Y-9986256D02*
X12201956Y-9915544D01*
X12131244Y-9915544D01*
X12131244Y-9986256D01*
X12201956Y-9986256D01*
X12201956Y-10240256D02*
X12201956Y-10169544D01*
X12131244Y-10169544D01*
X12131244Y-10240256D01*
X12201956Y-10240256D01*
X12455956Y-9986256D02*
X12455956Y-9915544D01*
X12385244Y-9915544D01*
X12385244Y-9986256D01*
X12455956Y-9986256D01*
X12455956Y-10240256D02*
X12455956Y-10169544D01*
X12385244Y-10169544D01*
X12385244Y-10240256D01*
X12455956Y-10240256D01*
X13242956Y-7605256D02*
X13242956Y-7534544D01*
X13172244Y-7534544D01*
X13172244Y-7605256D01*
X13242956Y-7605256D01*
X13242956Y-7859256D02*
X13242956Y-7788544D01*
X13172244Y-7788544D01*
X13172244Y-7859256D01*
X13242956Y-7859256D01*
X13242956Y-8113256D02*
X13242956Y-8042544D01*
X13172244Y-8042544D01*
X13172244Y-8113256D01*
X13242956Y-8113256D01*
X13242956Y-8367256D02*
X13242956Y-8296544D01*
X13172244Y-8296544D01*
X13172244Y-8367256D01*
X13242956Y-8367256D01*
X13242956Y-8621256D02*
X13242956Y-8550544D01*
X13172244Y-8550544D01*
X13172244Y-8621256D01*
X13242956Y-8621256D01*
X13242956Y-8875256D02*
X13242956Y-8804544D01*
X13172244Y-8804544D01*
X13172244Y-8875256D01*
X13242956Y-8875256D01*
X13242956Y-9129256D02*
X13242956Y-9058544D01*
X13172244Y-9058544D01*
X13172244Y-9129256D01*
X13242956Y-9129256D01*
X13242956Y-9383256D02*
X13242956Y-9312544D01*
X13172244Y-9312544D01*
X13172244Y-9383256D01*
X13242956Y-9383256D01*
X13242956Y-9637256D02*
X13242956Y-9566544D01*
X13172244Y-9566544D01*
X13172244Y-9637256D01*
X13242956Y-9637256D01*
X13242956Y-9891256D02*
X13242956Y-9820544D01*
X13172244Y-9820544D01*
X13172244Y-9891256D01*
X13242956Y-9891256D01*
X13242956Y-10145256D02*
X13242956Y-10074544D01*
X13172244Y-10074544D01*
X13172244Y-10145256D01*
X13242956Y-10145256D01*
X13242956Y-10399256D02*
X13242956Y-10328544D01*
X13172244Y-10328544D01*
X13172244Y-10399256D01*
X13242956Y-10399256D01*
X13242956Y-10653256D02*
X13242956Y-10582544D01*
X13172244Y-10582544D01*
X13172244Y-10653256D01*
X13242956Y-10653256D01*
X13242956Y-10907256D02*
X13242956Y-10836544D01*
X13172244Y-10836544D01*
X13172244Y-10907256D01*
X13242956Y-10907256D01*
X13242956Y-11161256D02*
X13242956Y-11090544D01*
X13172244Y-11090544D01*
X13172244Y-11161256D01*
X13242956Y-11161256D01*
X13242956Y-11415256D02*
X13242956Y-11344544D01*
X13172244Y-11344544D01*
X13172244Y-11415256D01*
X13242956Y-11415256D01*
X13242956Y-11669256D02*
X13242956Y-11598544D01*
X13172244Y-11598544D01*
X13172244Y-11669256D01*
X13242956Y-11669256D01*
X13242956Y-11923256D02*
X13242956Y-11852544D01*
X13172244Y-11852544D01*
X13172244Y-11923256D01*
X13242956Y-11923256D01*
X13242956Y-12177256D02*
X13242956Y-12106544D01*
X13172244Y-12106544D01*
X13172244Y-12177256D01*
X13242956Y-12177256D01*
X13242956Y-12431256D02*
X13242956Y-12360544D01*
X13172244Y-12360544D01*
X13172244Y-12431256D01*
X13242956Y-12431256D01*
X13242956Y-12685256D02*
X13242956Y-12614544D01*
X13172244Y-12614544D01*
X13172244Y-12685256D01*
X13242956Y-12685256D01*
X13242956Y-12939256D02*
X13242956Y-12868544D01*
X13172244Y-12868544D01*
X13172244Y-12939256D01*
X13242956Y-12939256D01*
X13242956Y-13193256D02*
X13242956Y-13122544D01*
X13172244Y-13122544D01*
X13172244Y-13193256D01*
X13242956Y-13193256D01*
X13242956Y-13447256D02*
X13242956Y-13376544D01*
X13172244Y-13376544D01*
X13172244Y-13447256D01*
X13242956Y-13447256D01*
D13*
X9817600Y-6830900D02*
X9872600Y-6775900D01*
X9817600Y-6720900D01*
X9762600Y-6775900D01*
X9817600Y-6830900D01*
X9817600Y-7846900D02*
X9872600Y-7791900D01*
X9817600Y-7736900D01*
X9762600Y-7791900D01*
X9817600Y-7846900D01*
X9817600Y-8418400D02*
X9872600Y-8363400D01*
X9817600Y-8308400D01*
X9762600Y-8363400D01*
X9817600Y-8418400D01*
X9817600Y-9434400D02*
X9872600Y-9379400D01*
X9817600Y-9324400D01*
X9762600Y-9379400D01*
X9817600Y-9434400D01*
X10213100Y-4690500D02*
X10268100Y-4635500D01*
X10213100Y-4580500D01*
X10158100Y-4635500D01*
X10213100Y-4690500D01*
X10213100Y-4940500D02*
X10268100Y-4885500D01*
X10213100Y-4830500D01*
X10158100Y-4885500D01*
X10213100Y-4940500D01*
X10213100Y-5190500D02*
X10268100Y-5135500D01*
X10213100Y-5080500D01*
X10158100Y-5135500D01*
X10213100Y-5190500D01*
X10213100Y-5440500D02*
X10268100Y-5385500D01*
X10213100Y-5330500D01*
X10158100Y-5385500D01*
X10213100Y-5440500D01*
X10583100Y-4690500D02*
X10638100Y-4635500D01*
X10583100Y-4580500D01*
X10528100Y-4635500D01*
X10583100Y-4690500D01*
X10583100Y-4940500D02*
X10638100Y-4885500D01*
X10583100Y-4830500D01*
X10528100Y-4885500D01*
X10583100Y-4940500D01*
X10583100Y-5190500D02*
X10638100Y-5135500D01*
X10583100Y-5080500D01*
X10528100Y-5135500D01*
X10583100Y-5190500D01*
X10583100Y-5440500D02*
X10638100Y-5385500D01*
X10583100Y-5330500D01*
X10528100Y-5385500D01*
X10583100Y-5440500D01*
X10933100Y-4690500D02*
X10988100Y-4635500D01*
X10933100Y-4580500D01*
X10878100Y-4635500D01*
X10933100Y-4690500D01*
X10933100Y-4940500D02*
X10988100Y-4885500D01*
X10933100Y-4830500D01*
X10878100Y-4885500D01*
X10933100Y-4940500D01*
X10933100Y-5190500D02*
X10988100Y-5135500D01*
X10933100Y-5080500D01*
X10878100Y-5135500D01*
X10933100Y-5190500D01*
X10933100Y-5440500D02*
X10988100Y-5385500D01*
X10933100Y-5330500D01*
X10878100Y-5385500D01*
X10933100Y-5440500D01*
X11183100Y-4690500D02*
X11238100Y-4635500D01*
X11183100Y-4580500D01*
X11128100Y-4635500D01*
X11183100Y-4690500D01*
X11183100Y-4940500D02*
X11238100Y-4885500D01*
X11183100Y-4830500D01*
X11128100Y-4885500D01*
X11183100Y-4940500D01*
X11183100Y-5190500D02*
X11238100Y-5135500D01*
X11183100Y-5080500D01*
X11128100Y-5135500D01*
X11183100Y-5190500D01*
X11183100Y-5440500D02*
X11238100Y-5385500D01*
X11183100Y-5330500D01*
X11128100Y-5385500D01*
X11183100Y-5440500D01*
X11433100Y-4690500D02*
X11488100Y-4635500D01*
X11433100Y-4580500D01*
X11378100Y-4635500D01*
X11433100Y-4690500D01*
X11433100Y-4940500D02*
X11488100Y-4885500D01*
X11433100Y-4830500D01*
X11378100Y-4885500D01*
X11433100Y-4940500D01*
X11433100Y-5190500D02*
X11488100Y-5135500D01*
X11433100Y-5080500D01*
X11378100Y-5135500D01*
X11433100Y-5190500D01*
X11433100Y-5440500D02*
X11488100Y-5385500D01*
X11433100Y-5330500D01*
X11378100Y-5385500D01*
X11433100Y-5440500D01*
X11683100Y-4690500D02*
X11738100Y-4635500D01*
X11683100Y-4580500D01*
X11628100Y-4635500D01*
X11683100Y-4690500D01*
X11683100Y-4940500D02*
X11738100Y-4885500D01*
X11683100Y-4830500D01*
X11628100Y-4885500D01*
X11683100Y-4940500D01*
X11683100Y-5190500D02*
X11738100Y-5135500D01*
X11683100Y-5080500D01*
X11628100Y-5135500D01*
X11683100Y-5190500D01*
X11683100Y-5440500D02*
X11738100Y-5385500D01*
X11683100Y-5330500D01*
X11628100Y-5385500D01*
X11683100Y-5440500D01*
X11933100Y-4690500D02*
X11988100Y-4635500D01*
X11933100Y-4580500D01*
X11878100Y-4635500D01*
X11933100Y-4690500D01*
X11933100Y-4940500D02*
X11988100Y-4885500D01*
X11933100Y-4830500D01*
X11878100Y-4885500D01*
X11933100Y-4940500D01*
X11933100Y-5190500D02*
X11988100Y-5135500D01*
X11933100Y-5080500D01*
X11878100Y-5135500D01*
X11933100Y-5190500D01*
X11933100Y-5440500D02*
X11988100Y-5385500D01*
X11933100Y-5330500D01*
X11878100Y-5385500D01*
X11933100Y-5440500D01*
X12183100Y-4690500D02*
X12238100Y-4635500D01*
X12183100Y-4580500D01*
X12128100Y-4635500D01*
X12183100Y-4690500D01*
X12183100Y-4940500D02*
X12238100Y-4885500D01*
X12183100Y-4830500D01*
X12128100Y-4885500D01*
X12183100Y-4940500D01*
X12183100Y-5190500D02*
X12238100Y-5135500D01*
X12183100Y-5080500D01*
X12128100Y-5135500D01*
X12183100Y-5190500D01*
X12183100Y-5440500D02*
X12238100Y-5385500D01*
X12183100Y-5330500D01*
X12128100Y-5385500D01*
X12183100Y-5440500D01*
X12433100Y-4690500D02*
X12488100Y-4635500D01*
X12433100Y-4580500D01*
X12378100Y-4635500D01*
X12433100Y-4690500D01*
X12433100Y-4940500D02*
X12488100Y-4885500D01*
X12433100Y-4830500D01*
X12378100Y-4885500D01*
X12433100Y-4940500D01*
X12433100Y-5190500D02*
X12488100Y-5135500D01*
X12433100Y-5080500D01*
X12378100Y-5135500D01*
X12433100Y-5190500D01*
X12433100Y-5440500D02*
X12488100Y-5385500D01*
X12433100Y-5330500D01*
X12378100Y-5385500D01*
X12433100Y-5440500D01*
X12683100Y-4690500D02*
X12738100Y-4635500D01*
X12683100Y-4580500D01*
X12628100Y-4635500D01*
X12683100Y-4690500D01*
X12683100Y-4940500D02*
X12738100Y-4885500D01*
X12683100Y-4830500D01*
X12628100Y-4885500D01*
X12683100Y-4940500D01*
X12683100Y-5190500D02*
X12738100Y-5135500D01*
X12683100Y-5080500D01*
X12628100Y-5135500D01*
X12683100Y-5190500D01*
X12683100Y-5440500D02*
X12738100Y-5385500D01*
X12683100Y-5330500D01*
X12628100Y-5385500D01*
X12683100Y-5440500D01*
X12933100Y-4690500D02*
X12988100Y-4635500D01*
X12933100Y-4580500D01*
X12878100Y-4635500D01*
X12933100Y-4690500D01*
X12933100Y-4940500D02*
X12988100Y-4885500D01*
X12933100Y-4830500D01*
X12878100Y-4885500D01*
X12933100Y-4940500D01*
X12933100Y-5190500D02*
X12988100Y-5135500D01*
X12933100Y-5080500D01*
X12878100Y-5135500D01*
X12933100Y-5190500D01*
X12933100Y-5440500D02*
X12988100Y-5385500D01*
X12933100Y-5330500D01*
X12878100Y-5385500D01*
X12933100Y-5440500D01*
X13183100Y-4690500D02*
X13238100Y-4635500D01*
X13183100Y-4580500D01*
X13128100Y-4635500D01*
X13183100Y-4690500D01*
X13183100Y-4940500D02*
X13238100Y-4885500D01*
X13183100Y-4830500D01*
X13128100Y-4885500D01*
X13183100Y-4940500D01*
X13183100Y-5190500D02*
X13238100Y-5135500D01*
X13183100Y-5080500D01*
X13128100Y-5135500D01*
X13183100Y-5190500D01*
X13183100Y-5440500D02*
X13238100Y-5385500D01*
X13183100Y-5330500D01*
X13128100Y-5385500D01*
X13183100Y-5440500D01*
D14*
X8044700Y-6101100D02*
X8364700Y-6421100D01*
X8364700Y-6101100D02*
X8044700Y-6421100D01*
X8364700Y-6261100D02*
G75*
G02*
X8044700Y-6261100I-160000J0D01*
G01*
X8044700Y-6261100D02*
G75*
G02*
X8364700Y-6261100I160000J0D01*
G01*
X9568700Y-13771900D02*
X9888700Y-14091900D01*
X9888700Y-13771900D02*
X9568700Y-14091900D01*
X9888700Y-13931900D02*
G75*
G02*
X9568700Y-13931900I-160000J0D01*
G01*
X9568700Y-13931900D02*
G75*
G02*
X9888700Y-13931900I160000J0D01*
G01*
X15004300Y-6101100D02*
X15324300Y-6421100D01*
X15324300Y-6101100D02*
X15004300Y-6421100D01*
X15324300Y-6261100D02*
G75*
G02*
X15004300Y-6261100I-160000J0D01*
G01*
X15004300Y-6261100D02*
G75*
G02*
X15324300Y-6261100I160000J0D01*
G01*
X15004300Y-13771900D02*
X15324300Y-14091900D01*
X15324300Y-13771900D02*
X15004300Y-14091900D01*
X15324300Y-13931900D02*
G75*
G02*
X15004300Y-13931900I-160000J0D01*
G01*
X15004300Y-13931900D02*
G75*
G02*
X15324300Y-13931900I160000J0D01*
G01*
D15*
X8479600Y-6900900D02*
X8829600Y-7250900D01*
X8829600Y-6900900D02*
X8479600Y-7250900D01*
X8654600Y-6900900D02*
X8654600Y-7250900D01*
X8479600Y-7075900D02*
X8829600Y-7075900D01*
X8479600Y-13740900D02*
X8829600Y-14090900D01*
X8829600Y-13740900D02*
X8479600Y-14090900D01*
X8654600Y-13740900D02*
X8654600Y-14090900D01*
X8479600Y-13915900D02*
X8829600Y-13915900D01*
X12944600Y-6898900D02*
X13294600Y-7248900D01*
X13294600Y-6898900D02*
X12944600Y-7248900D01*
X13119600Y-6898900D02*
X13119600Y-7248900D01*
X12944600Y-7073900D02*
X13294600Y-7073900D01*
X12944600Y-13739900D02*
X13294600Y-14089900D01*
X13294600Y-13739900D02*
X12944600Y-14089900D01*
X13119600Y-13739900D02*
X13119600Y-14089900D01*
X12944600Y-13914900D02*
X13294600Y-13914900D01*
D12*
X8003277Y-14705584D02*
X8003277Y-14505584D01*
X8003277Y-14505584D02*
X8050896Y-14505584D01*
X8050896Y-14505584D02*
X8079467Y-14515108D01*
X8079467Y-14515108D02*
X8098515Y-14534155D01*
X8098515Y-14534155D02*
X8108039Y-14553203D01*
X8108039Y-14553203D02*
X8117562Y-14591298D01*
X8117562Y-14591298D02*
X8117562Y-14619869D01*
X8117562Y-14619869D02*
X8108039Y-14657965D01*
X8108039Y-14657965D02*
X8098515Y-14677012D01*
X8098515Y-14677012D02*
X8079467Y-14696060D01*
X8079467Y-14696060D02*
X8050896Y-14705584D01*
X8050896Y-14705584D02*
X8003277Y-14705584D01*
X8203277Y-14705584D02*
X8203277Y-14572250D01*
X8203277Y-14610346D02*
X8212801Y-14591298D01*
X8212801Y-14591298D02*
X8222324Y-14581774D01*
X8222324Y-14581774D02*
X8241372Y-14572250D01*
X8241372Y-14572250D02*
X8260420Y-14572250D01*
X8327086Y-14705584D02*
X8327086Y-14572250D01*
X8327086Y-14505584D02*
X8317562Y-14515108D01*
X8317562Y-14515108D02*
X8327086Y-14524631D01*
X8327086Y-14524631D02*
X8336610Y-14515108D01*
X8336610Y-14515108D02*
X8327086Y-14505584D01*
X8327086Y-14505584D02*
X8327086Y-14524631D01*
X8450896Y-14705584D02*
X8431848Y-14696060D01*
X8431848Y-14696060D02*
X8422324Y-14677012D01*
X8422324Y-14677012D02*
X8422324Y-14505584D01*
X8555658Y-14705584D02*
X8536610Y-14696060D01*
X8536610Y-14696060D02*
X8527086Y-14677012D01*
X8527086Y-14677012D02*
X8527086Y-14505584D01*
X8784229Y-14705584D02*
X8784229Y-14505584D01*
X8784229Y-14505584D02*
X8850896Y-14648441D01*
X8850896Y-14648441D02*
X8917563Y-14505584D01*
X8917563Y-14505584D02*
X8917563Y-14705584D01*
X9098515Y-14705584D02*
X9098515Y-14600822D01*
X9098515Y-14600822D02*
X9088991Y-14581774D01*
X9088991Y-14581774D02*
X9069944Y-14572250D01*
X9069944Y-14572250D02*
X9031848Y-14572250D01*
X9031848Y-14572250D02*
X9012801Y-14581774D01*
X9098515Y-14696060D02*
X9079467Y-14705584D01*
X9079467Y-14705584D02*
X9031848Y-14705584D01*
X9031848Y-14705584D02*
X9012801Y-14696060D01*
X9012801Y-14696060D02*
X9003277Y-14677012D01*
X9003277Y-14677012D02*
X9003277Y-14657965D01*
X9003277Y-14657965D02*
X9012801Y-14638917D01*
X9012801Y-14638917D02*
X9031848Y-14629393D01*
X9031848Y-14629393D02*
X9079467Y-14629393D01*
X9079467Y-14629393D02*
X9098515Y-14619869D01*
X9193753Y-14572250D02*
X9193753Y-14772250D01*
X9193753Y-14581774D02*
X9212801Y-14572250D01*
X9212801Y-14572250D02*
X9250896Y-14572250D01*
X9250896Y-14572250D02*
X9269944Y-14581774D01*
X9269944Y-14581774D02*
X9279467Y-14591298D01*
X9279467Y-14591298D02*
X9288991Y-14610346D01*
X9288991Y-14610346D02*
X9288991Y-14667488D01*
X9288991Y-14667488D02*
X9279467Y-14686536D01*
X9279467Y-14686536D02*
X9269944Y-14696060D01*
X9269944Y-14696060D02*
X9250896Y-14705584D01*
X9250896Y-14705584D02*
X9212801Y-14705584D01*
X9212801Y-14705584D02*
X9193753Y-14696060D01*
X9374705Y-14686536D02*
X9384229Y-14696060D01*
X9384229Y-14696060D02*
X9374705Y-14705584D01*
X9374705Y-14705584D02*
X9365182Y-14696060D01*
X9365182Y-14696060D02*
X9374705Y-14686536D01*
X9374705Y-14686536D02*
X9374705Y-14705584D01*
X9374705Y-14581774D02*
X9384229Y-14591298D01*
X9384229Y-14591298D02*
X9374705Y-14600822D01*
X9374705Y-14600822D02*
X9365182Y-14591298D01*
X9365182Y-14591298D02*
X9374705Y-14581774D01*
X9374705Y-14581774D02*
X9374705Y-14600822D01*
D10*
X7702500Y-15014100D02*
X7742500Y-15054100D01*
X7742500Y-15014100D02*
X7702500Y-15054100D01*
D12*
X8041372Y-14925584D02*
X8060420Y-14925584D01*
X8060420Y-14925584D02*
X8079467Y-14935108D01*
X8079467Y-14935108D02*
X8088991Y-14944631D01*
X8088991Y-14944631D02*
X8098515Y-14963679D01*
X8098515Y-14963679D02*
X8108039Y-15001774D01*
X8108039Y-15001774D02*
X8108039Y-15049393D01*
X8108039Y-15049393D02*
X8098515Y-15087488D01*
X8098515Y-15087488D02*
X8088991Y-15106536D01*
X8088991Y-15106536D02*
X8079467Y-15116060D01*
X8079467Y-15116060D02*
X8060420Y-15125584D01*
X8060420Y-15125584D02*
X8041372Y-15125584D01*
X8041372Y-15125584D02*
X8022324Y-15116060D01*
X8022324Y-15116060D02*
X8012801Y-15106536D01*
X8012801Y-15106536D02*
X8003277Y-15087488D01*
X8003277Y-15087488D02*
X7993753Y-15049393D01*
X7993753Y-15049393D02*
X7993753Y-15001774D01*
X7993753Y-15001774D02*
X8003277Y-14963679D01*
X8003277Y-14963679D02*
X8012801Y-14944631D01*
X8012801Y-14944631D02*
X8022324Y-14935108D01*
X8022324Y-14935108D02*
X8041372Y-14925584D01*
X8193753Y-15106536D02*
X8203277Y-15116060D01*
X8203277Y-15116060D02*
X8193753Y-15125584D01*
X8193753Y-15125584D02*
X8184229Y-15116060D01*
X8184229Y-15116060D02*
X8193753Y-15106536D01*
X8193753Y-15106536D02*
X8193753Y-15125584D01*
X8374705Y-14992250D02*
X8374705Y-15125584D01*
X8327086Y-14916060D02*
X8279467Y-15058917D01*
X8279467Y-15058917D02*
X8403277Y-15058917D01*
X8517563Y-14925584D02*
X8536610Y-14925584D01*
X8536610Y-14925584D02*
X8555658Y-14935108D01*
X8555658Y-14935108D02*
X8565182Y-14944631D01*
X8565182Y-14944631D02*
X8574705Y-14963679D01*
X8574705Y-14963679D02*
X8584229Y-15001774D01*
X8584229Y-15001774D02*
X8584229Y-15049393D01*
X8584229Y-15049393D02*
X8574705Y-15087488D01*
X8574705Y-15087488D02*
X8565182Y-15106536D01*
X8565182Y-15106536D02*
X8555658Y-15116060D01*
X8555658Y-15116060D02*
X8536610Y-15125584D01*
X8536610Y-15125584D02*
X8517563Y-15125584D01*
X8517563Y-15125584D02*
X8498515Y-15116060D01*
X8498515Y-15116060D02*
X8488991Y-15106536D01*
X8488991Y-15106536D02*
X8479467Y-15087488D01*
X8479467Y-15087488D02*
X8469944Y-15049393D01*
X8469944Y-15049393D02*
X8469944Y-15001774D01*
X8469944Y-15001774D02*
X8479467Y-14963679D01*
X8479467Y-14963679D02*
X8488991Y-14944631D01*
X8488991Y-14944631D02*
X8498515Y-14935108D01*
X8498515Y-14935108D02*
X8517563Y-14925584D01*
X8708039Y-14925584D02*
X8727086Y-14925584D01*
X8727086Y-14925584D02*
X8746134Y-14935108D01*
X8746134Y-14935108D02*
X8755658Y-14944631D01*
X8755658Y-14944631D02*
X8765182Y-14963679D01*
X8765182Y-14963679D02*
X8774705Y-15001774D01*
X8774705Y-15001774D02*
X8774705Y-15049393D01*
X8774705Y-15049393D02*
X8765182Y-15087488D01*
X8765182Y-15087488D02*
X8755658Y-15106536D01*
X8755658Y-15106536D02*
X8746134Y-15116060D01*
X8746134Y-15116060D02*
X8727086Y-15125584D01*
X8727086Y-15125584D02*
X8708039Y-15125584D01*
X8708039Y-15125584D02*
X8688991Y-15116060D01*
X8688991Y-15116060D02*
X8679467Y-15106536D01*
X8679467Y-15106536D02*
X8669944Y-15087488D01*
X8669944Y-15087488D02*
X8660420Y-15049393D01*
X8660420Y-15049393D02*
X8660420Y-15001774D01*
X8660420Y-15001774D02*
X8669944Y-14963679D01*
X8669944Y-14963679D02*
X8679467Y-14944631D01*
X8679467Y-14944631D02*
X8688991Y-14935108D01*
X8688991Y-14935108D02*
X8708039Y-14925584D01*
X8860420Y-15125584D02*
X8860420Y-14992250D01*
X8860420Y-15011298D02*
X8869944Y-15001774D01*
X8869944Y-15001774D02*
X8888991Y-14992250D01*
X8888991Y-14992250D02*
X8917563Y-14992250D01*
X8917563Y-14992250D02*
X8936610Y-15001774D01*
X8936610Y-15001774D02*
X8946134Y-15020822D01*
X8946134Y-15020822D02*
X8946134Y-15125584D01*
X8946134Y-15020822D02*
X8955658Y-15001774D01*
X8955658Y-15001774D02*
X8974705Y-14992250D01*
X8974705Y-14992250D02*
X9003277Y-14992250D01*
X9003277Y-14992250D02*
X9022325Y-15001774D01*
X9022325Y-15001774D02*
X9031848Y-15020822D01*
X9031848Y-15020822D02*
X9031848Y-15125584D01*
X9127086Y-15125584D02*
X9127086Y-14992250D01*
X9127086Y-15011298D02*
X9136610Y-15001774D01*
X9136610Y-15001774D02*
X9155658Y-14992250D01*
X9155658Y-14992250D02*
X9184229Y-14992250D01*
X9184229Y-14992250D02*
X9203277Y-15001774D01*
X9203277Y-15001774D02*
X9212801Y-15020822D01*
X9212801Y-15020822D02*
X9212801Y-15125584D01*
X9212801Y-15020822D02*
X9222325Y-15001774D01*
X9222325Y-15001774D02*
X9241372Y-14992250D01*
X9241372Y-14992250D02*
X9269944Y-14992250D01*
X9269944Y-14992250D02*
X9288991Y-15001774D01*
X9288991Y-15001774D02*
X9298515Y-15020822D01*
X9298515Y-15020822D02*
X9298515Y-15125584D01*
X9688991Y-14916060D02*
X9517563Y-15173203D01*
X9946134Y-14925584D02*
X9965182Y-14925584D01*
X9965182Y-14925584D02*
X9984229Y-14935108D01*
X9984229Y-14935108D02*
X9993753Y-14944631D01*
X9993753Y-14944631D02*
X10003277Y-14963679D01*
X10003277Y-14963679D02*
X10012801Y-15001774D01*
X10012801Y-15001774D02*
X10012801Y-15049393D01*
X10012801Y-15049393D02*
X10003277Y-15087488D01*
X10003277Y-15087488D02*
X9993753Y-15106536D01*
X9993753Y-15106536D02*
X9984229Y-15116060D01*
X9984229Y-15116060D02*
X9965182Y-15125584D01*
X9965182Y-15125584D02*
X9946134Y-15125584D01*
X9946134Y-15125584D02*
X9927087Y-15116060D01*
X9927087Y-15116060D02*
X9917563Y-15106536D01*
X9917563Y-15106536D02*
X9908039Y-15087488D01*
X9908039Y-15087488D02*
X9898515Y-15049393D01*
X9898515Y-15049393D02*
X9898515Y-15001774D01*
X9898515Y-15001774D02*
X9908039Y-14963679D01*
X9908039Y-14963679D02*
X9917563Y-14944631D01*
X9917563Y-14944631D02*
X9927087Y-14935108D01*
X9927087Y-14935108D02*
X9946134Y-14925584D01*
X10098515Y-15106536D02*
X10108039Y-15116060D01*
X10108039Y-15116060D02*
X10098515Y-15125584D01*
X10098515Y-15125584D02*
X10088991Y-15116060D01*
X10088991Y-15116060D02*
X10098515Y-15106536D01*
X10098515Y-15106536D02*
X10098515Y-15125584D01*
X10231848Y-14925584D02*
X10250896Y-14925584D01*
X10250896Y-14925584D02*
X10269944Y-14935108D01*
X10269944Y-14935108D02*
X10279468Y-14944631D01*
X10279468Y-14944631D02*
X10288991Y-14963679D01*
X10288991Y-14963679D02*
X10298515Y-15001774D01*
X10298515Y-15001774D02*
X10298515Y-15049393D01*
X10298515Y-15049393D02*
X10288991Y-15087488D01*
X10288991Y-15087488D02*
X10279468Y-15106536D01*
X10279468Y-15106536D02*
X10269944Y-15116060D01*
X10269944Y-15116060D02*
X10250896Y-15125584D01*
X10250896Y-15125584D02*
X10231848Y-15125584D01*
X10231848Y-15125584D02*
X10212801Y-15116060D01*
X10212801Y-15116060D02*
X10203277Y-15106536D01*
X10203277Y-15106536D02*
X10193753Y-15087488D01*
X10193753Y-15087488D02*
X10184229Y-15049393D01*
X10184229Y-15049393D02*
X10184229Y-15001774D01*
X10184229Y-15001774D02*
X10193753Y-14963679D01*
X10193753Y-14963679D02*
X10203277Y-14944631D01*
X10203277Y-14944631D02*
X10212801Y-14935108D01*
X10212801Y-14935108D02*
X10231848Y-14925584D01*
X10488991Y-15125584D02*
X10374706Y-15125584D01*
X10431848Y-15125584D02*
X10431848Y-14925584D01*
X10431848Y-14925584D02*
X10412801Y-14954155D01*
X10412801Y-14954155D02*
X10393753Y-14973203D01*
X10393753Y-14973203D02*
X10374706Y-14982727D01*
X10669944Y-14925584D02*
X10574706Y-14925584D01*
X10574706Y-14925584D02*
X10565182Y-15020822D01*
X10565182Y-15020822D02*
X10574706Y-15011298D01*
X10574706Y-15011298D02*
X10593753Y-15001774D01*
X10593753Y-15001774D02*
X10641372Y-15001774D01*
X10641372Y-15001774D02*
X10660420Y-15011298D01*
X10660420Y-15011298D02*
X10669944Y-15020822D01*
X10669944Y-15020822D02*
X10679468Y-15039869D01*
X10679468Y-15039869D02*
X10679468Y-15087488D01*
X10679468Y-15087488D02*
X10669944Y-15106536D01*
X10669944Y-15106536D02*
X10660420Y-15116060D01*
X10660420Y-15116060D02*
X10641372Y-15125584D01*
X10641372Y-15125584D02*
X10593753Y-15125584D01*
X10593753Y-15125584D02*
X10574706Y-15116060D01*
X10574706Y-15116060D02*
X10565182Y-15106536D01*
X10746134Y-14925584D02*
X10879468Y-14925584D01*
X10879468Y-14925584D02*
X10793753Y-15125584D01*
X10946134Y-14925584D02*
X10946134Y-14963679D01*
X11022325Y-14925584D02*
X11022325Y-14963679D01*
X11317563Y-15201774D02*
X11308039Y-15192250D01*
X11308039Y-15192250D02*
X11288991Y-15163679D01*
X11288991Y-15163679D02*
X11279468Y-15144631D01*
X11279468Y-15144631D02*
X11269944Y-15116060D01*
X11269944Y-15116060D02*
X11260420Y-15068441D01*
X11260420Y-15068441D02*
X11260420Y-15030346D01*
X11260420Y-15030346D02*
X11269944Y-14982727D01*
X11269944Y-14982727D02*
X11279468Y-14954155D01*
X11279468Y-14954155D02*
X11288991Y-14935108D01*
X11288991Y-14935108D02*
X11308039Y-14906536D01*
X11308039Y-14906536D02*
X11317563Y-14897012D01*
X11384229Y-14944631D02*
X11393753Y-14935108D01*
X11393753Y-14935108D02*
X11412801Y-14925584D01*
X11412801Y-14925584D02*
X11460420Y-14925584D01*
X11460420Y-14925584D02*
X11479468Y-14935108D01*
X11479468Y-14935108D02*
X11488991Y-14944631D01*
X11488991Y-14944631D02*
X11498515Y-14963679D01*
X11498515Y-14963679D02*
X11498515Y-14982727D01*
X11498515Y-14982727D02*
X11488991Y-15011298D01*
X11488991Y-15011298D02*
X11374706Y-15125584D01*
X11374706Y-15125584D02*
X11498515Y-15125584D01*
X11612801Y-15011298D02*
X11593753Y-15001774D01*
X11593753Y-15001774D02*
X11584229Y-14992250D01*
X11584229Y-14992250D02*
X11574706Y-14973203D01*
X11574706Y-14973203D02*
X11574706Y-14963679D01*
X11574706Y-14963679D02*
X11584229Y-14944631D01*
X11584229Y-14944631D02*
X11593753Y-14935108D01*
X11593753Y-14935108D02*
X11612801Y-14925584D01*
X11612801Y-14925584D02*
X11650896Y-14925584D01*
X11650896Y-14925584D02*
X11669944Y-14935108D01*
X11669944Y-14935108D02*
X11679468Y-14944631D01*
X11679468Y-14944631D02*
X11688991Y-14963679D01*
X11688991Y-14963679D02*
X11688991Y-14973203D01*
X11688991Y-14973203D02*
X11679468Y-14992250D01*
X11679468Y-14992250D02*
X11669944Y-15001774D01*
X11669944Y-15001774D02*
X11650896Y-15011298D01*
X11650896Y-15011298D02*
X11612801Y-15011298D01*
X11612801Y-15011298D02*
X11593753Y-15020822D01*
X11593753Y-15020822D02*
X11584229Y-15030346D01*
X11584229Y-15030346D02*
X11574706Y-15049393D01*
X11574706Y-15049393D02*
X11574706Y-15087488D01*
X11574706Y-15087488D02*
X11584229Y-15106536D01*
X11584229Y-15106536D02*
X11593753Y-15116060D01*
X11593753Y-15116060D02*
X11612801Y-15125584D01*
X11612801Y-15125584D02*
X11650896Y-15125584D01*
X11650896Y-15125584D02*
X11669944Y-15116060D01*
X11669944Y-15116060D02*
X11679468Y-15106536D01*
X11679468Y-15106536D02*
X11688991Y-15087488D01*
X11688991Y-15087488D02*
X11688991Y-15049393D01*
X11688991Y-15049393D02*
X11679468Y-15030346D01*
X11679468Y-15030346D02*
X11669944Y-15020822D01*
X11669944Y-15020822D02*
X11650896Y-15011298D01*
X11803277Y-15011298D02*
X11784229Y-15001774D01*
X11784229Y-15001774D02*
X11774706Y-14992250D01*
X11774706Y-14992250D02*
X11765182Y-14973203D01*
X11765182Y-14973203D02*
X11765182Y-14963679D01*
X11765182Y-14963679D02*
X11774706Y-14944631D01*
X11774706Y-14944631D02*
X11784229Y-14935108D01*
X11784229Y-14935108D02*
X11803277Y-14925584D01*
X11803277Y-14925584D02*
X11841372Y-14925584D01*
X11841372Y-14925584D02*
X11860420Y-14935108D01*
X11860420Y-14935108D02*
X11869944Y-14944631D01*
X11869944Y-14944631D02*
X11879468Y-14963679D01*
X11879468Y-14963679D02*
X11879468Y-14973203D01*
X11879468Y-14973203D02*
X11869944Y-14992250D01*
X11869944Y-14992250D02*
X11860420Y-15001774D01*
X11860420Y-15001774D02*
X11841372Y-15011298D01*
X11841372Y-15011298D02*
X11803277Y-15011298D01*
X11803277Y-15011298D02*
X11784229Y-15020822D01*
X11784229Y-15020822D02*
X11774706Y-15030346D01*
X11774706Y-15030346D02*
X11765182Y-15049393D01*
X11765182Y-15049393D02*
X11765182Y-15087488D01*
X11765182Y-15087488D02*
X11774706Y-15106536D01*
X11774706Y-15106536D02*
X11784229Y-15116060D01*
X11784229Y-15116060D02*
X11803277Y-15125584D01*
X11803277Y-15125584D02*
X11841372Y-15125584D01*
X11841372Y-15125584D02*
X11860420Y-15116060D01*
X11860420Y-15116060D02*
X11869944Y-15106536D01*
X11869944Y-15106536D02*
X11879468Y-15087488D01*
X11879468Y-15087488D02*
X11879468Y-15049393D01*
X11879468Y-15049393D02*
X11869944Y-15030346D01*
X11869944Y-15030346D02*
X11860420Y-15020822D01*
X11860420Y-15020822D02*
X11841372Y-15011298D01*
X12117563Y-15125584D02*
X12117563Y-14925584D01*
X12203277Y-15125584D02*
X12203277Y-15020822D01*
X12203277Y-15020822D02*
X12193753Y-15001774D01*
X12193753Y-15001774D02*
X12174706Y-14992250D01*
X12174706Y-14992250D02*
X12146134Y-14992250D01*
X12146134Y-14992250D02*
X12127087Y-15001774D01*
X12127087Y-15001774D02*
X12117563Y-15011298D01*
X12327087Y-15125584D02*
X12308039Y-15116060D01*
X12308039Y-15116060D02*
X12298515Y-15106536D01*
X12298515Y-15106536D02*
X12288991Y-15087488D01*
X12288991Y-15087488D02*
X12288991Y-15030346D01*
X12288991Y-15030346D02*
X12298515Y-15011298D01*
X12298515Y-15011298D02*
X12308039Y-15001774D01*
X12308039Y-15001774D02*
X12327087Y-14992250D01*
X12327087Y-14992250D02*
X12355658Y-14992250D01*
X12355658Y-14992250D02*
X12374706Y-15001774D01*
X12374706Y-15001774D02*
X12384230Y-15011298D01*
X12384230Y-15011298D02*
X12393753Y-15030346D01*
X12393753Y-15030346D02*
X12393753Y-15087488D01*
X12393753Y-15087488D02*
X12384230Y-15106536D01*
X12384230Y-15106536D02*
X12374706Y-15116060D01*
X12374706Y-15116060D02*
X12355658Y-15125584D01*
X12355658Y-15125584D02*
X12327087Y-15125584D01*
X12508039Y-15125584D02*
X12488991Y-15116060D01*
X12488991Y-15116060D02*
X12479468Y-15097012D01*
X12479468Y-15097012D02*
X12479468Y-14925584D01*
X12660420Y-15116060D02*
X12641372Y-15125584D01*
X12641372Y-15125584D02*
X12603277Y-15125584D01*
X12603277Y-15125584D02*
X12584230Y-15116060D01*
X12584230Y-15116060D02*
X12574706Y-15097012D01*
X12574706Y-15097012D02*
X12574706Y-15020822D01*
X12574706Y-15020822D02*
X12584230Y-15001774D01*
X12584230Y-15001774D02*
X12603277Y-14992250D01*
X12603277Y-14992250D02*
X12641372Y-14992250D01*
X12641372Y-14992250D02*
X12660420Y-15001774D01*
X12660420Y-15001774D02*
X12669944Y-15020822D01*
X12669944Y-15020822D02*
X12669944Y-15039869D01*
X12669944Y-15039869D02*
X12574706Y-15058917D01*
X12746134Y-15116060D02*
X12765182Y-15125584D01*
X12765182Y-15125584D02*
X12803277Y-15125584D01*
X12803277Y-15125584D02*
X12822325Y-15116060D01*
X12822325Y-15116060D02*
X12831849Y-15097012D01*
X12831849Y-15097012D02*
X12831849Y-15087488D01*
X12831849Y-15087488D02*
X12822325Y-15068441D01*
X12822325Y-15068441D02*
X12803277Y-15058917D01*
X12803277Y-15058917D02*
X12774706Y-15058917D01*
X12774706Y-15058917D02*
X12755658Y-15049393D01*
X12755658Y-15049393D02*
X12746134Y-15030346D01*
X12746134Y-15030346D02*
X12746134Y-15020822D01*
X12746134Y-15020822D02*
X12755658Y-15001774D01*
X12755658Y-15001774D02*
X12774706Y-14992250D01*
X12774706Y-14992250D02*
X12803277Y-14992250D01*
X12803277Y-14992250D02*
X12822325Y-15001774D01*
X12898515Y-15201774D02*
X12908039Y-15192250D01*
X12908039Y-15192250D02*
X12927087Y-15163679D01*
X12927087Y-15163679D02*
X12936611Y-15144631D01*
X12936611Y-15144631D02*
X12946134Y-15116060D01*
X12946134Y-15116060D02*
X12955658Y-15068441D01*
X12955658Y-15068441D02*
X12955658Y-15030346D01*
X12955658Y-15030346D02*
X12946134Y-14982727D01*
X12946134Y-14982727D02*
X12936611Y-14954155D01*
X12936611Y-14954155D02*
X12927087Y-14935108D01*
X12927087Y-14935108D02*
X12908039Y-14906536D01*
X12908039Y-14906536D02*
X12898515Y-14897012D01*
D10*
X7742500Y-15298100D02*
G75*
G02*
X7682500Y-15298100I-30000J0D01*
G01*
X7682500Y-15298100D02*
G75*
G02*
X7742500Y-15298100I30000J0D01*
G01*
D12*
X8041372Y-15189584D02*
X8060420Y-15189584D01*
X8060420Y-15189584D02*
X8079467Y-15199108D01*
X8079467Y-15199108D02*
X8088991Y-15208631D01*
X8088991Y-15208631D02*
X8098515Y-15227679D01*
X8098515Y-15227679D02*
X8108039Y-15265774D01*
X8108039Y-15265774D02*
X8108039Y-15313393D01*
X8108039Y-15313393D02*
X8098515Y-15351488D01*
X8098515Y-15351488D02*
X8088991Y-15370536D01*
X8088991Y-15370536D02*
X8079467Y-15380060D01*
X8079467Y-15380060D02*
X8060420Y-15389584D01*
X8060420Y-15389584D02*
X8041372Y-15389584D01*
X8041372Y-15389584D02*
X8022324Y-15380060D01*
X8022324Y-15380060D02*
X8012801Y-15370536D01*
X8012801Y-15370536D02*
X8003277Y-15351488D01*
X8003277Y-15351488D02*
X7993753Y-15313393D01*
X7993753Y-15313393D02*
X7993753Y-15265774D01*
X7993753Y-15265774D02*
X8003277Y-15227679D01*
X8003277Y-15227679D02*
X8012801Y-15208631D01*
X8012801Y-15208631D02*
X8022324Y-15199108D01*
X8022324Y-15199108D02*
X8041372Y-15189584D01*
X8193753Y-15370536D02*
X8203277Y-15380060D01*
X8203277Y-15380060D02*
X8193753Y-15389584D01*
X8193753Y-15389584D02*
X8184229Y-15380060D01*
X8184229Y-15380060D02*
X8193753Y-15370536D01*
X8193753Y-15370536D02*
X8193753Y-15389584D01*
X8374705Y-15189584D02*
X8336610Y-15189584D01*
X8336610Y-15189584D02*
X8317562Y-15199108D01*
X8317562Y-15199108D02*
X8308039Y-15208631D01*
X8308039Y-15208631D02*
X8288991Y-15237203D01*
X8288991Y-15237203D02*
X8279467Y-15275298D01*
X8279467Y-15275298D02*
X8279467Y-15351488D01*
X8279467Y-15351488D02*
X8288991Y-15370536D01*
X8288991Y-15370536D02*
X8298515Y-15380060D01*
X8298515Y-15380060D02*
X8317562Y-15389584D01*
X8317562Y-15389584D02*
X8355658Y-15389584D01*
X8355658Y-15389584D02*
X8374705Y-15380060D01*
X8374705Y-15380060D02*
X8384229Y-15370536D01*
X8384229Y-15370536D02*
X8393753Y-15351488D01*
X8393753Y-15351488D02*
X8393753Y-15303869D01*
X8393753Y-15303869D02*
X8384229Y-15284822D01*
X8384229Y-15284822D02*
X8374705Y-15275298D01*
X8374705Y-15275298D02*
X8355658Y-15265774D01*
X8355658Y-15265774D02*
X8317562Y-15265774D01*
X8317562Y-15265774D02*
X8298515Y-15275298D01*
X8298515Y-15275298D02*
X8288991Y-15284822D01*
X8288991Y-15284822D02*
X8279467Y-15303869D01*
X8517563Y-15189584D02*
X8536610Y-15189584D01*
X8536610Y-15189584D02*
X8555658Y-15199108D01*
X8555658Y-15199108D02*
X8565182Y-15208631D01*
X8565182Y-15208631D02*
X8574705Y-15227679D01*
X8574705Y-15227679D02*
X8584229Y-15265774D01*
X8584229Y-15265774D02*
X8584229Y-15313393D01*
X8584229Y-15313393D02*
X8574705Y-15351488D01*
X8574705Y-15351488D02*
X8565182Y-15370536D01*
X8565182Y-15370536D02*
X8555658Y-15380060D01*
X8555658Y-15380060D02*
X8536610Y-15389584D01*
X8536610Y-15389584D02*
X8517563Y-15389584D01*
X8517563Y-15389584D02*
X8498515Y-15380060D01*
X8498515Y-15380060D02*
X8488991Y-15370536D01*
X8488991Y-15370536D02*
X8479467Y-15351488D01*
X8479467Y-15351488D02*
X8469944Y-15313393D01*
X8469944Y-15313393D02*
X8469944Y-15265774D01*
X8469944Y-15265774D02*
X8479467Y-15227679D01*
X8479467Y-15227679D02*
X8488991Y-15208631D01*
X8488991Y-15208631D02*
X8498515Y-15199108D01*
X8498515Y-15199108D02*
X8517563Y-15189584D01*
X8708039Y-15189584D02*
X8727086Y-15189584D01*
X8727086Y-15189584D02*
X8746134Y-15199108D01*
X8746134Y-15199108D02*
X8755658Y-15208631D01*
X8755658Y-15208631D02*
X8765182Y-15227679D01*
X8765182Y-15227679D02*
X8774705Y-15265774D01*
X8774705Y-15265774D02*
X8774705Y-15313393D01*
X8774705Y-15313393D02*
X8765182Y-15351488D01*
X8765182Y-15351488D02*
X8755658Y-15370536D01*
X8755658Y-15370536D02*
X8746134Y-15380060D01*
X8746134Y-15380060D02*
X8727086Y-15389584D01*
X8727086Y-15389584D02*
X8708039Y-15389584D01*
X8708039Y-15389584D02*
X8688991Y-15380060D01*
X8688991Y-15380060D02*
X8679467Y-15370536D01*
X8679467Y-15370536D02*
X8669944Y-15351488D01*
X8669944Y-15351488D02*
X8660420Y-15313393D01*
X8660420Y-15313393D02*
X8660420Y-15265774D01*
X8660420Y-15265774D02*
X8669944Y-15227679D01*
X8669944Y-15227679D02*
X8679467Y-15208631D01*
X8679467Y-15208631D02*
X8688991Y-15199108D01*
X8688991Y-15199108D02*
X8708039Y-15189584D01*
X8860420Y-15389584D02*
X8860420Y-15256250D01*
X8860420Y-15275298D02*
X8869944Y-15265774D01*
X8869944Y-15265774D02*
X8888991Y-15256250D01*
X8888991Y-15256250D02*
X8917563Y-15256250D01*
X8917563Y-15256250D02*
X8936610Y-15265774D01*
X8936610Y-15265774D02*
X8946134Y-15284822D01*
X8946134Y-15284822D02*
X8946134Y-15389584D01*
X8946134Y-15284822D02*
X8955658Y-15265774D01*
X8955658Y-15265774D02*
X8974705Y-15256250D01*
X8974705Y-15256250D02*
X9003277Y-15256250D01*
X9003277Y-15256250D02*
X9022325Y-15265774D01*
X9022325Y-15265774D02*
X9031848Y-15284822D01*
X9031848Y-15284822D02*
X9031848Y-15389584D01*
X9127086Y-15389584D02*
X9127086Y-15256250D01*
X9127086Y-15275298D02*
X9136610Y-15265774D01*
X9136610Y-15265774D02*
X9155658Y-15256250D01*
X9155658Y-15256250D02*
X9184229Y-15256250D01*
X9184229Y-15256250D02*
X9203277Y-15265774D01*
X9203277Y-15265774D02*
X9212801Y-15284822D01*
X9212801Y-15284822D02*
X9212801Y-15389584D01*
X9212801Y-15284822D02*
X9222325Y-15265774D01*
X9222325Y-15265774D02*
X9241372Y-15256250D01*
X9241372Y-15256250D02*
X9269944Y-15256250D01*
X9269944Y-15256250D02*
X9288991Y-15265774D01*
X9288991Y-15265774D02*
X9298515Y-15284822D01*
X9298515Y-15284822D02*
X9298515Y-15389584D01*
X9688991Y-15180060D02*
X9517563Y-15437203D01*
X9946134Y-15189584D02*
X9965182Y-15189584D01*
X9965182Y-15189584D02*
X9984229Y-15199108D01*
X9984229Y-15199108D02*
X9993753Y-15208631D01*
X9993753Y-15208631D02*
X10003277Y-15227679D01*
X10003277Y-15227679D02*
X10012801Y-15265774D01*
X10012801Y-15265774D02*
X10012801Y-15313393D01*
X10012801Y-15313393D02*
X10003277Y-15351488D01*
X10003277Y-15351488D02*
X9993753Y-15370536D01*
X9993753Y-15370536D02*
X9984229Y-15380060D01*
X9984229Y-15380060D02*
X9965182Y-15389584D01*
X9965182Y-15389584D02*
X9946134Y-15389584D01*
X9946134Y-15389584D02*
X9927087Y-15380060D01*
X9927087Y-15380060D02*
X9917563Y-15370536D01*
X9917563Y-15370536D02*
X9908039Y-15351488D01*
X9908039Y-15351488D02*
X9898515Y-15313393D01*
X9898515Y-15313393D02*
X9898515Y-15265774D01*
X9898515Y-15265774D02*
X9908039Y-15227679D01*
X9908039Y-15227679D02*
X9917563Y-15208631D01*
X9917563Y-15208631D02*
X9927087Y-15199108D01*
X9927087Y-15199108D02*
X9946134Y-15189584D01*
X10098515Y-15370536D02*
X10108039Y-15380060D01*
X10108039Y-15380060D02*
X10098515Y-15389584D01*
X10098515Y-15389584D02*
X10088991Y-15380060D01*
X10088991Y-15380060D02*
X10098515Y-15370536D01*
X10098515Y-15370536D02*
X10098515Y-15389584D01*
X10231848Y-15189584D02*
X10250896Y-15189584D01*
X10250896Y-15189584D02*
X10269944Y-15199108D01*
X10269944Y-15199108D02*
X10279468Y-15208631D01*
X10279468Y-15208631D02*
X10288991Y-15227679D01*
X10288991Y-15227679D02*
X10298515Y-15265774D01*
X10298515Y-15265774D02*
X10298515Y-15313393D01*
X10298515Y-15313393D02*
X10288991Y-15351488D01*
X10288991Y-15351488D02*
X10279468Y-15370536D01*
X10279468Y-15370536D02*
X10269944Y-15380060D01*
X10269944Y-15380060D02*
X10250896Y-15389584D01*
X10250896Y-15389584D02*
X10231848Y-15389584D01*
X10231848Y-15389584D02*
X10212801Y-15380060D01*
X10212801Y-15380060D02*
X10203277Y-15370536D01*
X10203277Y-15370536D02*
X10193753Y-15351488D01*
X10193753Y-15351488D02*
X10184229Y-15313393D01*
X10184229Y-15313393D02*
X10184229Y-15265774D01*
X10184229Y-15265774D02*
X10193753Y-15227679D01*
X10193753Y-15227679D02*
X10203277Y-15208631D01*
X10203277Y-15208631D02*
X10212801Y-15199108D01*
X10212801Y-15199108D02*
X10231848Y-15189584D01*
X10374706Y-15208631D02*
X10384229Y-15199108D01*
X10384229Y-15199108D02*
X10403277Y-15189584D01*
X10403277Y-15189584D02*
X10450896Y-15189584D01*
X10450896Y-15189584D02*
X10469944Y-15199108D01*
X10469944Y-15199108D02*
X10479468Y-15208631D01*
X10479468Y-15208631D02*
X10488991Y-15227679D01*
X10488991Y-15227679D02*
X10488991Y-15246727D01*
X10488991Y-15246727D02*
X10479468Y-15275298D01*
X10479468Y-15275298D02*
X10365182Y-15389584D01*
X10365182Y-15389584D02*
X10488991Y-15389584D01*
X10555658Y-15189584D02*
X10679468Y-15189584D01*
X10679468Y-15189584D02*
X10612801Y-15265774D01*
X10612801Y-15265774D02*
X10641372Y-15265774D01*
X10641372Y-15265774D02*
X10660420Y-15275298D01*
X10660420Y-15275298D02*
X10669944Y-15284822D01*
X10669944Y-15284822D02*
X10679468Y-15303869D01*
X10679468Y-15303869D02*
X10679468Y-15351488D01*
X10679468Y-15351488D02*
X10669944Y-15370536D01*
X10669944Y-15370536D02*
X10660420Y-15380060D01*
X10660420Y-15380060D02*
X10641372Y-15389584D01*
X10641372Y-15389584D02*
X10584229Y-15389584D01*
X10584229Y-15389584D02*
X10565182Y-15380060D01*
X10565182Y-15380060D02*
X10555658Y-15370536D01*
X10850896Y-15189584D02*
X10812801Y-15189584D01*
X10812801Y-15189584D02*
X10793753Y-15199108D01*
X10793753Y-15199108D02*
X10784229Y-15208631D01*
X10784229Y-15208631D02*
X10765182Y-15237203D01*
X10765182Y-15237203D02*
X10755658Y-15275298D01*
X10755658Y-15275298D02*
X10755658Y-15351488D01*
X10755658Y-15351488D02*
X10765182Y-15370536D01*
X10765182Y-15370536D02*
X10774706Y-15380060D01*
X10774706Y-15380060D02*
X10793753Y-15389584D01*
X10793753Y-15389584D02*
X10831849Y-15389584D01*
X10831849Y-15389584D02*
X10850896Y-15380060D01*
X10850896Y-15380060D02*
X10860420Y-15370536D01*
X10860420Y-15370536D02*
X10869944Y-15351488D01*
X10869944Y-15351488D02*
X10869944Y-15303869D01*
X10869944Y-15303869D02*
X10860420Y-15284822D01*
X10860420Y-15284822D02*
X10850896Y-15275298D01*
X10850896Y-15275298D02*
X10831849Y-15265774D01*
X10831849Y-15265774D02*
X10793753Y-15265774D01*
X10793753Y-15265774D02*
X10774706Y-15275298D01*
X10774706Y-15275298D02*
X10765182Y-15284822D01*
X10765182Y-15284822D02*
X10755658Y-15303869D01*
X10946134Y-15189584D02*
X10946134Y-15227679D01*
X11022325Y-15189584D02*
X11022325Y-15227679D01*
X11317563Y-15465774D02*
X11308039Y-15456250D01*
X11308039Y-15456250D02*
X11288991Y-15427679D01*
X11288991Y-15427679D02*
X11279468Y-15408631D01*
X11279468Y-15408631D02*
X11269944Y-15380060D01*
X11269944Y-15380060D02*
X11260420Y-15332441D01*
X11260420Y-15332441D02*
X11260420Y-15294346D01*
X11260420Y-15294346D02*
X11269944Y-15246727D01*
X11269944Y-15246727D02*
X11279468Y-15218155D01*
X11279468Y-15218155D02*
X11288991Y-15199108D01*
X11288991Y-15199108D02*
X11308039Y-15170536D01*
X11308039Y-15170536D02*
X11317563Y-15161012D01*
X11488991Y-15189584D02*
X11393753Y-15189584D01*
X11393753Y-15189584D02*
X11384229Y-15284822D01*
X11384229Y-15284822D02*
X11393753Y-15275298D01*
X11393753Y-15275298D02*
X11412801Y-15265774D01*
X11412801Y-15265774D02*
X11460420Y-15265774D01*
X11460420Y-15265774D02*
X11479468Y-15275298D01*
X11479468Y-15275298D02*
X11488991Y-15284822D01*
X11488991Y-15284822D02*
X11498515Y-15303869D01*
X11498515Y-15303869D02*
X11498515Y-15351488D01*
X11498515Y-15351488D02*
X11488991Y-15370536D01*
X11488991Y-15370536D02*
X11479468Y-15380060D01*
X11479468Y-15380060D02*
X11460420Y-15389584D01*
X11460420Y-15389584D02*
X11412801Y-15389584D01*
X11412801Y-15389584D02*
X11393753Y-15380060D01*
X11393753Y-15380060D02*
X11384229Y-15370536D01*
X11736610Y-15389584D02*
X11736610Y-15189584D01*
X11822325Y-15389584D02*
X11822325Y-15284822D01*
X11822325Y-15284822D02*
X11812801Y-15265774D01*
X11812801Y-15265774D02*
X11793753Y-15256250D01*
X11793753Y-15256250D02*
X11765182Y-15256250D01*
X11765182Y-15256250D02*
X11746134Y-15265774D01*
X11746134Y-15265774D02*
X11736610Y-15275298D01*
X11946134Y-15389584D02*
X11927087Y-15380060D01*
X11927087Y-15380060D02*
X11917563Y-15370536D01*
X11917563Y-15370536D02*
X11908039Y-15351488D01*
X11908039Y-15351488D02*
X11908039Y-15294346D01*
X11908039Y-15294346D02*
X11917563Y-15275298D01*
X11917563Y-15275298D02*
X11927087Y-15265774D01*
X11927087Y-15265774D02*
X11946134Y-15256250D01*
X11946134Y-15256250D02*
X11974706Y-15256250D01*
X11974706Y-15256250D02*
X11993753Y-15265774D01*
X11993753Y-15265774D02*
X12003277Y-15275298D01*
X12003277Y-15275298D02*
X12012801Y-15294346D01*
X12012801Y-15294346D02*
X12012801Y-15351488D01*
X12012801Y-15351488D02*
X12003277Y-15370536D01*
X12003277Y-15370536D02*
X11993753Y-15380060D01*
X11993753Y-15380060D02*
X11974706Y-15389584D01*
X11974706Y-15389584D02*
X11946134Y-15389584D01*
X12127087Y-15389584D02*
X12108039Y-15380060D01*
X12108039Y-15380060D02*
X12098515Y-15361012D01*
X12098515Y-15361012D02*
X12098515Y-15189584D01*
X12279468Y-15380060D02*
X12260420Y-15389584D01*
X12260420Y-15389584D02*
X12222325Y-15389584D01*
X12222325Y-15389584D02*
X12203277Y-15380060D01*
X12203277Y-15380060D02*
X12193753Y-15361012D01*
X12193753Y-15361012D02*
X12193753Y-15284822D01*
X12193753Y-15284822D02*
X12203277Y-15265774D01*
X12203277Y-15265774D02*
X12222325Y-15256250D01*
X12222325Y-15256250D02*
X12260420Y-15256250D01*
X12260420Y-15256250D02*
X12279468Y-15265774D01*
X12279468Y-15265774D02*
X12288991Y-15284822D01*
X12288991Y-15284822D02*
X12288991Y-15303869D01*
X12288991Y-15303869D02*
X12193753Y-15322917D01*
X12365182Y-15380060D02*
X12384230Y-15389584D01*
X12384230Y-15389584D02*
X12422325Y-15389584D01*
X12422325Y-15389584D02*
X12441372Y-15380060D01*
X12441372Y-15380060D02*
X12450896Y-15361012D01*
X12450896Y-15361012D02*
X12450896Y-15351488D01*
X12450896Y-15351488D02*
X12441372Y-15332441D01*
X12441372Y-15332441D02*
X12422325Y-15322917D01*
X12422325Y-15322917D02*
X12393753Y-15322917D01*
X12393753Y-15322917D02*
X12374706Y-15313393D01*
X12374706Y-15313393D02*
X12365182Y-15294346D01*
X12365182Y-15294346D02*
X12365182Y-15284822D01*
X12365182Y-15284822D02*
X12374706Y-15265774D01*
X12374706Y-15265774D02*
X12393753Y-15256250D01*
X12393753Y-15256250D02*
X12422325Y-15256250D01*
X12422325Y-15256250D02*
X12441372Y-15265774D01*
X12517563Y-15465774D02*
X12527087Y-15456250D01*
X12527087Y-15456250D02*
X12546134Y-15427679D01*
X12546134Y-15427679D02*
X12555658Y-15408631D01*
X12555658Y-15408631D02*
X12565182Y-15380060D01*
X12565182Y-15380060D02*
X12574706Y-15332441D01*
X12574706Y-15332441D02*
X12574706Y-15294346D01*
X12574706Y-15294346D02*
X12565182Y-15246727D01*
X12565182Y-15246727D02*
X12555658Y-15218155D01*
X12555658Y-15218155D02*
X12546134Y-15199108D01*
X12546134Y-15199108D02*
X12527087Y-15170536D01*
X12527087Y-15170536D02*
X12517563Y-15161012D01*
D10*
X7702500Y-15522100D02*
X7702500Y-15602100D01*
X7662500Y-15562100D02*
X7742500Y-15562100D01*
D12*
X8041372Y-15453584D02*
X8060420Y-15453584D01*
X8060420Y-15453584D02*
X8079467Y-15463108D01*
X8079467Y-15463108D02*
X8088991Y-15472631D01*
X8088991Y-15472631D02*
X8098515Y-15491679D01*
X8098515Y-15491679D02*
X8108039Y-15529774D01*
X8108039Y-15529774D02*
X8108039Y-15577393D01*
X8108039Y-15577393D02*
X8098515Y-15615488D01*
X8098515Y-15615488D02*
X8088991Y-15634536D01*
X8088991Y-15634536D02*
X8079467Y-15644060D01*
X8079467Y-15644060D02*
X8060420Y-15653584D01*
X8060420Y-15653584D02*
X8041372Y-15653584D01*
X8041372Y-15653584D02*
X8022324Y-15644060D01*
X8022324Y-15644060D02*
X8012801Y-15634536D01*
X8012801Y-15634536D02*
X8003277Y-15615488D01*
X8003277Y-15615488D02*
X7993753Y-15577393D01*
X7993753Y-15577393D02*
X7993753Y-15529774D01*
X7993753Y-15529774D02*
X8003277Y-15491679D01*
X8003277Y-15491679D02*
X8012801Y-15472631D01*
X8012801Y-15472631D02*
X8022324Y-15463108D01*
X8022324Y-15463108D02*
X8041372Y-15453584D01*
X8193753Y-15634536D02*
X8203277Y-15644060D01*
X8203277Y-15644060D02*
X8193753Y-15653584D01*
X8193753Y-15653584D02*
X8184229Y-15644060D01*
X8184229Y-15644060D02*
X8193753Y-15634536D01*
X8193753Y-15634536D02*
X8193753Y-15653584D01*
X8317562Y-15539298D02*
X8298515Y-15529774D01*
X8298515Y-15529774D02*
X8288991Y-15520250D01*
X8288991Y-15520250D02*
X8279467Y-15501203D01*
X8279467Y-15501203D02*
X8279467Y-15491679D01*
X8279467Y-15491679D02*
X8288991Y-15472631D01*
X8288991Y-15472631D02*
X8298515Y-15463108D01*
X8298515Y-15463108D02*
X8317562Y-15453584D01*
X8317562Y-15453584D02*
X8355658Y-15453584D01*
X8355658Y-15453584D02*
X8374705Y-15463108D01*
X8374705Y-15463108D02*
X8384229Y-15472631D01*
X8384229Y-15472631D02*
X8393753Y-15491679D01*
X8393753Y-15491679D02*
X8393753Y-15501203D01*
X8393753Y-15501203D02*
X8384229Y-15520250D01*
X8384229Y-15520250D02*
X8374705Y-15529774D01*
X8374705Y-15529774D02*
X8355658Y-15539298D01*
X8355658Y-15539298D02*
X8317562Y-15539298D01*
X8317562Y-15539298D02*
X8298515Y-15548822D01*
X8298515Y-15548822D02*
X8288991Y-15558346D01*
X8288991Y-15558346D02*
X8279467Y-15577393D01*
X8279467Y-15577393D02*
X8279467Y-15615488D01*
X8279467Y-15615488D02*
X8288991Y-15634536D01*
X8288991Y-15634536D02*
X8298515Y-15644060D01*
X8298515Y-15644060D02*
X8317562Y-15653584D01*
X8317562Y-15653584D02*
X8355658Y-15653584D01*
X8355658Y-15653584D02*
X8374705Y-15644060D01*
X8374705Y-15644060D02*
X8384229Y-15634536D01*
X8384229Y-15634536D02*
X8393753Y-15615488D01*
X8393753Y-15615488D02*
X8393753Y-15577393D01*
X8393753Y-15577393D02*
X8384229Y-15558346D01*
X8384229Y-15558346D02*
X8374705Y-15548822D01*
X8374705Y-15548822D02*
X8355658Y-15539298D01*
X8517563Y-15453584D02*
X8536610Y-15453584D01*
X8536610Y-15453584D02*
X8555658Y-15463108D01*
X8555658Y-15463108D02*
X8565182Y-15472631D01*
X8565182Y-15472631D02*
X8574705Y-15491679D01*
X8574705Y-15491679D02*
X8584229Y-15529774D01*
X8584229Y-15529774D02*
X8584229Y-15577393D01*
X8584229Y-15577393D02*
X8574705Y-15615488D01*
X8574705Y-15615488D02*
X8565182Y-15634536D01*
X8565182Y-15634536D02*
X8555658Y-15644060D01*
X8555658Y-15644060D02*
X8536610Y-15653584D01*
X8536610Y-15653584D02*
X8517563Y-15653584D01*
X8517563Y-15653584D02*
X8498515Y-15644060D01*
X8498515Y-15644060D02*
X8488991Y-15634536D01*
X8488991Y-15634536D02*
X8479467Y-15615488D01*
X8479467Y-15615488D02*
X8469944Y-15577393D01*
X8469944Y-15577393D02*
X8469944Y-15529774D01*
X8469944Y-15529774D02*
X8479467Y-15491679D01*
X8479467Y-15491679D02*
X8488991Y-15472631D01*
X8488991Y-15472631D02*
X8498515Y-15463108D01*
X8498515Y-15463108D02*
X8517563Y-15453584D01*
X8708039Y-15453584D02*
X8727086Y-15453584D01*
X8727086Y-15453584D02*
X8746134Y-15463108D01*
X8746134Y-15463108D02*
X8755658Y-15472631D01*
X8755658Y-15472631D02*
X8765182Y-15491679D01*
X8765182Y-15491679D02*
X8774705Y-15529774D01*
X8774705Y-15529774D02*
X8774705Y-15577393D01*
X8774705Y-15577393D02*
X8765182Y-15615488D01*
X8765182Y-15615488D02*
X8755658Y-15634536D01*
X8755658Y-15634536D02*
X8746134Y-15644060D01*
X8746134Y-15644060D02*
X8727086Y-15653584D01*
X8727086Y-15653584D02*
X8708039Y-15653584D01*
X8708039Y-15653584D02*
X8688991Y-15644060D01*
X8688991Y-15644060D02*
X8679467Y-15634536D01*
X8679467Y-15634536D02*
X8669944Y-15615488D01*
X8669944Y-15615488D02*
X8660420Y-15577393D01*
X8660420Y-15577393D02*
X8660420Y-15529774D01*
X8660420Y-15529774D02*
X8669944Y-15491679D01*
X8669944Y-15491679D02*
X8679467Y-15472631D01*
X8679467Y-15472631D02*
X8688991Y-15463108D01*
X8688991Y-15463108D02*
X8708039Y-15453584D01*
X8860420Y-15653584D02*
X8860420Y-15520250D01*
X8860420Y-15539298D02*
X8869944Y-15529774D01*
X8869944Y-15529774D02*
X8888991Y-15520250D01*
X8888991Y-15520250D02*
X8917563Y-15520250D01*
X8917563Y-15520250D02*
X8936610Y-15529774D01*
X8936610Y-15529774D02*
X8946134Y-15548822D01*
X8946134Y-15548822D02*
X8946134Y-15653584D01*
X8946134Y-15548822D02*
X8955658Y-15529774D01*
X8955658Y-15529774D02*
X8974705Y-15520250D01*
X8974705Y-15520250D02*
X9003277Y-15520250D01*
X9003277Y-15520250D02*
X9022325Y-15529774D01*
X9022325Y-15529774D02*
X9031848Y-15548822D01*
X9031848Y-15548822D02*
X9031848Y-15653584D01*
X9127086Y-15653584D02*
X9127086Y-15520250D01*
X9127086Y-15539298D02*
X9136610Y-15529774D01*
X9136610Y-15529774D02*
X9155658Y-15520250D01*
X9155658Y-15520250D02*
X9184229Y-15520250D01*
X9184229Y-15520250D02*
X9203277Y-15529774D01*
X9203277Y-15529774D02*
X9212801Y-15548822D01*
X9212801Y-15548822D02*
X9212801Y-15653584D01*
X9212801Y-15548822D02*
X9222325Y-15529774D01*
X9222325Y-15529774D02*
X9241372Y-15520250D01*
X9241372Y-15520250D02*
X9269944Y-15520250D01*
X9269944Y-15520250D02*
X9288991Y-15529774D01*
X9288991Y-15529774D02*
X9298515Y-15548822D01*
X9298515Y-15548822D02*
X9298515Y-15653584D01*
X9688991Y-15444060D02*
X9517563Y-15701203D01*
X9946134Y-15453584D02*
X9965182Y-15453584D01*
X9965182Y-15453584D02*
X9984229Y-15463108D01*
X9984229Y-15463108D02*
X9993753Y-15472631D01*
X9993753Y-15472631D02*
X10003277Y-15491679D01*
X10003277Y-15491679D02*
X10012801Y-15529774D01*
X10012801Y-15529774D02*
X10012801Y-15577393D01*
X10012801Y-15577393D02*
X10003277Y-15615488D01*
X10003277Y-15615488D02*
X9993753Y-15634536D01*
X9993753Y-15634536D02*
X9984229Y-15644060D01*
X9984229Y-15644060D02*
X9965182Y-15653584D01*
X9965182Y-15653584D02*
X9946134Y-15653584D01*
X9946134Y-15653584D02*
X9927087Y-15644060D01*
X9927087Y-15644060D02*
X9917563Y-15634536D01*
X9917563Y-15634536D02*
X9908039Y-15615488D01*
X9908039Y-15615488D02*
X9898515Y-15577393D01*
X9898515Y-15577393D02*
X9898515Y-15529774D01*
X9898515Y-15529774D02*
X9908039Y-15491679D01*
X9908039Y-15491679D02*
X9917563Y-15472631D01*
X9917563Y-15472631D02*
X9927087Y-15463108D01*
X9927087Y-15463108D02*
X9946134Y-15453584D01*
X10098515Y-15634536D02*
X10108039Y-15644060D01*
X10108039Y-15644060D02*
X10098515Y-15653584D01*
X10098515Y-15653584D02*
X10088991Y-15644060D01*
X10088991Y-15644060D02*
X10098515Y-15634536D01*
X10098515Y-15634536D02*
X10098515Y-15653584D01*
X10231848Y-15453584D02*
X10250896Y-15453584D01*
X10250896Y-15453584D02*
X10269944Y-15463108D01*
X10269944Y-15463108D02*
X10279468Y-15472631D01*
X10279468Y-15472631D02*
X10288991Y-15491679D01*
X10288991Y-15491679D02*
X10298515Y-15529774D01*
X10298515Y-15529774D02*
X10298515Y-15577393D01*
X10298515Y-15577393D02*
X10288991Y-15615488D01*
X10288991Y-15615488D02*
X10279468Y-15634536D01*
X10279468Y-15634536D02*
X10269944Y-15644060D01*
X10269944Y-15644060D02*
X10250896Y-15653584D01*
X10250896Y-15653584D02*
X10231848Y-15653584D01*
X10231848Y-15653584D02*
X10212801Y-15644060D01*
X10212801Y-15644060D02*
X10203277Y-15634536D01*
X10203277Y-15634536D02*
X10193753Y-15615488D01*
X10193753Y-15615488D02*
X10184229Y-15577393D01*
X10184229Y-15577393D02*
X10184229Y-15529774D01*
X10184229Y-15529774D02*
X10193753Y-15491679D01*
X10193753Y-15491679D02*
X10203277Y-15472631D01*
X10203277Y-15472631D02*
X10212801Y-15463108D01*
X10212801Y-15463108D02*
X10231848Y-15453584D01*
X10365182Y-15453584D02*
X10488991Y-15453584D01*
X10488991Y-15453584D02*
X10422325Y-15529774D01*
X10422325Y-15529774D02*
X10450896Y-15529774D01*
X10450896Y-15529774D02*
X10469944Y-15539298D01*
X10469944Y-15539298D02*
X10479468Y-15548822D01*
X10479468Y-15548822D02*
X10488991Y-15567869D01*
X10488991Y-15567869D02*
X10488991Y-15615488D01*
X10488991Y-15615488D02*
X10479468Y-15634536D01*
X10479468Y-15634536D02*
X10469944Y-15644060D01*
X10469944Y-15644060D02*
X10450896Y-15653584D01*
X10450896Y-15653584D02*
X10393753Y-15653584D01*
X10393753Y-15653584D02*
X10374706Y-15644060D01*
X10374706Y-15644060D02*
X10365182Y-15634536D01*
X10679468Y-15653584D02*
X10565182Y-15653584D01*
X10622325Y-15653584D02*
X10622325Y-15453584D01*
X10622325Y-15453584D02*
X10603277Y-15482155D01*
X10603277Y-15482155D02*
X10584229Y-15501203D01*
X10584229Y-15501203D02*
X10565182Y-15510727D01*
X10860420Y-15453584D02*
X10765182Y-15453584D01*
X10765182Y-15453584D02*
X10755658Y-15548822D01*
X10755658Y-15548822D02*
X10765182Y-15539298D01*
X10765182Y-15539298D02*
X10784229Y-15529774D01*
X10784229Y-15529774D02*
X10831849Y-15529774D01*
X10831849Y-15529774D02*
X10850896Y-15539298D01*
X10850896Y-15539298D02*
X10860420Y-15548822D01*
X10860420Y-15548822D02*
X10869944Y-15567869D01*
X10869944Y-15567869D02*
X10869944Y-15615488D01*
X10869944Y-15615488D02*
X10860420Y-15634536D01*
X10860420Y-15634536D02*
X10850896Y-15644060D01*
X10850896Y-15644060D02*
X10831849Y-15653584D01*
X10831849Y-15653584D02*
X10784229Y-15653584D01*
X10784229Y-15653584D02*
X10765182Y-15644060D01*
X10765182Y-15644060D02*
X10755658Y-15634536D01*
X10946134Y-15453584D02*
X10946134Y-15491679D01*
X11022325Y-15453584D02*
X11022325Y-15491679D01*
X11317563Y-15729774D02*
X11308039Y-15720250D01*
X11308039Y-15720250D02*
X11288991Y-15691679D01*
X11288991Y-15691679D02*
X11279468Y-15672631D01*
X11279468Y-15672631D02*
X11269944Y-15644060D01*
X11269944Y-15644060D02*
X11260420Y-15596441D01*
X11260420Y-15596441D02*
X11260420Y-15558346D01*
X11260420Y-15558346D02*
X11269944Y-15510727D01*
X11269944Y-15510727D02*
X11279468Y-15482155D01*
X11279468Y-15482155D02*
X11288991Y-15463108D01*
X11288991Y-15463108D02*
X11308039Y-15434536D01*
X11308039Y-15434536D02*
X11317563Y-15425012D01*
X11498515Y-15653584D02*
X11384229Y-15653584D01*
X11441372Y-15653584D02*
X11441372Y-15453584D01*
X11441372Y-15453584D02*
X11422325Y-15482155D01*
X11422325Y-15482155D02*
X11403277Y-15501203D01*
X11403277Y-15501203D02*
X11384229Y-15510727D01*
X11669944Y-15453584D02*
X11631848Y-15453584D01*
X11631848Y-15453584D02*
X11612801Y-15463108D01*
X11612801Y-15463108D02*
X11603277Y-15472631D01*
X11603277Y-15472631D02*
X11584229Y-15501203D01*
X11584229Y-15501203D02*
X11574706Y-15539298D01*
X11574706Y-15539298D02*
X11574706Y-15615488D01*
X11574706Y-15615488D02*
X11584229Y-15634536D01*
X11584229Y-15634536D02*
X11593753Y-15644060D01*
X11593753Y-15644060D02*
X11612801Y-15653584D01*
X11612801Y-15653584D02*
X11650896Y-15653584D01*
X11650896Y-15653584D02*
X11669944Y-15644060D01*
X11669944Y-15644060D02*
X11679468Y-15634536D01*
X11679468Y-15634536D02*
X11688991Y-15615488D01*
X11688991Y-15615488D02*
X11688991Y-15567869D01*
X11688991Y-15567869D02*
X11679468Y-15548822D01*
X11679468Y-15548822D02*
X11669944Y-15539298D01*
X11669944Y-15539298D02*
X11650896Y-15529774D01*
X11650896Y-15529774D02*
X11612801Y-15529774D01*
X11612801Y-15529774D02*
X11593753Y-15539298D01*
X11593753Y-15539298D02*
X11584229Y-15548822D01*
X11584229Y-15548822D02*
X11574706Y-15567869D01*
X11927087Y-15653584D02*
X11927087Y-15453584D01*
X12012801Y-15653584D02*
X12012801Y-15548822D01*
X12012801Y-15548822D02*
X12003277Y-15529774D01*
X12003277Y-15529774D02*
X11984230Y-15520250D01*
X11984230Y-15520250D02*
X11955658Y-15520250D01*
X11955658Y-15520250D02*
X11936610Y-15529774D01*
X11936610Y-15529774D02*
X11927087Y-15539298D01*
X12136610Y-15653584D02*
X12117563Y-15644060D01*
X12117563Y-15644060D02*
X12108039Y-15634536D01*
X12108039Y-15634536D02*
X12098515Y-15615488D01*
X12098515Y-15615488D02*
X12098515Y-15558346D01*
X12098515Y-15558346D02*
X12108039Y-15539298D01*
X12108039Y-15539298D02*
X12117563Y-15529774D01*
X12117563Y-15529774D02*
X12136610Y-15520250D01*
X12136610Y-15520250D02*
X12165182Y-15520250D01*
X12165182Y-15520250D02*
X12184230Y-15529774D01*
X12184230Y-15529774D02*
X12193753Y-15539298D01*
X12193753Y-15539298D02*
X12203277Y-15558346D01*
X12203277Y-15558346D02*
X12203277Y-15615488D01*
X12203277Y-15615488D02*
X12193753Y-15634536D01*
X12193753Y-15634536D02*
X12184230Y-15644060D01*
X12184230Y-15644060D02*
X12165182Y-15653584D01*
X12165182Y-15653584D02*
X12136610Y-15653584D01*
X12317563Y-15653584D02*
X12298515Y-15644060D01*
X12298515Y-15644060D02*
X12288991Y-15625012D01*
X12288991Y-15625012D02*
X12288991Y-15453584D01*
X12469944Y-15644060D02*
X12450896Y-15653584D01*
X12450896Y-15653584D02*
X12412801Y-15653584D01*
X12412801Y-15653584D02*
X12393753Y-15644060D01*
X12393753Y-15644060D02*
X12384230Y-15625012D01*
X12384230Y-15625012D02*
X12384230Y-15548822D01*
X12384230Y-15548822D02*
X12393753Y-15529774D01*
X12393753Y-15529774D02*
X12412801Y-15520250D01*
X12412801Y-15520250D02*
X12450896Y-15520250D01*
X12450896Y-15520250D02*
X12469944Y-15529774D01*
X12469944Y-15529774D02*
X12479468Y-15548822D01*
X12479468Y-15548822D02*
X12479468Y-15567869D01*
X12479468Y-15567869D02*
X12384230Y-15586917D01*
X12555658Y-15644060D02*
X12574706Y-15653584D01*
X12574706Y-15653584D02*
X12612801Y-15653584D01*
X12612801Y-15653584D02*
X12631849Y-15644060D01*
X12631849Y-15644060D02*
X12641372Y-15625012D01*
X12641372Y-15625012D02*
X12641372Y-15615488D01*
X12641372Y-15615488D02*
X12631849Y-15596441D01*
X12631849Y-15596441D02*
X12612801Y-15586917D01*
X12612801Y-15586917D02*
X12584230Y-15586917D01*
X12584230Y-15586917D02*
X12565182Y-15577393D01*
X12565182Y-15577393D02*
X12555658Y-15558346D01*
X12555658Y-15558346D02*
X12555658Y-15548822D01*
X12555658Y-15548822D02*
X12565182Y-15529774D01*
X12565182Y-15529774D02*
X12584230Y-15520250D01*
X12584230Y-15520250D02*
X12612801Y-15520250D01*
X12612801Y-15520250D02*
X12631849Y-15529774D01*
X12708039Y-15729774D02*
X12717563Y-15720250D01*
X12717563Y-15720250D02*
X12736611Y-15691679D01*
X12736611Y-15691679D02*
X12746134Y-15672631D01*
X12746134Y-15672631D02*
X12755658Y-15644060D01*
X12755658Y-15644060D02*
X12765182Y-15596441D01*
X12765182Y-15596441D02*
X12765182Y-15558346D01*
X12765182Y-15558346D02*
X12755658Y-15510727D01*
X12755658Y-15510727D02*
X12746134Y-15482155D01*
X12746134Y-15482155D02*
X12736611Y-15463108D01*
X12736611Y-15463108D02*
X12717563Y-15434536D01*
X12717563Y-15434536D02*
X12708039Y-15425012D01*
D10*
X7727856Y-15861456D02*
X7727856Y-15790744D01*
X7657144Y-15790744D01*
X7657144Y-15861456D01*
X7727856Y-15861456D01*
D12*
X8108039Y-15917584D02*
X7993753Y-15917584D01*
X8050896Y-15917584D02*
X8050896Y-15717584D01*
X8050896Y-15717584D02*
X8031848Y-15746155D01*
X8031848Y-15746155D02*
X8012801Y-15765203D01*
X8012801Y-15765203D02*
X7993753Y-15774727D01*
X8193753Y-15898536D02*
X8203277Y-15908060D01*
X8203277Y-15908060D02*
X8193753Y-15917584D01*
X8193753Y-15917584D02*
X8184229Y-15908060D01*
X8184229Y-15908060D02*
X8193753Y-15898536D01*
X8193753Y-15898536D02*
X8193753Y-15917584D01*
X8327086Y-15717584D02*
X8346134Y-15717584D01*
X8346134Y-15717584D02*
X8365182Y-15727108D01*
X8365182Y-15727108D02*
X8374705Y-15736631D01*
X8374705Y-15736631D02*
X8384229Y-15755679D01*
X8384229Y-15755679D02*
X8393753Y-15793774D01*
X8393753Y-15793774D02*
X8393753Y-15841393D01*
X8393753Y-15841393D02*
X8384229Y-15879488D01*
X8384229Y-15879488D02*
X8374705Y-15898536D01*
X8374705Y-15898536D02*
X8365182Y-15908060D01*
X8365182Y-15908060D02*
X8346134Y-15917584D01*
X8346134Y-15917584D02*
X8327086Y-15917584D01*
X8327086Y-15917584D02*
X8308039Y-15908060D01*
X8308039Y-15908060D02*
X8298515Y-15898536D01*
X8298515Y-15898536D02*
X8288991Y-15879488D01*
X8288991Y-15879488D02*
X8279467Y-15841393D01*
X8279467Y-15841393D02*
X8279467Y-15793774D01*
X8279467Y-15793774D02*
X8288991Y-15755679D01*
X8288991Y-15755679D02*
X8298515Y-15736631D01*
X8298515Y-15736631D02*
X8308039Y-15727108D01*
X8308039Y-15727108D02*
X8327086Y-15717584D01*
X8517563Y-15717584D02*
X8536610Y-15717584D01*
X8536610Y-15717584D02*
X8555658Y-15727108D01*
X8555658Y-15727108D02*
X8565182Y-15736631D01*
X8565182Y-15736631D02*
X8574705Y-15755679D01*
X8574705Y-15755679D02*
X8584229Y-15793774D01*
X8584229Y-15793774D02*
X8584229Y-15841393D01*
X8584229Y-15841393D02*
X8574705Y-15879488D01*
X8574705Y-15879488D02*
X8565182Y-15898536D01*
X8565182Y-15898536D02*
X8555658Y-15908060D01*
X8555658Y-15908060D02*
X8536610Y-15917584D01*
X8536610Y-15917584D02*
X8517563Y-15917584D01*
X8517563Y-15917584D02*
X8498515Y-15908060D01*
X8498515Y-15908060D02*
X8488991Y-15898536D01*
X8488991Y-15898536D02*
X8479467Y-15879488D01*
X8479467Y-15879488D02*
X8469944Y-15841393D01*
X8469944Y-15841393D02*
X8469944Y-15793774D01*
X8469944Y-15793774D02*
X8479467Y-15755679D01*
X8479467Y-15755679D02*
X8488991Y-15736631D01*
X8488991Y-15736631D02*
X8498515Y-15727108D01*
X8498515Y-15727108D02*
X8517563Y-15717584D01*
X8708039Y-15717584D02*
X8727086Y-15717584D01*
X8727086Y-15717584D02*
X8746134Y-15727108D01*
X8746134Y-15727108D02*
X8755658Y-15736631D01*
X8755658Y-15736631D02*
X8765182Y-15755679D01*
X8765182Y-15755679D02*
X8774705Y-15793774D01*
X8774705Y-15793774D02*
X8774705Y-15841393D01*
X8774705Y-15841393D02*
X8765182Y-15879488D01*
X8765182Y-15879488D02*
X8755658Y-15898536D01*
X8755658Y-15898536D02*
X8746134Y-15908060D01*
X8746134Y-15908060D02*
X8727086Y-15917584D01*
X8727086Y-15917584D02*
X8708039Y-15917584D01*
X8708039Y-15917584D02*
X8688991Y-15908060D01*
X8688991Y-15908060D02*
X8679467Y-15898536D01*
X8679467Y-15898536D02*
X8669944Y-15879488D01*
X8669944Y-15879488D02*
X8660420Y-15841393D01*
X8660420Y-15841393D02*
X8660420Y-15793774D01*
X8660420Y-15793774D02*
X8669944Y-15755679D01*
X8669944Y-15755679D02*
X8679467Y-15736631D01*
X8679467Y-15736631D02*
X8688991Y-15727108D01*
X8688991Y-15727108D02*
X8708039Y-15717584D01*
X8860420Y-15917584D02*
X8860420Y-15784250D01*
X8860420Y-15803298D02*
X8869944Y-15793774D01*
X8869944Y-15793774D02*
X8888991Y-15784250D01*
X8888991Y-15784250D02*
X8917563Y-15784250D01*
X8917563Y-15784250D02*
X8936610Y-15793774D01*
X8936610Y-15793774D02*
X8946134Y-15812822D01*
X8946134Y-15812822D02*
X8946134Y-15917584D01*
X8946134Y-15812822D02*
X8955658Y-15793774D01*
X8955658Y-15793774D02*
X8974705Y-15784250D01*
X8974705Y-15784250D02*
X9003277Y-15784250D01*
X9003277Y-15784250D02*
X9022325Y-15793774D01*
X9022325Y-15793774D02*
X9031848Y-15812822D01*
X9031848Y-15812822D02*
X9031848Y-15917584D01*
X9127086Y-15917584D02*
X9127086Y-15784250D01*
X9127086Y-15803298D02*
X9136610Y-15793774D01*
X9136610Y-15793774D02*
X9155658Y-15784250D01*
X9155658Y-15784250D02*
X9184229Y-15784250D01*
X9184229Y-15784250D02*
X9203277Y-15793774D01*
X9203277Y-15793774D02*
X9212801Y-15812822D01*
X9212801Y-15812822D02*
X9212801Y-15917584D01*
X9212801Y-15812822D02*
X9222325Y-15793774D01*
X9222325Y-15793774D02*
X9241372Y-15784250D01*
X9241372Y-15784250D02*
X9269944Y-15784250D01*
X9269944Y-15784250D02*
X9288991Y-15793774D01*
X9288991Y-15793774D02*
X9298515Y-15812822D01*
X9298515Y-15812822D02*
X9298515Y-15917584D01*
X9688991Y-15708060D02*
X9517563Y-15965203D01*
X9946134Y-15717584D02*
X9965182Y-15717584D01*
X9965182Y-15717584D02*
X9984229Y-15727108D01*
X9984229Y-15727108D02*
X9993753Y-15736631D01*
X9993753Y-15736631D02*
X10003277Y-15755679D01*
X10003277Y-15755679D02*
X10012801Y-15793774D01*
X10012801Y-15793774D02*
X10012801Y-15841393D01*
X10012801Y-15841393D02*
X10003277Y-15879488D01*
X10003277Y-15879488D02*
X9993753Y-15898536D01*
X9993753Y-15898536D02*
X9984229Y-15908060D01*
X9984229Y-15908060D02*
X9965182Y-15917584D01*
X9965182Y-15917584D02*
X9946134Y-15917584D01*
X9946134Y-15917584D02*
X9927087Y-15908060D01*
X9927087Y-15908060D02*
X9917563Y-15898536D01*
X9917563Y-15898536D02*
X9908039Y-15879488D01*
X9908039Y-15879488D02*
X9898515Y-15841393D01*
X9898515Y-15841393D02*
X9898515Y-15793774D01*
X9898515Y-15793774D02*
X9908039Y-15755679D01*
X9908039Y-15755679D02*
X9917563Y-15736631D01*
X9917563Y-15736631D02*
X9927087Y-15727108D01*
X9927087Y-15727108D02*
X9946134Y-15717584D01*
X10098515Y-15898536D02*
X10108039Y-15908060D01*
X10108039Y-15908060D02*
X10098515Y-15917584D01*
X10098515Y-15917584D02*
X10088991Y-15908060D01*
X10088991Y-15908060D02*
X10098515Y-15898536D01*
X10098515Y-15898536D02*
X10098515Y-15917584D01*
X10231848Y-15717584D02*
X10250896Y-15717584D01*
X10250896Y-15717584D02*
X10269944Y-15727108D01*
X10269944Y-15727108D02*
X10279468Y-15736631D01*
X10279468Y-15736631D02*
X10288991Y-15755679D01*
X10288991Y-15755679D02*
X10298515Y-15793774D01*
X10298515Y-15793774D02*
X10298515Y-15841393D01*
X10298515Y-15841393D02*
X10288991Y-15879488D01*
X10288991Y-15879488D02*
X10279468Y-15898536D01*
X10279468Y-15898536D02*
X10269944Y-15908060D01*
X10269944Y-15908060D02*
X10250896Y-15917584D01*
X10250896Y-15917584D02*
X10231848Y-15917584D01*
X10231848Y-15917584D02*
X10212801Y-15908060D01*
X10212801Y-15908060D02*
X10203277Y-15898536D01*
X10203277Y-15898536D02*
X10193753Y-15879488D01*
X10193753Y-15879488D02*
X10184229Y-15841393D01*
X10184229Y-15841393D02*
X10184229Y-15793774D01*
X10184229Y-15793774D02*
X10193753Y-15755679D01*
X10193753Y-15755679D02*
X10203277Y-15736631D01*
X10203277Y-15736631D02*
X10212801Y-15727108D01*
X10212801Y-15727108D02*
X10231848Y-15717584D01*
X10365182Y-15717584D02*
X10488991Y-15717584D01*
X10488991Y-15717584D02*
X10422325Y-15793774D01*
X10422325Y-15793774D02*
X10450896Y-15793774D01*
X10450896Y-15793774D02*
X10469944Y-15803298D01*
X10469944Y-15803298D02*
X10479468Y-15812822D01*
X10479468Y-15812822D02*
X10488991Y-15831869D01*
X10488991Y-15831869D02*
X10488991Y-15879488D01*
X10488991Y-15879488D02*
X10479468Y-15898536D01*
X10479468Y-15898536D02*
X10469944Y-15908060D01*
X10469944Y-15908060D02*
X10450896Y-15917584D01*
X10450896Y-15917584D02*
X10393753Y-15917584D01*
X10393753Y-15917584D02*
X10374706Y-15908060D01*
X10374706Y-15908060D02*
X10365182Y-15898536D01*
X10584229Y-15917584D02*
X10622325Y-15917584D01*
X10622325Y-15917584D02*
X10641372Y-15908060D01*
X10641372Y-15908060D02*
X10650896Y-15898536D01*
X10650896Y-15898536D02*
X10669944Y-15869965D01*
X10669944Y-15869965D02*
X10679468Y-15831869D01*
X10679468Y-15831869D02*
X10679468Y-15755679D01*
X10679468Y-15755679D02*
X10669944Y-15736631D01*
X10669944Y-15736631D02*
X10660420Y-15727108D01*
X10660420Y-15727108D02*
X10641372Y-15717584D01*
X10641372Y-15717584D02*
X10603277Y-15717584D01*
X10603277Y-15717584D02*
X10584229Y-15727108D01*
X10584229Y-15727108D02*
X10574706Y-15736631D01*
X10574706Y-15736631D02*
X10565182Y-15755679D01*
X10565182Y-15755679D02*
X10565182Y-15803298D01*
X10565182Y-15803298D02*
X10574706Y-15822346D01*
X10574706Y-15822346D02*
X10584229Y-15831869D01*
X10584229Y-15831869D02*
X10603277Y-15841393D01*
X10603277Y-15841393D02*
X10641372Y-15841393D01*
X10641372Y-15841393D02*
X10660420Y-15831869D01*
X10660420Y-15831869D02*
X10669944Y-15822346D01*
X10669944Y-15822346D02*
X10679468Y-15803298D01*
X10850896Y-15784250D02*
X10850896Y-15917584D01*
X10803277Y-15708060D02*
X10755658Y-15850917D01*
X10755658Y-15850917D02*
X10879468Y-15850917D01*
X10946134Y-15717584D02*
X10946134Y-15755679D01*
X11022325Y-15717584D02*
X11022325Y-15755679D01*
X11317563Y-15993774D02*
X11308039Y-15984250D01*
X11308039Y-15984250D02*
X11288991Y-15955679D01*
X11288991Y-15955679D02*
X11279468Y-15936631D01*
X11279468Y-15936631D02*
X11269944Y-15908060D01*
X11269944Y-15908060D02*
X11260420Y-15860441D01*
X11260420Y-15860441D02*
X11260420Y-15822346D01*
X11260420Y-15822346D02*
X11269944Y-15774727D01*
X11269944Y-15774727D02*
X11279468Y-15746155D01*
X11279468Y-15746155D02*
X11288991Y-15727108D01*
X11288991Y-15727108D02*
X11308039Y-15698536D01*
X11308039Y-15698536D02*
X11317563Y-15689012D01*
X11479468Y-15717584D02*
X11441372Y-15717584D01*
X11441372Y-15717584D02*
X11422325Y-15727108D01*
X11422325Y-15727108D02*
X11412801Y-15736631D01*
X11412801Y-15736631D02*
X11393753Y-15765203D01*
X11393753Y-15765203D02*
X11384229Y-15803298D01*
X11384229Y-15803298D02*
X11384229Y-15879488D01*
X11384229Y-15879488D02*
X11393753Y-15898536D01*
X11393753Y-15898536D02*
X11403277Y-15908060D01*
X11403277Y-15908060D02*
X11422325Y-15917584D01*
X11422325Y-15917584D02*
X11460420Y-15917584D01*
X11460420Y-15917584D02*
X11479468Y-15908060D01*
X11479468Y-15908060D02*
X11488991Y-15898536D01*
X11488991Y-15898536D02*
X11498515Y-15879488D01*
X11498515Y-15879488D02*
X11498515Y-15831869D01*
X11498515Y-15831869D02*
X11488991Y-15812822D01*
X11488991Y-15812822D02*
X11479468Y-15803298D01*
X11479468Y-15803298D02*
X11460420Y-15793774D01*
X11460420Y-15793774D02*
X11422325Y-15793774D01*
X11422325Y-15793774D02*
X11403277Y-15803298D01*
X11403277Y-15803298D02*
X11393753Y-15812822D01*
X11393753Y-15812822D02*
X11384229Y-15831869D01*
X11574706Y-15736631D02*
X11584229Y-15727108D01*
X11584229Y-15727108D02*
X11603277Y-15717584D01*
X11603277Y-15717584D02*
X11650896Y-15717584D01*
X11650896Y-15717584D02*
X11669944Y-15727108D01*
X11669944Y-15727108D02*
X11679468Y-15736631D01*
X11679468Y-15736631D02*
X11688991Y-15755679D01*
X11688991Y-15755679D02*
X11688991Y-15774727D01*
X11688991Y-15774727D02*
X11679468Y-15803298D01*
X11679468Y-15803298D02*
X11565182Y-15917584D01*
X11565182Y-15917584D02*
X11688991Y-15917584D01*
X11927087Y-15917584D02*
X11927087Y-15717584D01*
X12012801Y-15917584D02*
X12012801Y-15812822D01*
X12012801Y-15812822D02*
X12003277Y-15793774D01*
X12003277Y-15793774D02*
X11984230Y-15784250D01*
X11984230Y-15784250D02*
X11955658Y-15784250D01*
X11955658Y-15784250D02*
X11936610Y-15793774D01*
X11936610Y-15793774D02*
X11927087Y-15803298D01*
X12136610Y-15917584D02*
X12117563Y-15908060D01*
X12117563Y-15908060D02*
X12108039Y-15898536D01*
X12108039Y-15898536D02*
X12098515Y-15879488D01*
X12098515Y-15879488D02*
X12098515Y-15822346D01*
X12098515Y-15822346D02*
X12108039Y-15803298D01*
X12108039Y-15803298D02*
X12117563Y-15793774D01*
X12117563Y-15793774D02*
X12136610Y-15784250D01*
X12136610Y-15784250D02*
X12165182Y-15784250D01*
X12165182Y-15784250D02*
X12184230Y-15793774D01*
X12184230Y-15793774D02*
X12193753Y-15803298D01*
X12193753Y-15803298D02*
X12203277Y-15822346D01*
X12203277Y-15822346D02*
X12203277Y-15879488D01*
X12203277Y-15879488D02*
X12193753Y-15898536D01*
X12193753Y-15898536D02*
X12184230Y-15908060D01*
X12184230Y-15908060D02*
X12165182Y-15917584D01*
X12165182Y-15917584D02*
X12136610Y-15917584D01*
X12317563Y-15917584D02*
X12298515Y-15908060D01*
X12298515Y-15908060D02*
X12288991Y-15889012D01*
X12288991Y-15889012D02*
X12288991Y-15717584D01*
X12469944Y-15908060D02*
X12450896Y-15917584D01*
X12450896Y-15917584D02*
X12412801Y-15917584D01*
X12412801Y-15917584D02*
X12393753Y-15908060D01*
X12393753Y-15908060D02*
X12384230Y-15889012D01*
X12384230Y-15889012D02*
X12384230Y-15812822D01*
X12384230Y-15812822D02*
X12393753Y-15793774D01*
X12393753Y-15793774D02*
X12412801Y-15784250D01*
X12412801Y-15784250D02*
X12450896Y-15784250D01*
X12450896Y-15784250D02*
X12469944Y-15793774D01*
X12469944Y-15793774D02*
X12479468Y-15812822D01*
X12479468Y-15812822D02*
X12479468Y-15831869D01*
X12479468Y-15831869D02*
X12384230Y-15850917D01*
X12555658Y-15908060D02*
X12574706Y-15917584D01*
X12574706Y-15917584D02*
X12612801Y-15917584D01*
X12612801Y-15917584D02*
X12631849Y-15908060D01*
X12631849Y-15908060D02*
X12641372Y-15889012D01*
X12641372Y-15889012D02*
X12641372Y-15879488D01*
X12641372Y-15879488D02*
X12631849Y-15860441D01*
X12631849Y-15860441D02*
X12612801Y-15850917D01*
X12612801Y-15850917D02*
X12584230Y-15850917D01*
X12584230Y-15850917D02*
X12565182Y-15841393D01*
X12565182Y-15841393D02*
X12555658Y-15822346D01*
X12555658Y-15822346D02*
X12555658Y-15812822D01*
X12555658Y-15812822D02*
X12565182Y-15793774D01*
X12565182Y-15793774D02*
X12584230Y-15784250D01*
X12584230Y-15784250D02*
X12612801Y-15784250D01*
X12612801Y-15784250D02*
X12631849Y-15793774D01*
X12708039Y-15993774D02*
X12717563Y-15984250D01*
X12717563Y-15984250D02*
X12736611Y-15955679D01*
X12736611Y-15955679D02*
X12746134Y-15936631D01*
X12746134Y-15936631D02*
X12755658Y-15908060D01*
X12755658Y-15908060D02*
X12765182Y-15860441D01*
X12765182Y-15860441D02*
X12765182Y-15822346D01*
X12765182Y-15822346D02*
X12755658Y-15774727D01*
X12755658Y-15774727D02*
X12746134Y-15746155D01*
X12746134Y-15746155D02*
X12736611Y-15727108D01*
X12736611Y-15727108D02*
X12717563Y-15698536D01*
X12717563Y-15698536D02*
X12708039Y-15689012D01*
D13*
X7687500Y-16145100D02*
X7742500Y-16090100D01*
X7687500Y-16035100D01*
X7632500Y-16090100D01*
X7687500Y-16145100D01*
D12*
X8108039Y-16181584D02*
X7993753Y-16181584D01*
X8050896Y-16181584D02*
X8050896Y-15981584D01*
X8050896Y-15981584D02*
X8031848Y-16010155D01*
X8031848Y-16010155D02*
X8012801Y-16029203D01*
X8012801Y-16029203D02*
X7993753Y-16038727D01*
X8193753Y-16162536D02*
X8203277Y-16172060D01*
X8203277Y-16172060D02*
X8193753Y-16181584D01*
X8193753Y-16181584D02*
X8184229Y-16172060D01*
X8184229Y-16172060D02*
X8193753Y-16162536D01*
X8193753Y-16162536D02*
X8193753Y-16181584D01*
X8393753Y-16181584D02*
X8279467Y-16181584D01*
X8336610Y-16181584D02*
X8336610Y-15981584D01*
X8336610Y-15981584D02*
X8317562Y-16010155D01*
X8317562Y-16010155D02*
X8298515Y-16029203D01*
X8298515Y-16029203D02*
X8279467Y-16038727D01*
X8517563Y-15981584D02*
X8536610Y-15981584D01*
X8536610Y-15981584D02*
X8555658Y-15991108D01*
X8555658Y-15991108D02*
X8565182Y-16000631D01*
X8565182Y-16000631D02*
X8574705Y-16019679D01*
X8574705Y-16019679D02*
X8584229Y-16057774D01*
X8584229Y-16057774D02*
X8584229Y-16105393D01*
X8584229Y-16105393D02*
X8574705Y-16143488D01*
X8574705Y-16143488D02*
X8565182Y-16162536D01*
X8565182Y-16162536D02*
X8555658Y-16172060D01*
X8555658Y-16172060D02*
X8536610Y-16181584D01*
X8536610Y-16181584D02*
X8517563Y-16181584D01*
X8517563Y-16181584D02*
X8498515Y-16172060D01*
X8498515Y-16172060D02*
X8488991Y-16162536D01*
X8488991Y-16162536D02*
X8479467Y-16143488D01*
X8479467Y-16143488D02*
X8469944Y-16105393D01*
X8469944Y-16105393D02*
X8469944Y-16057774D01*
X8469944Y-16057774D02*
X8479467Y-16019679D01*
X8479467Y-16019679D02*
X8488991Y-16000631D01*
X8488991Y-16000631D02*
X8498515Y-15991108D01*
X8498515Y-15991108D02*
X8517563Y-15981584D01*
X8708039Y-15981584D02*
X8727086Y-15981584D01*
X8727086Y-15981584D02*
X8746134Y-15991108D01*
X8746134Y-15991108D02*
X8755658Y-16000631D01*
X8755658Y-16000631D02*
X8765182Y-16019679D01*
X8765182Y-16019679D02*
X8774705Y-16057774D01*
X8774705Y-16057774D02*
X8774705Y-16105393D01*
X8774705Y-16105393D02*
X8765182Y-16143488D01*
X8765182Y-16143488D02*
X8755658Y-16162536D01*
X8755658Y-16162536D02*
X8746134Y-16172060D01*
X8746134Y-16172060D02*
X8727086Y-16181584D01*
X8727086Y-16181584D02*
X8708039Y-16181584D01*
X8708039Y-16181584D02*
X8688991Y-16172060D01*
X8688991Y-16172060D02*
X8679467Y-16162536D01*
X8679467Y-16162536D02*
X8669944Y-16143488D01*
X8669944Y-16143488D02*
X8660420Y-16105393D01*
X8660420Y-16105393D02*
X8660420Y-16057774D01*
X8660420Y-16057774D02*
X8669944Y-16019679D01*
X8669944Y-16019679D02*
X8679467Y-16000631D01*
X8679467Y-16000631D02*
X8688991Y-15991108D01*
X8688991Y-15991108D02*
X8708039Y-15981584D01*
X8860420Y-16181584D02*
X8860420Y-16048250D01*
X8860420Y-16067298D02*
X8869944Y-16057774D01*
X8869944Y-16057774D02*
X8888991Y-16048250D01*
X8888991Y-16048250D02*
X8917563Y-16048250D01*
X8917563Y-16048250D02*
X8936610Y-16057774D01*
X8936610Y-16057774D02*
X8946134Y-16076822D01*
X8946134Y-16076822D02*
X8946134Y-16181584D01*
X8946134Y-16076822D02*
X8955658Y-16057774D01*
X8955658Y-16057774D02*
X8974705Y-16048250D01*
X8974705Y-16048250D02*
X9003277Y-16048250D01*
X9003277Y-16048250D02*
X9022325Y-16057774D01*
X9022325Y-16057774D02*
X9031848Y-16076822D01*
X9031848Y-16076822D02*
X9031848Y-16181584D01*
X9127086Y-16181584D02*
X9127086Y-16048250D01*
X9127086Y-16067298D02*
X9136610Y-16057774D01*
X9136610Y-16057774D02*
X9155658Y-16048250D01*
X9155658Y-16048250D02*
X9184229Y-16048250D01*
X9184229Y-16048250D02*
X9203277Y-16057774D01*
X9203277Y-16057774D02*
X9212801Y-16076822D01*
X9212801Y-16076822D02*
X9212801Y-16181584D01*
X9212801Y-16076822D02*
X9222325Y-16057774D01*
X9222325Y-16057774D02*
X9241372Y-16048250D01*
X9241372Y-16048250D02*
X9269944Y-16048250D01*
X9269944Y-16048250D02*
X9288991Y-16057774D01*
X9288991Y-16057774D02*
X9298515Y-16076822D01*
X9298515Y-16076822D02*
X9298515Y-16181584D01*
X9688991Y-15972060D02*
X9517563Y-16229203D01*
X9946134Y-15981584D02*
X9965182Y-15981584D01*
X9965182Y-15981584D02*
X9984229Y-15991108D01*
X9984229Y-15991108D02*
X9993753Y-16000631D01*
X9993753Y-16000631D02*
X10003277Y-16019679D01*
X10003277Y-16019679D02*
X10012801Y-16057774D01*
X10012801Y-16057774D02*
X10012801Y-16105393D01*
X10012801Y-16105393D02*
X10003277Y-16143488D01*
X10003277Y-16143488D02*
X9993753Y-16162536D01*
X9993753Y-16162536D02*
X9984229Y-16172060D01*
X9984229Y-16172060D02*
X9965182Y-16181584D01*
X9965182Y-16181584D02*
X9946134Y-16181584D01*
X9946134Y-16181584D02*
X9927087Y-16172060D01*
X9927087Y-16172060D02*
X9917563Y-16162536D01*
X9917563Y-16162536D02*
X9908039Y-16143488D01*
X9908039Y-16143488D02*
X9898515Y-16105393D01*
X9898515Y-16105393D02*
X9898515Y-16057774D01*
X9898515Y-16057774D02*
X9908039Y-16019679D01*
X9908039Y-16019679D02*
X9917563Y-16000631D01*
X9917563Y-16000631D02*
X9927087Y-15991108D01*
X9927087Y-15991108D02*
X9946134Y-15981584D01*
X10098515Y-16162536D02*
X10108039Y-16172060D01*
X10108039Y-16172060D02*
X10098515Y-16181584D01*
X10098515Y-16181584D02*
X10088991Y-16172060D01*
X10088991Y-16172060D02*
X10098515Y-16162536D01*
X10098515Y-16162536D02*
X10098515Y-16181584D01*
X10231848Y-15981584D02*
X10250896Y-15981584D01*
X10250896Y-15981584D02*
X10269944Y-15991108D01*
X10269944Y-15991108D02*
X10279468Y-16000631D01*
X10279468Y-16000631D02*
X10288991Y-16019679D01*
X10288991Y-16019679D02*
X10298515Y-16057774D01*
X10298515Y-16057774D02*
X10298515Y-16105393D01*
X10298515Y-16105393D02*
X10288991Y-16143488D01*
X10288991Y-16143488D02*
X10279468Y-16162536D01*
X10279468Y-16162536D02*
X10269944Y-16172060D01*
X10269944Y-16172060D02*
X10250896Y-16181584D01*
X10250896Y-16181584D02*
X10231848Y-16181584D01*
X10231848Y-16181584D02*
X10212801Y-16172060D01*
X10212801Y-16172060D02*
X10203277Y-16162536D01*
X10203277Y-16162536D02*
X10193753Y-16143488D01*
X10193753Y-16143488D02*
X10184229Y-16105393D01*
X10184229Y-16105393D02*
X10184229Y-16057774D01*
X10184229Y-16057774D02*
X10193753Y-16019679D01*
X10193753Y-16019679D02*
X10203277Y-16000631D01*
X10203277Y-16000631D02*
X10212801Y-15991108D01*
X10212801Y-15991108D02*
X10231848Y-15981584D01*
X10469944Y-16048250D02*
X10469944Y-16181584D01*
X10422325Y-15972060D02*
X10374706Y-16114917D01*
X10374706Y-16114917D02*
X10498515Y-16114917D01*
X10555658Y-15981584D02*
X10679468Y-15981584D01*
X10679468Y-15981584D02*
X10612801Y-16057774D01*
X10612801Y-16057774D02*
X10641372Y-16057774D01*
X10641372Y-16057774D02*
X10660420Y-16067298D01*
X10660420Y-16067298D02*
X10669944Y-16076822D01*
X10669944Y-16076822D02*
X10679468Y-16095869D01*
X10679468Y-16095869D02*
X10679468Y-16143488D01*
X10679468Y-16143488D02*
X10669944Y-16162536D01*
X10669944Y-16162536D02*
X10660420Y-16172060D01*
X10660420Y-16172060D02*
X10641372Y-16181584D01*
X10641372Y-16181584D02*
X10584229Y-16181584D01*
X10584229Y-16181584D02*
X10565182Y-16172060D01*
X10565182Y-16172060D02*
X10555658Y-16162536D01*
X10746134Y-15981584D02*
X10869944Y-15981584D01*
X10869944Y-15981584D02*
X10803277Y-16057774D01*
X10803277Y-16057774D02*
X10831849Y-16057774D01*
X10831849Y-16057774D02*
X10850896Y-16067298D01*
X10850896Y-16067298D02*
X10860420Y-16076822D01*
X10860420Y-16076822D02*
X10869944Y-16095869D01*
X10869944Y-16095869D02*
X10869944Y-16143488D01*
X10869944Y-16143488D02*
X10860420Y-16162536D01*
X10860420Y-16162536D02*
X10850896Y-16172060D01*
X10850896Y-16172060D02*
X10831849Y-16181584D01*
X10831849Y-16181584D02*
X10774706Y-16181584D01*
X10774706Y-16181584D02*
X10755658Y-16172060D01*
X10755658Y-16172060D02*
X10746134Y-16162536D01*
X10946134Y-15981584D02*
X10946134Y-16019679D01*
X11022325Y-15981584D02*
X11022325Y-16019679D01*
X11317563Y-16257774D02*
X11308039Y-16248250D01*
X11308039Y-16248250D02*
X11288991Y-16219679D01*
X11288991Y-16219679D02*
X11279468Y-16200631D01*
X11279468Y-16200631D02*
X11269944Y-16172060D01*
X11269944Y-16172060D02*
X11260420Y-16124441D01*
X11260420Y-16124441D02*
X11260420Y-16086346D01*
X11260420Y-16086346D02*
X11269944Y-16038727D01*
X11269944Y-16038727D02*
X11279468Y-16010155D01*
X11279468Y-16010155D02*
X11288991Y-15991108D01*
X11288991Y-15991108D02*
X11308039Y-15962536D01*
X11308039Y-15962536D02*
X11317563Y-15953012D01*
X11488991Y-15981584D02*
X11393753Y-15981584D01*
X11393753Y-15981584D02*
X11384229Y-16076822D01*
X11384229Y-16076822D02*
X11393753Y-16067298D01*
X11393753Y-16067298D02*
X11412801Y-16057774D01*
X11412801Y-16057774D02*
X11460420Y-16057774D01*
X11460420Y-16057774D02*
X11479468Y-16067298D01*
X11479468Y-16067298D02*
X11488991Y-16076822D01*
X11488991Y-16076822D02*
X11498515Y-16095869D01*
X11498515Y-16095869D02*
X11498515Y-16143488D01*
X11498515Y-16143488D02*
X11488991Y-16162536D01*
X11488991Y-16162536D02*
X11479468Y-16172060D01*
X11479468Y-16172060D02*
X11460420Y-16181584D01*
X11460420Y-16181584D02*
X11412801Y-16181584D01*
X11412801Y-16181584D02*
X11393753Y-16172060D01*
X11393753Y-16172060D02*
X11384229Y-16162536D01*
X11574706Y-16000631D02*
X11584229Y-15991108D01*
X11584229Y-15991108D02*
X11603277Y-15981584D01*
X11603277Y-15981584D02*
X11650896Y-15981584D01*
X11650896Y-15981584D02*
X11669944Y-15991108D01*
X11669944Y-15991108D02*
X11679468Y-16000631D01*
X11679468Y-16000631D02*
X11688991Y-16019679D01*
X11688991Y-16019679D02*
X11688991Y-16038727D01*
X11688991Y-16038727D02*
X11679468Y-16067298D01*
X11679468Y-16067298D02*
X11565182Y-16181584D01*
X11565182Y-16181584D02*
X11688991Y-16181584D01*
X11927087Y-16181584D02*
X11927087Y-15981584D01*
X12012801Y-16181584D02*
X12012801Y-16076822D01*
X12012801Y-16076822D02*
X12003277Y-16057774D01*
X12003277Y-16057774D02*
X11984230Y-16048250D01*
X11984230Y-16048250D02*
X11955658Y-16048250D01*
X11955658Y-16048250D02*
X11936610Y-16057774D01*
X11936610Y-16057774D02*
X11927087Y-16067298D01*
X12136610Y-16181584D02*
X12117563Y-16172060D01*
X12117563Y-16172060D02*
X12108039Y-16162536D01*
X12108039Y-16162536D02*
X12098515Y-16143488D01*
X12098515Y-16143488D02*
X12098515Y-16086346D01*
X12098515Y-16086346D02*
X12108039Y-16067298D01*
X12108039Y-16067298D02*
X12117563Y-16057774D01*
X12117563Y-16057774D02*
X12136610Y-16048250D01*
X12136610Y-16048250D02*
X12165182Y-16048250D01*
X12165182Y-16048250D02*
X12184230Y-16057774D01*
X12184230Y-16057774D02*
X12193753Y-16067298D01*
X12193753Y-16067298D02*
X12203277Y-16086346D01*
X12203277Y-16086346D02*
X12203277Y-16143488D01*
X12203277Y-16143488D02*
X12193753Y-16162536D01*
X12193753Y-16162536D02*
X12184230Y-16172060D01*
X12184230Y-16172060D02*
X12165182Y-16181584D01*
X12165182Y-16181584D02*
X12136610Y-16181584D01*
X12317563Y-16181584D02*
X12298515Y-16172060D01*
X12298515Y-16172060D02*
X12288991Y-16153012D01*
X12288991Y-16153012D02*
X12288991Y-15981584D01*
X12469944Y-16172060D02*
X12450896Y-16181584D01*
X12450896Y-16181584D02*
X12412801Y-16181584D01*
X12412801Y-16181584D02*
X12393753Y-16172060D01*
X12393753Y-16172060D02*
X12384230Y-16153012D01*
X12384230Y-16153012D02*
X12384230Y-16076822D01*
X12384230Y-16076822D02*
X12393753Y-16057774D01*
X12393753Y-16057774D02*
X12412801Y-16048250D01*
X12412801Y-16048250D02*
X12450896Y-16048250D01*
X12450896Y-16048250D02*
X12469944Y-16057774D01*
X12469944Y-16057774D02*
X12479468Y-16076822D01*
X12479468Y-16076822D02*
X12479468Y-16095869D01*
X12479468Y-16095869D02*
X12384230Y-16114917D01*
X12555658Y-16172060D02*
X12574706Y-16181584D01*
X12574706Y-16181584D02*
X12612801Y-16181584D01*
X12612801Y-16181584D02*
X12631849Y-16172060D01*
X12631849Y-16172060D02*
X12641372Y-16153012D01*
X12641372Y-16153012D02*
X12641372Y-16143488D01*
X12641372Y-16143488D02*
X12631849Y-16124441D01*
X12631849Y-16124441D02*
X12612801Y-16114917D01*
X12612801Y-16114917D02*
X12584230Y-16114917D01*
X12584230Y-16114917D02*
X12565182Y-16105393D01*
X12565182Y-16105393D02*
X12555658Y-16086346D01*
X12555658Y-16086346D02*
X12555658Y-16076822D01*
X12555658Y-16076822D02*
X12565182Y-16057774D01*
X12565182Y-16057774D02*
X12584230Y-16048250D01*
X12584230Y-16048250D02*
X12612801Y-16048250D01*
X12612801Y-16048250D02*
X12631849Y-16057774D01*
X12708039Y-16257774D02*
X12717563Y-16248250D01*
X12717563Y-16248250D02*
X12736611Y-16219679D01*
X12736611Y-16219679D02*
X12746134Y-16200631D01*
X12746134Y-16200631D02*
X12755658Y-16172060D01*
X12755658Y-16172060D02*
X12765182Y-16124441D01*
X12765182Y-16124441D02*
X12765182Y-16086346D01*
X12765182Y-16086346D02*
X12755658Y-16038727D01*
X12755658Y-16038727D02*
X12746134Y-16010155D01*
X12746134Y-16010155D02*
X12736611Y-15991108D01*
X12736611Y-15991108D02*
X12717563Y-15962536D01*
X12717563Y-15962536D02*
X12708039Y-15953012D01*
X7542500Y-16254100D02*
X7742500Y-16454100D01*
X7742500Y-16254100D02*
X7542500Y-16454100D01*
X7742500Y-16354100D02*
G75*
G02*
X7542500Y-16354100I-100000J0D01*
G01*
X7542500Y-16354100D02*
G75*
G02*
X7742500Y-16354100I100000J0D01*
G01*
X7984229Y-16245584D02*
X8108039Y-16245584D01*
X8108039Y-16245584D02*
X8041372Y-16321774D01*
X8041372Y-16321774D02*
X8069943Y-16321774D01*
X8069943Y-16321774D02*
X8088991Y-16331298D01*
X8088991Y-16331298D02*
X8098515Y-16340822D01*
X8098515Y-16340822D02*
X8108039Y-16359869D01*
X8108039Y-16359869D02*
X8108039Y-16407488D01*
X8108039Y-16407488D02*
X8098515Y-16426536D01*
X8098515Y-16426536D02*
X8088991Y-16436060D01*
X8088991Y-16436060D02*
X8069943Y-16445584D01*
X8069943Y-16445584D02*
X8012801Y-16445584D01*
X8012801Y-16445584D02*
X7993753Y-16436060D01*
X7993753Y-16436060D02*
X7984229Y-16426536D01*
X8193753Y-16426536D02*
X8203277Y-16436060D01*
X8203277Y-16436060D02*
X8193753Y-16445584D01*
X8193753Y-16445584D02*
X8184229Y-16436060D01*
X8184229Y-16436060D02*
X8193753Y-16426536D01*
X8193753Y-16426536D02*
X8193753Y-16445584D01*
X8279467Y-16264631D02*
X8288991Y-16255108D01*
X8288991Y-16255108D02*
X8308039Y-16245584D01*
X8308039Y-16245584D02*
X8355658Y-16245584D01*
X8355658Y-16245584D02*
X8374705Y-16255108D01*
X8374705Y-16255108D02*
X8384229Y-16264631D01*
X8384229Y-16264631D02*
X8393753Y-16283679D01*
X8393753Y-16283679D02*
X8393753Y-16302727D01*
X8393753Y-16302727D02*
X8384229Y-16331298D01*
X8384229Y-16331298D02*
X8269943Y-16445584D01*
X8269943Y-16445584D02*
X8393753Y-16445584D01*
X8517563Y-16245584D02*
X8536610Y-16245584D01*
X8536610Y-16245584D02*
X8555658Y-16255108D01*
X8555658Y-16255108D02*
X8565182Y-16264631D01*
X8565182Y-16264631D02*
X8574705Y-16283679D01*
X8574705Y-16283679D02*
X8584229Y-16321774D01*
X8584229Y-16321774D02*
X8584229Y-16369393D01*
X8584229Y-16369393D02*
X8574705Y-16407488D01*
X8574705Y-16407488D02*
X8565182Y-16426536D01*
X8565182Y-16426536D02*
X8555658Y-16436060D01*
X8555658Y-16436060D02*
X8536610Y-16445584D01*
X8536610Y-16445584D02*
X8517563Y-16445584D01*
X8517563Y-16445584D02*
X8498515Y-16436060D01*
X8498515Y-16436060D02*
X8488991Y-16426536D01*
X8488991Y-16426536D02*
X8479467Y-16407488D01*
X8479467Y-16407488D02*
X8469944Y-16369393D01*
X8469944Y-16369393D02*
X8469944Y-16321774D01*
X8469944Y-16321774D02*
X8479467Y-16283679D01*
X8479467Y-16283679D02*
X8488991Y-16264631D01*
X8488991Y-16264631D02*
X8498515Y-16255108D01*
X8498515Y-16255108D02*
X8517563Y-16245584D01*
X8708039Y-16245584D02*
X8727086Y-16245584D01*
X8727086Y-16245584D02*
X8746134Y-16255108D01*
X8746134Y-16255108D02*
X8755658Y-16264631D01*
X8755658Y-16264631D02*
X8765182Y-16283679D01*
X8765182Y-16283679D02*
X8774705Y-16321774D01*
X8774705Y-16321774D02*
X8774705Y-16369393D01*
X8774705Y-16369393D02*
X8765182Y-16407488D01*
X8765182Y-16407488D02*
X8755658Y-16426536D01*
X8755658Y-16426536D02*
X8746134Y-16436060D01*
X8746134Y-16436060D02*
X8727086Y-16445584D01*
X8727086Y-16445584D02*
X8708039Y-16445584D01*
X8708039Y-16445584D02*
X8688991Y-16436060D01*
X8688991Y-16436060D02*
X8679467Y-16426536D01*
X8679467Y-16426536D02*
X8669944Y-16407488D01*
X8669944Y-16407488D02*
X8660420Y-16369393D01*
X8660420Y-16369393D02*
X8660420Y-16321774D01*
X8660420Y-16321774D02*
X8669944Y-16283679D01*
X8669944Y-16283679D02*
X8679467Y-16264631D01*
X8679467Y-16264631D02*
X8688991Y-16255108D01*
X8688991Y-16255108D02*
X8708039Y-16245584D01*
X8860420Y-16445584D02*
X8860420Y-16312250D01*
X8860420Y-16331298D02*
X8869944Y-16321774D01*
X8869944Y-16321774D02*
X8888991Y-16312250D01*
X8888991Y-16312250D02*
X8917563Y-16312250D01*
X8917563Y-16312250D02*
X8936610Y-16321774D01*
X8936610Y-16321774D02*
X8946134Y-16340822D01*
X8946134Y-16340822D02*
X8946134Y-16445584D01*
X8946134Y-16340822D02*
X8955658Y-16321774D01*
X8955658Y-16321774D02*
X8974705Y-16312250D01*
X8974705Y-16312250D02*
X9003277Y-16312250D01*
X9003277Y-16312250D02*
X9022325Y-16321774D01*
X9022325Y-16321774D02*
X9031848Y-16340822D01*
X9031848Y-16340822D02*
X9031848Y-16445584D01*
X9127086Y-16445584D02*
X9127086Y-16312250D01*
X9127086Y-16331298D02*
X9136610Y-16321774D01*
X9136610Y-16321774D02*
X9155658Y-16312250D01*
X9155658Y-16312250D02*
X9184229Y-16312250D01*
X9184229Y-16312250D02*
X9203277Y-16321774D01*
X9203277Y-16321774D02*
X9212801Y-16340822D01*
X9212801Y-16340822D02*
X9212801Y-16445584D01*
X9212801Y-16340822D02*
X9222325Y-16321774D01*
X9222325Y-16321774D02*
X9241372Y-16312250D01*
X9241372Y-16312250D02*
X9269944Y-16312250D01*
X9269944Y-16312250D02*
X9288991Y-16321774D01*
X9288991Y-16321774D02*
X9298515Y-16340822D01*
X9298515Y-16340822D02*
X9298515Y-16445584D01*
X9688991Y-16236060D02*
X9517563Y-16493203D01*
X9946134Y-16245584D02*
X9965182Y-16245584D01*
X9965182Y-16245584D02*
X9984229Y-16255108D01*
X9984229Y-16255108D02*
X9993753Y-16264631D01*
X9993753Y-16264631D02*
X10003277Y-16283679D01*
X10003277Y-16283679D02*
X10012801Y-16321774D01*
X10012801Y-16321774D02*
X10012801Y-16369393D01*
X10012801Y-16369393D02*
X10003277Y-16407488D01*
X10003277Y-16407488D02*
X9993753Y-16426536D01*
X9993753Y-16426536D02*
X9984229Y-16436060D01*
X9984229Y-16436060D02*
X9965182Y-16445584D01*
X9965182Y-16445584D02*
X9946134Y-16445584D01*
X9946134Y-16445584D02*
X9927087Y-16436060D01*
X9927087Y-16436060D02*
X9917563Y-16426536D01*
X9917563Y-16426536D02*
X9908039Y-16407488D01*
X9908039Y-16407488D02*
X9898515Y-16369393D01*
X9898515Y-16369393D02*
X9898515Y-16321774D01*
X9898515Y-16321774D02*
X9908039Y-16283679D01*
X9908039Y-16283679D02*
X9917563Y-16264631D01*
X9917563Y-16264631D02*
X9927087Y-16255108D01*
X9927087Y-16255108D02*
X9946134Y-16245584D01*
X10098515Y-16426536D02*
X10108039Y-16436060D01*
X10108039Y-16436060D02*
X10098515Y-16445584D01*
X10098515Y-16445584D02*
X10088991Y-16436060D01*
X10088991Y-16436060D02*
X10098515Y-16426536D01*
X10098515Y-16426536D02*
X10098515Y-16445584D01*
X10298515Y-16445584D02*
X10184229Y-16445584D01*
X10241372Y-16445584D02*
X10241372Y-16245584D01*
X10241372Y-16245584D02*
X10222325Y-16274155D01*
X10222325Y-16274155D02*
X10203277Y-16293203D01*
X10203277Y-16293203D02*
X10184229Y-16302727D01*
X10374706Y-16264631D02*
X10384229Y-16255108D01*
X10384229Y-16255108D02*
X10403277Y-16245584D01*
X10403277Y-16245584D02*
X10450896Y-16245584D01*
X10450896Y-16245584D02*
X10469944Y-16255108D01*
X10469944Y-16255108D02*
X10479468Y-16264631D01*
X10479468Y-16264631D02*
X10488991Y-16283679D01*
X10488991Y-16283679D02*
X10488991Y-16302727D01*
X10488991Y-16302727D02*
X10479468Y-16331298D01*
X10479468Y-16331298D02*
X10365182Y-16445584D01*
X10365182Y-16445584D02*
X10488991Y-16445584D01*
X10660420Y-16245584D02*
X10622325Y-16245584D01*
X10622325Y-16245584D02*
X10603277Y-16255108D01*
X10603277Y-16255108D02*
X10593753Y-16264631D01*
X10593753Y-16264631D02*
X10574706Y-16293203D01*
X10574706Y-16293203D02*
X10565182Y-16331298D01*
X10565182Y-16331298D02*
X10565182Y-16407488D01*
X10565182Y-16407488D02*
X10574706Y-16426536D01*
X10574706Y-16426536D02*
X10584229Y-16436060D01*
X10584229Y-16436060D02*
X10603277Y-16445584D01*
X10603277Y-16445584D02*
X10641372Y-16445584D01*
X10641372Y-16445584D02*
X10660420Y-16436060D01*
X10660420Y-16436060D02*
X10669944Y-16426536D01*
X10669944Y-16426536D02*
X10679468Y-16407488D01*
X10679468Y-16407488D02*
X10679468Y-16359869D01*
X10679468Y-16359869D02*
X10669944Y-16340822D01*
X10669944Y-16340822D02*
X10660420Y-16331298D01*
X10660420Y-16331298D02*
X10641372Y-16321774D01*
X10641372Y-16321774D02*
X10603277Y-16321774D01*
X10603277Y-16321774D02*
X10584229Y-16331298D01*
X10584229Y-16331298D02*
X10574706Y-16340822D01*
X10574706Y-16340822D02*
X10565182Y-16359869D01*
X10803277Y-16245584D02*
X10822325Y-16245584D01*
X10822325Y-16245584D02*
X10841372Y-16255108D01*
X10841372Y-16255108D02*
X10850896Y-16264631D01*
X10850896Y-16264631D02*
X10860420Y-16283679D01*
X10860420Y-16283679D02*
X10869944Y-16321774D01*
X10869944Y-16321774D02*
X10869944Y-16369393D01*
X10869944Y-16369393D02*
X10860420Y-16407488D01*
X10860420Y-16407488D02*
X10850896Y-16426536D01*
X10850896Y-16426536D02*
X10841372Y-16436060D01*
X10841372Y-16436060D02*
X10822325Y-16445584D01*
X10822325Y-16445584D02*
X10803277Y-16445584D01*
X10803277Y-16445584D02*
X10784229Y-16436060D01*
X10784229Y-16436060D02*
X10774706Y-16426536D01*
X10774706Y-16426536D02*
X10765182Y-16407488D01*
X10765182Y-16407488D02*
X10755658Y-16369393D01*
X10755658Y-16369393D02*
X10755658Y-16321774D01*
X10755658Y-16321774D02*
X10765182Y-16283679D01*
X10765182Y-16283679D02*
X10774706Y-16264631D01*
X10774706Y-16264631D02*
X10784229Y-16255108D01*
X10784229Y-16255108D02*
X10803277Y-16245584D01*
X10946134Y-16245584D02*
X10946134Y-16283679D01*
X11022325Y-16245584D02*
X11022325Y-16283679D01*
X11317563Y-16521774D02*
X11308039Y-16512250D01*
X11308039Y-16512250D02*
X11288991Y-16483679D01*
X11288991Y-16483679D02*
X11279468Y-16464631D01*
X11279468Y-16464631D02*
X11269944Y-16436060D01*
X11269944Y-16436060D02*
X11260420Y-16388441D01*
X11260420Y-16388441D02*
X11260420Y-16350346D01*
X11260420Y-16350346D02*
X11269944Y-16302727D01*
X11269944Y-16302727D02*
X11279468Y-16274155D01*
X11279468Y-16274155D02*
X11288991Y-16255108D01*
X11288991Y-16255108D02*
X11308039Y-16226536D01*
X11308039Y-16226536D02*
X11317563Y-16217012D01*
X11479468Y-16312250D02*
X11479468Y-16445584D01*
X11431848Y-16236060D02*
X11384229Y-16378917D01*
X11384229Y-16378917D02*
X11508039Y-16378917D01*
X11736610Y-16445584D02*
X11736610Y-16245584D01*
X11822325Y-16445584D02*
X11822325Y-16340822D01*
X11822325Y-16340822D02*
X11812801Y-16321774D01*
X11812801Y-16321774D02*
X11793753Y-16312250D01*
X11793753Y-16312250D02*
X11765182Y-16312250D01*
X11765182Y-16312250D02*
X11746134Y-16321774D01*
X11746134Y-16321774D02*
X11736610Y-16331298D01*
X11946134Y-16445584D02*
X11927087Y-16436060D01*
X11927087Y-16436060D02*
X11917563Y-16426536D01*
X11917563Y-16426536D02*
X11908039Y-16407488D01*
X11908039Y-16407488D02*
X11908039Y-16350346D01*
X11908039Y-16350346D02*
X11917563Y-16331298D01*
X11917563Y-16331298D02*
X11927087Y-16321774D01*
X11927087Y-16321774D02*
X11946134Y-16312250D01*
X11946134Y-16312250D02*
X11974706Y-16312250D01*
X11974706Y-16312250D02*
X11993753Y-16321774D01*
X11993753Y-16321774D02*
X12003277Y-16331298D01*
X12003277Y-16331298D02*
X12012801Y-16350346D01*
X12012801Y-16350346D02*
X12012801Y-16407488D01*
X12012801Y-16407488D02*
X12003277Y-16426536D01*
X12003277Y-16426536D02*
X11993753Y-16436060D01*
X11993753Y-16436060D02*
X11974706Y-16445584D01*
X11974706Y-16445584D02*
X11946134Y-16445584D01*
X12127087Y-16445584D02*
X12108039Y-16436060D01*
X12108039Y-16436060D02*
X12098515Y-16417012D01*
X12098515Y-16417012D02*
X12098515Y-16245584D01*
X12279468Y-16436060D02*
X12260420Y-16445584D01*
X12260420Y-16445584D02*
X12222325Y-16445584D01*
X12222325Y-16445584D02*
X12203277Y-16436060D01*
X12203277Y-16436060D02*
X12193753Y-16417012D01*
X12193753Y-16417012D02*
X12193753Y-16340822D01*
X12193753Y-16340822D02*
X12203277Y-16321774D01*
X12203277Y-16321774D02*
X12222325Y-16312250D01*
X12222325Y-16312250D02*
X12260420Y-16312250D01*
X12260420Y-16312250D02*
X12279468Y-16321774D01*
X12279468Y-16321774D02*
X12288991Y-16340822D01*
X12288991Y-16340822D02*
X12288991Y-16359869D01*
X12288991Y-16359869D02*
X12193753Y-16378917D01*
X12365182Y-16436060D02*
X12384230Y-16445584D01*
X12384230Y-16445584D02*
X12422325Y-16445584D01*
X12422325Y-16445584D02*
X12441372Y-16436060D01*
X12441372Y-16436060D02*
X12450896Y-16417012D01*
X12450896Y-16417012D02*
X12450896Y-16407488D01*
X12450896Y-16407488D02*
X12441372Y-16388441D01*
X12441372Y-16388441D02*
X12422325Y-16378917D01*
X12422325Y-16378917D02*
X12393753Y-16378917D01*
X12393753Y-16378917D02*
X12374706Y-16369393D01*
X12374706Y-16369393D02*
X12365182Y-16350346D01*
X12365182Y-16350346D02*
X12365182Y-16340822D01*
X12365182Y-16340822D02*
X12374706Y-16321774D01*
X12374706Y-16321774D02*
X12393753Y-16312250D01*
X12393753Y-16312250D02*
X12422325Y-16312250D01*
X12422325Y-16312250D02*
X12441372Y-16321774D01*
X12517563Y-16521774D02*
X12527087Y-16512250D01*
X12527087Y-16512250D02*
X12546134Y-16483679D01*
X12546134Y-16483679D02*
X12555658Y-16464631D01*
X12555658Y-16464631D02*
X12565182Y-16436060D01*
X12565182Y-16436060D02*
X12574706Y-16388441D01*
X12574706Y-16388441D02*
X12574706Y-16350346D01*
X12574706Y-16350346D02*
X12565182Y-16302727D01*
X12565182Y-16302727D02*
X12555658Y-16274155D01*
X12555658Y-16274155D02*
X12546134Y-16255108D01*
X12546134Y-16255108D02*
X12527087Y-16226536D01*
X12527087Y-16226536D02*
X12517563Y-16217012D01*
X7542500Y-16574100D02*
X7742500Y-16774100D01*
X7742500Y-16574100D02*
X7542500Y-16774100D01*
X7642500Y-16574100D02*
X7642500Y-16774100D01*
X7542500Y-16674100D02*
X7742500Y-16674100D01*
X7984229Y-16565584D02*
X8108039Y-16565584D01*
X8108039Y-16565584D02*
X8041372Y-16641774D01*
X8041372Y-16641774D02*
X8069943Y-16641774D01*
X8069943Y-16641774D02*
X8088991Y-16651298D01*
X8088991Y-16651298D02*
X8098515Y-16660822D01*
X8098515Y-16660822D02*
X8108039Y-16679869D01*
X8108039Y-16679869D02*
X8108039Y-16727488D01*
X8108039Y-16727488D02*
X8098515Y-16746536D01*
X8098515Y-16746536D02*
X8088991Y-16756060D01*
X8088991Y-16756060D02*
X8069943Y-16765584D01*
X8069943Y-16765584D02*
X8012801Y-16765584D01*
X8012801Y-16765584D02*
X7993753Y-16756060D01*
X7993753Y-16756060D02*
X7984229Y-16746536D01*
X8193753Y-16746536D02*
X8203277Y-16756060D01*
X8203277Y-16756060D02*
X8193753Y-16765584D01*
X8193753Y-16765584D02*
X8184229Y-16756060D01*
X8184229Y-16756060D02*
X8193753Y-16746536D01*
X8193753Y-16746536D02*
X8193753Y-16765584D01*
X8384229Y-16565584D02*
X8288991Y-16565584D01*
X8288991Y-16565584D02*
X8279467Y-16660822D01*
X8279467Y-16660822D02*
X8288991Y-16651298D01*
X8288991Y-16651298D02*
X8308039Y-16641774D01*
X8308039Y-16641774D02*
X8355658Y-16641774D01*
X8355658Y-16641774D02*
X8374705Y-16651298D01*
X8374705Y-16651298D02*
X8384229Y-16660822D01*
X8384229Y-16660822D02*
X8393753Y-16679869D01*
X8393753Y-16679869D02*
X8393753Y-16727488D01*
X8393753Y-16727488D02*
X8384229Y-16746536D01*
X8384229Y-16746536D02*
X8374705Y-16756060D01*
X8374705Y-16756060D02*
X8355658Y-16765584D01*
X8355658Y-16765584D02*
X8308039Y-16765584D01*
X8308039Y-16765584D02*
X8288991Y-16756060D01*
X8288991Y-16756060D02*
X8279467Y-16746536D01*
X8517563Y-16565584D02*
X8536610Y-16565584D01*
X8536610Y-16565584D02*
X8555658Y-16575108D01*
X8555658Y-16575108D02*
X8565182Y-16584631D01*
X8565182Y-16584631D02*
X8574705Y-16603679D01*
X8574705Y-16603679D02*
X8584229Y-16641774D01*
X8584229Y-16641774D02*
X8584229Y-16689393D01*
X8584229Y-16689393D02*
X8574705Y-16727488D01*
X8574705Y-16727488D02*
X8565182Y-16746536D01*
X8565182Y-16746536D02*
X8555658Y-16756060D01*
X8555658Y-16756060D02*
X8536610Y-16765584D01*
X8536610Y-16765584D02*
X8517563Y-16765584D01*
X8517563Y-16765584D02*
X8498515Y-16756060D01*
X8498515Y-16756060D02*
X8488991Y-16746536D01*
X8488991Y-16746536D02*
X8479467Y-16727488D01*
X8479467Y-16727488D02*
X8469944Y-16689393D01*
X8469944Y-16689393D02*
X8469944Y-16641774D01*
X8469944Y-16641774D02*
X8479467Y-16603679D01*
X8479467Y-16603679D02*
X8488991Y-16584631D01*
X8488991Y-16584631D02*
X8498515Y-16575108D01*
X8498515Y-16575108D02*
X8517563Y-16565584D01*
X8708039Y-16565584D02*
X8727086Y-16565584D01*
X8727086Y-16565584D02*
X8746134Y-16575108D01*
X8746134Y-16575108D02*
X8755658Y-16584631D01*
X8755658Y-16584631D02*
X8765182Y-16603679D01*
X8765182Y-16603679D02*
X8774705Y-16641774D01*
X8774705Y-16641774D02*
X8774705Y-16689393D01*
X8774705Y-16689393D02*
X8765182Y-16727488D01*
X8765182Y-16727488D02*
X8755658Y-16746536D01*
X8755658Y-16746536D02*
X8746134Y-16756060D01*
X8746134Y-16756060D02*
X8727086Y-16765584D01*
X8727086Y-16765584D02*
X8708039Y-16765584D01*
X8708039Y-16765584D02*
X8688991Y-16756060D01*
X8688991Y-16756060D02*
X8679467Y-16746536D01*
X8679467Y-16746536D02*
X8669944Y-16727488D01*
X8669944Y-16727488D02*
X8660420Y-16689393D01*
X8660420Y-16689393D02*
X8660420Y-16641774D01*
X8660420Y-16641774D02*
X8669944Y-16603679D01*
X8669944Y-16603679D02*
X8679467Y-16584631D01*
X8679467Y-16584631D02*
X8688991Y-16575108D01*
X8688991Y-16575108D02*
X8708039Y-16565584D01*
X8860420Y-16765584D02*
X8860420Y-16632250D01*
X8860420Y-16651298D02*
X8869944Y-16641774D01*
X8869944Y-16641774D02*
X8888991Y-16632250D01*
X8888991Y-16632250D02*
X8917563Y-16632250D01*
X8917563Y-16632250D02*
X8936610Y-16641774D01*
X8936610Y-16641774D02*
X8946134Y-16660822D01*
X8946134Y-16660822D02*
X8946134Y-16765584D01*
X8946134Y-16660822D02*
X8955658Y-16641774D01*
X8955658Y-16641774D02*
X8974705Y-16632250D01*
X8974705Y-16632250D02*
X9003277Y-16632250D01*
X9003277Y-16632250D02*
X9022325Y-16641774D01*
X9022325Y-16641774D02*
X9031848Y-16660822D01*
X9031848Y-16660822D02*
X9031848Y-16765584D01*
X9127086Y-16765584D02*
X9127086Y-16632250D01*
X9127086Y-16651298D02*
X9136610Y-16641774D01*
X9136610Y-16641774D02*
X9155658Y-16632250D01*
X9155658Y-16632250D02*
X9184229Y-16632250D01*
X9184229Y-16632250D02*
X9203277Y-16641774D01*
X9203277Y-16641774D02*
X9212801Y-16660822D01*
X9212801Y-16660822D02*
X9212801Y-16765584D01*
X9212801Y-16660822D02*
X9222325Y-16641774D01*
X9222325Y-16641774D02*
X9241372Y-16632250D01*
X9241372Y-16632250D02*
X9269944Y-16632250D01*
X9269944Y-16632250D02*
X9288991Y-16641774D01*
X9288991Y-16641774D02*
X9298515Y-16660822D01*
X9298515Y-16660822D02*
X9298515Y-16765584D01*
X9688991Y-16556060D02*
X9517563Y-16813203D01*
X9946134Y-16565584D02*
X9965182Y-16565584D01*
X9965182Y-16565584D02*
X9984229Y-16575108D01*
X9984229Y-16575108D02*
X9993753Y-16584631D01*
X9993753Y-16584631D02*
X10003277Y-16603679D01*
X10003277Y-16603679D02*
X10012801Y-16641774D01*
X10012801Y-16641774D02*
X10012801Y-16689393D01*
X10012801Y-16689393D02*
X10003277Y-16727488D01*
X10003277Y-16727488D02*
X9993753Y-16746536D01*
X9993753Y-16746536D02*
X9984229Y-16756060D01*
X9984229Y-16756060D02*
X9965182Y-16765584D01*
X9965182Y-16765584D02*
X9946134Y-16765584D01*
X9946134Y-16765584D02*
X9927087Y-16756060D01*
X9927087Y-16756060D02*
X9917563Y-16746536D01*
X9917563Y-16746536D02*
X9908039Y-16727488D01*
X9908039Y-16727488D02*
X9898515Y-16689393D01*
X9898515Y-16689393D02*
X9898515Y-16641774D01*
X9898515Y-16641774D02*
X9908039Y-16603679D01*
X9908039Y-16603679D02*
X9917563Y-16584631D01*
X9917563Y-16584631D02*
X9927087Y-16575108D01*
X9927087Y-16575108D02*
X9946134Y-16565584D01*
X10098515Y-16746536D02*
X10108039Y-16756060D01*
X10108039Y-16756060D02*
X10098515Y-16765584D01*
X10098515Y-16765584D02*
X10088991Y-16756060D01*
X10088991Y-16756060D02*
X10098515Y-16746536D01*
X10098515Y-16746536D02*
X10098515Y-16765584D01*
X10298515Y-16765584D02*
X10184229Y-16765584D01*
X10241372Y-16765584D02*
X10241372Y-16565584D01*
X10241372Y-16565584D02*
X10222325Y-16594155D01*
X10222325Y-16594155D02*
X10203277Y-16613203D01*
X10203277Y-16613203D02*
X10184229Y-16622727D01*
X10365182Y-16565584D02*
X10488991Y-16565584D01*
X10488991Y-16565584D02*
X10422325Y-16641774D01*
X10422325Y-16641774D02*
X10450896Y-16641774D01*
X10450896Y-16641774D02*
X10469944Y-16651298D01*
X10469944Y-16651298D02*
X10479468Y-16660822D01*
X10479468Y-16660822D02*
X10488991Y-16679869D01*
X10488991Y-16679869D02*
X10488991Y-16727488D01*
X10488991Y-16727488D02*
X10479468Y-16746536D01*
X10479468Y-16746536D02*
X10469944Y-16756060D01*
X10469944Y-16756060D02*
X10450896Y-16765584D01*
X10450896Y-16765584D02*
X10393753Y-16765584D01*
X10393753Y-16765584D02*
X10374706Y-16756060D01*
X10374706Y-16756060D02*
X10365182Y-16746536D01*
X10555658Y-16565584D02*
X10688991Y-16565584D01*
X10688991Y-16565584D02*
X10603277Y-16765584D01*
X10793753Y-16651298D02*
X10774706Y-16641774D01*
X10774706Y-16641774D02*
X10765182Y-16632250D01*
X10765182Y-16632250D02*
X10755658Y-16613203D01*
X10755658Y-16613203D02*
X10755658Y-16603679D01*
X10755658Y-16603679D02*
X10765182Y-16584631D01*
X10765182Y-16584631D02*
X10774706Y-16575108D01*
X10774706Y-16575108D02*
X10793753Y-16565584D01*
X10793753Y-16565584D02*
X10831849Y-16565584D01*
X10831849Y-16565584D02*
X10850896Y-16575108D01*
X10850896Y-16575108D02*
X10860420Y-16584631D01*
X10860420Y-16584631D02*
X10869944Y-16603679D01*
X10869944Y-16603679D02*
X10869944Y-16613203D01*
X10869944Y-16613203D02*
X10860420Y-16632250D01*
X10860420Y-16632250D02*
X10850896Y-16641774D01*
X10850896Y-16641774D02*
X10831849Y-16651298D01*
X10831849Y-16651298D02*
X10793753Y-16651298D01*
X10793753Y-16651298D02*
X10774706Y-16660822D01*
X10774706Y-16660822D02*
X10765182Y-16670346D01*
X10765182Y-16670346D02*
X10755658Y-16689393D01*
X10755658Y-16689393D02*
X10755658Y-16727488D01*
X10755658Y-16727488D02*
X10765182Y-16746536D01*
X10765182Y-16746536D02*
X10774706Y-16756060D01*
X10774706Y-16756060D02*
X10793753Y-16765584D01*
X10793753Y-16765584D02*
X10831849Y-16765584D01*
X10831849Y-16765584D02*
X10850896Y-16756060D01*
X10850896Y-16756060D02*
X10860420Y-16746536D01*
X10860420Y-16746536D02*
X10869944Y-16727488D01*
X10869944Y-16727488D02*
X10869944Y-16689393D01*
X10869944Y-16689393D02*
X10860420Y-16670346D01*
X10860420Y-16670346D02*
X10850896Y-16660822D01*
X10850896Y-16660822D02*
X10831849Y-16651298D01*
X10946134Y-16565584D02*
X10946134Y-16603679D01*
X11022325Y-16565584D02*
X11022325Y-16603679D01*
X11317563Y-16841774D02*
X11308039Y-16832250D01*
X11308039Y-16832250D02*
X11288991Y-16803679D01*
X11288991Y-16803679D02*
X11279468Y-16784631D01*
X11279468Y-16784631D02*
X11269944Y-16756060D01*
X11269944Y-16756060D02*
X11260420Y-16708441D01*
X11260420Y-16708441D02*
X11260420Y-16670346D01*
X11260420Y-16670346D02*
X11269944Y-16622727D01*
X11269944Y-16622727D02*
X11279468Y-16594155D01*
X11279468Y-16594155D02*
X11288991Y-16575108D01*
X11288991Y-16575108D02*
X11308039Y-16546536D01*
X11308039Y-16546536D02*
X11317563Y-16537012D01*
X11479468Y-16632250D02*
X11479468Y-16765584D01*
X11431848Y-16556060D02*
X11384229Y-16698917D01*
X11384229Y-16698917D02*
X11508039Y-16698917D01*
X11736610Y-16765584D02*
X11736610Y-16565584D01*
X11822325Y-16765584D02*
X11822325Y-16660822D01*
X11822325Y-16660822D02*
X11812801Y-16641774D01*
X11812801Y-16641774D02*
X11793753Y-16632250D01*
X11793753Y-16632250D02*
X11765182Y-16632250D01*
X11765182Y-16632250D02*
X11746134Y-16641774D01*
X11746134Y-16641774D02*
X11736610Y-16651298D01*
X11946134Y-16765584D02*
X11927087Y-16756060D01*
X11927087Y-16756060D02*
X11917563Y-16746536D01*
X11917563Y-16746536D02*
X11908039Y-16727488D01*
X11908039Y-16727488D02*
X11908039Y-16670346D01*
X11908039Y-16670346D02*
X11917563Y-16651298D01*
X11917563Y-16651298D02*
X11927087Y-16641774D01*
X11927087Y-16641774D02*
X11946134Y-16632250D01*
X11946134Y-16632250D02*
X11974706Y-16632250D01*
X11974706Y-16632250D02*
X11993753Y-16641774D01*
X11993753Y-16641774D02*
X12003277Y-16651298D01*
X12003277Y-16651298D02*
X12012801Y-16670346D01*
X12012801Y-16670346D02*
X12012801Y-16727488D01*
X12012801Y-16727488D02*
X12003277Y-16746536D01*
X12003277Y-16746536D02*
X11993753Y-16756060D01*
X11993753Y-16756060D02*
X11974706Y-16765584D01*
X11974706Y-16765584D02*
X11946134Y-16765584D01*
X12127087Y-16765584D02*
X12108039Y-16756060D01*
X12108039Y-16756060D02*
X12098515Y-16737012D01*
X12098515Y-16737012D02*
X12098515Y-16565584D01*
X12279468Y-16756060D02*
X12260420Y-16765584D01*
X12260420Y-16765584D02*
X12222325Y-16765584D01*
X12222325Y-16765584D02*
X12203277Y-16756060D01*
X12203277Y-16756060D02*
X12193753Y-16737012D01*
X12193753Y-16737012D02*
X12193753Y-16660822D01*
X12193753Y-16660822D02*
X12203277Y-16641774D01*
X12203277Y-16641774D02*
X12222325Y-16632250D01*
X12222325Y-16632250D02*
X12260420Y-16632250D01*
X12260420Y-16632250D02*
X12279468Y-16641774D01*
X12279468Y-16641774D02*
X12288991Y-16660822D01*
X12288991Y-16660822D02*
X12288991Y-16679869D01*
X12288991Y-16679869D02*
X12193753Y-16698917D01*
X12365182Y-16756060D02*
X12384230Y-16765584D01*
X12384230Y-16765584D02*
X12422325Y-16765584D01*
X12422325Y-16765584D02*
X12441372Y-16756060D01*
X12441372Y-16756060D02*
X12450896Y-16737012D01*
X12450896Y-16737012D02*
X12450896Y-16727488D01*
X12450896Y-16727488D02*
X12441372Y-16708441D01*
X12441372Y-16708441D02*
X12422325Y-16698917D01*
X12422325Y-16698917D02*
X12393753Y-16698917D01*
X12393753Y-16698917D02*
X12374706Y-16689393D01*
X12374706Y-16689393D02*
X12365182Y-16670346D01*
X12365182Y-16670346D02*
X12365182Y-16660822D01*
X12365182Y-16660822D02*
X12374706Y-16641774D01*
X12374706Y-16641774D02*
X12393753Y-16632250D01*
X12393753Y-16632250D02*
X12422325Y-16632250D01*
X12422325Y-16632250D02*
X12441372Y-16641774D01*
X12517563Y-16841774D02*
X12527087Y-16832250D01*
X12527087Y-16832250D02*
X12546134Y-16803679D01*
X12546134Y-16803679D02*
X12555658Y-16784631D01*
X12555658Y-16784631D02*
X12565182Y-16756060D01*
X12565182Y-16756060D02*
X12574706Y-16708441D01*
X12574706Y-16708441D02*
X12574706Y-16670346D01*
X12574706Y-16670346D02*
X12565182Y-16622727D01*
X12565182Y-16622727D02*
X12555658Y-16594155D01*
X12555658Y-16594155D02*
X12546134Y-16575108D01*
X12546134Y-16575108D02*
X12527087Y-16546536D01*
X12527087Y-16546536D02*
X12517563Y-16537012D01*
M02*
