M48
; DRILL file {KiCad 8.0.5} date 2024-11-27T16:11:52+0100
; FORMAT={-:-/ absolute / metric / decimal}
; #@! TF.CreationDate,2024-11-27T16:11:52+01:00
; #@! TF.GenerationSoftware,Kicad,Pcbnew,8.0.5
; #@! TF.FileFunction,Plated,1,2,PTH
FMAT,2
METRIC
; #@! TA.AperFunction,Plated,PTH,ViaDrill
T1C0.400
; #@! TA.AperFunction,Plated,PTH,ViaDrill
T2C0.600
; #@! TA.AperFunction,Plated,PTH,ComponentDrill
T3C0.800
; #@! TA.AperFunction,Plated,PTH,ComponentDrill
T4C1.000
; #@! TA.AperFunction,Plated,PTH,ComponentDrill
T5C1.100
; #@! TA.AperFunction,Plated,PTH,ComponentDrill
T6C3.200
; #@! TA.AperFunction,Plated,PTH,ComponentDrill
T7C3.500
%
G90
G05
T1
X87.381Y-77.029
X87.578Y-82.109
X87.578Y-87.189
X87.578Y-94.809
X87.578Y-99.889
X87.635Y-115.174
X87.761Y-120.209
X88.016Y-130.624
X90.048Y-65.151
X91.572Y-65.151
X91.572Y-66.675
X91.572Y-68.199
X91.572Y-69.723
X91.572Y-71.374
X92.461Y-78.554
X92.461Y-94.429
X92.715Y-81.407
X92.715Y-82.677
X92.715Y-83.947
X92.715Y-88.011
X92.715Y-89.281
X92.715Y-90.551
X93.731Y-100.144
X93.731Y-102.049
X95.636Y-100.144
X95.636Y-102.049
X96.779Y-64.643
X97.224Y-87.904
X97.224Y-90.551
X97.287Y-72.263
X97.287Y-75.311
X97.541Y-100.144
X97.541Y-102.049
X98.811Y-63.119
X99.319Y-72.263
X99.319Y-75.311
X99.319Y-87.904
X99.319Y-90.551
X99.446Y-100.144
X99.446Y-102.049
X100.081Y-109.034
X100.843Y-61.595
X101.351Y-107.764
X102.24Y-111.125
X102.621Y-106.494
X103.383Y-61.595
X103.383Y-64.643
X103.51Y-109.855
X103.891Y-105.224
X104.406Y-90.17
X104.406Y-91.44
X104.406Y-92.71
X104.489Y-74.329
X104.489Y-75.599
X104.489Y-76.869
X104.78Y-108.585
X105.161Y-103.954
X106.05Y-74.329
X106.05Y-90.17
X106.05Y-107.315
X106.685Y-63.5
X106.685Y-64.77
X107.32Y-106.045
X107.701Y-58.42
X108.971Y-57.277
X109.479Y-82.931
X109.479Y-84.963
X109.479Y-86.995
X109.479Y-89.027
X109.479Y-91.567
X110.495Y-65.659
X110.495Y-68.199
X110.495Y-70.739
X110.495Y-73.279
X110.495Y-75.819
X110.495Y-78.867
X110.876Y-60.579
X110.876Y-62.103
X112.019Y-59.563
X112.4Y-95.25
X112.4Y-96.52
X113.035Y-58.547
X113.67Y-95.25
X113.67Y-96.52
X114.305Y-57.277
X115.575Y-67.31
X115.575Y-70.485
X115.575Y-73.66
X115.575Y-77.47
X115.575Y-81.28
X115.575Y-85.09
X116.21Y-88.9
X116.21Y-90.17
X116.21Y-96.334
X116.337Y-65.405
X116.337Y-68.961
X116.337Y-72.009
X116.845Y-75.565
X116.845Y-77.47
X116.845Y-81.28
X116.845Y-85.09
X117.353Y-61.849
X117.353Y-80.137
X117.48Y-91.254
X117.607Y-107.823
X117.607Y-109.855
X117.607Y-111.887
X117.988Y-58.039
X118.369Y-96.393
X118.606Y-86.733
X118.877Y-60.325
X118.877Y-61.849
X119.131Y-91.254
X119.385Y-70.739
X119.385Y-72.517
X120.147Y-86.741
X120.147Y-105.029
X120.655Y-58.801
X120.655Y-60.325
X120.655Y-96.334
X120.909Y-107.696
X121.163Y-70.739
X121.163Y-72.517
X121.29Y-74.549
X121.671Y-111.887
X121.671Y-114.935
X121.734Y-86.733
X122.179Y-55.753
X122.179Y-57.531
X122.179Y-58.801
X122.941Y-72.517
X122.941Y-74.549
X122.941Y-76.581
X122.941Y-103.505
X123.195Y-78.867
X123.195Y-87.503
X123.195Y-89.281
X123.703Y-55.753
X123.703Y-57.531
X123.703Y-105.791
X123.703Y-114.935
X124.211Y-69.215
X124.211Y-90.619
X124.465Y-41.275
X125.037Y-75.311
X125.735Y-110.903
X125.735Y-114.935
X125.989Y-76.835
X125.989Y-87.757
X125.989Y-89.281
X125.989Y-98.933
X126.243Y-74.549
X126.243Y-101.981
X126.497Y-94.869
X126.497Y-96.393
X126.597Y-91.945
X127.005Y-41.275
X127.259Y-60.579
X127.259Y-63.119
X127.513Y-98.933
X127.513Y-100.711
X127.767Y-68.961
X127.767Y-104.267
X127.767Y-114.935
X128.021Y-72.771
X128.275Y-89.281
X128.275Y-106.239
X128.783Y-58.547
X129.545Y-41.275
X129.799Y-67.183
X129.799Y-78.359
X129.799Y-80.899
X129.799Y-83.439
X129.799Y-85.979
X129.799Y-88.519
X129.799Y-90.297
X129.799Y-102.743
X129.799Y-109.944
X129.799Y-112.484
X129.799Y-114.935
X130.307Y-57.023
X131.323Y-65.659
X132.085Y-41.275
X133.228Y-64.643
X133.228Y-65.659
X133.228Y-66.675
X133.355Y-52.959
X133.355Y-54.991
X133.355Y-57.023
X134.371Y-99.949
X134.371Y-101.981
X134.371Y-104.864
X134.371Y-109.944
X134.371Y-112.484
X134.371Y-117.564
X134.371Y-121.539
X134.625Y-41.275
X134.879Y-90.043
X135.26Y-46.99
X135.895Y-120.015
X136.403Y-78.359
X136.403Y-80.899
X136.53Y-48.26
X136.911Y-90.043
X136.911Y-97.604
X136.911Y-102.049
X137.038Y-116.019
X137.165Y-41.275
X137.8Y-49.53
X137.8Y-57.785
X137.8Y-59.563
X137.8Y-61.087
X137.8Y-62.611
X137.927Y-117.983
X138.181Y-133.164
X138.308Y-114.749
X138.689Y-105.029
X138.816Y-97.604
X138.943Y-89.984
X139.578Y-113.479
X139.705Y-41.275
X139.705Y-46.99
X140.086Y-83.634
X140.086Y-84.904
X140.086Y-86.174
X140.086Y-131.259
X140.34Y-48.26
X140.467Y-115.443
X140.721Y-97.604
X140.721Y-99.509
X140.721Y-102.049
X140.848Y-112.209
X140.975Y-46.99
X140.975Y-89.984
X141.356Y-83.634
X141.356Y-84.904
X141.356Y-86.174
X141.356Y-123.639
X141.61Y-48.26
X141.991Y-129.354
X143.261Y-121.734
X143.896Y-127.449
X144.15Y-57.785
X144.15Y-59.631
X144.15Y-61.155
X144.15Y-62.679
X144.209Y-69.664
X144.209Y-72.204
X144.209Y-74.744
X144.209Y-77.284
X144.531Y-97.604
X144.531Y-99.509
X144.531Y-101.414
X145.166Y-119.829
X145.801Y-108.399
X145.801Y-109.669
X145.801Y-125.544
X147.071Y-108.399
X147.071Y-109.669
X147.071Y-117.924
X147.706Y-123.639
X148.341Y-69.664
X148.341Y-72.204
X148.341Y-74.744
X148.341Y-77.284
X148.341Y-82.364
X148.341Y-84.904
X148.341Y-108.399
X148.341Y-109.669
X148.976Y-116.019
X149.103Y-90.619
X149.103Y-92.583
X149.103Y-94.615
X149.103Y-96.647
X149.611Y-108.399
X149.611Y-109.669
X149.611Y-121.734
X150.881Y-114.114
X151.516Y-119.829
X153.421Y-117.924
X154.691Y-74.803
X154.691Y-77.343
X154.691Y-79.883
X154.691Y-82.423
X154.691Y-94.615
X154.691Y-97.155
X154.691Y-99.695
X154.691Y-102.235
T2
X133.228Y-59.055
X133.228Y-60.325
X133.228Y-61.595
X135.26Y-53.34
X144.223Y-85.539
T3
X138.181Y-69.723
X138.181Y-72.263
X138.181Y-74.803
X138.181Y-77.343
X138.181Y-79.883
X138.181Y-82.423
X138.181Y-84.963
X138.181Y-87.503
X150.881Y-69.723
X150.881Y-72.263
X150.881Y-74.803
X150.881Y-77.343
X150.881Y-79.883
X150.881Y-82.423
X150.881Y-84.963
X150.881Y-87.503
T4
X85.546Y-75.759
X85.546Y-78.299
X85.546Y-80.839
X85.546Y-83.379
X85.546Y-85.919
X85.546Y-88.459
X85.546Y-90.999
X85.546Y-93.539
X85.546Y-96.079
X85.546Y-98.619
X85.546Y-101.159
X85.546Y-103.699
X85.546Y-106.239
X85.546Y-108.779
X85.546Y-111.319
X85.546Y-113.859
X85.546Y-116.399
X85.546Y-118.939
X85.546Y-121.479
X85.546Y-124.019
X85.546Y-126.559
X85.546Y-129.099
X85.546Y-131.639
X85.546Y-134.179
X108.966Y-99.509
X108.966Y-102.049
X111.506Y-99.509
X111.506Y-102.049
X114.046Y-99.509
X114.046Y-102.049
X116.586Y-99.509
X116.586Y-102.049
X119.126Y-99.509
X119.126Y-102.049
X121.666Y-99.509
X121.666Y-102.049
X124.206Y-99.509
X124.206Y-102.049
X132.076Y-75.699
X132.076Y-78.239
X132.076Y-80.779
X132.076Y-83.319
X132.076Y-85.859
X132.076Y-88.399
X132.076Y-90.939
X132.076Y-93.479
X132.076Y-96.019
X132.076Y-98.559
X132.076Y-101.099
X132.076Y-103.639
X132.076Y-106.179
X132.076Y-108.719
X132.076Y-111.259
X132.076Y-113.799
X132.076Y-116.339
X132.076Y-118.879
X132.076Y-121.419
X132.076Y-123.959
X132.076Y-126.499
X132.076Y-129.039
X132.076Y-131.579
X132.076Y-134.119
T5
X98.176Y-67.759
X98.176Y-77.919
X98.176Y-83.634
X98.176Y-93.794
X102.131Y-46.355
X102.131Y-48.855
X102.131Y-51.355
X102.131Y-53.855
X105.831Y-46.355
X105.831Y-48.855
X105.831Y-51.355
X105.831Y-53.855
X109.331Y-46.355
X109.331Y-48.855
X109.331Y-51.355
X109.331Y-53.855
X111.831Y-46.355
X111.831Y-48.855
X111.831Y-51.355
X111.831Y-53.855
X114.331Y-46.355
X114.331Y-48.855
X114.331Y-51.355
X114.331Y-53.855
X116.831Y-46.355
X116.831Y-48.855
X116.831Y-51.355
X116.831Y-53.855
X119.331Y-46.355
X119.331Y-48.855
X119.331Y-51.355
X119.331Y-53.855
X121.831Y-46.355
X121.831Y-48.855
X121.831Y-51.355
X121.831Y-53.855
X124.331Y-46.355
X124.331Y-48.855
X124.331Y-51.355
X124.331Y-53.855
X126.831Y-46.355
X126.831Y-48.855
X126.831Y-51.355
X126.831Y-53.855
X129.331Y-46.355
X129.331Y-48.855
X129.331Y-51.355
X129.331Y-53.855
X131.831Y-46.355
X131.831Y-48.855
X131.831Y-51.355
X131.831Y-53.855
T6
X82.047Y-62.611
X97.287Y-139.319
X151.643Y-62.611
X151.643Y-139.319
T7
X86.546Y-70.759
X86.546Y-139.159
X131.196Y-70.739
X131.196Y-139.149
M30
