%TF.GenerationSoftware,KiCad,Pcbnew,8.0.5*%
%TF.CreationDate,2024-12-02T15:09:44+01:00*%
%TF.ProjectId,Core4GPZ_rev0-1,436f7265-3447-4505-9a5f-726576302d31,rev?*%
%TF.SameCoordinates,Original*%
%TF.FileFunction,Soldermask,Top*%
%TF.FilePolarity,Negative*%
%FSLAX46Y46*%
G04 Gerber Fmt 4.6, Leading zero omitted, Abs format (unit mm)*
G04 Created by KiCad (PCBNEW 8.0.5) date 2024-12-02 15:09:44*
%MOMM*%
%LPD*%
G01*
G04 APERTURE LIST*
G04 Aperture macros list*
%AMRoundRect*
0 Rectangle with rounded corners*
0 $1 Rounding radius*
0 $2 $3 $4 $5 $6 $7 $8 $9 X,Y pos of 4 corners*
0 Add a 4 corners polygon primitive as box body*
4,1,4,$2,$3,$4,$5,$6,$7,$8,$9,$2,$3,0*
0 Add four circle primitives for the rounded corners*
1,1,$1+$1,$2,$3*
1,1,$1+$1,$4,$5*
1,1,$1+$1,$6,$7*
1,1,$1+$1,$8,$9*
0 Add four rect primitives between the rounded corners*
20,1,$1+$1,$2,$3,$4,$5,0*
20,1,$1+$1,$4,$5,$6,$7,0*
20,1,$1+$1,$6,$7,$8,$9,0*
20,1,$1+$1,$8,$9,$2,$3,0*%
%AMFreePoly0*
4,1,19,0.550000,-0.750000,0.000000,-0.750000,0.000000,-0.744911,-0.071157,-0.744911,-0.207708,-0.704816,-0.327430,-0.627875,-0.420627,-0.520320,-0.479746,-0.390866,-0.500000,-0.250000,-0.500000,0.250000,-0.479746,0.390866,-0.420627,0.520320,-0.327430,0.627875,-0.207708,0.704816,-0.071157,0.744911,0.000000,0.744911,0.000000,0.750000,0.550000,0.750000,0.550000,-0.750000,0.550000,-0.750000,
$1*%
%AMFreePoly1*
4,1,19,0.000000,0.744911,0.071157,0.744911,0.207708,0.704816,0.327430,0.627875,0.420627,0.520320,0.479746,0.390866,0.500000,0.250000,0.500000,-0.250000,0.479746,-0.390866,0.420627,-0.520320,0.327430,-0.627875,0.207708,-0.704816,0.071157,-0.744911,0.000000,-0.744911,0.000000,-0.750000,-0.550000,-0.750000,-0.550000,0.750000,0.000000,0.750000,0.000000,0.744911,0.000000,0.744911,
$1*%
%AMFreePoly2*
4,1,19,0.500000,-0.750000,0.000000,-0.750000,0.000000,-0.744911,-0.071157,-0.744911,-0.207708,-0.704816,-0.327430,-0.627875,-0.420627,-0.520320,-0.479746,-0.390866,-0.500000,-0.250000,-0.500000,0.250000,-0.479746,0.390866,-0.420627,0.520320,-0.327430,0.627875,-0.207708,0.704816,-0.071157,0.744911,0.000000,0.744911,0.000000,0.750000,0.500000,0.750000,0.500000,-0.750000,0.500000,-0.750000,
$1*%
%AMFreePoly3*
4,1,19,0.000000,0.744911,0.071157,0.744911,0.207708,0.704816,0.327430,0.627875,0.420627,0.520320,0.479746,0.390866,0.500000,0.250000,0.500000,-0.250000,0.479746,-0.390866,0.420627,-0.520320,0.327430,-0.627875,0.207708,-0.704816,0.071157,-0.744911,0.000000,-0.744911,0.000000,-0.750000,-0.500000,-0.750000,-0.500000,0.750000,0.000000,0.750000,0.000000,0.744911,0.000000,0.744911,
$1*%
G04 Aperture macros list end*
%ADD10RoundRect,0.250000X-0.450000X0.350000X-0.450000X-0.350000X0.450000X-0.350000X0.450000X0.350000X0*%
%ADD11RoundRect,0.250000X0.400000X0.625000X-0.400000X0.625000X-0.400000X-0.625000X0.400000X-0.625000X0*%
%ADD12RoundRect,0.250000X-0.625000X0.400000X-0.625000X-0.400000X0.625000X-0.400000X0.625000X0.400000X0*%
%ADD13RoundRect,0.250000X-0.350000X-0.450000X0.350000X-0.450000X0.350000X0.450000X-0.350000X0.450000X0*%
%ADD14RoundRect,0.250000X0.350000X0.450000X-0.350000X0.450000X-0.350000X-0.450000X0.350000X-0.450000X0*%
%ADD15RoundRect,0.250000X-0.337500X-0.475000X0.337500X-0.475000X0.337500X0.475000X-0.337500X0.475000X0*%
%ADD16R,2.200000X2.200000*%
%ADD17O,2.200000X2.200000*%
%ADD18RoundRect,0.250000X-0.500000X0.950000X-0.500000X-0.950000X0.500000X-0.950000X0.500000X0.950000X0*%
%ADD19RoundRect,0.250000X-0.500000X0.275000X-0.500000X-0.275000X0.500000X-0.275000X0.500000X0.275000X0*%
%ADD20FreePoly0,270.000000*%
%ADD21R,1.500000X1.000000*%
%ADD22FreePoly1,270.000000*%
%ADD23RoundRect,0.250000X-0.475000X0.337500X-0.475000X-0.337500X0.475000X-0.337500X0.475000X0.337500X0*%
%ADD24RoundRect,0.250000X-0.550000X1.500000X-0.550000X-1.500000X0.550000X-1.500000X0.550000X1.500000X0*%
%ADD25RoundRect,0.250000X0.475000X-0.337500X0.475000X0.337500X-0.475000X0.337500X-0.475000X-0.337500X0*%
%ADD26FreePoly2,270.000000*%
%ADD27FreePoly3,270.000000*%
%ADD28RoundRect,0.100000X0.100000X-0.712500X0.100000X0.712500X-0.100000X0.712500X-0.100000X-0.712500X0*%
%ADD29C,5.500000*%
%ADD30C,1.800000*%
%ADD31RoundRect,0.250000X0.350000X-0.850000X0.350000X0.850000X-0.350000X0.850000X-0.350000X-0.850000X0*%
%ADD32RoundRect,0.249997X2.650003X-2.950003X2.650003X2.950003X-2.650003X2.950003X-2.650003X-2.950003X0*%
%ADD33FreePoly2,90.000000*%
%ADD34FreePoly3,90.000000*%
%ADD35C,5.600000*%
%ADD36FreePoly0,0.000000*%
%ADD37R,1.000000X1.500000*%
%ADD38FreePoly1,0.000000*%
%ADD39FreePoly0,90.000000*%
%ADD40FreePoly1,90.000000*%
%ADD41RoundRect,0.162500X0.617500X0.162500X-0.617500X0.162500X-0.617500X-0.162500X0.617500X-0.162500X0*%
%ADD42RoundRect,0.187500X-0.812500X-0.187500X0.812500X-0.187500X0.812500X0.187500X-0.812500X0.187500X0*%
%ADD43RoundRect,0.250000X0.337500X0.475000X-0.337500X0.475000X-0.337500X-0.475000X0.337500X-0.475000X0*%
%ADD44RoundRect,0.250000X0.450000X-0.350000X0.450000X0.350000X-0.450000X0.350000X-0.450000X-0.350000X0*%
%ADD45R,1.600000X1.600000*%
%ADD46O,1.600000X1.600000*%
%ADD47C,1.500000*%
G04 APERTURE END LIST*
D10*
%TO.C,R14*%
X128529000Y-95250000D03*
X128529000Y-97250000D03*
%TD*%
D11*
%TO.C,R12*%
X127565000Y-83566000D03*
X124465000Y-83566000D03*
%TD*%
D12*
%TO.C,R11*%
X121671000Y-78307000D03*
X121671000Y-81407000D03*
%TD*%
%TO.C,R10*%
X119131000Y-78307000D03*
X119131000Y-81407000D03*
%TD*%
D11*
%TO.C,R9*%
X127145250Y-78939000D03*
X124045250Y-78939000D03*
%TD*%
D13*
%TO.C,R8*%
X100875000Y-94615000D03*
X102875000Y-94615000D03*
%TD*%
D14*
%TO.C,R7*%
X106653000Y-94615000D03*
X104653000Y-94615000D03*
%TD*%
D15*
%TO.C,C6*%
X124465000Y-88011000D03*
X126540000Y-88011000D03*
%TD*%
D16*
%TO.C,D5*%
X98176000Y-67759000D03*
D17*
X98176000Y-77919000D03*
%TD*%
D14*
%TO.C,R5*%
X106406000Y-78734000D03*
X104406000Y-78734000D03*
%TD*%
D18*
%TO.C,D4*%
X135133000Y-87338000D03*
D19*
X135133000Y-84963000D03*
%TD*%
D20*
%TO.C,JP3*%
X94747000Y-77284000D03*
D21*
X94747000Y-78584000D03*
D22*
X94747000Y-79884000D03*
%TD*%
D23*
%TO.C,C8*%
X116210000Y-92942500D03*
X116210000Y-95017500D03*
%TD*%
D24*
%TO.C,C1*%
X133228000Y-60071000D03*
X133228000Y-65471000D03*
%TD*%
D25*
%TO.C,C3*%
X135895000Y-94869000D03*
X135895000Y-92794000D03*
%TD*%
D26*
%TO.C,JP7*%
X124465000Y-92045000D03*
D27*
X124465000Y-93345000D03*
%TD*%
D28*
%TO.C,IC1*%
X117861000Y-88900000D03*
X118496000Y-88900000D03*
X119131000Y-88900000D03*
X119766000Y-88900000D03*
X120401000Y-88900000D03*
X121036000Y-88900000D03*
X121671000Y-88900000D03*
X122306000Y-88900000D03*
X122306000Y-83625000D03*
X121671000Y-83625000D03*
X121036000Y-83625000D03*
X120401000Y-83625000D03*
X119766000Y-83625000D03*
X119131000Y-83625000D03*
X118496000Y-83625000D03*
X117861000Y-83625000D03*
%TD*%
D26*
%TO.C,JP8*%
X128529000Y-91821000D03*
D27*
X128529000Y-93121000D03*
%TD*%
D29*
%TO.C,U2*%
X86603000Y-70819000D03*
X86603000Y-139219000D03*
X131253000Y-70799000D03*
X131253000Y-139209000D03*
D30*
X85603000Y-75819000D03*
X85603000Y-78359000D03*
X85603000Y-80899000D03*
X85603000Y-83439000D03*
X85603000Y-85979000D03*
X85603000Y-88519000D03*
X85603000Y-91059000D03*
X85603000Y-93599000D03*
X85603000Y-96139000D03*
X85603000Y-98679000D03*
X85603000Y-101219000D03*
X85603000Y-103759000D03*
X85603000Y-106299000D03*
X85603000Y-108839000D03*
X85603000Y-111379000D03*
X85603000Y-113919000D03*
X85603000Y-116459000D03*
X85603000Y-118999000D03*
X85603000Y-121539000D03*
X85603000Y-124079000D03*
X85603000Y-126619000D03*
X85603000Y-129159000D03*
X85603000Y-131699000D03*
X85603000Y-134239000D03*
X132133000Y-75759000D03*
X132133000Y-78299000D03*
X132133000Y-80839000D03*
X132133000Y-83379000D03*
X132133000Y-85919000D03*
X132133000Y-88459000D03*
X132133000Y-90999000D03*
X132133000Y-93539000D03*
X132133000Y-96079000D03*
X132133000Y-98619000D03*
X132133000Y-101159000D03*
X132133000Y-103699000D03*
X132133000Y-106239000D03*
X132133000Y-108779000D03*
X132133000Y-111319000D03*
X132133000Y-113859000D03*
X132133000Y-116399000D03*
X132133000Y-118939000D03*
X132133000Y-121479000D03*
X132133000Y-124019000D03*
X132133000Y-126559000D03*
X132133000Y-129099000D03*
X132133000Y-131639000D03*
X132133000Y-134179000D03*
X109023000Y-99569000D03*
X109023000Y-102109000D03*
X111563000Y-99569000D03*
X111563000Y-102109000D03*
X114103000Y-99569000D03*
X114103000Y-102109000D03*
X116643000Y-99569000D03*
X116643000Y-102109000D03*
X119183000Y-99569000D03*
X119183000Y-102109000D03*
X121723000Y-99569000D03*
X121723000Y-102109000D03*
X124263000Y-99569000D03*
X124263000Y-102109000D03*
%TD*%
D31*
%TO.C,Q2*%
X101351000Y-92075000D03*
D32*
X103631000Y-85775000D03*
D31*
X105911000Y-92075000D03*
%TD*%
D33*
%TO.C,JP2*%
X123195000Y-108712000D03*
D34*
X123195000Y-107412000D03*
%TD*%
D35*
%TO.C,M3*%
X82047000Y-62611000D03*
%TD*%
D10*
%TO.C,R3*%
X125735000Y-110871000D03*
X125735000Y-112871000D03*
%TD*%
D23*
%TO.C,C7*%
X118496000Y-92942500D03*
X118496000Y-95017500D03*
%TD*%
D31*
%TO.C,Q1*%
X101318500Y-76194000D03*
D32*
X103598500Y-69894000D03*
D31*
X105878500Y-76194000D03*
%TD*%
D15*
%TO.C,C7*%
X124465000Y-85797000D03*
X126540000Y-85797000D03*
%TD*%
D25*
%TO.C,C2*%
X138181000Y-94869000D03*
X138181000Y-92794000D03*
%TD*%
D23*
%TO.C,C5*%
X120782000Y-92942500D03*
X120782000Y-95017500D03*
%TD*%
D35*
%TO.C,M3*%
X97287000Y-139319000D03*
%TD*%
D36*
%TO.C,JP5*%
X119131000Y-65854000D03*
D37*
X120431000Y-65854000D03*
D38*
X121731000Y-65854000D03*
%TD*%
D39*
%TO.C,JP1*%
X125862000Y-108712000D03*
D21*
X125862000Y-107412000D03*
D40*
X125862000Y-106112000D03*
%TD*%
D35*
%TO.C,M3*%
X151643000Y-62611000D03*
%TD*%
D41*
%TO.C,U4*%
X123228000Y-112776000D03*
X123228000Y-111826000D03*
X123228000Y-110876000D03*
X120528000Y-110876000D03*
X120528000Y-112776000D03*
%TD*%
D42*
%TO.C,U3*%
X138816000Y-99441000D03*
X138816000Y-100711000D03*
X138816000Y-101981000D03*
X138816000Y-103251000D03*
X148722000Y-103251000D03*
X148722000Y-101981000D03*
X148722000Y-100711000D03*
X148722000Y-99441000D03*
%TD*%
D36*
%TO.C,JP6*%
X124211000Y-65854000D03*
D37*
X125511000Y-65854000D03*
D38*
X126811000Y-65854000D03*
%TD*%
D43*
%TO.C,C4*%
X126540000Y-81225000D03*
X124465000Y-81225000D03*
%TD*%
D20*
%TO.C,JP4*%
X94826000Y-93159000D03*
D21*
X94826000Y-94459000D03*
D22*
X94826000Y-95759000D03*
%TD*%
D44*
%TO.C,R4*%
X127767000Y-112871000D03*
X127767000Y-110871000D03*
%TD*%
D45*
%TO.C,A1*%
X138181000Y-69723000D03*
D46*
X138181000Y-72263000D03*
X138181000Y-74803000D03*
X138181000Y-77343000D03*
X138181000Y-79883000D03*
X138181000Y-82423000D03*
X138181000Y-84963000D03*
X138181000Y-87503000D03*
X150881000Y-87503000D03*
X150881000Y-84963000D03*
X150881000Y-82423000D03*
X150881000Y-79883000D03*
X150881000Y-77343000D03*
X150881000Y-74803000D03*
X150881000Y-72263000D03*
X150881000Y-69723000D03*
%TD*%
D16*
%TO.C,D6*%
X98176000Y-83634000D03*
D17*
X98176000Y-93794000D03*
%TD*%
D10*
%TO.C,R13*%
X124465000Y-95377000D03*
X124465000Y-97377000D03*
%TD*%
D13*
%TO.C,R6*%
X100676000Y-78734000D03*
X102676000Y-78734000D03*
%TD*%
D35*
%TO.C,M3*%
X151643000Y-139319000D03*
%TD*%
D47*
%TO.C,U1*%
X131813000Y-53848000D03*
X129313000Y-53848000D03*
X126813000Y-53848000D03*
X124313000Y-53848000D03*
X121813000Y-53848000D03*
X119313000Y-53848000D03*
X116813000Y-53848000D03*
X114313000Y-53848000D03*
X111813000Y-53848000D03*
X109313000Y-53848000D03*
X131813000Y-51348000D03*
X129313000Y-51348000D03*
X126813000Y-51348000D03*
X124313000Y-51348000D03*
X121813000Y-51348000D03*
X119313000Y-51348000D03*
X116813000Y-51348000D03*
X114313000Y-51348000D03*
X111813000Y-51348000D03*
X109313000Y-51348000D03*
X131813000Y-48848000D03*
X129313000Y-48848000D03*
X126813000Y-48848000D03*
X124313000Y-48848000D03*
X121813000Y-48848000D03*
X119313000Y-48848000D03*
X116813000Y-48848000D03*
X114313000Y-48848000D03*
X111813000Y-48848000D03*
X109313000Y-48848000D03*
X131813000Y-46348000D03*
X129313000Y-46348000D03*
X126813000Y-46348000D03*
X124313000Y-46348000D03*
X121813000Y-46348000D03*
X119313000Y-46348000D03*
X116813000Y-46348000D03*
X114313000Y-46348000D03*
X111813000Y-46348000D03*
X109313000Y-46348000D03*
X105813000Y-53848000D03*
X102113000Y-53848000D03*
X105813000Y-51348000D03*
X102113000Y-51348000D03*
X105813000Y-48848000D03*
X102113000Y-48848000D03*
X105813000Y-46348000D03*
X102113000Y-46348000D03*
%TD*%
M02*
