%TF.GenerationSoftware,KiCad,Pcbnew,8.0.5*%
%TF.CreationDate,2024-11-27T16:11:48+01:00*%
%TF.ProjectId,Core4GPZ_rev0-1,436f7265-3447-4505-9a5f-726576302d31,rev?*%
%TF.SameCoordinates,Original*%
%TF.FileFunction,Soldermask,Bot*%
%TF.FilePolarity,Negative*%
%FSLAX46Y46*%
G04 Gerber Fmt 4.6, Leading zero omitted, Abs format (unit mm)*
G04 Created by KiCad (PCBNEW 8.0.5) date 2024-11-27 16:11:48*
%MOMM*%
%LPD*%
G01*
G04 APERTURE LIST*
G04 Aperture macros list*
%AMRoundRect*
0 Rectangle with rounded corners*
0 $1 Rounding radius*
0 $2 $3 $4 $5 $6 $7 $8 $9 X,Y pos of 4 corners*
0 Add a 4 corners polygon primitive as box body*
4,1,4,$2,$3,$4,$5,$6,$7,$8,$9,$2,$3,0*
0 Add four circle primitives for the rounded corners*
1,1,$1+$1,$2,$3*
1,1,$1+$1,$4,$5*
1,1,$1+$1,$6,$7*
1,1,$1+$1,$8,$9*
0 Add four rect primitives between the rounded corners*
20,1,$1+$1,$2,$3,$4,$5,0*
20,1,$1+$1,$4,$5,$6,$7,0*
20,1,$1+$1,$6,$7,$8,$9,0*
20,1,$1+$1,$8,$9,$2,$3,0*%
G04 Aperture macros list end*
%ADD10R,2.200000X2.200000*%
%ADD11O,2.200000X2.200000*%
%ADD12C,5.600000*%
%ADD13C,1.800000*%
%ADD14C,5.500000*%
%ADD15C,1.500000*%
%ADD16R,1.600000X1.600000*%
%ADD17O,1.600000X1.600000*%
%ADD18RoundRect,0.237500X0.237500X-0.250000X0.237500X0.250000X-0.237500X0.250000X-0.237500X-0.250000X0*%
%ADD19RoundRect,0.237500X0.237500X-0.287500X0.237500X0.287500X-0.237500X0.287500X-0.237500X-0.287500X0*%
G04 APERTURE END LIST*
D10*
%TO.C,D5*%
X98176000Y-67759000D03*
D11*
X98176000Y-77919000D03*
%TD*%
D12*
%TO.C,M3*%
X82047000Y-62611000D03*
%TD*%
%TO.C,M3*%
X97287000Y-139319000D03*
%TD*%
D13*
%TO.C,U2*%
X85546000Y-75759000D03*
X85546000Y-78299000D03*
X85546000Y-80839000D03*
X85546000Y-83379000D03*
X85546000Y-85919000D03*
X85546000Y-88459000D03*
X85546000Y-90999000D03*
X85546000Y-93539000D03*
X85546000Y-96079000D03*
X85546000Y-98619000D03*
X85546000Y-101159000D03*
X85546000Y-103699000D03*
X85546000Y-106239000D03*
X85546000Y-108779000D03*
X85546000Y-111319000D03*
X85546000Y-113859000D03*
X85546000Y-116399000D03*
X85546000Y-118939000D03*
X85546000Y-121479000D03*
X85546000Y-124019000D03*
X85546000Y-126559000D03*
X85546000Y-129099000D03*
X85546000Y-131639000D03*
X85546000Y-134179000D03*
X132076000Y-75699000D03*
X132076000Y-78239000D03*
X132076000Y-80779000D03*
X132076000Y-83319000D03*
X132076000Y-85859000D03*
X132076000Y-88399000D03*
X132076000Y-90939000D03*
X132076000Y-93479000D03*
X132076000Y-96019000D03*
X132076000Y-98559000D03*
X132076000Y-101099000D03*
X132076000Y-103639000D03*
X132076000Y-106179000D03*
X132076000Y-108719000D03*
X132076000Y-111259000D03*
X132076000Y-113799000D03*
X132076000Y-116339000D03*
X132076000Y-118879000D03*
X132076000Y-121419000D03*
X132076000Y-123959000D03*
X132076000Y-126499000D03*
X132076000Y-129039000D03*
X132076000Y-131579000D03*
X132076000Y-134119000D03*
X108966000Y-99509000D03*
X108966000Y-102049000D03*
X111506000Y-99509000D03*
X111506000Y-102049000D03*
X114046000Y-99509000D03*
X114046000Y-102049000D03*
X116586000Y-99509000D03*
X116586000Y-102049000D03*
X119126000Y-99509000D03*
X119126000Y-102049000D03*
X121666000Y-99509000D03*
X121666000Y-102049000D03*
X124206000Y-99509000D03*
X124206000Y-102049000D03*
D14*
X86546000Y-70759000D03*
X131196000Y-70739000D03*
X131196000Y-139149000D03*
X86546000Y-139159000D03*
%TD*%
D12*
%TO.C,M3*%
X151643000Y-62611000D03*
%TD*%
D15*
%TO.C,U1*%
X131831000Y-53855000D03*
X129331000Y-53855000D03*
X126831000Y-53855000D03*
X124331000Y-53855000D03*
X121831000Y-53855000D03*
X119331000Y-53855000D03*
X116831000Y-53855000D03*
X114331000Y-53855000D03*
X111831000Y-53855000D03*
X109331000Y-53855000D03*
X131831000Y-51355000D03*
X129331000Y-51355000D03*
X126831000Y-51355000D03*
X124331000Y-51355000D03*
X121831000Y-51355000D03*
X119331000Y-51355000D03*
X116831000Y-51355000D03*
X114331000Y-51355000D03*
X111831000Y-51355000D03*
X109331000Y-51355000D03*
X131831000Y-48855000D03*
X129331000Y-48855000D03*
X126831000Y-48855000D03*
X124331000Y-48855000D03*
X121831000Y-48855000D03*
X119331000Y-48855000D03*
X116831000Y-48855000D03*
X114331000Y-48855000D03*
X111831000Y-48855000D03*
X109331000Y-48855000D03*
X131831000Y-46355000D03*
X129331000Y-46355000D03*
X126831000Y-46355000D03*
X124331000Y-46355000D03*
X121831000Y-46355000D03*
X119331000Y-46355000D03*
X116831000Y-46355000D03*
X114331000Y-46355000D03*
X111831000Y-46355000D03*
X109331000Y-46355000D03*
X105831000Y-53855000D03*
X102131000Y-53855000D03*
X105831000Y-51355000D03*
X102131000Y-51355000D03*
X105831000Y-48855000D03*
X102131000Y-48855000D03*
X105831000Y-46355000D03*
X102131000Y-46355000D03*
%TD*%
D16*
%TO.C,A1*%
X138181000Y-69723000D03*
D17*
X138181000Y-72263000D03*
X138181000Y-74803000D03*
X138181000Y-77343000D03*
X138181000Y-79883000D03*
X138181000Y-82423000D03*
X138181000Y-84963000D03*
X138181000Y-87503000D03*
X150881000Y-87503000D03*
X150881000Y-84963000D03*
X150881000Y-82423000D03*
X150881000Y-79883000D03*
X150881000Y-77343000D03*
X150881000Y-74803000D03*
X150881000Y-72263000D03*
X150881000Y-69723000D03*
%TD*%
D10*
%TO.C,D6*%
X98176000Y-83634000D03*
D11*
X98176000Y-93794000D03*
%TD*%
D12*
%TO.C,M3*%
X151643000Y-139319000D03*
%TD*%
D18*
%TO.C,R2*%
X116845000Y-44282500D03*
X116845000Y-42457500D03*
%TD*%
D19*
%TO.C,D3*%
X114305000Y-44207500D03*
X114305000Y-42457500D03*
%TD*%
%TO.C,D1*%
X109225000Y-44207500D03*
X109225000Y-42457500D03*
%TD*%
D18*
%TO.C,R1*%
X119385000Y-44282500D03*
X119385000Y-42457500D03*
%TD*%
D19*
%TO.C,D2*%
X111765000Y-44207500D03*
X111765000Y-42457500D03*
%TD*%
M02*
