%TF.GenerationSoftware,KiCad,Pcbnew,8.0.5*%
%TF.CreationDate,2024-12-02T15:09:44+01:00*%
%TF.ProjectId,Core4GPZ_rev0-1,436f7265-3447-4505-9a5f-726576302d31,rev?*%
%TF.SameCoordinates,Original*%
%TF.FileFunction,Legend,Bot*%
%TF.FilePolarity,Positive*%
%FSLAX46Y46*%
G04 Gerber Fmt 4.6, Leading zero omitted, Abs format (unit mm)*
G04 Created by KiCad (PCBNEW 8.0.5) date 2024-12-02 15:09:44*
%MOMM*%
%LPD*%
G01*
G04 APERTURE LIST*
%ADD10C,0.150000*%
%ADD11C,0.120000*%
G04 APERTURE END LIST*
D10*
X119839819Y-39838333D02*
X119363628Y-39505000D01*
X119839819Y-39266905D02*
X118839819Y-39266905D01*
X118839819Y-39266905D02*
X118839819Y-39647857D01*
X118839819Y-39647857D02*
X118887438Y-39743095D01*
X118887438Y-39743095D02*
X118935057Y-39790714D01*
X118935057Y-39790714D02*
X119030295Y-39838333D01*
X119030295Y-39838333D02*
X119173152Y-39838333D01*
X119173152Y-39838333D02*
X119268390Y-39790714D01*
X119268390Y-39790714D02*
X119316009Y-39743095D01*
X119316009Y-39743095D02*
X119363628Y-39647857D01*
X119363628Y-39647857D02*
X119363628Y-39266905D01*
X118935057Y-40219286D02*
X118887438Y-40266905D01*
X118887438Y-40266905D02*
X118839819Y-40362143D01*
X118839819Y-40362143D02*
X118839819Y-40600238D01*
X118839819Y-40600238D02*
X118887438Y-40695476D01*
X118887438Y-40695476D02*
X118935057Y-40743095D01*
X118935057Y-40743095D02*
X119030295Y-40790714D01*
X119030295Y-40790714D02*
X119125533Y-40790714D01*
X119125533Y-40790714D02*
X119268390Y-40743095D01*
X119268390Y-40743095D02*
X119839819Y-40171667D01*
X119839819Y-40171667D02*
X119839819Y-40790714D01*
X117299819Y-39965333D02*
X116823628Y-39632000D01*
X117299819Y-39393905D02*
X116299819Y-39393905D01*
X116299819Y-39393905D02*
X116299819Y-39774857D01*
X116299819Y-39774857D02*
X116347438Y-39870095D01*
X116347438Y-39870095D02*
X116395057Y-39917714D01*
X116395057Y-39917714D02*
X116490295Y-39965333D01*
X116490295Y-39965333D02*
X116633152Y-39965333D01*
X116633152Y-39965333D02*
X116728390Y-39917714D01*
X116728390Y-39917714D02*
X116776009Y-39870095D01*
X116776009Y-39870095D02*
X116823628Y-39774857D01*
X116823628Y-39774857D02*
X116823628Y-39393905D01*
X117299819Y-40917714D02*
X117299819Y-40346286D01*
X117299819Y-40632000D02*
X116299819Y-40632000D01*
X116299819Y-40632000D02*
X116442676Y-40536762D01*
X116442676Y-40536762D02*
X116537914Y-40441524D01*
X116537914Y-40441524D02*
X116585533Y-40346286D01*
X114759819Y-39266905D02*
X113759819Y-39266905D01*
X113759819Y-39266905D02*
X113759819Y-39505000D01*
X113759819Y-39505000D02*
X113807438Y-39647857D01*
X113807438Y-39647857D02*
X113902676Y-39743095D01*
X113902676Y-39743095D02*
X113997914Y-39790714D01*
X113997914Y-39790714D02*
X114188390Y-39838333D01*
X114188390Y-39838333D02*
X114331247Y-39838333D01*
X114331247Y-39838333D02*
X114521723Y-39790714D01*
X114521723Y-39790714D02*
X114616961Y-39743095D01*
X114616961Y-39743095D02*
X114712200Y-39647857D01*
X114712200Y-39647857D02*
X114759819Y-39505000D01*
X114759819Y-39505000D02*
X114759819Y-39266905D01*
X113759819Y-40171667D02*
X113759819Y-40790714D01*
X113759819Y-40790714D02*
X114140771Y-40457381D01*
X114140771Y-40457381D02*
X114140771Y-40600238D01*
X114140771Y-40600238D02*
X114188390Y-40695476D01*
X114188390Y-40695476D02*
X114236009Y-40743095D01*
X114236009Y-40743095D02*
X114331247Y-40790714D01*
X114331247Y-40790714D02*
X114569342Y-40790714D01*
X114569342Y-40790714D02*
X114664580Y-40743095D01*
X114664580Y-40743095D02*
X114712200Y-40695476D01*
X114712200Y-40695476D02*
X114759819Y-40600238D01*
X114759819Y-40600238D02*
X114759819Y-40314524D01*
X114759819Y-40314524D02*
X114712200Y-40219286D01*
X114712200Y-40219286D02*
X114664580Y-40171667D01*
X112219819Y-39266905D02*
X111219819Y-39266905D01*
X111219819Y-39266905D02*
X111219819Y-39505000D01*
X111219819Y-39505000D02*
X111267438Y-39647857D01*
X111267438Y-39647857D02*
X111362676Y-39743095D01*
X111362676Y-39743095D02*
X111457914Y-39790714D01*
X111457914Y-39790714D02*
X111648390Y-39838333D01*
X111648390Y-39838333D02*
X111791247Y-39838333D01*
X111791247Y-39838333D02*
X111981723Y-39790714D01*
X111981723Y-39790714D02*
X112076961Y-39743095D01*
X112076961Y-39743095D02*
X112172200Y-39647857D01*
X112172200Y-39647857D02*
X112219819Y-39505000D01*
X112219819Y-39505000D02*
X112219819Y-39266905D01*
X111315057Y-40219286D02*
X111267438Y-40266905D01*
X111267438Y-40266905D02*
X111219819Y-40362143D01*
X111219819Y-40362143D02*
X111219819Y-40600238D01*
X111219819Y-40600238D02*
X111267438Y-40695476D01*
X111267438Y-40695476D02*
X111315057Y-40743095D01*
X111315057Y-40743095D02*
X111410295Y-40790714D01*
X111410295Y-40790714D02*
X111505533Y-40790714D01*
X111505533Y-40790714D02*
X111648390Y-40743095D01*
X111648390Y-40743095D02*
X112219819Y-40171667D01*
X112219819Y-40171667D02*
X112219819Y-40790714D01*
X109679819Y-39266905D02*
X108679819Y-39266905D01*
X108679819Y-39266905D02*
X108679819Y-39505000D01*
X108679819Y-39505000D02*
X108727438Y-39647857D01*
X108727438Y-39647857D02*
X108822676Y-39743095D01*
X108822676Y-39743095D02*
X108917914Y-39790714D01*
X108917914Y-39790714D02*
X109108390Y-39838333D01*
X109108390Y-39838333D02*
X109251247Y-39838333D01*
X109251247Y-39838333D02*
X109441723Y-39790714D01*
X109441723Y-39790714D02*
X109536961Y-39743095D01*
X109536961Y-39743095D02*
X109632200Y-39647857D01*
X109632200Y-39647857D02*
X109679819Y-39505000D01*
X109679819Y-39505000D02*
X109679819Y-39266905D01*
X109679819Y-40790714D02*
X109679819Y-40219286D01*
X109679819Y-40505000D02*
X108679819Y-40505000D01*
X108679819Y-40505000D02*
X108822676Y-40409762D01*
X108822676Y-40409762D02*
X108917914Y-40314524D01*
X108917914Y-40314524D02*
X108965533Y-40219286D01*
D11*
%TO.C,R2*%
X120120000Y-42714936D02*
X120120000Y-43169064D01*
X118650000Y-42714936D02*
X118650000Y-43169064D01*
%TO.C,R1*%
X116110000Y-42714936D02*
X116110000Y-43169064D01*
X117580000Y-42714936D02*
X117580000Y-43169064D01*
%TO.C,D3*%
X113455000Y-44829000D02*
X115155000Y-44829000D01*
X115155000Y-41569000D02*
X115155000Y-44829000D01*
X113455000Y-41569000D02*
X113455000Y-44829000D01*
%TO.C,D2*%
X110915000Y-44829000D02*
X112615000Y-44829000D01*
X112615000Y-41569000D02*
X112615000Y-44829000D01*
X110915000Y-41569000D02*
X110915000Y-44829000D01*
%TO.C,D1*%
X108375000Y-44789000D02*
X110075000Y-44789000D01*
X110075000Y-41529000D02*
X110075000Y-44789000D01*
X108375000Y-41529000D02*
X108375000Y-44789000D01*
%TD*%
M02*
