%TF.GenerationSoftware,KiCad,Pcbnew,8.0.5*%
%TF.CreationDate,2024-11-27T16:11:48+01:00*%
%TF.ProjectId,Core4GPZ_rev0-1,436f7265-3447-4505-9a5f-726576302d31,rev?*%
%TF.SameCoordinates,Original*%
%TF.FileFunction,Copper,L2,Bot*%
%TF.FilePolarity,Positive*%
%FSLAX46Y46*%
G04 Gerber Fmt 4.6, Leading zero omitted, Abs format (unit mm)*
G04 Created by KiCad (PCBNEW 8.0.5) date 2024-11-27 16:11:48*
%MOMM*%
%LPD*%
G01*
G04 APERTURE LIST*
G04 Aperture macros list*
%AMRoundRect*
0 Rectangle with rounded corners*
0 $1 Rounding radius*
0 $2 $3 $4 $5 $6 $7 $8 $9 X,Y pos of 4 corners*
0 Add a 4 corners polygon primitive as box body*
4,1,4,$2,$3,$4,$5,$6,$7,$8,$9,$2,$3,0*
0 Add four circle primitives for the rounded corners*
1,1,$1+$1,$2,$3*
1,1,$1+$1,$4,$5*
1,1,$1+$1,$6,$7*
1,1,$1+$1,$8,$9*
0 Add four rect primitives between the rounded corners*
20,1,$1+$1,$2,$3,$4,$5,0*
20,1,$1+$1,$4,$5,$6,$7,0*
20,1,$1+$1,$6,$7,$8,$9,0*
20,1,$1+$1,$8,$9,$2,$3,0*%
G04 Aperture macros list end*
%TA.AperFunction,ComponentPad*%
%ADD10R,2.200000X2.200000*%
%TD*%
%TA.AperFunction,ComponentPad*%
%ADD11O,2.200000X2.200000*%
%TD*%
%TA.AperFunction,ComponentPad*%
%ADD12C,5.600000*%
%TD*%
%TA.AperFunction,ComponentPad*%
%ADD13C,1.800000*%
%TD*%
%TA.AperFunction,ComponentPad*%
%ADD14C,5.500000*%
%TD*%
%TA.AperFunction,ComponentPad*%
%ADD15C,1.500000*%
%TD*%
%TA.AperFunction,ComponentPad*%
%ADD16R,1.600000X1.600000*%
%TD*%
%TA.AperFunction,ComponentPad*%
%ADD17O,1.600000X1.600000*%
%TD*%
%TA.AperFunction,SMDPad,CuDef*%
%ADD18RoundRect,0.237500X0.237500X-0.250000X0.237500X0.250000X-0.237500X0.250000X-0.237500X-0.250000X0*%
%TD*%
%TA.AperFunction,SMDPad,CuDef*%
%ADD19RoundRect,0.237500X0.237500X-0.287500X0.237500X0.287500X-0.237500X0.287500X-0.237500X-0.287500X0*%
%TD*%
%TA.AperFunction,ViaPad*%
%ADD20C,0.800000*%
%TD*%
%TA.AperFunction,ViaPad*%
%ADD21C,1.000000*%
%TD*%
%TA.AperFunction,ViaPad*%
%ADD22C,1.200000*%
%TD*%
%TA.AperFunction,Conductor*%
%ADD23C,0.750000*%
%TD*%
%TA.AperFunction,Conductor*%
%ADD24C,0.500000*%
%TD*%
%TA.AperFunction,Conductor*%
%ADD25C,0.250000*%
%TD*%
%TA.AperFunction,Conductor*%
%ADD26C,0.300000*%
%TD*%
%TA.AperFunction,Conductor*%
%ADD27C,0.400000*%
%TD*%
G04 APERTURE END LIST*
D10*
%TO.P,D5,1,K*%
%TO.N,IGN_COIL1_DRIVE*%
X98176000Y-67759000D03*
D11*
%TO.P,D5,2,A*%
%TO.N,GND*%
X98176000Y-77919000D03*
%TD*%
D12*
%TO.P,M3,1*%
%TO.N,GND*%
X82047000Y-62611000D03*
%TD*%
%TO.P,M3,1*%
%TO.N,GND*%
X97287000Y-139319000D03*
%TD*%
D13*
%TO.P,U2,1,INJ1*%
%TO.N,/INJ1_TRIG*%
X85546000Y-75759000D03*
%TO.P,U2,2,INJ1*%
%TO.N,unconnected-(U2A-INJ1-Pad2)*%
X85546000Y-78299000D03*
%TO.P,U2,3,INJ2*%
%TO.N,/INJ2_TRIG*%
X85546000Y-80839000D03*
%TO.P,U2,4,INJ2*%
%TO.N,unconnected-(U2A-INJ2-Pad4)*%
X85546000Y-83379000D03*
%TO.P,U2,5,INJ3*%
%TO.N,unconnected-(U2A-INJ3-Pad5)*%
X85546000Y-85919000D03*
%TO.P,U2,6,INJ3*%
%TO.N,unconnected-(U2A-INJ3-Pad6)*%
X85546000Y-88459000D03*
%TO.P,U2,7,INJ4*%
%TO.N,unconnected-(U2A-INJ4-Pad7)*%
X85546000Y-90999000D03*
%TO.P,U2,8,INJ4*%
%TO.N,unconnected-(U2A-INJ4-Pad8)*%
X85546000Y-93539000D03*
%TO.P,U2,9,BOOST*%
%TO.N,unconnected-(U2A-BOOST-Pad9)*%
X85546000Y-96079000D03*
%TO.P,U2,10,VVT*%
%TO.N,unconnected-(U2A-VVT-Pad10)*%
X85546000Y-98619000D03*
%TO.P,U2,11,IDLED2*%
%TO.N,unconnected-(U2A-IDLED2-Pad11)*%
X85546000Y-101159000D03*
%TO.P,U2,12,IDLED1*%
%TO.N,/IDLE_1*%
X85546000Y-103699000D03*
%TO.P,U2,13,TACHO*%
%TO.N,/TACHO_OUT*%
X85546000Y-106239000D03*
%TO.P,U2,14,FUELP*%
%TO.N,/FUEL_PUMP*%
X85546000Y-108779000D03*
%TO.P,U2,15,FAN*%
%TO.N,/FAN_CTL*%
X85546000Y-111319000D03*
%TO.P,U2,16,LC1*%
%TO.N,unconnected-(U2A-LC1-Pad16)*%
X85546000Y-113859000D03*
%TO.P,U2,17,D36*%
%TO.N,unconnected-(U2A-D36-Pad17)*%
X85546000Y-116399000D03*
%TO.P,U2,18,D35*%
%TO.N,unconnected-(U2A-D35-Pad18)*%
X85546000Y-118939000D03*
%TO.P,U2,19,D34*%
%TO.N,unconnected-(U2A-D34-Pad19)*%
X85546000Y-121479000D03*
%TO.P,U2,20,D33*%
%TO.N,unconnected-(U2A-D33-Pad20)*%
X85546000Y-124019000D03*
%TO.P,U2,21,IGN1*%
%TO.N,IGN_TRIG_1*%
X85546000Y-126559000D03*
%TO.P,U2,22,IGN2*%
%TO.N,IGN_TRIG_2*%
X85546000Y-129099000D03*
%TO.P,U2,23,IGN3*%
%TO.N,unconnected-(U2A-IGN3-Pad23)*%
X85546000Y-131639000D03*
%TO.P,U2,24,IGN4*%
%TO.N,unconnected-(U2A-IGN4-Pad24)*%
X85546000Y-134179000D03*
%TO.P,U2,25,+12V*%
%TO.N,BIKE_+12V_SWITCHED_IN*%
X132076000Y-75699000D03*
%TO.P,U2,26,EARTH*%
%TO.N,GND*%
X132076000Y-78239000D03*
%TO.P,U2,27,EARTH*%
X132076000Y-80779000D03*
%TO.P,U2,28,EARTH*%
X132076000Y-83319000D03*
%TO.P,U2,29,EARTH*%
X132076000Y-85859000D03*
%TO.P,U2,30,EARTH*%
X132076000Y-88399000D03*
%TO.P,U2,31,EARTH*%
X132076000Y-90939000D03*
%TO.P,U2,32,EARTH*%
X132076000Y-93479000D03*
%TO.P,U2,33,+5V*%
%TO.N,SNSR_+5V*%
X132076000Y-96019000D03*
%TO.P,U2,34,RPM1*%
%TO.N,CRANK_SIGNAL*%
X132076000Y-98559000D03*
%TO.P,U2,35,RPM2*%
%TO.N,CAM_SIGNAL*%
X132076000Y-101099000D03*
%TO.P,U2,36,MAP_IN*%
%TO.N,Net-(U2B-MAP_IN)*%
X132076000Y-103639000D03*
%TO.P,U2,37,TPS*%
%TO.N,/TPS_SNSR*%
X132076000Y-106179000D03*
%TO.P,U2,38,CLT*%
%TO.N,CLT_5V*%
X132076000Y-108719000D03*
%TO.P,U2,39,IAT*%
%TO.N,/IAT_SNSR*%
X132076000Y-111259000D03*
%TO.P,U2,40,02*%
%TO.N,/02_SNSR*%
X132076000Y-113799000D03*
%TO.P,U2,41,LAUNCH*%
%TO.N,unconnected-(U2B-LAUNCH-Pad41)*%
X132076000Y-116339000D03*
%TO.P,U2,42,KNOCK*%
%TO.N,unconnected-(U2B-KNOCK-Pad42)*%
X132076000Y-118879000D03*
%TO.P,U2,43,FLEX*%
%TO.N,/FLEX_SNSR*%
X132076000Y-121419000D03*
%TO.P,U2,44,SPR_IN1*%
%TO.N,SHIFT+*%
X132076000Y-123959000D03*
%TO.P,U2,45,SPR_IN2*%
%TO.N,SAFE_SIGNAL*%
X132076000Y-126499000D03*
%TO.P,U2,46,ENBL*%
%TO.N,EN*%
X132076000Y-129039000D03*
%TO.P,U2,47,STEP*%
%TO.N,STEP*%
X132076000Y-131579000D03*
%TO.P,U2,48,DIR*%
%TO.N,DIR*%
X132076000Y-134119000D03*
%TO.P,U2,49,RST*%
%TO.N,unconnected-(U2C-RST-Pad49)*%
X108966000Y-99509000D03*
%TO.P,U2,50,SS1*%
%TO.N,unconnected-(U2C-SS1-Pad50)*%
X108966000Y-102049000D03*
%TO.P,U2,51,MISO*%
%TO.N,unconnected-(U2C-MISO-Pad51)*%
X111506000Y-99509000D03*
%TO.P,U2,52,MOSI*%
%TO.N,unconnected-(U2C-MOSI-Pad52)*%
X111506000Y-102049000D03*
%TO.P,U2,53,SCK*%
%TO.N,unconnected-(U2C-SCK-Pad53)*%
X114046000Y-99509000D03*
%TO.P,U2,54,SS0*%
%TO.N,unconnected-(U2C-SS0-Pad54)*%
X114046000Y-102049000D03*
%TO.P,U2,55,TX2*%
%TO.N,unconnected-(U2C-TX2-Pad55)*%
X116586000Y-99509000D03*
%TO.P,U2,56,RX2*%
%TO.N,unconnected-(U2C-RX2-Pad56)*%
X116586000Y-102049000D03*
%TO.P,U2,57,RX0*%
%TO.N,unconnected-(U2C-RX0-Pad57)*%
X119126000Y-99509000D03*
%TO.P,U2,58,TX0*%
%TO.N,unconnected-(U2C-TX0-Pad58)*%
X119126000Y-102049000D03*
%TO.P,U2,59,TX3*%
%TO.N,unconnected-(U2C-TX3-Pad59)*%
X121666000Y-99509000D03*
%TO.P,U2,60,RX3*%
%TO.N,unconnected-(U2C-RX3-Pad60)*%
X121666000Y-102049000D03*
%TO.P,U2,61,EARTH*%
%TO.N,GND*%
X124206000Y-99509000D03*
%TO.P,U2,62,+5V*%
%TO.N,unconnected-(U2C-+5V-Pad62)*%
X124206000Y-102049000D03*
D14*
%TO.P,U2,101*%
%TO.N,GND*%
X86546000Y-70759000D03*
%TO.P,U2,102*%
X131196000Y-70739000D03*
%TO.P,U2,103*%
X131196000Y-139149000D03*
%TO.P,U2,104*%
X86546000Y-139159000D03*
%TD*%
D12*
%TO.P,M3,1*%
%TO.N,GND*%
X151643000Y-62611000D03*
%TD*%
D15*
%TO.P,U1,1,1A*%
%TO.N,CAM_SNSR*%
X131831000Y-53855000D03*
%TO.P,U1,2,1B*%
%TO.N,CRANK_SNSR*%
X129331000Y-53855000D03*
%TO.P,U1,3,1C*%
%TO.N,unconnected-(U1A-1C-Pad3)*%
X126831000Y-53855000D03*
%TO.P,U1,4,1D*%
%TO.N,unconnected-(U1A-1D-Pad4)*%
X124331000Y-53855000D03*
%TO.P,U1,5,1E*%
%TO.N,unconnected-(U1A-1E-Pad5)*%
X121831000Y-53855000D03*
%TO.P,U1,6,1F*%
%TO.N,/FUEL_PUMP*%
X119331000Y-53855000D03*
%TO.P,U1,7,1G*%
%TO.N,IGN_COIL2_DRIVE*%
X116831000Y-53855000D03*
%TO.P,U1,8,1H*%
%TO.N,IGN_COIL1_DRIVE*%
X114331000Y-53855000D03*
%TO.P,U1,9,1J*%
%TO.N,/INJ2_TRIG*%
X111831000Y-53855000D03*
%TO.P,U1,10,1K*%
%TO.N,/INJ1_TRIG*%
X109331000Y-53855000D03*
%TO.P,U1,11,2A*%
%TO.N,CAM_SNSR_VR-*%
X131831000Y-51355000D03*
%TO.P,U1,12,2B*%
%TO.N,CRANK_SNSR_VR-*%
X129331000Y-51355000D03*
%TO.P,U1,13,2C*%
%TO.N,unconnected-(U1A-2C-Pad13)*%
X126831000Y-51355000D03*
%TO.P,U1,14,2D*%
%TO.N,unconnected-(U1A-2D-Pad14)*%
X124331000Y-51355000D03*
%TO.P,U1,15,2E*%
%TO.N,unconnected-(U1A-2E-Pad15)*%
X121831000Y-51355000D03*
%TO.P,U1,16,2F*%
%TO.N,/FAN_CTL*%
X119331000Y-51355000D03*
%TO.P,U1,17,2G*%
%TO.N,/IDLE_1*%
X116831000Y-51355000D03*
%TO.P,U1,18,2H*%
%TO.N,unconnected-(U1A-2H-Pad18)*%
X114331000Y-51355000D03*
%TO.P,U1,19,2J*%
%TO.N,/TACHO_OUT*%
X111831000Y-51355000D03*
%TO.P,U1,20,2K*%
%TO.N,BIKE_+12V_SWITCHED_IN*%
X109331000Y-51355000D03*
%TO.P,U1,21,3A*%
%TO.N,Stepper_B1*%
X131831000Y-48855000D03*
%TO.P,U1,22,3B*%
%TO.N,Stepper_B2*%
X129331000Y-48855000D03*
%TO.P,U1,23,3C*%
%TO.N,Stepper_A2*%
X126831000Y-48855000D03*
%TO.P,U1,24,3D*%
%TO.N,Stepper_A1*%
X124331000Y-48855000D03*
%TO.P,U1,25,3E*%
%TO.N,unconnected-(U1B-3E-Pad25)*%
X121831000Y-48855000D03*
%TO.P,U1,26,3F*%
%TO.N,unconnected-(U1B-3F-Pad26)*%
X119331000Y-48855000D03*
%TO.P,U1,27,3G*%
%TO.N,unconnected-(U1B-3G-Pad27)*%
X116831000Y-48855000D03*
%TO.P,U1,28,3H*%
%TO.N,unconnected-(U1B-3H-Pad28)*%
X114331000Y-48855000D03*
%TO.P,U1,29,3J*%
%TO.N,unconnected-(U1B-3J-Pad29)*%
X111831000Y-48855000D03*
%TO.P,U1,30,3K*%
%TO.N,unconnected-(U1B-3K-Pad30)*%
X109331000Y-48855000D03*
%TO.P,U1,31,4A*%
%TO.N,/TPS_SNSR*%
X131831000Y-46355000D03*
%TO.P,U1,32,4B*%
%TO.N,CLT_SNSR*%
X129331000Y-46355000D03*
%TO.P,U1,33,4C*%
%TO.N,/IAT_SNSR*%
X126831000Y-46355000D03*
%TO.P,U1,34,4D*%
%TO.N,/02_SNSR*%
X124331000Y-46355000D03*
%TO.P,U1,35,4E*%
%TO.N,/FLEX_SNSR*%
X121831000Y-46355000D03*
%TO.P,U1,36,4F*%
%TO.N,SNSR_+5V*%
X119331000Y-46355000D03*
%TO.P,U1,37,4G*%
%TO.N,SHIFT+*%
X116831000Y-46355000D03*
%TO.P,U1,38,4H*%
%TO.N,NEUTRAL_SW*%
X114331000Y-46355000D03*
%TO.P,U1,39,4J*%
%TO.N,Clutch_SW*%
X111831000Y-46355000D03*
%TO.P,U1,40,4K*%
%TO.N,SideStand_SW*%
X109331000Y-46355000D03*
%TO.P,U1,41,1L*%
%TO.N,BIKE_+12V_SWITCHED_IN*%
X105831000Y-53855000D03*
%TO.P,U1,42,1M*%
X102131000Y-53855000D03*
%TO.P,U1,43,2L*%
%TO.N,GND*%
X105831000Y-51355000D03*
%TO.P,U1,44,2M*%
X102131000Y-51355000D03*
%TO.P,U1,45,3L*%
X105831000Y-48855000D03*
%TO.P,U1,46,3M*%
X102131000Y-48855000D03*
%TO.P,U1,47,4L*%
X105831000Y-46355000D03*
%TO.P,U1,48,4M*%
X102131000Y-46355000D03*
%TD*%
D16*
%TO.P,A1,1,GND*%
%TO.N,GND*%
X138181000Y-69723000D03*
D17*
%TO.P,A1,2,~{FLT}*%
%TO.N,unconnected-(A1-~{FLT}-Pad2)*%
X138181000Y-72263000D03*
%TO.P,A1,3,A2*%
%TO.N,Stepper_A2*%
X138181000Y-74803000D03*
%TO.P,A1,4,A1*%
%TO.N,Stepper_A1*%
X138181000Y-77343000D03*
%TO.P,A1,5,B1*%
%TO.N,Stepper_B1*%
X138181000Y-79883000D03*
%TO.P,A1,6,B2*%
%TO.N,Stepper_B2*%
X138181000Y-82423000D03*
%TO.P,A1,7,GND*%
%TO.N,GND*%
X138181000Y-84963000D03*
%TO.P,A1,8,VMOT*%
%TO.N,Net-(A1-VMOT)*%
X138181000Y-87503000D03*
%TO.P,A1,9,~{EN}*%
%TO.N,EN*%
X150881000Y-87503000D03*
%TO.P,A1,10,M0*%
%TO.N,unconnected-(A1-M0-Pad10)*%
X150881000Y-84963000D03*
%TO.P,A1,11,M1*%
%TO.N,unconnected-(A1-M1-Pad11)*%
X150881000Y-82423000D03*
%TO.P,A1,12,M2*%
%TO.N,unconnected-(A1-M2-Pad12)*%
X150881000Y-79883000D03*
%TO.P,A1,13,~{RST}*%
%TO.N,SNSR_+5V*%
X150881000Y-77343000D03*
%TO.P,A1,14,~{SLP}*%
X150881000Y-74803000D03*
%TO.P,A1,15,STEP*%
%TO.N,STEP*%
X150881000Y-72263000D03*
%TO.P,A1,16,DIR*%
%TO.N,DIR*%
X150881000Y-69723000D03*
%TD*%
D10*
%TO.P,D6,1,K*%
%TO.N,IGN_COIL2_DRIVE*%
X98176000Y-83634000D03*
D11*
%TO.P,D6,2,A*%
%TO.N,GND*%
X98176000Y-93794000D03*
%TD*%
D12*
%TO.P,M3,1*%
%TO.N,GND*%
X151643000Y-139319000D03*
%TD*%
D18*
%TO.P,R2,1*%
%TO.N,SNSR_+5V*%
X116845000Y-44282500D03*
%TO.P,R2,2*%
%TO.N,SHIFT+*%
X116845000Y-42457500D03*
%TD*%
D19*
%TO.P,D3,1,K*%
%TO.N,NEUTRAL_SW*%
X114305000Y-44207500D03*
%TO.P,D3,2,A*%
%TO.N,SAFE_SIGNAL*%
X114305000Y-42457500D03*
%TD*%
%TO.P,D1,1,K*%
%TO.N,SideStand_SW*%
X109225000Y-44207500D03*
%TO.P,D1,2,A*%
%TO.N,SAFE_SIGNAL*%
X109225000Y-42457500D03*
%TD*%
D18*
%TO.P,R1,1*%
%TO.N,SNSR_+5V*%
X119385000Y-44282500D03*
%TO.P,R1,2*%
%TO.N,SAFE_SIGNAL*%
X119385000Y-42457500D03*
%TD*%
D19*
%TO.P,D2,1,K*%
%TO.N,Clutch_SW*%
X111765000Y-44207500D03*
%TO.P,D2,2,A*%
%TO.N,SAFE_SIGNAL*%
X111765000Y-42457500D03*
%TD*%
D20*
%TO.N,GND*%
X91572000Y-65151000D03*
X91572000Y-71374000D03*
D21*
%TO.N,BIKE_+12V_SWITCHED_IN*%
X133228000Y-60325000D03*
X133228000Y-59055000D03*
X133228000Y-61595000D03*
D20*
%TO.N,Net-(IC1-IN1+)*%
X117353000Y-80137000D03*
X123195000Y-78867000D03*
D22*
%TO.N,SNSR_+5V*%
X144222925Y-85539000D03*
D20*
%TO.N,IGN_TRIG_1*%
X92461000Y-78554000D03*
%TO.N,IGN_TRIG_2*%
X92461000Y-94429000D03*
%TO.N,CRANK_SIGNAL*%
X125037000Y-75311000D03*
X126597331Y-91944669D03*
%TO.N,CAM_SIGNAL*%
X124211000Y-69215000D03*
X124211000Y-90619000D03*
%TO.N,/FAN_CTL*%
X117988000Y-58039000D03*
D21*
%TO.N,Stepper_A1*%
X135260000Y-53340000D03*
D20*
%TO.N,/TACHO_OUT*%
X90048000Y-65151000D03*
%TO.N,GND*%
X116845000Y-75565000D03*
X121734500Y-86732500D03*
X127767000Y-68961000D03*
X104406000Y-90170000D03*
X133355000Y-57023000D03*
X109479000Y-91567000D03*
X141991000Y-129354000D03*
X110495000Y-75819000D03*
X115575000Y-70485000D03*
X149103000Y-94615000D03*
X117607000Y-109855000D03*
X154691000Y-94615000D03*
X140086000Y-84904000D03*
X127259000Y-63119000D03*
X136403000Y-78359000D03*
X123195000Y-87503000D03*
X143896000Y-127449000D03*
X102621000Y-106494000D03*
X143261000Y-121734000D03*
X87578000Y-87189000D03*
X104488500Y-74329000D03*
X107701000Y-58420000D03*
X129799000Y-67183000D03*
X87761000Y-120209000D03*
X104488500Y-76869000D03*
X124465000Y-41275000D03*
X109479000Y-84963000D03*
X119131000Y-91254000D03*
X119385000Y-72517000D03*
X141356000Y-84904000D03*
X144150000Y-62679000D03*
X110876000Y-62103000D03*
X127259000Y-60579000D03*
X140721000Y-102049000D03*
X118369000Y-96393000D03*
X116845000Y-81280000D03*
X92715000Y-90551000D03*
X92715000Y-88011000D03*
X121163000Y-70739000D03*
X154691000Y-77343000D03*
X147071000Y-117924000D03*
X134371000Y-109944000D03*
X116845000Y-85090000D03*
X110495000Y-73279000D03*
X110876000Y-60579000D03*
X88016000Y-130624000D03*
X106050000Y-74329000D03*
X137800000Y-59563000D03*
X154691000Y-74803000D03*
X138816000Y-97604000D03*
X122941000Y-72517000D03*
X127005000Y-41275000D03*
X140086000Y-86174000D03*
X148341000Y-84904000D03*
X125735000Y-114935000D03*
X121290000Y-74549000D03*
X134371000Y-112484000D03*
X123703000Y-57531000D03*
X87578000Y-82109000D03*
X113035000Y-58547000D03*
X140975000Y-46990000D03*
X104406000Y-92710000D03*
X144209475Y-77284000D03*
X115575000Y-81280000D03*
X99446000Y-102049000D03*
X136911000Y-97604000D03*
X140975000Y-89984000D03*
X134371000Y-121539000D03*
X140086000Y-83634000D03*
X138181000Y-133164000D03*
X103510000Y-109855000D03*
X132085000Y-41275000D03*
X134371000Y-101981000D03*
X99319000Y-72263000D03*
X123703000Y-114935000D03*
X122941000Y-74549000D03*
X150881000Y-114114000D03*
X148341000Y-72204000D03*
X112400000Y-95250000D03*
X106050000Y-107315000D03*
X122941000Y-76581000D03*
X127513000Y-98933000D03*
X144531000Y-99509000D03*
X128021000Y-72771000D03*
X87578000Y-99889000D03*
X126243000Y-101981000D03*
X91572000Y-69723000D03*
X137800000Y-62611000D03*
X122179000Y-57531000D03*
X87578000Y-94809000D03*
X129545000Y-41275000D03*
X140340000Y-48260000D03*
X98811000Y-63119000D03*
X148976000Y-116019000D03*
X137800000Y-57785000D03*
X91572000Y-66675000D03*
X122179000Y-55753000D03*
X116337000Y-68961000D03*
X92715000Y-82677000D03*
X149103000Y-90619000D03*
X110495000Y-78867000D03*
X118877000Y-60325000D03*
X148341000Y-74744000D03*
X149611000Y-121734000D03*
X144209475Y-72204000D03*
X136403000Y-80899000D03*
X97223500Y-90551000D03*
X107320000Y-106045000D03*
X103383000Y-61595000D03*
X129799000Y-78359000D03*
X138943000Y-89984000D03*
X92715000Y-83947000D03*
X105161000Y-103954000D03*
X113670000Y-95250000D03*
X137927000Y-117983000D03*
X140848000Y-112209000D03*
X116210000Y-88900000D03*
X139705000Y-46990000D03*
X129799000Y-80899000D03*
X141610000Y-48260000D03*
X154691000Y-99695000D03*
X137800000Y-49530000D03*
X134371000Y-99949000D03*
X128783000Y-58547000D03*
X127767000Y-114935000D03*
X93731000Y-100144000D03*
X129799000Y-85979000D03*
X148341000Y-108399000D03*
X133228000Y-64643000D03*
X140086000Y-131259000D03*
X148341000Y-69664000D03*
X125989000Y-89281000D03*
X92715000Y-81407000D03*
X129799000Y-83439000D03*
X118606000Y-86732500D03*
X104488500Y-75599000D03*
X144150000Y-59631000D03*
X154691000Y-97155000D03*
X136911000Y-102049000D03*
X154691000Y-82423000D03*
X145801000Y-125544000D03*
X99319000Y-87904000D03*
X139578000Y-113479000D03*
X148341000Y-109669000D03*
X137038000Y-116019000D03*
X103891000Y-105224000D03*
X140721000Y-99509000D03*
X117607000Y-111887000D03*
X149611000Y-109669000D03*
X138308000Y-114749000D03*
X92715000Y-89281000D03*
X112400000Y-96520000D03*
X97287000Y-72263000D03*
X125989000Y-87757000D03*
X110495000Y-70739000D03*
X154691000Y-79883000D03*
X141356000Y-123639000D03*
X113670000Y-96520000D03*
X114305000Y-57277000D03*
X122941000Y-103505000D03*
X137800000Y-61087000D03*
X102240000Y-111125000D03*
X100843000Y-61595000D03*
X91572000Y-68199000D03*
X99446000Y-100144000D03*
X141356000Y-83634000D03*
X145801000Y-109669000D03*
X121671000Y-111887000D03*
X120655000Y-60325000D03*
X139705000Y-41275000D03*
X120147000Y-86741000D03*
X115575000Y-77470000D03*
X153421000Y-117924000D03*
X131323000Y-65659000D03*
X126497000Y-94869000D03*
X144209475Y-69664000D03*
X120655000Y-58801000D03*
X133355000Y-52959000D03*
X144531000Y-97604000D03*
X154691000Y-102235000D03*
X97287000Y-75311000D03*
X135260000Y-46990000D03*
X136530000Y-48260000D03*
X129799000Y-112484000D03*
X130307000Y-57023000D03*
X123703000Y-55753000D03*
X120147000Y-105029000D03*
X140721000Y-97604000D03*
X110495000Y-65659000D03*
X112019000Y-59563000D03*
X147706000Y-123639000D03*
X100081000Y-109034000D03*
X106050000Y-90170000D03*
X96779000Y-64643000D03*
X129799000Y-90297000D03*
X116210000Y-96334000D03*
X144150000Y-61155000D03*
X136911000Y-90043000D03*
X137165000Y-41275000D03*
X149103000Y-92583000D03*
X151516000Y-119829000D03*
X145801000Y-108399000D03*
X126497000Y-96393000D03*
X138689000Y-105029000D03*
X108971000Y-57277000D03*
X109479000Y-82931000D03*
X133228000Y-66675000D03*
X149611000Y-108399000D03*
X99319000Y-75311000D03*
X97541000Y-100144000D03*
X95636000Y-102049000D03*
X115575000Y-85090000D03*
X120909000Y-107696000D03*
X135895000Y-120015000D03*
X144531000Y-101414000D03*
X128275000Y-89281000D03*
X87635000Y-115174000D03*
X145166000Y-119829000D03*
X144209475Y-74744000D03*
X144150000Y-57785000D03*
X149103000Y-96647000D03*
X120655000Y-96334000D03*
X129799000Y-102743000D03*
X109479000Y-89027000D03*
X106685000Y-64770000D03*
X99319000Y-90551000D03*
X122179000Y-58801000D03*
X109479000Y-86995000D03*
X117480000Y-91254000D03*
X127513000Y-100711000D03*
X125989000Y-76835000D03*
X116337000Y-72009000D03*
X104406000Y-91440000D03*
X95636000Y-100144000D03*
X134625000Y-41275000D03*
X147071000Y-109669000D03*
X116210000Y-90170000D03*
X129799000Y-88519000D03*
X101351000Y-107764000D03*
X123195000Y-89281000D03*
X133355000Y-54991000D03*
X103383000Y-64643000D03*
X123703000Y-105791000D03*
X140467000Y-115443000D03*
X134371000Y-117564000D03*
X134371000Y-104864000D03*
X117353000Y-61849000D03*
X133228000Y-65659000D03*
X127767000Y-104267000D03*
X134879000Y-90043000D03*
X97541000Y-102049000D03*
X104780000Y-108585000D03*
X148341000Y-77284000D03*
X121671000Y-114935000D03*
X93731000Y-102049000D03*
X106685000Y-63500000D03*
X126243000Y-74549000D03*
X116337000Y-65405000D03*
X87381000Y-77029000D03*
X115575000Y-67310000D03*
X117607000Y-107823000D03*
X119385000Y-70739000D03*
X97223500Y-87904000D03*
X121163000Y-72517000D03*
X148341000Y-82364000D03*
X141356000Y-86174000D03*
X118877000Y-61849000D03*
X116845000Y-77470000D03*
X129799000Y-109944000D03*
X110495000Y-68199000D03*
X115575000Y-73660000D03*
X147071000Y-108399000D03*
X125989000Y-98933000D03*
X129799000Y-114935000D03*
%TO.N,Net-(JP5-B)*%
X128275000Y-106239000D03*
X125735000Y-110903000D03*
%TD*%
D23*
%TO.N,BIKE_+12V_SWITCHED_IN*%
X105813000Y-53855000D02*
X102035166Y-53855000D01*
X105813000Y-60088000D02*
X105813000Y-53932834D01*
X109352000Y-63627000D02*
X105813000Y-60088000D01*
X133228000Y-61595000D02*
X133228000Y-61722000D01*
X132146000Y-75699000D02*
X132076000Y-75699000D01*
X120147000Y-63627000D02*
X109352000Y-63627000D01*
X133228000Y-61722000D02*
X125735000Y-69215000D01*
X133228000Y-59055000D02*
X133228000Y-60325000D01*
X132076000Y-75699000D02*
X129044000Y-75699000D01*
D24*
X106708340Y-53855000D02*
X109221753Y-51341587D01*
X105813000Y-53855000D02*
X106708340Y-53855000D01*
D23*
X102035166Y-53855000D02*
X102021753Y-53841587D01*
X133228000Y-60325000D02*
X133228000Y-61595000D01*
X125735000Y-72390000D02*
X125735000Y-69215000D01*
X125735000Y-69215000D02*
X120147000Y-63627000D01*
X129044000Y-75699000D02*
X125735000Y-72390000D01*
D25*
%TO.N,Net-(IC1-IN1+)*%
X123195000Y-78867000D02*
X118623000Y-78867000D01*
X118623000Y-78867000D02*
X117353000Y-80137000D01*
%TO.N,SNSR_+5V*%
X119385000Y-46178340D02*
X119221753Y-46341587D01*
D26*
X144222925Y-83942075D02*
X150881000Y-77284000D01*
D27*
X132151000Y-96019000D02*
X132076000Y-96019000D01*
D26*
X144222925Y-85539000D02*
X144222925Y-83942075D01*
D25*
X119221753Y-46341587D02*
X119221753Y-44358247D01*
X116845000Y-44195000D02*
X119385000Y-44195000D01*
D26*
X150881000Y-77284000D02*
X150881000Y-74744000D01*
D25*
X119221753Y-44358247D02*
X119385000Y-44195000D01*
D26*
%TO.N,SAFE_SIGNAL*%
X139324000Y-48695893D02*
X139324000Y-52251894D01*
X119385000Y-42545000D02*
X133173107Y-42545000D01*
X142998000Y-115577000D02*
X132076000Y-126499000D01*
D25*
X114305000Y-42545000D02*
X109225000Y-42545000D01*
D26*
X114305000Y-42545000D02*
X115321000Y-41529000D01*
X118369000Y-41529000D02*
X119385000Y-42545000D01*
X139324000Y-52251894D02*
X142998000Y-55925894D01*
X133173107Y-42545000D02*
X139324000Y-48695893D01*
X142998000Y-55925894D02*
X142998000Y-115577000D01*
X115321000Y-41529000D02*
X118369000Y-41529000D01*
D25*
%TO.N,SideStand_SW*%
X109225000Y-46338340D02*
X109221753Y-46341587D01*
X109225000Y-46405000D02*
X109195000Y-46435000D01*
X109225000Y-44120000D02*
X109225000Y-46338340D01*
%TO.N,Clutch_SW*%
X111765000Y-44120000D02*
X111765000Y-46298340D01*
X111765000Y-46365000D02*
X111695000Y-46435000D01*
X111765000Y-46298340D02*
X111721753Y-46341587D01*
%TO.N,NEUTRAL_SW*%
X114305000Y-46258340D02*
X114221753Y-46341587D01*
X114305000Y-44120000D02*
X114305000Y-46258340D01*
X114305000Y-46225000D02*
X114095000Y-46435000D01*
D27*
%TO.N,IGN_TRIG_1*%
X90556000Y-123004000D02*
X87001000Y-126559000D01*
X90556000Y-80459000D02*
X90556000Y-123004000D01*
X87001000Y-126559000D02*
X85546000Y-126559000D01*
X92461000Y-78554000D02*
X90556000Y-80459000D01*
%TO.N,IGN_TRIG_2*%
X91191000Y-123217528D02*
X85546000Y-128862528D01*
X85546000Y-128862528D02*
X85546000Y-129099000D01*
X91191000Y-95699000D02*
X91191000Y-123217528D01*
X92461000Y-94429000D02*
X91191000Y-95699000D01*
D25*
%TO.N,CRANK_SNSR*%
X129195000Y-53935000D02*
X129260305Y-53935000D01*
D26*
%TO.N,CRANK_SIGNAL*%
X130561000Y-97044000D02*
X132076000Y-98559000D01*
X126597331Y-91944669D02*
X130561000Y-95908338D01*
X124719000Y-76835000D02*
X125037000Y-76517000D01*
X126597331Y-91944669D02*
X124719000Y-90066338D01*
X124719000Y-90066338D02*
X124719000Y-76835000D01*
X125037000Y-76517000D02*
X125037000Y-75311000D01*
X130561000Y-95908338D02*
X130561000Y-97044000D01*
%TO.N,CAM_SIGNAL*%
X124211000Y-90619000D02*
X124211000Y-69215000D01*
X130053000Y-96461000D02*
X130053000Y-99076000D01*
X124211000Y-90619000D02*
X130053000Y-96461000D01*
X130053000Y-99076000D02*
X132076000Y-101099000D01*
D27*
%TO.N,Stepper_B1*%
X131775166Y-48895000D02*
X131721753Y-48841587D01*
%TO.N,/FAN_CTL*%
X117988000Y-52575340D02*
X119221753Y-51341587D01*
X117988000Y-58039000D02*
X117988000Y-52575340D01*
D26*
%TO.N,SHIFT+*%
X142498000Y-56133000D02*
X138816000Y-52451000D01*
X138816000Y-52451000D02*
X138816000Y-48895000D01*
D25*
X116721753Y-46341587D02*
X115959754Y-45579588D01*
X115959754Y-45579588D02*
X115959754Y-43430246D01*
D26*
X132076000Y-123959000D02*
X133908894Y-123959000D01*
X138816000Y-48895000D02*
X133216000Y-43295000D01*
D25*
X116845000Y-46185000D02*
X116595000Y-46435000D01*
D26*
X133908894Y-123959000D02*
X142498000Y-115369894D01*
D25*
X115959754Y-43430246D02*
X116845000Y-42545000D01*
X116845000Y-46218340D02*
X116721753Y-46341587D01*
D26*
X133216000Y-43295000D02*
X117595000Y-43295000D01*
X142498000Y-115369894D02*
X142498000Y-56133000D01*
X117595000Y-43295000D02*
X116845000Y-42545000D01*
D27*
%TO.N,Net-(U2B-MAP_IN)*%
X132371000Y-103344000D02*
X132076000Y-103639000D01*
%TO.N,Stepper_A1*%
X125545166Y-50165000D02*
X124221753Y-48841587D01*
X135260000Y-53340000D02*
X135260000Y-52705000D01*
X132720000Y-50165000D02*
X125545166Y-50165000D01*
X135260000Y-52705000D02*
X132720000Y-50165000D01*
D25*
%TO.N,/TACHO_OUT*%
X90048000Y-65151000D02*
X90048000Y-79883000D01*
X90048000Y-79883000D02*
X89540000Y-80391000D01*
X89540000Y-102245000D02*
X85546000Y-106239000D01*
X89540000Y-80391000D02*
X89540000Y-102245000D01*
%TO.N,GND*%
X83469000Y-130414000D02*
X83260000Y-130623000D01*
X87578000Y-87189000D02*
X83768000Y-87189000D01*
X87381000Y-77029000D02*
X87336000Y-77074000D01*
X87806000Y-130414000D02*
X83469000Y-130414000D01*
X88016000Y-130624000D02*
X87806000Y-130414000D01*
X134371000Y-104864000D02*
X129566000Y-104864000D01*
X83260000Y-82109000D02*
X87578000Y-82109000D01*
X87336000Y-77074000D02*
X83781000Y-77074000D01*
X134371000Y-117564000D02*
X129888000Y-117564000D01*
%TO.N,Net-(JP5-B)*%
X128275000Y-107315000D02*
X128275000Y-106239000D01*
X125735000Y-109855000D02*
X128275000Y-107315000D01*
X125735000Y-110903000D02*
X125735000Y-109855000D01*
%TD*%
%TA.AperFunction,Conductor*%
%TO.N,GND*%
G36*
X89774834Y-102997269D02*
G01*
X89830767Y-103039141D01*
X89855184Y-103104605D01*
X89855500Y-103113451D01*
X89855500Y-122662480D01*
X89835815Y-122729519D01*
X89819181Y-122750161D01*
X86849300Y-125720041D01*
X86787977Y-125753526D01*
X86718285Y-125748542D01*
X86662352Y-125706670D01*
X86657819Y-125700194D01*
X86654979Y-125695847D01*
X86497784Y-125525087D01*
X86320180Y-125386853D01*
X86279368Y-125330143D01*
X86275693Y-125260370D01*
X86310324Y-125199687D01*
X86320181Y-125191146D01*
X86324407Y-125187857D01*
X86497784Y-125052913D01*
X86654979Y-124882153D01*
X86781924Y-124687849D01*
X86875157Y-124475300D01*
X86932134Y-124250305D01*
X86932135Y-124250297D01*
X86951300Y-124019006D01*
X86951300Y-124018993D01*
X86932135Y-123787702D01*
X86932133Y-123787691D01*
X86875157Y-123562699D01*
X86781924Y-123350151D01*
X86654983Y-123155852D01*
X86654980Y-123155849D01*
X86654979Y-123155847D01*
X86497784Y-122985087D01*
X86320180Y-122846853D01*
X86279368Y-122790143D01*
X86275693Y-122720370D01*
X86310324Y-122659687D01*
X86320181Y-122651146D01*
X86324407Y-122647857D01*
X86497784Y-122512913D01*
X86654979Y-122342153D01*
X86781924Y-122147849D01*
X86875157Y-121935300D01*
X86932134Y-121710305D01*
X86932135Y-121710297D01*
X86951300Y-121479006D01*
X86951300Y-121478993D01*
X86932135Y-121247702D01*
X86932133Y-121247691D01*
X86875157Y-121022699D01*
X86781924Y-120810151D01*
X86654983Y-120615852D01*
X86654980Y-120615849D01*
X86654979Y-120615847D01*
X86497784Y-120445087D01*
X86320180Y-120306853D01*
X86279368Y-120250143D01*
X86275693Y-120180370D01*
X86310324Y-120119687D01*
X86320181Y-120111146D01*
X86324407Y-120107857D01*
X86497784Y-119972913D01*
X86654979Y-119802153D01*
X86781924Y-119607849D01*
X86875157Y-119395300D01*
X86932134Y-119170305D01*
X86932135Y-119170297D01*
X86951300Y-118939006D01*
X86951300Y-118938993D01*
X86932135Y-118707702D01*
X86932133Y-118707691D01*
X86875157Y-118482699D01*
X86781924Y-118270151D01*
X86654983Y-118075852D01*
X86654980Y-118075849D01*
X86654979Y-118075847D01*
X86497784Y-117905087D01*
X86320180Y-117766853D01*
X86279368Y-117710143D01*
X86275693Y-117640370D01*
X86310324Y-117579687D01*
X86320181Y-117571146D01*
X86324407Y-117567857D01*
X86497784Y-117432913D01*
X86654979Y-117262153D01*
X86781924Y-117067849D01*
X86875157Y-116855300D01*
X86932134Y-116630305D01*
X86932135Y-116630297D01*
X86951300Y-116399006D01*
X86951300Y-116398993D01*
X86932135Y-116167702D01*
X86932133Y-116167691D01*
X86875157Y-115942699D01*
X86781924Y-115730151D01*
X86654983Y-115535852D01*
X86654980Y-115535849D01*
X86654979Y-115535847D01*
X86497784Y-115365087D01*
X86320180Y-115226853D01*
X86279368Y-115170143D01*
X86275693Y-115100370D01*
X86310324Y-115039687D01*
X86320181Y-115031146D01*
X86324407Y-115027857D01*
X86497784Y-114892913D01*
X86654979Y-114722153D01*
X86781924Y-114527849D01*
X86875157Y-114315300D01*
X86932134Y-114090305D01*
X86932135Y-114090297D01*
X86951300Y-113859006D01*
X86951300Y-113858993D01*
X86932135Y-113627702D01*
X86932133Y-113627691D01*
X86875157Y-113402699D01*
X86781924Y-113190151D01*
X86654983Y-112995852D01*
X86654980Y-112995849D01*
X86654979Y-112995847D01*
X86497784Y-112825087D01*
X86320180Y-112686853D01*
X86279368Y-112630143D01*
X86275693Y-112560370D01*
X86310324Y-112499687D01*
X86320181Y-112491146D01*
X86324407Y-112487857D01*
X86497784Y-112352913D01*
X86654979Y-112182153D01*
X86781924Y-111987849D01*
X86875157Y-111775300D01*
X86932134Y-111550305D01*
X86932135Y-111550297D01*
X86951300Y-111319006D01*
X86951300Y-111318993D01*
X86932135Y-111087702D01*
X86932133Y-111087691D01*
X86875157Y-110862699D01*
X86781924Y-110650151D01*
X86654983Y-110455852D01*
X86654980Y-110455849D01*
X86654979Y-110455847D01*
X86497784Y-110285087D01*
X86320180Y-110146853D01*
X86279368Y-110090143D01*
X86275693Y-110020370D01*
X86310324Y-109959687D01*
X86320181Y-109951146D01*
X86324407Y-109947857D01*
X86497784Y-109812913D01*
X86654979Y-109642153D01*
X86781924Y-109447849D01*
X86875157Y-109235300D01*
X86932134Y-109010305D01*
X86932135Y-109010297D01*
X86951300Y-108779006D01*
X86951300Y-108778993D01*
X86932135Y-108547702D01*
X86932133Y-108547691D01*
X86875157Y-108322699D01*
X86781924Y-108110151D01*
X86654983Y-107915852D01*
X86654980Y-107915849D01*
X86654979Y-107915847D01*
X86497784Y-107745087D01*
X86320180Y-107606853D01*
X86279368Y-107550143D01*
X86275693Y-107480370D01*
X86310324Y-107419687D01*
X86320181Y-107411146D01*
X86324407Y-107407857D01*
X86497784Y-107272913D01*
X86654979Y-107102153D01*
X86781924Y-106907849D01*
X86875157Y-106695300D01*
X86932134Y-106470305D01*
X86935701Y-106427256D01*
X86951300Y-106239006D01*
X86951300Y-106238993D01*
X86932135Y-106007702D01*
X86932132Y-106007686D01*
X86916941Y-105947702D01*
X86894823Y-105860361D01*
X86897447Y-105790544D01*
X86927345Y-105742243D01*
X89643821Y-103025768D01*
X89705142Y-102992285D01*
X89774834Y-102997269D01*
G37*
%TD.AperFunction*%
%TA.AperFunction,Conductor*%
G36*
X132962231Y-43965185D02*
G01*
X132982873Y-43981819D01*
X138129181Y-49128127D01*
X138162666Y-49189450D01*
X138165500Y-49215808D01*
X138165500Y-52515071D01*
X138184438Y-52610274D01*
X138184438Y-52610275D01*
X138190497Y-52640737D01*
X138190498Y-52640741D01*
X138190499Y-52640744D01*
X138239535Y-52759127D01*
X138310723Y-52865669D01*
X138310726Y-52865673D01*
X138310727Y-52865674D01*
X141811181Y-56366127D01*
X141844666Y-56427450D01*
X141847500Y-56453808D01*
X141847500Y-115049086D01*
X141827815Y-115116125D01*
X141811181Y-115136767D01*
X133675767Y-123272181D01*
X133614444Y-123305666D01*
X133588086Y-123308500D01*
X133391017Y-123308500D01*
X133323978Y-123288815D01*
X133287208Y-123252321D01*
X133184983Y-123095852D01*
X133184980Y-123095849D01*
X133184979Y-123095847D01*
X133027784Y-122925087D01*
X132850180Y-122786853D01*
X132809368Y-122730143D01*
X132805693Y-122660370D01*
X132840324Y-122599687D01*
X132850181Y-122591146D01*
X133027784Y-122452913D01*
X133184979Y-122282153D01*
X133311924Y-122087849D01*
X133405157Y-121875300D01*
X133462134Y-121650305D01*
X133476328Y-121479006D01*
X133481300Y-121419006D01*
X133481300Y-121418993D01*
X133462135Y-121187702D01*
X133462133Y-121187691D01*
X133405157Y-120962699D01*
X133311924Y-120750151D01*
X133184983Y-120555852D01*
X133184980Y-120555849D01*
X133184979Y-120555847D01*
X133027784Y-120385087D01*
X132850180Y-120246853D01*
X132809368Y-120190143D01*
X132805693Y-120120370D01*
X132840324Y-120059687D01*
X132850181Y-120051146D01*
X133027784Y-119912913D01*
X133184979Y-119742153D01*
X133311924Y-119547849D01*
X133405157Y-119335300D01*
X133462134Y-119110305D01*
X133476328Y-118939006D01*
X133481300Y-118879006D01*
X133481300Y-118878993D01*
X133462135Y-118647702D01*
X133462133Y-118647691D01*
X133405157Y-118422699D01*
X133311924Y-118210151D01*
X133184983Y-118015852D01*
X133184980Y-118015849D01*
X133184979Y-118015847D01*
X133027784Y-117845087D01*
X132850180Y-117706853D01*
X132809368Y-117650143D01*
X132805693Y-117580370D01*
X132840324Y-117519687D01*
X132850181Y-117511146D01*
X133027784Y-117372913D01*
X133184979Y-117202153D01*
X133311924Y-117007849D01*
X133405157Y-116795300D01*
X133462134Y-116570305D01*
X133476328Y-116399006D01*
X133481300Y-116339006D01*
X133481300Y-116338993D01*
X133462135Y-116107702D01*
X133462133Y-116107691D01*
X133405157Y-115882699D01*
X133311924Y-115670151D01*
X133184983Y-115475852D01*
X133184980Y-115475849D01*
X133184979Y-115475847D01*
X133027784Y-115305087D01*
X132850180Y-115166853D01*
X132809368Y-115110143D01*
X132805693Y-115040370D01*
X132840324Y-114979687D01*
X132850181Y-114971146D01*
X133027784Y-114832913D01*
X133184979Y-114662153D01*
X133311924Y-114467849D01*
X133405157Y-114255300D01*
X133462134Y-114030305D01*
X133476328Y-113859006D01*
X133481300Y-113799006D01*
X133481300Y-113798993D01*
X133462135Y-113567702D01*
X133462133Y-113567691D01*
X133405157Y-113342699D01*
X133311924Y-113130151D01*
X133184983Y-112935852D01*
X133184980Y-112935849D01*
X133184979Y-112935847D01*
X133027784Y-112765087D01*
X132850180Y-112626853D01*
X132809368Y-112570143D01*
X132805693Y-112500370D01*
X132840324Y-112439687D01*
X132850181Y-112431146D01*
X133027784Y-112292913D01*
X133184979Y-112122153D01*
X133311924Y-111927849D01*
X133405157Y-111715300D01*
X133462134Y-111490305D01*
X133476328Y-111319006D01*
X133481300Y-111259006D01*
X133481300Y-111258993D01*
X133462135Y-111027702D01*
X133462133Y-111027691D01*
X133405157Y-110802699D01*
X133311924Y-110590151D01*
X133184983Y-110395852D01*
X133184980Y-110395849D01*
X133184979Y-110395847D01*
X133027784Y-110225087D01*
X132850180Y-110086853D01*
X132809368Y-110030143D01*
X132805693Y-109960370D01*
X132840324Y-109899687D01*
X132850181Y-109891146D01*
X133027784Y-109752913D01*
X133184979Y-109582153D01*
X133311924Y-109387849D01*
X133405157Y-109175300D01*
X133462134Y-108950305D01*
X133476328Y-108779006D01*
X133481300Y-108719006D01*
X133481300Y-108718993D01*
X133462135Y-108487702D01*
X133462133Y-108487691D01*
X133405157Y-108262699D01*
X133311924Y-108050151D01*
X133184983Y-107855852D01*
X133184980Y-107855849D01*
X133184979Y-107855847D01*
X133027784Y-107685087D01*
X132850180Y-107546853D01*
X132809368Y-107490143D01*
X132805693Y-107420370D01*
X132840324Y-107359687D01*
X132850181Y-107351146D01*
X133027784Y-107212913D01*
X133184979Y-107042153D01*
X133311924Y-106847849D01*
X133405157Y-106635300D01*
X133462134Y-106410305D01*
X133476328Y-106239006D01*
X133481300Y-106179006D01*
X133481300Y-106178993D01*
X133462135Y-105947702D01*
X133462133Y-105947691D01*
X133405157Y-105722699D01*
X133311924Y-105510151D01*
X133184983Y-105315852D01*
X133184980Y-105315849D01*
X133184979Y-105315847D01*
X133027784Y-105145087D01*
X132850180Y-105006853D01*
X132809368Y-104950143D01*
X132805693Y-104880370D01*
X132840324Y-104819687D01*
X132850181Y-104811146D01*
X133027784Y-104672913D01*
X133184979Y-104502153D01*
X133311924Y-104307849D01*
X133405157Y-104095300D01*
X133462134Y-103870305D01*
X133470503Y-103769305D01*
X133481300Y-103639006D01*
X133481300Y-103638993D01*
X133462135Y-103407702D01*
X133462133Y-103407691D01*
X133405157Y-103182699D01*
X133311924Y-102970151D01*
X133184983Y-102775852D01*
X133184980Y-102775849D01*
X133184979Y-102775847D01*
X133027784Y-102605087D01*
X132850180Y-102466853D01*
X132809368Y-102410143D01*
X132805693Y-102340370D01*
X132840324Y-102279687D01*
X132850181Y-102271146D01*
X133027784Y-102132913D01*
X133184979Y-101962153D01*
X133311924Y-101767849D01*
X133405157Y-101555300D01*
X133462134Y-101330305D01*
X133463090Y-101318773D01*
X133481300Y-101099006D01*
X133481300Y-101098993D01*
X133462135Y-100867702D01*
X133462133Y-100867691D01*
X133405157Y-100642699D01*
X133311924Y-100430151D01*
X133184983Y-100235852D01*
X133184980Y-100235849D01*
X133184979Y-100235847D01*
X133027784Y-100065087D01*
X132850180Y-99926853D01*
X132809368Y-99870143D01*
X132805693Y-99800370D01*
X132840324Y-99739687D01*
X132850181Y-99731146D01*
X133027784Y-99592913D01*
X133184979Y-99422153D01*
X133311924Y-99227849D01*
X133405157Y-99015300D01*
X133462134Y-98790305D01*
X133463090Y-98778773D01*
X133481300Y-98559006D01*
X133481300Y-98558993D01*
X133462135Y-98327702D01*
X133462133Y-98327691D01*
X133405157Y-98102699D01*
X133311924Y-97890151D01*
X133184983Y-97695852D01*
X133184980Y-97695849D01*
X133184979Y-97695847D01*
X133027784Y-97525087D01*
X132850180Y-97386853D01*
X132809368Y-97330143D01*
X132805693Y-97260370D01*
X132840324Y-97199687D01*
X132850181Y-97191146D01*
X133027784Y-97052913D01*
X133184979Y-96882153D01*
X133311924Y-96687849D01*
X133405157Y-96475300D01*
X133462134Y-96250305D01*
X133476328Y-96079006D01*
X133481300Y-96019006D01*
X133481300Y-96018993D01*
X133462135Y-95787702D01*
X133462133Y-95787691D01*
X133405157Y-95562699D01*
X133311924Y-95350151D01*
X133184983Y-95155852D01*
X133184980Y-95155849D01*
X133184979Y-95155847D01*
X133027784Y-94985087D01*
X133027779Y-94985083D01*
X133027777Y-94985081D01*
X132844634Y-94842535D01*
X132844628Y-94842531D01*
X132640504Y-94732064D01*
X132640495Y-94732061D01*
X132420984Y-94656702D01*
X132249282Y-94628050D01*
X132192049Y-94618500D01*
X131959951Y-94618500D01*
X131914164Y-94626140D01*
X131731015Y-94656702D01*
X131511504Y-94732061D01*
X131511495Y-94732064D01*
X131307371Y-94842531D01*
X131307365Y-94842535D01*
X131124222Y-94985081D01*
X131124219Y-94985084D01*
X131124216Y-94985086D01*
X131124216Y-94985087D01*
X131068983Y-95045087D01*
X130967015Y-95155854D01*
X130956265Y-95172309D01*
X130903119Y-95217665D01*
X130833888Y-95227089D01*
X130770552Y-95197587D01*
X130764776Y-95192168D01*
X127532139Y-91959531D01*
X127498654Y-91898208D01*
X127496499Y-91884810D01*
X127483005Y-91756414D01*
X127454228Y-91667849D01*
X127424510Y-91576385D01*
X127329864Y-91412453D01*
X127203202Y-91271781D01*
X127203201Y-91271780D01*
X127050065Y-91160520D01*
X127050060Y-91160517D01*
X126877138Y-91083526D01*
X126877133Y-91083524D01*
X126731332Y-91052534D01*
X126691977Y-91044169D01*
X126691976Y-91044169D01*
X126668138Y-91044169D01*
X126601099Y-91024484D01*
X126580457Y-91007850D01*
X125405819Y-89833211D01*
X125372334Y-89771888D01*
X125369500Y-89745530D01*
X125369500Y-87502998D01*
X136875532Y-87502998D01*
X136875532Y-87503001D01*
X136895364Y-87729686D01*
X136895366Y-87729697D01*
X136954258Y-87949488D01*
X136954261Y-87949497D01*
X137050431Y-88155732D01*
X137050432Y-88155734D01*
X137180954Y-88342141D01*
X137341858Y-88503045D01*
X137341861Y-88503047D01*
X137528266Y-88633568D01*
X137734504Y-88729739D01*
X137954308Y-88788635D01*
X138116230Y-88802801D01*
X138180998Y-88808468D01*
X138181000Y-88808468D01*
X138181002Y-88808468D01*
X138237673Y-88803509D01*
X138407692Y-88788635D01*
X138627496Y-88729739D01*
X138833734Y-88633568D01*
X139020139Y-88503047D01*
X139181047Y-88342139D01*
X139311568Y-88155734D01*
X139407739Y-87949496D01*
X139466635Y-87729692D01*
X139486468Y-87503000D01*
X139466635Y-87276308D01*
X139407739Y-87056504D01*
X139311568Y-86850266D01*
X139181047Y-86663861D01*
X139181045Y-86663858D01*
X139020141Y-86502954D01*
X138833734Y-86372432D01*
X138833732Y-86372431D01*
X138627497Y-86276261D01*
X138627488Y-86276258D01*
X138407697Y-86217366D01*
X138407693Y-86217365D01*
X138407692Y-86217365D01*
X138407691Y-86217364D01*
X138407686Y-86217364D01*
X138181002Y-86197532D01*
X138180998Y-86197532D01*
X137954313Y-86217364D01*
X137954302Y-86217366D01*
X137734511Y-86276258D01*
X137734502Y-86276261D01*
X137528267Y-86372431D01*
X137528265Y-86372432D01*
X137341858Y-86502954D01*
X137180954Y-86663858D01*
X137050432Y-86850265D01*
X137050431Y-86850267D01*
X136954261Y-87056502D01*
X136954258Y-87056511D01*
X136895366Y-87276302D01*
X136895364Y-87276313D01*
X136875532Y-87502998D01*
X125369500Y-87502998D01*
X125369500Y-77155808D01*
X125389185Y-77088769D01*
X125405814Y-77068131D01*
X125542277Y-76931669D01*
X125613465Y-76825127D01*
X125662501Y-76706744D01*
X125671590Y-76661051D01*
X125687500Y-76581069D01*
X125687500Y-75981921D01*
X125707185Y-75914882D01*
X125719351Y-75898948D01*
X125720109Y-75898106D01*
X125769533Y-75843216D01*
X125864179Y-75679284D01*
X125922674Y-75499256D01*
X125942460Y-75311000D01*
X125922674Y-75122744D01*
X125864179Y-74942716D01*
X125769533Y-74778784D01*
X125642871Y-74638112D01*
X125566376Y-74582535D01*
X125489734Y-74526851D01*
X125489729Y-74526848D01*
X125316807Y-74449857D01*
X125316802Y-74449855D01*
X125171001Y-74418865D01*
X125131646Y-74410500D01*
X124985500Y-74410500D01*
X124918461Y-74390815D01*
X124872706Y-74338011D01*
X124861500Y-74286500D01*
X124861500Y-73054006D01*
X124881185Y-72986967D01*
X124933989Y-72941212D01*
X125003147Y-72931268D01*
X125066703Y-72960293D01*
X125073181Y-72966325D01*
X128363955Y-76257099D01*
X128449809Y-76342953D01*
X128485902Y-76379046D01*
X128629288Y-76474854D01*
X128629301Y-76474861D01*
X128777236Y-76536137D01*
X128777241Y-76536139D01*
X128788626Y-76540855D01*
X128957766Y-76574499D01*
X128957769Y-76574500D01*
X128957771Y-76574500D01*
X129130229Y-76574500D01*
X130923995Y-76574500D01*
X130991034Y-76594185D01*
X131015225Y-76614517D01*
X131058062Y-76661050D01*
X131100118Y-76706736D01*
X131124218Y-76732915D01*
X131124222Y-76732918D01*
X131307365Y-76875464D01*
X131307371Y-76875468D01*
X131307374Y-76875470D01*
X131511497Y-76985936D01*
X131625487Y-77025068D01*
X131731015Y-77061297D01*
X131731017Y-77061297D01*
X131731019Y-77061298D01*
X131959951Y-77099500D01*
X131959952Y-77099500D01*
X132192048Y-77099500D01*
X132192049Y-77099500D01*
X132420981Y-77061298D01*
X132640503Y-76985936D01*
X132844626Y-76875470D01*
X133027784Y-76732913D01*
X133184979Y-76562153D01*
X133311924Y-76367849D01*
X133405157Y-76155300D01*
X133462134Y-75930305D01*
X133463412Y-75914882D01*
X133481300Y-75699006D01*
X133481300Y-75698993D01*
X133462135Y-75467702D01*
X133462133Y-75467691D01*
X133405157Y-75242699D01*
X133311924Y-75030151D01*
X133184983Y-74835852D01*
X133184980Y-74835849D01*
X133184979Y-74835847D01*
X133027784Y-74665087D01*
X133027779Y-74665083D01*
X133027777Y-74665081D01*
X132844634Y-74522535D01*
X132844628Y-74522531D01*
X132640504Y-74412064D01*
X132640495Y-74412061D01*
X132420984Y-74336702D01*
X132249282Y-74308050D01*
X132192049Y-74298500D01*
X131959951Y-74298500D01*
X131914164Y-74306140D01*
X131731015Y-74336702D01*
X131511504Y-74412061D01*
X131511495Y-74412064D01*
X131307371Y-74522531D01*
X131307365Y-74522535D01*
X131124222Y-74665081D01*
X131124218Y-74665084D01*
X131015225Y-74783483D01*
X130955337Y-74819474D01*
X130923995Y-74823500D01*
X129458006Y-74823500D01*
X129390967Y-74803815D01*
X129370325Y-74787181D01*
X126846142Y-72262998D01*
X136875532Y-72262998D01*
X136875532Y-72263001D01*
X136895364Y-72489686D01*
X136895366Y-72489697D01*
X136954258Y-72709488D01*
X136954261Y-72709497D01*
X137050431Y-72915732D01*
X137050432Y-72915734D01*
X137180954Y-73102141D01*
X137341858Y-73263045D01*
X137341861Y-73263047D01*
X137528266Y-73393568D01*
X137586275Y-73420618D01*
X137638714Y-73466791D01*
X137657866Y-73533984D01*
X137637650Y-73600865D01*
X137586275Y-73645382D01*
X137528267Y-73672431D01*
X137528265Y-73672432D01*
X137341858Y-73802954D01*
X137180954Y-73963858D01*
X137050432Y-74150265D01*
X137050431Y-74150267D01*
X136954261Y-74356502D01*
X136954258Y-74356511D01*
X136895366Y-74576302D01*
X136895364Y-74576313D01*
X136875532Y-74802998D01*
X136875532Y-74803001D01*
X136895364Y-75029686D01*
X136895366Y-75029697D01*
X136954258Y-75249488D01*
X136954261Y-75249497D01*
X137050431Y-75455732D01*
X137050432Y-75455734D01*
X137180954Y-75642141D01*
X137341858Y-75803045D01*
X137341861Y-75803047D01*
X137528266Y-75933568D01*
X137586275Y-75960618D01*
X137638714Y-76006791D01*
X137657866Y-76073984D01*
X137637650Y-76140865D01*
X137586275Y-76185382D01*
X137528267Y-76212431D01*
X137528265Y-76212432D01*
X137341858Y-76342954D01*
X137180954Y-76503858D01*
X137050432Y-76690265D01*
X137050431Y-76690267D01*
X136954261Y-76896502D01*
X136954258Y-76896511D01*
X136895366Y-77116302D01*
X136895364Y-77116313D01*
X136875532Y-77342998D01*
X136875532Y-77343001D01*
X136895364Y-77569686D01*
X136895366Y-77569697D01*
X136954258Y-77789488D01*
X136954261Y-77789497D01*
X137050431Y-77995732D01*
X137050432Y-77995734D01*
X137180954Y-78182141D01*
X137341858Y-78343045D01*
X137388693Y-78375839D01*
X137528266Y-78473568D01*
X137586275Y-78500618D01*
X137638714Y-78546791D01*
X137657866Y-78613984D01*
X137637650Y-78680865D01*
X137586275Y-78725382D01*
X137528267Y-78752431D01*
X137528265Y-78752432D01*
X137341858Y-78882954D01*
X137180954Y-79043858D01*
X137050432Y-79230265D01*
X137050431Y-79230267D01*
X136954261Y-79436502D01*
X136954258Y-79436511D01*
X136895366Y-79656302D01*
X136895364Y-79656313D01*
X136875532Y-79882998D01*
X136875532Y-79883001D01*
X136895364Y-80109686D01*
X136895366Y-80109697D01*
X136954258Y-80329488D01*
X136954261Y-80329497D01*
X137050431Y-80535732D01*
X137050432Y-80535734D01*
X137180954Y-80722141D01*
X137341858Y-80883045D01*
X137341861Y-80883047D01*
X137528266Y-81013568D01*
X137586275Y-81040618D01*
X137638714Y-81086791D01*
X137657866Y-81153984D01*
X137637650Y-81220865D01*
X137586275Y-81265382D01*
X137528267Y-81292431D01*
X137528265Y-81292432D01*
X137341858Y-81422954D01*
X137180954Y-81583858D01*
X137050432Y-81770265D01*
X137050431Y-81770267D01*
X136954261Y-81976502D01*
X136954258Y-81976511D01*
X136895366Y-82196302D01*
X136895364Y-82196313D01*
X136875532Y-82422998D01*
X136875532Y-82423001D01*
X136895364Y-82649686D01*
X136895366Y-82649697D01*
X136954258Y-82869488D01*
X136954261Y-82869497D01*
X137050431Y-83075732D01*
X137050432Y-83075734D01*
X137180954Y-83262141D01*
X137341858Y-83423045D01*
X137341861Y-83423047D01*
X137528266Y-83553568D01*
X137734504Y-83649739D01*
X137954308Y-83708635D01*
X138116230Y-83722801D01*
X138180998Y-83728468D01*
X138181000Y-83728468D01*
X138181002Y-83728468D01*
X138237673Y-83723509D01*
X138407692Y-83708635D01*
X138627496Y-83649739D01*
X138833734Y-83553568D01*
X139020139Y-83423047D01*
X139181047Y-83262139D01*
X139311568Y-83075734D01*
X139407739Y-82869496D01*
X139466635Y-82649692D01*
X139486468Y-82423000D01*
X139466635Y-82196308D01*
X139407739Y-81976504D01*
X139311568Y-81770266D01*
X139181047Y-81583861D01*
X139181045Y-81583858D01*
X139020141Y-81422954D01*
X138833734Y-81292432D01*
X138833728Y-81292429D01*
X138775725Y-81265382D01*
X138723285Y-81219210D01*
X138704133Y-81152017D01*
X138724348Y-81085135D01*
X138775725Y-81040618D01*
X138833734Y-81013568D01*
X139020139Y-80883047D01*
X139181047Y-80722139D01*
X139311568Y-80535734D01*
X139407739Y-80329496D01*
X139466635Y-80109692D01*
X139486468Y-79883000D01*
X139466635Y-79656308D01*
X139407739Y-79436504D01*
X139311568Y-79230266D01*
X139181047Y-79043861D01*
X139181045Y-79043858D01*
X139020141Y-78882954D01*
X138833734Y-78752432D01*
X138833728Y-78752429D01*
X138775725Y-78725382D01*
X138723285Y-78679210D01*
X138704133Y-78612017D01*
X138724348Y-78545135D01*
X138775725Y-78500618D01*
X138833734Y-78473568D01*
X139020139Y-78343047D01*
X139181047Y-78182139D01*
X139311568Y-77995734D01*
X139407739Y-77789496D01*
X139466635Y-77569692D01*
X139486468Y-77343000D01*
X139466635Y-77116308D01*
X139407739Y-76896504D01*
X139311568Y-76690266D01*
X139206950Y-76540855D01*
X139181045Y-76503858D01*
X139020141Y-76342954D01*
X138833734Y-76212432D01*
X138833728Y-76212429D01*
X138806038Y-76199517D01*
X138775724Y-76185381D01*
X138723285Y-76139210D01*
X138704133Y-76072017D01*
X138724348Y-76005135D01*
X138775725Y-75960618D01*
X138833734Y-75933568D01*
X139020139Y-75803047D01*
X139181047Y-75642139D01*
X139311568Y-75455734D01*
X139407739Y-75249496D01*
X139466635Y-75029692D01*
X139483634Y-74835384D01*
X139486468Y-74803001D01*
X139486468Y-74802998D01*
X139474402Y-74665084D01*
X139466635Y-74576308D01*
X139407739Y-74356504D01*
X139311568Y-74150266D01*
X139181047Y-73963861D01*
X139181045Y-73963858D01*
X139020141Y-73802954D01*
X138833734Y-73672432D01*
X138833728Y-73672429D01*
X138775725Y-73645382D01*
X138723285Y-73599210D01*
X138704133Y-73532017D01*
X138724348Y-73465135D01*
X138775725Y-73420618D01*
X138833734Y-73393568D01*
X139020139Y-73263047D01*
X139181047Y-73102139D01*
X139311568Y-72915734D01*
X139407739Y-72709496D01*
X139466635Y-72489692D01*
X139486468Y-72263000D01*
X139466635Y-72036308D01*
X139407739Y-71816504D01*
X139311568Y-71610266D01*
X139181047Y-71423861D01*
X139181045Y-71423858D01*
X139020141Y-71262954D01*
X138833734Y-71132432D01*
X138833732Y-71132431D01*
X138627497Y-71036261D01*
X138627488Y-71036258D01*
X138407697Y-70977366D01*
X138407693Y-70977365D01*
X138407692Y-70977365D01*
X138407691Y-70977364D01*
X138407686Y-70977364D01*
X138181002Y-70957532D01*
X138180998Y-70957532D01*
X137954313Y-70977364D01*
X137954302Y-70977366D01*
X137734511Y-71036258D01*
X137734502Y-71036261D01*
X137528267Y-71132431D01*
X137528265Y-71132432D01*
X137341858Y-71262954D01*
X137180954Y-71423858D01*
X137050432Y-71610265D01*
X137050431Y-71610267D01*
X136954261Y-71816502D01*
X136954258Y-71816511D01*
X136895366Y-72036302D01*
X136895364Y-72036313D01*
X136875532Y-72262998D01*
X126846142Y-72262998D01*
X126646819Y-72063675D01*
X126613334Y-72002352D01*
X126610500Y-71975994D01*
X126610500Y-69629005D01*
X126630185Y-69561966D01*
X126646814Y-69541329D01*
X133710579Y-62477563D01*
X133739804Y-62455889D01*
X133786538Y-62430910D01*
X133938883Y-62305883D01*
X134063910Y-62153538D01*
X134156814Y-61979727D01*
X134214024Y-61791132D01*
X134233341Y-61595000D01*
X134214024Y-61398868D01*
X134156814Y-61210273D01*
X134118142Y-61137922D01*
X134103500Y-61079469D01*
X134103500Y-60840530D01*
X134118142Y-60782076D01*
X134156812Y-60709730D01*
X134156814Y-60709727D01*
X134214024Y-60521132D01*
X134233341Y-60325000D01*
X134214024Y-60128868D01*
X134156814Y-59940273D01*
X134118142Y-59867922D01*
X134103500Y-59809469D01*
X134103500Y-59570530D01*
X134118142Y-59512076D01*
X134156812Y-59439730D01*
X134156814Y-59439727D01*
X134214024Y-59251132D01*
X134233341Y-59055000D01*
X134214024Y-58858868D01*
X134156814Y-58670273D01*
X134156811Y-58670269D01*
X134156811Y-58670266D01*
X134063913Y-58496467D01*
X134063909Y-58496460D01*
X133938883Y-58344116D01*
X133786539Y-58219090D01*
X133786532Y-58219086D01*
X133612733Y-58126188D01*
X133612727Y-58126186D01*
X133424132Y-58068976D01*
X133424129Y-58068975D01*
X133228000Y-58049659D01*
X133031870Y-58068975D01*
X132843266Y-58126188D01*
X132669467Y-58219086D01*
X132669460Y-58219090D01*
X132517116Y-58344116D01*
X132392090Y-58496460D01*
X132392086Y-58496467D01*
X132299188Y-58670266D01*
X132241975Y-58858870D01*
X132222659Y-59055000D01*
X132241975Y-59251129D01*
X132299187Y-59439730D01*
X132337858Y-59512076D01*
X132352500Y-59570530D01*
X132352500Y-59809469D01*
X132337858Y-59867922D01*
X132299188Y-59940267D01*
X132241975Y-60128870D01*
X132222659Y-60325000D01*
X132241975Y-60521129D01*
X132299187Y-60709730D01*
X132337858Y-60782076D01*
X132352500Y-60840530D01*
X132352500Y-61079469D01*
X132337858Y-61137922D01*
X132299188Y-61210267D01*
X132241975Y-61398871D01*
X132238566Y-61433485D01*
X132212404Y-61498271D01*
X132202844Y-61509010D01*
X125822681Y-67889174D01*
X125761358Y-67922659D01*
X125691666Y-67917675D01*
X125647319Y-67889174D01*
X120705102Y-62946957D01*
X120705098Y-62946954D01*
X120561711Y-62851145D01*
X120561698Y-62851138D01*
X120402378Y-62785146D01*
X120402366Y-62785143D01*
X120233232Y-62751500D01*
X120233229Y-62751500D01*
X109766006Y-62751500D01*
X109698967Y-62731815D01*
X109678325Y-62715181D01*
X106724819Y-59761675D01*
X106691334Y-59700352D01*
X106688500Y-59673994D01*
X106688500Y-54817337D01*
X106708185Y-54750298D01*
X106724814Y-54729660D01*
X106792598Y-54661877D01*
X106811579Y-54634768D01*
X106866153Y-54591144D01*
X106888955Y-54584275D01*
X106927253Y-54576658D01*
X107063835Y-54520084D01*
X107119876Y-54482639D01*
X107186756Y-54437952D01*
X107864162Y-53760544D01*
X107925483Y-53727061D01*
X107995174Y-53732045D01*
X108051108Y-53773916D01*
X108075525Y-53839381D01*
X108075447Y-53849586D01*
X108075723Y-53849586D01*
X108075723Y-53854997D01*
X108075723Y-53855000D01*
X108090314Y-54021786D01*
X108094793Y-54072975D01*
X108094793Y-54072979D01*
X108151422Y-54284322D01*
X108151424Y-54284326D01*
X108151425Y-54284330D01*
X108179875Y-54345341D01*
X108243897Y-54482638D01*
X108243898Y-54482639D01*
X108369402Y-54661877D01*
X108524123Y-54816598D01*
X108703361Y-54942102D01*
X108901670Y-55034575D01*
X109113023Y-55091207D01*
X109295926Y-55107208D01*
X109330998Y-55110277D01*
X109331000Y-55110277D01*
X109331002Y-55110277D01*
X109359254Y-55107805D01*
X109548977Y-55091207D01*
X109760330Y-55034575D01*
X109958639Y-54942102D01*
X110137877Y-54816598D01*
X110292598Y-54661877D01*
X110418102Y-54482639D01*
X110468618Y-54374306D01*
X110514790Y-54321867D01*
X110581984Y-54302715D01*
X110648865Y-54322931D01*
X110693381Y-54374306D01*
X110743898Y-54482639D01*
X110869402Y-54661877D01*
X111024123Y-54816598D01*
X111203361Y-54942102D01*
X111401670Y-55034575D01*
X111613023Y-55091207D01*
X111795926Y-55107208D01*
X111830998Y-55110277D01*
X111831000Y-55110277D01*
X111831002Y-55110277D01*
X111859254Y-55107805D01*
X112048977Y-55091207D01*
X112260330Y-55034575D01*
X112458639Y-54942102D01*
X112637877Y-54816598D01*
X112792598Y-54661877D01*
X112918102Y-54482639D01*
X112968618Y-54374306D01*
X113014790Y-54321867D01*
X113081984Y-54302715D01*
X113148865Y-54322931D01*
X113193381Y-54374306D01*
X113243898Y-54482639D01*
X113369402Y-54661877D01*
X113524123Y-54816598D01*
X113703361Y-54942102D01*
X113901670Y-55034575D01*
X114113023Y-55091207D01*
X114295926Y-55107208D01*
X114330998Y-55110277D01*
X114331000Y-55110277D01*
X114331002Y-55110277D01*
X114359254Y-55107805D01*
X114548977Y-55091207D01*
X114760330Y-55034575D01*
X114958639Y-54942102D01*
X115137877Y-54816598D01*
X115292598Y-54661877D01*
X115418102Y-54482639D01*
X115468618Y-54374306D01*
X115514790Y-54321867D01*
X115581984Y-54302715D01*
X115648865Y-54322931D01*
X115693381Y-54374306D01*
X115743898Y-54482639D01*
X115869402Y-54661877D01*
X116024123Y-54816598D01*
X116203361Y-54942102D01*
X116401670Y-55034575D01*
X116613023Y-55091207D01*
X116795926Y-55107208D01*
X116830998Y-55110277D01*
X116831000Y-55110277D01*
X116831002Y-55110277D01*
X116918190Y-55102649D01*
X117048977Y-55091207D01*
X117131409Y-55069119D01*
X117201255Y-55070782D01*
X117259118Y-55109944D01*
X117286623Y-55174172D01*
X117287500Y-55188894D01*
X117287500Y-57423608D01*
X117267815Y-57490647D01*
X117255656Y-57506574D01*
X117255468Y-57506782D01*
X117255464Y-57506787D01*
X117160821Y-57670715D01*
X117160818Y-57670722D01*
X117102327Y-57850740D01*
X117102326Y-57850744D01*
X117082540Y-58039000D01*
X117102326Y-58227256D01*
X117102327Y-58227259D01*
X117160818Y-58407277D01*
X117160821Y-58407284D01*
X117255467Y-58571216D01*
X117344659Y-58670273D01*
X117382129Y-58711888D01*
X117535265Y-58823148D01*
X117535270Y-58823151D01*
X117708192Y-58900142D01*
X117708197Y-58900144D01*
X117893354Y-58939500D01*
X117893355Y-58939500D01*
X118082644Y-58939500D01*
X118082646Y-58939500D01*
X118267803Y-58900144D01*
X118440730Y-58823151D01*
X118593871Y-58711888D01*
X118720533Y-58571216D01*
X118815179Y-58407284D01*
X118873674Y-58227256D01*
X118893460Y-58039000D01*
X118873674Y-57850744D01*
X118815179Y-57670716D01*
X118720533Y-57506784D01*
X118720344Y-57506574D01*
X118720273Y-57506427D01*
X118716714Y-57501528D01*
X118717610Y-57500876D01*
X118690119Y-57443580D01*
X118688500Y-57423608D01*
X118688500Y-55129813D01*
X118708185Y-55062774D01*
X118760989Y-55017019D01*
X118830147Y-55007075D01*
X118864903Y-55017430D01*
X118901670Y-55034575D01*
X119113023Y-55091207D01*
X119295926Y-55107208D01*
X119330998Y-55110277D01*
X119331000Y-55110277D01*
X119331002Y-55110277D01*
X119359254Y-55107805D01*
X119548977Y-55091207D01*
X119760330Y-55034575D01*
X119958639Y-54942102D01*
X120137877Y-54816598D01*
X120292598Y-54661877D01*
X120418102Y-54482639D01*
X120468618Y-54374306D01*
X120514790Y-54321867D01*
X120581984Y-54302715D01*
X120648865Y-54322931D01*
X120693381Y-54374306D01*
X120743898Y-54482639D01*
X120869402Y-54661877D01*
X121024123Y-54816598D01*
X121203361Y-54942102D01*
X121401670Y-55034575D01*
X121613023Y-55091207D01*
X121795926Y-55107208D01*
X121830998Y-55110277D01*
X121831000Y-55110277D01*
X121831002Y-55110277D01*
X121859254Y-55107805D01*
X122048977Y-55091207D01*
X122260330Y-55034575D01*
X122458639Y-54942102D01*
X122637877Y-54816598D01*
X122792598Y-54661877D01*
X122918102Y-54482639D01*
X122968618Y-54374306D01*
X123014790Y-54321867D01*
X123081984Y-54302715D01*
X123148865Y-54322931D01*
X123193381Y-54374306D01*
X123243898Y-54482639D01*
X123369402Y-54661877D01*
X123524123Y-54816598D01*
X123703361Y-54942102D01*
X123901670Y-55034575D01*
X124113023Y-55091207D01*
X124295926Y-55107208D01*
X124330998Y-55110277D01*
X124331000Y-55110277D01*
X124331002Y-55110277D01*
X124359254Y-55107805D01*
X124548977Y-55091207D01*
X124760330Y-55034575D01*
X124958639Y-54942102D01*
X125137877Y-54816598D01*
X125292598Y-54661877D01*
X125418102Y-54482639D01*
X125468618Y-54374306D01*
X125514790Y-54321867D01*
X125581984Y-54302715D01*
X125648865Y-54322931D01*
X125693381Y-54374306D01*
X125743898Y-54482639D01*
X125869402Y-54661877D01*
X126024123Y-54816598D01*
X126203361Y-54942102D01*
X126401670Y-55034575D01*
X126613023Y-55091207D01*
X126795926Y-55107208D01*
X126830998Y-55110277D01*
X126831000Y-55110277D01*
X126831002Y-55110277D01*
X126859254Y-55107805D01*
X127048977Y-55091207D01*
X127260330Y-55034575D01*
X127458639Y-54942102D01*
X127637877Y-54816598D01*
X127792598Y-54661877D01*
X127918102Y-54482639D01*
X127968618Y-54374306D01*
X128014790Y-54321867D01*
X128081984Y-54302715D01*
X128148865Y-54322931D01*
X128193381Y-54374306D01*
X128243898Y-54482639D01*
X128369402Y-54661877D01*
X128524123Y-54816598D01*
X128703361Y-54942102D01*
X128901670Y-55034575D01*
X129113023Y-55091207D01*
X129295926Y-55107208D01*
X129330998Y-55110277D01*
X129331000Y-55110277D01*
X129331002Y-55110277D01*
X129359254Y-55107805D01*
X129548977Y-55091207D01*
X129760330Y-55034575D01*
X129958639Y-54942102D01*
X130137877Y-54816598D01*
X130292598Y-54661877D01*
X130418102Y-54482639D01*
X130468618Y-54374306D01*
X130514790Y-54321867D01*
X130581984Y-54302715D01*
X130648865Y-54322931D01*
X130693381Y-54374306D01*
X130743898Y-54482639D01*
X130869402Y-54661877D01*
X131024123Y-54816598D01*
X131203361Y-54942102D01*
X131401670Y-55034575D01*
X131613023Y-55091207D01*
X131795926Y-55107208D01*
X131830998Y-55110277D01*
X131831000Y-55110277D01*
X131831002Y-55110277D01*
X131859254Y-55107805D01*
X132048977Y-55091207D01*
X132260330Y-55034575D01*
X132458639Y-54942102D01*
X132583042Y-54854994D01*
X137178498Y-54854994D01*
X137178498Y-54855005D01*
X137198420Y-55063639D01*
X137198423Y-55063656D01*
X137257470Y-55264755D01*
X137353518Y-55451062D01*
X137483079Y-55615810D01*
X137483083Y-55615814D01*
X137641481Y-55753068D01*
X137641492Y-55753076D01*
X137823002Y-55857870D01*
X137823004Y-55857871D01*
X138021075Y-55926424D01*
X138228541Y-55956253D01*
X138437902Y-55946280D01*
X138641593Y-55896865D01*
X138832251Y-55809795D01*
X139002985Y-55688215D01*
X139147625Y-55536522D01*
X139260943Y-55360196D01*
X139338843Y-55165611D01*
X139378510Y-54959799D01*
X139381000Y-54855000D01*
X139378510Y-54750201D01*
X139338843Y-54544389D01*
X139260943Y-54349804D01*
X139147625Y-54173478D01*
X139051799Y-54072979D01*
X139002987Y-54021786D01*
X139002984Y-54021784D01*
X138832253Y-53900206D01*
X138828603Y-53898539D01*
X138641593Y-53813135D01*
X138437902Y-53763720D01*
X138248489Y-53754697D01*
X138228543Y-53753747D01*
X138228542Y-53753747D01*
X138228541Y-53753747D01*
X138021075Y-53783576D01*
X138021074Y-53783576D01*
X138021069Y-53783577D01*
X137823002Y-53852129D01*
X137641492Y-53956923D01*
X137641481Y-53956931D01*
X137483083Y-54094185D01*
X137483079Y-54094189D01*
X137353518Y-54258937D01*
X137257470Y-54445244D01*
X137198423Y-54646343D01*
X137198420Y-54646360D01*
X137178498Y-54854994D01*
X132583042Y-54854994D01*
X132637877Y-54816598D01*
X132792598Y-54661877D01*
X132918102Y-54482639D01*
X133010575Y-54284330D01*
X133067207Y-54072977D01*
X133086277Y-53855000D01*
X133085803Y-53849586D01*
X133078291Y-53763720D01*
X133067207Y-53637023D01*
X133010575Y-53425670D01*
X132918102Y-53227362D01*
X132918100Y-53227359D01*
X132918099Y-53227357D01*
X132792599Y-53048124D01*
X132721141Y-52976666D01*
X132637877Y-52893402D01*
X132458639Y-52767898D01*
X132447290Y-52762606D01*
X132350307Y-52717382D01*
X132297867Y-52671210D01*
X132278715Y-52604016D01*
X132298931Y-52537135D01*
X132350307Y-52492618D01*
X132458639Y-52442102D01*
X132637877Y-52316598D01*
X132792598Y-52161877D01*
X132918102Y-51982639D01*
X133010575Y-51784330D01*
X133026436Y-51725135D01*
X133062801Y-51665475D01*
X133125647Y-51634946D01*
X133195023Y-51643240D01*
X133233889Y-51669546D01*
X133769429Y-52205085D01*
X134331792Y-52767448D01*
X134365277Y-52828771D01*
X134360293Y-52898463D01*
X134353470Y-52913580D01*
X134331188Y-52955268D01*
X134331187Y-52955270D01*
X134331186Y-52955273D01*
X134303021Y-53048121D01*
X134273975Y-53143870D01*
X134254659Y-53340000D01*
X134273975Y-53536129D01*
X134331188Y-53724733D01*
X134424086Y-53898532D01*
X134424090Y-53898539D01*
X134549116Y-54050883D01*
X134701460Y-54175909D01*
X134701467Y-54175913D01*
X134875266Y-54268811D01*
X134875269Y-54268811D01*
X134875273Y-54268814D01*
X135063868Y-54326024D01*
X135260000Y-54345341D01*
X135456132Y-54326024D01*
X135644727Y-54268814D01*
X135818538Y-54175910D01*
X135970883Y-54050883D01*
X136095910Y-53898538D01*
X136172795Y-53754697D01*
X136188811Y-53724733D01*
X136188811Y-53724732D01*
X136188814Y-53724727D01*
X136246024Y-53536132D01*
X136265341Y-53340000D01*
X136246024Y-53143868D01*
X136188814Y-52955273D01*
X136188811Y-52955269D01*
X136188811Y-52955266D01*
X136095913Y-52781467D01*
X136095909Y-52781460D01*
X135975073Y-52634222D01*
X135949309Y-52579750D01*
X135933580Y-52500672D01*
X135900588Y-52421021D01*
X135880778Y-52373195D01*
X135880771Y-52373182D01*
X135804115Y-52258459D01*
X135804114Y-52258458D01*
X135706542Y-52160886D01*
X135118633Y-51572977D01*
X133166546Y-49620888D01*
X133166545Y-49620887D01*
X133051809Y-49544223D01*
X133035349Y-49537406D01*
X132980946Y-49493565D01*
X132958881Y-49427271D01*
X132970418Y-49370445D01*
X133010575Y-49284330D01*
X133067207Y-49072977D01*
X133086277Y-48855000D01*
X133067207Y-48637023D01*
X133010575Y-48425670D01*
X132918102Y-48227362D01*
X132918100Y-48227359D01*
X132918099Y-48227357D01*
X132792599Y-48048124D01*
X132792596Y-48048121D01*
X132637877Y-47893402D01*
X132458639Y-47767898D01*
X132350306Y-47717381D01*
X132297867Y-47671210D01*
X132278715Y-47604016D01*
X132298931Y-47537135D01*
X132350307Y-47492618D01*
X132458639Y-47442102D01*
X132637877Y-47316598D01*
X132792598Y-47161877D01*
X132918102Y-46982639D01*
X133010575Y-46784330D01*
X133067207Y-46572977D01*
X133086277Y-46355000D01*
X133067207Y-46137023D01*
X133010575Y-45925670D01*
X132918102Y-45727362D01*
X132918100Y-45727359D01*
X132918099Y-45727357D01*
X132792599Y-45548124D01*
X132762456Y-45517981D01*
X132637877Y-45393402D01*
X132486054Y-45287094D01*
X132458638Y-45267897D01*
X132295834Y-45191981D01*
X132260330Y-45175425D01*
X132260326Y-45175424D01*
X132260322Y-45175422D01*
X132048977Y-45118793D01*
X131831002Y-45099723D01*
X131830998Y-45099723D01*
X131685682Y-45112436D01*
X131613023Y-45118793D01*
X131613020Y-45118793D01*
X131401677Y-45175422D01*
X131401668Y-45175426D01*
X131203361Y-45267898D01*
X131203357Y-45267900D01*
X131024121Y-45393402D01*
X130869402Y-45548121D01*
X130743900Y-45727357D01*
X130743898Y-45727362D01*
X130693382Y-45835693D01*
X130647209Y-45888132D01*
X130580016Y-45907284D01*
X130513135Y-45887068D01*
X130468618Y-45835693D01*
X130461156Y-45819692D01*
X130418102Y-45727362D01*
X130418099Y-45727358D01*
X130418099Y-45727357D01*
X130292599Y-45548124D01*
X130262456Y-45517981D01*
X130137877Y-45393402D01*
X129986054Y-45287094D01*
X129958638Y-45267897D01*
X129795834Y-45191981D01*
X129760330Y-45175425D01*
X129760326Y-45175424D01*
X129760322Y-45175422D01*
X129548977Y-45118793D01*
X129331002Y-45099723D01*
X129330998Y-45099723D01*
X129185682Y-45112436D01*
X129113023Y-45118793D01*
X129113020Y-45118793D01*
X128901677Y-45175422D01*
X128901668Y-45175426D01*
X128703361Y-45267898D01*
X128703357Y-45267900D01*
X128524121Y-45393402D01*
X128369402Y-45548121D01*
X128243900Y-45727357D01*
X128243898Y-45727362D01*
X128193382Y-45835693D01*
X128147209Y-45888132D01*
X128080016Y-45907284D01*
X128013135Y-45887068D01*
X127968618Y-45835693D01*
X127961156Y-45819692D01*
X127918102Y-45727362D01*
X127918099Y-45727358D01*
X127918099Y-45727357D01*
X127792599Y-45548124D01*
X127762456Y-45517981D01*
X127637877Y-45393402D01*
X127486054Y-45287094D01*
X127458638Y-45267897D01*
X127295834Y-45191981D01*
X127260330Y-45175425D01*
X127260326Y-45175424D01*
X127260322Y-45175422D01*
X127048977Y-45118793D01*
X126831002Y-45099723D01*
X126830998Y-45099723D01*
X126685682Y-45112436D01*
X126613023Y-45118793D01*
X126613020Y-45118793D01*
X126401677Y-45175422D01*
X126401668Y-45175426D01*
X126203361Y-45267898D01*
X126203357Y-45267900D01*
X126024121Y-45393402D01*
X125869402Y-45548121D01*
X125743900Y-45727357D01*
X125743898Y-45727362D01*
X125693382Y-45835693D01*
X125647209Y-45888132D01*
X125580016Y-45907284D01*
X125513135Y-45887068D01*
X125468618Y-45835693D01*
X125461156Y-45819692D01*
X125418102Y-45727362D01*
X125418099Y-45727358D01*
X125418099Y-45727357D01*
X125292599Y-45548124D01*
X125262456Y-45517981D01*
X125137877Y-45393402D01*
X124986054Y-45287094D01*
X124958638Y-45267897D01*
X124795834Y-45191981D01*
X124760330Y-45175425D01*
X124760326Y-45175424D01*
X124760322Y-45175422D01*
X124548977Y-45118793D01*
X124331002Y-45099723D01*
X124330998Y-45099723D01*
X124185682Y-45112436D01*
X124113023Y-45118793D01*
X124113020Y-45118793D01*
X123901677Y-45175422D01*
X123901668Y-45175426D01*
X123703361Y-45267898D01*
X123703357Y-45267900D01*
X123524121Y-45393402D01*
X123369402Y-45548121D01*
X123243900Y-45727357D01*
X123243898Y-45727362D01*
X123193382Y-45835693D01*
X123147209Y-45888132D01*
X123080016Y-45907284D01*
X123013135Y-45887068D01*
X122968618Y-45835693D01*
X122961156Y-45819692D01*
X122918102Y-45727362D01*
X122918099Y-45727358D01*
X122918099Y-45727357D01*
X122792599Y-45548124D01*
X122762456Y-45517981D01*
X122637877Y-45393402D01*
X122486054Y-45287094D01*
X122458638Y-45267897D01*
X122295834Y-45191981D01*
X122260330Y-45175425D01*
X122260326Y-45175424D01*
X122260322Y-45175422D01*
X122048977Y-45118793D01*
X121831002Y-45099723D01*
X121830998Y-45099723D01*
X121685682Y-45112436D01*
X121613023Y-45118793D01*
X121613020Y-45118793D01*
X121401677Y-45175422D01*
X121401668Y-45175426D01*
X121203361Y-45267898D01*
X121203357Y-45267900D01*
X121024121Y-45393402D01*
X120869402Y-45548121D01*
X120743900Y-45727357D01*
X120743898Y-45727362D01*
X120693382Y-45835693D01*
X120647209Y-45888132D01*
X120580016Y-45907284D01*
X120513135Y-45887068D01*
X120468618Y-45835693D01*
X120461156Y-45819692D01*
X120418102Y-45727362D01*
X120418099Y-45727358D01*
X120418099Y-45727357D01*
X120292599Y-45548124D01*
X120262456Y-45517981D01*
X120137877Y-45393402D01*
X120055644Y-45335822D01*
X120012021Y-45281247D01*
X120004827Y-45211749D01*
X120036350Y-45149394D01*
X120061669Y-45128712D01*
X120083350Y-45115340D01*
X120205340Y-44993350D01*
X120295908Y-44846516D01*
X120350174Y-44682753D01*
X120360500Y-44581677D01*
X120360499Y-44069499D01*
X120380183Y-44002461D01*
X120432987Y-43956706D01*
X120484499Y-43945500D01*
X132895192Y-43945500D01*
X132962231Y-43965185D01*
G37*
%TD.AperFunction*%
%TA.AperFunction,Conductor*%
G36*
X152674677Y-38754685D02*
G01*
X152695319Y-38771319D01*
X156178681Y-42254681D01*
X156212166Y-42316004D01*
X156215000Y-42342362D01*
X156215000Y-140283638D01*
X156195315Y-140350677D01*
X156178681Y-140371319D01*
X152695319Y-143854681D01*
X152633996Y-143888166D01*
X152607638Y-143891000D01*
X81082362Y-143891000D01*
X81015323Y-143871315D01*
X80994681Y-143854681D01*
X77511319Y-140371319D01*
X77477834Y-140309996D01*
X77475000Y-140283638D01*
X77475000Y-75758993D01*
X84140700Y-75758993D01*
X84140700Y-75759006D01*
X84159864Y-75990297D01*
X84159866Y-75990308D01*
X84216842Y-76215300D01*
X84310075Y-76427848D01*
X84437016Y-76622147D01*
X84437019Y-76622151D01*
X84437021Y-76622153D01*
X84594216Y-76792913D01*
X84594219Y-76792915D01*
X84594222Y-76792918D01*
X84771818Y-76931147D01*
X84812631Y-76987857D01*
X84816306Y-77057630D01*
X84781674Y-77118313D01*
X84771818Y-77126853D01*
X84594222Y-77265081D01*
X84594219Y-77265084D01*
X84437016Y-77435852D01*
X84310075Y-77630151D01*
X84216842Y-77842699D01*
X84159866Y-78067691D01*
X84159864Y-78067702D01*
X84140700Y-78298993D01*
X84140700Y-78299006D01*
X84159864Y-78530297D01*
X84159866Y-78530308D01*
X84216842Y-78755300D01*
X84310075Y-78967848D01*
X84437016Y-79162147D01*
X84437019Y-79162151D01*
X84437021Y-79162153D01*
X84594216Y-79332913D01*
X84594219Y-79332915D01*
X84594222Y-79332918D01*
X84771818Y-79471147D01*
X84812631Y-79527857D01*
X84816306Y-79597630D01*
X84781674Y-79658313D01*
X84771818Y-79666853D01*
X84594222Y-79805081D01*
X84594219Y-79805084D01*
X84594216Y-79805086D01*
X84594216Y-79805087D01*
X84548454Y-79854798D01*
X84437016Y-79975852D01*
X84310077Y-80170149D01*
X84216842Y-80382699D01*
X84159866Y-80607691D01*
X84159864Y-80607702D01*
X84140700Y-80838993D01*
X84140700Y-80839006D01*
X84159864Y-81070297D01*
X84159866Y-81070308D01*
X84216842Y-81295300D01*
X84310075Y-81507848D01*
X84437016Y-81702147D01*
X84437019Y-81702151D01*
X84437021Y-81702153D01*
X84594216Y-81872913D01*
X84594219Y-81872915D01*
X84594222Y-81872918D01*
X84771818Y-82011147D01*
X84812631Y-82067857D01*
X84816306Y-82137630D01*
X84781674Y-82198313D01*
X84771818Y-82206853D01*
X84594222Y-82345081D01*
X84594219Y-82345084D01*
X84437016Y-82515852D01*
X84310075Y-82710151D01*
X84216842Y-82922699D01*
X84159866Y-83147691D01*
X84159864Y-83147702D01*
X84140700Y-83378993D01*
X84140700Y-83379006D01*
X84159864Y-83610297D01*
X84159866Y-83610308D01*
X84216842Y-83835300D01*
X84310075Y-84047848D01*
X84437016Y-84242147D01*
X84437019Y-84242151D01*
X84437021Y-84242153D01*
X84594216Y-84412913D01*
X84594219Y-84412915D01*
X84594222Y-84412918D01*
X84771818Y-84551147D01*
X84812631Y-84607857D01*
X84816306Y-84677630D01*
X84781674Y-84738313D01*
X84771818Y-84746853D01*
X84594222Y-84885081D01*
X84594219Y-84885084D01*
X84437016Y-85055852D01*
X84310075Y-85250151D01*
X84216842Y-85462699D01*
X84159866Y-85687691D01*
X84159864Y-85687702D01*
X84140700Y-85918993D01*
X84140700Y-85919006D01*
X84159864Y-86150297D01*
X84159866Y-86150308D01*
X84216842Y-86375300D01*
X84310075Y-86587848D01*
X84437016Y-86782147D01*
X84437019Y-86782151D01*
X84437021Y-86782153D01*
X84594216Y-86952913D01*
X84594219Y-86952915D01*
X84594222Y-86952918D01*
X84771818Y-87091147D01*
X84812631Y-87147857D01*
X84816306Y-87217630D01*
X84781674Y-87278313D01*
X84771818Y-87286853D01*
X84594222Y-87425081D01*
X84594219Y-87425084D01*
X84437016Y-87595852D01*
X84310075Y-87790151D01*
X84216842Y-88002699D01*
X84159866Y-88227691D01*
X84159864Y-88227702D01*
X84140700Y-88458993D01*
X84140700Y-88459006D01*
X84159864Y-88690297D01*
X84159866Y-88690308D01*
X84216842Y-88915300D01*
X84310075Y-89127848D01*
X84437016Y-89322147D01*
X84437019Y-89322151D01*
X84437021Y-89322153D01*
X84594216Y-89492913D01*
X84594219Y-89492915D01*
X84594222Y-89492918D01*
X84771818Y-89631147D01*
X84812631Y-89687857D01*
X84816306Y-89757630D01*
X84781674Y-89818313D01*
X84771818Y-89826853D01*
X84594222Y-89965081D01*
X84594219Y-89965084D01*
X84437016Y-90135852D01*
X84310075Y-90330151D01*
X84216842Y-90542699D01*
X84159866Y-90767691D01*
X84159864Y-90767702D01*
X84140700Y-90998993D01*
X84140700Y-90999006D01*
X84159864Y-91230297D01*
X84159866Y-91230308D01*
X84216842Y-91455300D01*
X84310075Y-91667848D01*
X84437016Y-91862147D01*
X84437019Y-91862151D01*
X84437021Y-91862153D01*
X84594216Y-92032913D01*
X84594219Y-92032915D01*
X84594222Y-92032918D01*
X84771818Y-92171147D01*
X84812631Y-92227857D01*
X84816306Y-92297630D01*
X84781674Y-92358313D01*
X84771818Y-92366853D01*
X84594222Y-92505081D01*
X84594219Y-92505084D01*
X84437016Y-92675852D01*
X84310075Y-92870151D01*
X84216842Y-93082699D01*
X84159866Y-93307691D01*
X84159864Y-93307702D01*
X84140700Y-93538993D01*
X84140700Y-93539006D01*
X84159864Y-93770297D01*
X84159866Y-93770308D01*
X84216842Y-93995300D01*
X84310075Y-94207848D01*
X84437016Y-94402147D01*
X84437019Y-94402151D01*
X84437021Y-94402153D01*
X84594216Y-94572913D01*
X84594219Y-94572915D01*
X84594222Y-94572918D01*
X84771818Y-94711147D01*
X84812631Y-94767857D01*
X84816306Y-94837630D01*
X84781674Y-94898313D01*
X84771818Y-94906853D01*
X84594222Y-95045081D01*
X84594219Y-95045084D01*
X84437016Y-95215852D01*
X84310075Y-95410151D01*
X84216842Y-95622699D01*
X84159866Y-95847691D01*
X84159864Y-95847702D01*
X84140700Y-96078993D01*
X84140700Y-96079006D01*
X84159864Y-96310297D01*
X84159866Y-96310308D01*
X84216842Y-96535300D01*
X84310075Y-96747848D01*
X84437016Y-96942147D01*
X84437019Y-96942151D01*
X84437021Y-96942153D01*
X84594216Y-97112913D01*
X84594219Y-97112915D01*
X84594222Y-97112918D01*
X84771818Y-97251147D01*
X84812631Y-97307857D01*
X84816306Y-97377630D01*
X84781674Y-97438313D01*
X84771818Y-97446853D01*
X84594222Y-97585081D01*
X84594219Y-97585084D01*
X84437016Y-97755852D01*
X84310075Y-97950151D01*
X84216842Y-98162699D01*
X84159866Y-98387691D01*
X84159864Y-98387702D01*
X84140700Y-98618993D01*
X84140700Y-98619006D01*
X84159864Y-98850297D01*
X84159866Y-98850308D01*
X84216842Y-99075300D01*
X84310075Y-99287848D01*
X84437016Y-99482147D01*
X84437019Y-99482151D01*
X84437021Y-99482153D01*
X84594216Y-99652913D01*
X84594219Y-99652915D01*
X84594222Y-99652918D01*
X84771818Y-99791147D01*
X84812631Y-99847857D01*
X84816306Y-99917630D01*
X84781674Y-99978313D01*
X84771818Y-99986853D01*
X84594222Y-100125081D01*
X84594219Y-100125084D01*
X84437016Y-100295852D01*
X84310075Y-100490151D01*
X84216842Y-100702699D01*
X84159866Y-100927691D01*
X84159864Y-100927702D01*
X84140700Y-101158993D01*
X84140700Y-101159006D01*
X84159864Y-101390297D01*
X84159866Y-101390308D01*
X84216842Y-101615300D01*
X84310075Y-101827848D01*
X84437016Y-102022147D01*
X84437019Y-102022151D01*
X84437021Y-102022153D01*
X84594216Y-102192913D01*
X84594219Y-102192915D01*
X84594222Y-102192918D01*
X84771818Y-102331147D01*
X84812631Y-102387857D01*
X84816306Y-102457630D01*
X84781674Y-102518313D01*
X84771818Y-102526853D01*
X84594222Y-102665081D01*
X84594219Y-102665084D01*
X84437016Y-102835852D01*
X84310075Y-103030151D01*
X84216842Y-103242699D01*
X84159866Y-103467691D01*
X84159864Y-103467702D01*
X84140700Y-103698993D01*
X84140700Y-103699006D01*
X84159864Y-103930297D01*
X84159866Y-103930308D01*
X84216842Y-104155300D01*
X84310075Y-104367848D01*
X84437016Y-104562147D01*
X84437019Y-104562151D01*
X84437021Y-104562153D01*
X84594216Y-104732913D01*
X84594219Y-104732915D01*
X84594222Y-104732918D01*
X84771818Y-104871147D01*
X84812631Y-104927857D01*
X84816306Y-104997630D01*
X84781674Y-105058313D01*
X84771818Y-105066853D01*
X84594222Y-105205081D01*
X84594219Y-105205084D01*
X84437016Y-105375852D01*
X84310075Y-105570151D01*
X84216842Y-105782699D01*
X84159866Y-106007691D01*
X84159864Y-106007702D01*
X84140700Y-106238993D01*
X84140700Y-106239006D01*
X84159864Y-106470297D01*
X84159866Y-106470308D01*
X84216842Y-106695300D01*
X84310075Y-106907848D01*
X84437016Y-107102147D01*
X84437019Y-107102151D01*
X84437021Y-107102153D01*
X84594216Y-107272913D01*
X84594219Y-107272915D01*
X84594222Y-107272918D01*
X84771818Y-107411147D01*
X84812631Y-107467857D01*
X84816306Y-107537630D01*
X84781674Y-107598313D01*
X84771818Y-107606853D01*
X84594222Y-107745081D01*
X84594219Y-107745084D01*
X84437016Y-107915852D01*
X84310075Y-108110151D01*
X84216842Y-108322699D01*
X84159866Y-108547691D01*
X84159864Y-108547702D01*
X84140700Y-108778993D01*
X84140700Y-108779006D01*
X84159864Y-109010297D01*
X84159866Y-109010308D01*
X84216842Y-109235300D01*
X84310075Y-109447848D01*
X84437016Y-109642147D01*
X84437019Y-109642151D01*
X84437021Y-109642153D01*
X84594216Y-109812913D01*
X84594219Y-109812915D01*
X84594222Y-109812918D01*
X84771818Y-109951147D01*
X84812631Y-110007857D01*
X84816306Y-110077630D01*
X84781674Y-110138313D01*
X84771818Y-110146853D01*
X84594222Y-110285081D01*
X84594219Y-110285084D01*
X84437016Y-110455852D01*
X84310075Y-110650151D01*
X84216842Y-110862699D01*
X84159866Y-111087691D01*
X84159864Y-111087702D01*
X84140700Y-111318993D01*
X84140700Y-111319006D01*
X84159864Y-111550297D01*
X84159866Y-111550308D01*
X84216842Y-111775300D01*
X84310075Y-111987848D01*
X84437016Y-112182147D01*
X84437019Y-112182151D01*
X84437021Y-112182153D01*
X84594216Y-112352913D01*
X84594219Y-112352915D01*
X84594222Y-112352918D01*
X84771818Y-112491147D01*
X84812631Y-112547857D01*
X84816306Y-112617630D01*
X84781674Y-112678313D01*
X84771818Y-112686853D01*
X84594222Y-112825081D01*
X84594219Y-112825084D01*
X84437016Y-112995852D01*
X84310075Y-113190151D01*
X84216842Y-113402699D01*
X84159866Y-113627691D01*
X84159864Y-113627702D01*
X84140700Y-113858993D01*
X84140700Y-113859006D01*
X84159864Y-114090297D01*
X84159866Y-114090308D01*
X84216842Y-114315300D01*
X84310075Y-114527848D01*
X84437016Y-114722147D01*
X84437019Y-114722151D01*
X84437021Y-114722153D01*
X84594216Y-114892913D01*
X84594219Y-114892915D01*
X84594222Y-114892918D01*
X84771818Y-115031147D01*
X84812631Y-115087857D01*
X84816306Y-115157630D01*
X84781674Y-115218313D01*
X84771818Y-115226853D01*
X84594222Y-115365081D01*
X84594219Y-115365084D01*
X84437016Y-115535852D01*
X84310075Y-115730151D01*
X84216842Y-115942699D01*
X84159866Y-116167691D01*
X84159864Y-116167702D01*
X84140700Y-116398993D01*
X84140700Y-116399006D01*
X84159864Y-116630297D01*
X84159866Y-116630308D01*
X84216842Y-116855300D01*
X84310075Y-117067848D01*
X84437016Y-117262147D01*
X84437019Y-117262151D01*
X84437021Y-117262153D01*
X84594216Y-117432913D01*
X84594219Y-117432915D01*
X84594222Y-117432918D01*
X84771818Y-117571147D01*
X84812631Y-117627857D01*
X84816306Y-117697630D01*
X84781674Y-117758313D01*
X84771818Y-117766853D01*
X84594222Y-117905081D01*
X84594219Y-117905084D01*
X84437016Y-118075852D01*
X84310075Y-118270151D01*
X84216842Y-118482699D01*
X84159866Y-118707691D01*
X84159864Y-118707702D01*
X84140700Y-118938993D01*
X84140700Y-118939006D01*
X84159864Y-119170297D01*
X84159866Y-119170308D01*
X84216842Y-119395300D01*
X84310075Y-119607848D01*
X84437016Y-119802147D01*
X84437019Y-119802151D01*
X84437021Y-119802153D01*
X84594216Y-119972913D01*
X84594219Y-119972915D01*
X84594222Y-119972918D01*
X84771818Y-120111147D01*
X84812631Y-120167857D01*
X84816306Y-120237630D01*
X84781674Y-120298313D01*
X84771818Y-120306853D01*
X84594222Y-120445081D01*
X84594219Y-120445084D01*
X84437016Y-120615852D01*
X84310075Y-120810151D01*
X84216842Y-121022699D01*
X84159866Y-121247691D01*
X84159864Y-121247702D01*
X84140700Y-121478993D01*
X84140700Y-121479006D01*
X84159864Y-121710297D01*
X84159866Y-121710308D01*
X84216842Y-121935300D01*
X84310075Y-122147848D01*
X84437016Y-122342147D01*
X84437019Y-122342151D01*
X84437021Y-122342153D01*
X84594216Y-122512913D01*
X84594219Y-122512915D01*
X84594222Y-122512918D01*
X84771818Y-122651147D01*
X84812631Y-122707857D01*
X84816306Y-122777630D01*
X84781674Y-122838313D01*
X84771818Y-122846853D01*
X84594222Y-122985081D01*
X84594219Y-122985084D01*
X84437016Y-123155852D01*
X84310075Y-123350151D01*
X84216842Y-123562699D01*
X84159866Y-123787691D01*
X84159864Y-123787702D01*
X84140700Y-124018993D01*
X84140700Y-124019006D01*
X84159864Y-124250297D01*
X84159866Y-124250308D01*
X84216842Y-124475300D01*
X84310075Y-124687848D01*
X84437016Y-124882147D01*
X84437019Y-124882151D01*
X84437021Y-124882153D01*
X84594216Y-125052913D01*
X84594219Y-125052915D01*
X84594222Y-125052918D01*
X84771818Y-125191147D01*
X84812631Y-125247857D01*
X84816306Y-125317630D01*
X84781674Y-125378313D01*
X84771818Y-125386853D01*
X84594222Y-125525081D01*
X84594219Y-125525084D01*
X84437016Y-125695852D01*
X84310075Y-125890151D01*
X84216842Y-126102699D01*
X84159866Y-126327691D01*
X84159864Y-126327702D01*
X84140700Y-126558993D01*
X84140700Y-126559006D01*
X84159864Y-126790297D01*
X84159866Y-126790308D01*
X84216842Y-127015300D01*
X84310075Y-127227848D01*
X84437016Y-127422147D01*
X84437019Y-127422151D01*
X84437021Y-127422153D01*
X84594216Y-127592913D01*
X84594219Y-127592915D01*
X84594222Y-127592918D01*
X84771818Y-127731147D01*
X84812631Y-127787857D01*
X84816306Y-127857630D01*
X84781674Y-127918313D01*
X84771818Y-127926853D01*
X84594222Y-128065081D01*
X84594219Y-128065084D01*
X84437016Y-128235852D01*
X84310075Y-128430151D01*
X84216842Y-128642699D01*
X84159866Y-128867691D01*
X84159864Y-128867702D01*
X84140700Y-129098993D01*
X84140700Y-129099006D01*
X84159864Y-129330297D01*
X84159866Y-129330308D01*
X84216842Y-129555300D01*
X84310075Y-129767848D01*
X84437016Y-129962147D01*
X84437019Y-129962151D01*
X84437021Y-129962153D01*
X84594216Y-130132913D01*
X84594219Y-130132915D01*
X84594222Y-130132918D01*
X84771818Y-130271147D01*
X84812631Y-130327857D01*
X84816306Y-130397630D01*
X84781674Y-130458313D01*
X84771818Y-130466853D01*
X84594222Y-130605081D01*
X84594219Y-130605084D01*
X84437016Y-130775852D01*
X84310075Y-130970151D01*
X84216842Y-131182699D01*
X84159866Y-131407691D01*
X84159864Y-131407702D01*
X84140700Y-131638993D01*
X84140700Y-131639006D01*
X84159864Y-131870297D01*
X84159866Y-131870308D01*
X84216842Y-132095300D01*
X84310075Y-132307848D01*
X84437016Y-132502147D01*
X84437019Y-132502151D01*
X84437021Y-132502153D01*
X84594216Y-132672913D01*
X84594219Y-132672915D01*
X84594222Y-132672918D01*
X84771818Y-132811147D01*
X84812631Y-132867857D01*
X84816306Y-132937630D01*
X84781674Y-132998313D01*
X84771818Y-133006853D01*
X84594222Y-133145081D01*
X84594219Y-133145084D01*
X84437016Y-133315852D01*
X84310075Y-133510151D01*
X84216842Y-133722699D01*
X84159866Y-133947691D01*
X84159864Y-133947702D01*
X84140700Y-134178993D01*
X84140700Y-134179006D01*
X84159864Y-134410297D01*
X84159866Y-134410308D01*
X84216842Y-134635300D01*
X84310075Y-134847848D01*
X84437016Y-135042147D01*
X84437019Y-135042151D01*
X84437021Y-135042153D01*
X84594216Y-135212913D01*
X84594219Y-135212915D01*
X84594222Y-135212918D01*
X84777365Y-135355464D01*
X84777371Y-135355468D01*
X84777374Y-135355470D01*
X84981497Y-135465936D01*
X85095487Y-135505068D01*
X85201015Y-135541297D01*
X85201017Y-135541297D01*
X85201019Y-135541298D01*
X85429951Y-135579500D01*
X85429952Y-135579500D01*
X85662048Y-135579500D01*
X85662049Y-135579500D01*
X85890981Y-135541298D01*
X86110503Y-135465936D01*
X86314626Y-135355470D01*
X86497784Y-135212913D01*
X86654979Y-135042153D01*
X86781924Y-134847849D01*
X86875157Y-134635300D01*
X86932134Y-134410305D01*
X86932135Y-134410297D01*
X86951300Y-134179006D01*
X86951300Y-134178993D01*
X86932135Y-133947702D01*
X86932133Y-133947691D01*
X86875157Y-133722699D01*
X86781924Y-133510151D01*
X86654983Y-133315852D01*
X86654980Y-133315849D01*
X86654979Y-133315847D01*
X86497784Y-133145087D01*
X86320180Y-133006853D01*
X86279368Y-132950143D01*
X86275693Y-132880370D01*
X86310324Y-132819687D01*
X86320181Y-132811146D01*
X86324407Y-132807857D01*
X86497784Y-132672913D01*
X86654979Y-132502153D01*
X86781924Y-132307849D01*
X86875157Y-132095300D01*
X86932134Y-131870305D01*
X86932135Y-131870297D01*
X86951300Y-131639006D01*
X86951300Y-131638993D01*
X86932135Y-131407702D01*
X86932133Y-131407691D01*
X86875157Y-131182699D01*
X86781924Y-130970151D01*
X86654983Y-130775852D01*
X86654980Y-130775849D01*
X86654979Y-130775847D01*
X86497784Y-130605087D01*
X86320180Y-130466853D01*
X86279368Y-130410143D01*
X86275693Y-130340370D01*
X86310324Y-130279687D01*
X86320181Y-130271146D01*
X86324407Y-130267857D01*
X86497784Y-130132913D01*
X86654979Y-129962153D01*
X86781924Y-129767849D01*
X86875157Y-129555300D01*
X86932134Y-129330305D01*
X86932135Y-129330297D01*
X86951300Y-129099006D01*
X86951300Y-129098993D01*
X86932135Y-128867702D01*
X86932131Y-128867682D01*
X86875157Y-128642701D01*
X86875156Y-128642699D01*
X86873006Y-128637796D01*
X86864102Y-128568496D01*
X86894078Y-128505383D01*
X86898862Y-128500321D01*
X91735114Y-123664071D01*
X91811775Y-123549339D01*
X91831094Y-123502700D01*
X91864578Y-123421860D01*
X91864580Y-123421856D01*
X91878843Y-123350151D01*
X91891500Y-123286524D01*
X91891500Y-110903000D01*
X124829540Y-110903000D01*
X124849326Y-111091256D01*
X124849327Y-111091259D01*
X124907818Y-111271277D01*
X124907821Y-111271284D01*
X125002467Y-111435216D01*
X125106087Y-111550297D01*
X125129129Y-111575888D01*
X125282265Y-111687148D01*
X125282270Y-111687151D01*
X125455192Y-111764142D01*
X125455197Y-111764144D01*
X125640354Y-111803500D01*
X125640355Y-111803500D01*
X125829644Y-111803500D01*
X125829646Y-111803500D01*
X126014803Y-111764144D01*
X126187730Y-111687151D01*
X126340871Y-111575888D01*
X126467533Y-111435216D01*
X126562179Y-111271284D01*
X126620674Y-111091256D01*
X126640460Y-110903000D01*
X126620674Y-110714744D01*
X126562179Y-110534716D01*
X126467533Y-110370784D01*
X126392350Y-110287284D01*
X126362120Y-110224292D01*
X126360500Y-110204312D01*
X126360500Y-110165452D01*
X126380185Y-110098413D01*
X126396819Y-110077771D01*
X127524293Y-108950297D01*
X128760857Y-107713734D01*
X128779999Y-107685087D01*
X128829311Y-107611286D01*
X128876463Y-107497452D01*
X128900500Y-107376606D01*
X128900500Y-106937687D01*
X128920185Y-106870648D01*
X128932350Y-106854715D01*
X128950891Y-106834122D01*
X129007533Y-106771216D01*
X129102179Y-106607284D01*
X129160674Y-106427256D01*
X129180460Y-106239000D01*
X129160674Y-106050744D01*
X129102179Y-105870716D01*
X129007533Y-105706784D01*
X128880871Y-105566112D01*
X128880870Y-105566111D01*
X128727734Y-105454851D01*
X128727729Y-105454848D01*
X128554807Y-105377857D01*
X128554802Y-105377855D01*
X128409001Y-105346865D01*
X128369646Y-105338500D01*
X128180354Y-105338500D01*
X128147897Y-105345398D01*
X127995197Y-105377855D01*
X127995192Y-105377857D01*
X127822270Y-105454848D01*
X127822265Y-105454851D01*
X127669129Y-105566111D01*
X127542466Y-105706785D01*
X127447821Y-105870715D01*
X127447818Y-105870722D01*
X127403311Y-106007702D01*
X127389326Y-106050744D01*
X127369540Y-106239000D01*
X127389326Y-106427256D01*
X127389327Y-106427259D01*
X127447818Y-106607277D01*
X127447821Y-106607284D01*
X127542467Y-106771216D01*
X127585772Y-106819310D01*
X127617650Y-106854715D01*
X127647880Y-106917706D01*
X127649500Y-106937687D01*
X127649500Y-107004547D01*
X127629815Y-107071586D01*
X127613181Y-107092228D01*
X125249144Y-109456264D01*
X125249138Y-109456272D01*
X125180690Y-109558708D01*
X125180688Y-109558713D01*
X125133540Y-109672538D01*
X125133535Y-109672554D01*
X125112264Y-109779497D01*
X125112263Y-109779502D01*
X125109500Y-109793389D01*
X125109500Y-110204312D01*
X125089815Y-110271351D01*
X125077650Y-110287284D01*
X125002466Y-110370784D01*
X124907821Y-110534715D01*
X124907818Y-110534722D01*
X124849327Y-110714740D01*
X124849326Y-110714744D01*
X124829540Y-110903000D01*
X91891500Y-110903000D01*
X91891500Y-99508993D01*
X107560700Y-99508993D01*
X107560700Y-99509006D01*
X107579864Y-99740297D01*
X107579866Y-99740308D01*
X107636842Y-99965300D01*
X107730075Y-100177848D01*
X107857016Y-100372147D01*
X107857019Y-100372151D01*
X107857021Y-100372153D01*
X108014216Y-100542913D01*
X108014219Y-100542915D01*
X108014222Y-100542918D01*
X108191818Y-100681147D01*
X108232631Y-100737857D01*
X108236306Y-100807630D01*
X108201674Y-100868313D01*
X108191818Y-100876853D01*
X108014222Y-101015081D01*
X108014219Y-101015084D01*
X107857016Y-101185852D01*
X107730075Y-101380151D01*
X107636842Y-101592699D01*
X107579866Y-101817691D01*
X107579864Y-101817702D01*
X107560700Y-102048993D01*
X107560700Y-102049006D01*
X107579864Y-102280297D01*
X107579866Y-102280308D01*
X107636842Y-102505300D01*
X107730075Y-102717848D01*
X107857016Y-102912147D01*
X107857019Y-102912151D01*
X107857021Y-102912153D01*
X108014216Y-103082913D01*
X108014219Y-103082915D01*
X108014222Y-103082918D01*
X108197365Y-103225464D01*
X108197371Y-103225468D01*
X108197374Y-103225470D01*
X108401497Y-103335936D01*
X108515487Y-103375068D01*
X108621015Y-103411297D01*
X108621017Y-103411297D01*
X108621019Y-103411298D01*
X108849951Y-103449500D01*
X108849952Y-103449500D01*
X109082048Y-103449500D01*
X109082049Y-103449500D01*
X109310981Y-103411298D01*
X109530503Y-103335936D01*
X109734626Y-103225470D01*
X109917784Y-103082913D01*
X110074979Y-102912153D01*
X110132191Y-102824582D01*
X110185337Y-102779226D01*
X110254568Y-102769802D01*
X110317904Y-102799304D01*
X110339809Y-102824583D01*
X110397016Y-102912147D01*
X110397019Y-102912151D01*
X110397021Y-102912153D01*
X110554216Y-103082913D01*
X110554219Y-103082915D01*
X110554222Y-103082918D01*
X110737365Y-103225464D01*
X110737371Y-103225468D01*
X110737374Y-103225470D01*
X110941497Y-103335936D01*
X111055487Y-103375068D01*
X111161015Y-103411297D01*
X111161017Y-103411297D01*
X111161019Y-103411298D01*
X111389951Y-103449500D01*
X111389952Y-103449500D01*
X111622048Y-103449500D01*
X111622049Y-103449500D01*
X111850981Y-103411298D01*
X112070503Y-103335936D01*
X112274626Y-103225470D01*
X112457784Y-103082913D01*
X112614979Y-102912153D01*
X112672191Y-102824582D01*
X112725337Y-102779226D01*
X112794568Y-102769802D01*
X112857904Y-102799304D01*
X112879809Y-102824583D01*
X112937016Y-102912147D01*
X112937019Y-102912151D01*
X112937021Y-102912153D01*
X113094216Y-103082913D01*
X113094219Y-103082915D01*
X113094222Y-103082918D01*
X113277365Y-103225464D01*
X113277371Y-103225468D01*
X113277374Y-103225470D01*
X113481497Y-103335936D01*
X113595487Y-103375068D01*
X113701015Y-103411297D01*
X113701017Y-103411297D01*
X113701019Y-103411298D01*
X113929951Y-103449500D01*
X113929952Y-103449500D01*
X114162048Y-103449500D01*
X114162049Y-103449500D01*
X114390981Y-103411298D01*
X114610503Y-103335936D01*
X114814626Y-103225470D01*
X114997784Y-103082913D01*
X115154979Y-102912153D01*
X115212191Y-102824582D01*
X115265337Y-102779226D01*
X115334568Y-102769802D01*
X115397904Y-102799304D01*
X115419809Y-102824583D01*
X115477016Y-102912147D01*
X115477019Y-102912151D01*
X115477021Y-102912153D01*
X115634216Y-103082913D01*
X115634219Y-103082915D01*
X115634222Y-103082918D01*
X115817365Y-103225464D01*
X115817371Y-103225468D01*
X115817374Y-103225470D01*
X116021497Y-103335936D01*
X116135487Y-103375068D01*
X116241015Y-103411297D01*
X116241017Y-103411297D01*
X116241019Y-103411298D01*
X116469951Y-103449500D01*
X116469952Y-103449500D01*
X116702048Y-103449500D01*
X116702049Y-103449500D01*
X116930981Y-103411298D01*
X117150503Y-103335936D01*
X117354626Y-103225470D01*
X117537784Y-103082913D01*
X117694979Y-102912153D01*
X117752191Y-102824582D01*
X117805337Y-102779226D01*
X117874568Y-102769802D01*
X117937904Y-102799304D01*
X117959809Y-102824583D01*
X118017016Y-102912147D01*
X118017019Y-102912151D01*
X118017021Y-102912153D01*
X118174216Y-103082913D01*
X118174219Y-103082915D01*
X118174222Y-103082918D01*
X118357365Y-103225464D01*
X118357371Y-103225468D01*
X118357374Y-103225470D01*
X118561497Y-103335936D01*
X118675487Y-103375068D01*
X118781015Y-103411297D01*
X118781017Y-103411297D01*
X118781019Y-103411298D01*
X119009951Y-103449500D01*
X119009952Y-103449500D01*
X119242048Y-103449500D01*
X119242049Y-103449500D01*
X119470981Y-103411298D01*
X119690503Y-103335936D01*
X119894626Y-103225470D01*
X120077784Y-103082913D01*
X120234979Y-102912153D01*
X120292191Y-102824582D01*
X120345337Y-102779226D01*
X120414568Y-102769802D01*
X120477904Y-102799304D01*
X120499809Y-102824583D01*
X120557016Y-102912147D01*
X120557019Y-102912151D01*
X120557021Y-102912153D01*
X120714216Y-103082913D01*
X120714219Y-103082915D01*
X120714222Y-103082918D01*
X120897365Y-103225464D01*
X120897371Y-103225468D01*
X120897374Y-103225470D01*
X121101497Y-103335936D01*
X121215487Y-103375068D01*
X121321015Y-103411297D01*
X121321017Y-103411297D01*
X121321019Y-103411298D01*
X121549951Y-103449500D01*
X121549952Y-103449500D01*
X121782048Y-103449500D01*
X121782049Y-103449500D01*
X122010981Y-103411298D01*
X122230503Y-103335936D01*
X122434626Y-103225470D01*
X122617784Y-103082913D01*
X122774979Y-102912153D01*
X122832191Y-102824582D01*
X122885337Y-102779226D01*
X122954568Y-102769802D01*
X123017904Y-102799304D01*
X123039809Y-102824583D01*
X123097016Y-102912147D01*
X123097019Y-102912151D01*
X123097021Y-102912153D01*
X123254216Y-103082913D01*
X123254219Y-103082915D01*
X123254222Y-103082918D01*
X123437365Y-103225464D01*
X123437371Y-103225468D01*
X123437374Y-103225470D01*
X123641497Y-103335936D01*
X123755487Y-103375068D01*
X123861015Y-103411297D01*
X123861017Y-103411297D01*
X123861019Y-103411298D01*
X124089951Y-103449500D01*
X124089952Y-103449500D01*
X124322048Y-103449500D01*
X124322049Y-103449500D01*
X124550981Y-103411298D01*
X124770503Y-103335936D01*
X124974626Y-103225470D01*
X125157784Y-103082913D01*
X125314979Y-102912153D01*
X125441924Y-102717849D01*
X125535157Y-102505300D01*
X125592134Y-102280305D01*
X125592135Y-102280297D01*
X125611300Y-102049006D01*
X125611300Y-102048993D01*
X125592135Y-101817702D01*
X125592133Y-101817691D01*
X125535157Y-101592699D01*
X125441924Y-101380151D01*
X125314983Y-101185852D01*
X125314980Y-101185849D01*
X125314979Y-101185847D01*
X125157784Y-101015087D01*
X125157779Y-101015083D01*
X125157777Y-101015081D01*
X124974634Y-100872535D01*
X124974628Y-100872531D01*
X124770504Y-100762064D01*
X124770495Y-100762061D01*
X124550984Y-100686702D01*
X124379282Y-100658050D01*
X124322049Y-100648500D01*
X124089951Y-100648500D01*
X124044164Y-100656140D01*
X123861015Y-100686702D01*
X123641504Y-100762061D01*
X123641495Y-100762064D01*
X123437371Y-100872531D01*
X123437365Y-100872535D01*
X123254222Y-101015081D01*
X123254219Y-101015084D01*
X123097016Y-101185852D01*
X123039809Y-101273416D01*
X122986662Y-101318773D01*
X122917431Y-101328197D01*
X122854095Y-101298695D01*
X122832191Y-101273416D01*
X122774983Y-101185852D01*
X122774980Y-101185849D01*
X122774979Y-101185847D01*
X122617784Y-101015087D01*
X122440180Y-100876853D01*
X122399368Y-100820143D01*
X122395693Y-100750370D01*
X122430324Y-100689687D01*
X122440181Y-100681146D01*
X122441303Y-100680273D01*
X122617784Y-100542913D01*
X122774979Y-100372153D01*
X122901924Y-100177849D01*
X122995157Y-99965300D01*
X123052134Y-99740305D01*
X123052135Y-99740297D01*
X123071300Y-99509006D01*
X123071300Y-99508993D01*
X123052135Y-99277702D01*
X123052133Y-99277691D01*
X122995157Y-99052699D01*
X122901924Y-98840151D01*
X122774983Y-98645852D01*
X122774980Y-98645849D01*
X122774979Y-98645847D01*
X122617784Y-98475087D01*
X122617779Y-98475083D01*
X122617777Y-98475081D01*
X122434634Y-98332535D01*
X122434628Y-98332531D01*
X122230504Y-98222064D01*
X122230495Y-98222061D01*
X122010984Y-98146702D01*
X121839282Y-98118050D01*
X121782049Y-98108500D01*
X121549951Y-98108500D01*
X121504164Y-98116140D01*
X121321015Y-98146702D01*
X121101504Y-98222061D01*
X121101495Y-98222064D01*
X120897371Y-98332531D01*
X120897365Y-98332535D01*
X120714222Y-98475081D01*
X120714219Y-98475084D01*
X120557016Y-98645852D01*
X120499809Y-98733416D01*
X120446662Y-98778773D01*
X120377431Y-98788197D01*
X120314095Y-98758695D01*
X120292191Y-98733416D01*
X120234983Y-98645852D01*
X120234980Y-98645849D01*
X120234979Y-98645847D01*
X120077784Y-98475087D01*
X120077779Y-98475083D01*
X120077777Y-98475081D01*
X119894634Y-98332535D01*
X119894628Y-98332531D01*
X119690504Y-98222064D01*
X119690495Y-98222061D01*
X119470984Y-98146702D01*
X119299282Y-98118050D01*
X119242049Y-98108500D01*
X119009951Y-98108500D01*
X118964164Y-98116140D01*
X118781015Y-98146702D01*
X118561504Y-98222061D01*
X118561495Y-98222064D01*
X118357371Y-98332531D01*
X118357365Y-98332535D01*
X118174222Y-98475081D01*
X118174219Y-98475084D01*
X118017016Y-98645852D01*
X117959809Y-98733416D01*
X117906662Y-98778773D01*
X117837431Y-98788197D01*
X117774095Y-98758695D01*
X117752191Y-98733416D01*
X117694983Y-98645852D01*
X117694980Y-98645849D01*
X117694979Y-98645847D01*
X117537784Y-98475087D01*
X117537779Y-98475083D01*
X117537777Y-98475081D01*
X117354634Y-98332535D01*
X117354628Y-98332531D01*
X117150504Y-98222064D01*
X117150495Y-98222061D01*
X116930984Y-98146702D01*
X116759282Y-98118050D01*
X116702049Y-98108500D01*
X116469951Y-98108500D01*
X116424164Y-98116140D01*
X116241015Y-98146702D01*
X116021504Y-98222061D01*
X116021495Y-98222064D01*
X115817371Y-98332531D01*
X115817365Y-98332535D01*
X115634222Y-98475081D01*
X115634219Y-98475084D01*
X115477016Y-98645852D01*
X115419809Y-98733416D01*
X115366662Y-98778773D01*
X115297431Y-98788197D01*
X115234095Y-98758695D01*
X115212191Y-98733416D01*
X115154983Y-98645852D01*
X115154980Y-98645849D01*
X115154979Y-98645847D01*
X114997784Y-98475087D01*
X114997779Y-98475083D01*
X114997777Y-98475081D01*
X114814634Y-98332535D01*
X114814628Y-98332531D01*
X114610504Y-98222064D01*
X114610495Y-98222061D01*
X114390984Y-98146702D01*
X114219282Y-98118050D01*
X114162049Y-98108500D01*
X113929951Y-98108500D01*
X113884164Y-98116140D01*
X113701015Y-98146702D01*
X113481504Y-98222061D01*
X113481495Y-98222064D01*
X113277371Y-98332531D01*
X113277365Y-98332535D01*
X113094222Y-98475081D01*
X113094219Y-98475084D01*
X112937016Y-98645852D01*
X112879809Y-98733416D01*
X112826662Y-98778773D01*
X112757431Y-98788197D01*
X112694095Y-98758695D01*
X112672191Y-98733416D01*
X112614983Y-98645852D01*
X112614980Y-98645849D01*
X112614979Y-98645847D01*
X112457784Y-98475087D01*
X112457779Y-98475083D01*
X112457777Y-98475081D01*
X112274634Y-98332535D01*
X112274628Y-98332531D01*
X112070504Y-98222064D01*
X112070495Y-98222061D01*
X111850984Y-98146702D01*
X111679282Y-98118050D01*
X111622049Y-98108500D01*
X111389951Y-98108500D01*
X111344164Y-98116140D01*
X111161015Y-98146702D01*
X110941504Y-98222061D01*
X110941495Y-98222064D01*
X110737371Y-98332531D01*
X110737365Y-98332535D01*
X110554222Y-98475081D01*
X110554219Y-98475084D01*
X110397016Y-98645852D01*
X110339809Y-98733416D01*
X110286662Y-98778773D01*
X110217431Y-98788197D01*
X110154095Y-98758695D01*
X110132191Y-98733416D01*
X110074983Y-98645852D01*
X110074980Y-98645849D01*
X110074979Y-98645847D01*
X109917784Y-98475087D01*
X109917779Y-98475083D01*
X109917777Y-98475081D01*
X109734634Y-98332535D01*
X109734628Y-98332531D01*
X109530504Y-98222064D01*
X109530495Y-98222061D01*
X109310984Y-98146702D01*
X109139282Y-98118050D01*
X109082049Y-98108500D01*
X108849951Y-98108500D01*
X108804164Y-98116140D01*
X108621015Y-98146702D01*
X108401504Y-98222061D01*
X108401495Y-98222064D01*
X108197371Y-98332531D01*
X108197365Y-98332535D01*
X108014222Y-98475081D01*
X108014219Y-98475084D01*
X107857016Y-98645852D01*
X107730075Y-98840151D01*
X107636842Y-99052699D01*
X107579866Y-99277691D01*
X107579864Y-99277702D01*
X107560700Y-99508993D01*
X91891500Y-99508993D01*
X91891500Y-96040519D01*
X91911185Y-95973480D01*
X91927819Y-95952838D01*
X92092966Y-95787691D01*
X92523975Y-95356681D01*
X92585296Y-95323198D01*
X92585362Y-95323183D01*
X92740803Y-95290144D01*
X92740807Y-95290142D01*
X92740808Y-95290142D01*
X92799058Y-95264206D01*
X92913730Y-95213151D01*
X93066871Y-95101888D01*
X93193533Y-94961216D01*
X93288179Y-94797284D01*
X93346674Y-94617256D01*
X93366460Y-94429000D01*
X93346674Y-94240744D01*
X93288179Y-94060716D01*
X93193533Y-93896784D01*
X93066871Y-93756112D01*
X93066870Y-93756111D01*
X92913734Y-93644851D01*
X92913729Y-93644848D01*
X92740807Y-93567857D01*
X92740802Y-93567855D01*
X92595001Y-93536865D01*
X92555646Y-93528500D01*
X92366354Y-93528500D01*
X92333897Y-93535398D01*
X92181197Y-93567855D01*
X92181192Y-93567857D01*
X92008270Y-93644848D01*
X92008265Y-93644851D01*
X91855129Y-93756111D01*
X91728466Y-93896785D01*
X91633821Y-94060715D01*
X91633818Y-94060722D01*
X91575327Y-94240739D01*
X91575325Y-94240750D01*
X91570134Y-94290129D01*
X91543549Y-94354743D01*
X91534495Y-94364846D01*
X91468180Y-94431161D01*
X91406859Y-94464646D01*
X91337167Y-94459662D01*
X91281233Y-94417791D01*
X91256816Y-94352327D01*
X91256500Y-94343480D01*
X91256500Y-82486135D01*
X96575500Y-82486135D01*
X96575500Y-84781870D01*
X96575501Y-84781876D01*
X96581908Y-84841483D01*
X96632202Y-84976328D01*
X96632206Y-84976335D01*
X96718452Y-85091544D01*
X96718455Y-85091547D01*
X96833664Y-85177793D01*
X96833671Y-85177797D01*
X96968517Y-85228091D01*
X96968516Y-85228091D01*
X96975444Y-85228835D01*
X97028127Y-85234500D01*
X99323872Y-85234499D01*
X99383483Y-85228091D01*
X99518331Y-85177796D01*
X99633546Y-85091546D01*
X99719796Y-84976331D01*
X99770091Y-84841483D01*
X99776500Y-84781873D01*
X99776499Y-82486128D01*
X99770091Y-82426517D01*
X99768779Y-82423000D01*
X99719797Y-82291671D01*
X99719793Y-82291664D01*
X99633547Y-82176455D01*
X99633544Y-82176452D01*
X99518335Y-82090206D01*
X99518328Y-82090202D01*
X99383482Y-82039908D01*
X99383483Y-82039908D01*
X99323883Y-82033501D01*
X99323881Y-82033500D01*
X99323873Y-82033500D01*
X99323864Y-82033500D01*
X97028129Y-82033500D01*
X97028123Y-82033501D01*
X96968516Y-82039908D01*
X96833671Y-82090202D01*
X96833664Y-82090206D01*
X96718455Y-82176452D01*
X96718452Y-82176455D01*
X96632206Y-82291664D01*
X96632202Y-82291671D01*
X96581908Y-82426517D01*
X96575501Y-82486116D01*
X96575501Y-82486123D01*
X96575500Y-82486135D01*
X91256500Y-82486135D01*
X91256500Y-80800519D01*
X91276185Y-80733480D01*
X91292819Y-80712838D01*
X91895971Y-80109686D01*
X92523975Y-79481681D01*
X92585296Y-79448198D01*
X92585362Y-79448183D01*
X92740803Y-79415144D01*
X92740807Y-79415142D01*
X92740808Y-79415142D01*
X92799058Y-79389206D01*
X92913730Y-79338151D01*
X93066871Y-79226888D01*
X93193533Y-79086216D01*
X93288179Y-78922284D01*
X93346674Y-78742256D01*
X93366460Y-78554000D01*
X93346674Y-78365744D01*
X93288179Y-78185716D01*
X93193533Y-78021784D01*
X93066871Y-77881112D01*
X93052876Y-77870944D01*
X92913734Y-77769851D01*
X92913729Y-77769848D01*
X92740807Y-77692857D01*
X92740802Y-77692855D01*
X92595001Y-77661865D01*
X92555646Y-77653500D01*
X92366354Y-77653500D01*
X92333897Y-77660398D01*
X92181197Y-77692855D01*
X92181192Y-77692857D01*
X92008270Y-77769848D01*
X92008265Y-77769851D01*
X91855129Y-77881111D01*
X91728466Y-78021785D01*
X91633821Y-78185715D01*
X91633818Y-78185722D01*
X91575327Y-78365739D01*
X91575325Y-78365750D01*
X91570134Y-78415129D01*
X91543549Y-78479743D01*
X91534495Y-78489846D01*
X90885181Y-79139161D01*
X90823858Y-79172646D01*
X90754167Y-79167662D01*
X90698233Y-79125791D01*
X90673816Y-79060326D01*
X90673500Y-79051480D01*
X90673500Y-66611135D01*
X96575500Y-66611135D01*
X96575500Y-68906870D01*
X96575501Y-68906876D01*
X96581908Y-68966483D01*
X96632202Y-69101328D01*
X96632206Y-69101335D01*
X96718452Y-69216544D01*
X96718455Y-69216547D01*
X96833664Y-69302793D01*
X96833671Y-69302797D01*
X96968517Y-69353091D01*
X96968516Y-69353091D01*
X96975444Y-69353835D01*
X97028127Y-69359500D01*
X99323872Y-69359499D01*
X99383483Y-69353091D01*
X99518331Y-69302796D01*
X99633546Y-69216546D01*
X99719796Y-69101331D01*
X99770091Y-68966483D01*
X99776500Y-68906873D01*
X99776499Y-66611128D01*
X99770091Y-66551517D01*
X99719796Y-66416669D01*
X99719795Y-66416668D01*
X99719793Y-66416664D01*
X99633547Y-66301455D01*
X99633544Y-66301452D01*
X99518335Y-66215206D01*
X99518328Y-66215202D01*
X99383482Y-66164908D01*
X99383483Y-66164908D01*
X99323883Y-66158501D01*
X99323881Y-66158500D01*
X99323873Y-66158500D01*
X99323864Y-66158500D01*
X97028129Y-66158500D01*
X97028123Y-66158501D01*
X96968516Y-66164908D01*
X96833671Y-66215202D01*
X96833664Y-66215206D01*
X96718455Y-66301452D01*
X96718452Y-66301455D01*
X96632206Y-66416664D01*
X96632202Y-66416671D01*
X96581908Y-66551517D01*
X96575501Y-66611116D01*
X96575501Y-66611123D01*
X96575500Y-66611135D01*
X90673500Y-66611135D01*
X90673500Y-65849687D01*
X90693185Y-65782648D01*
X90705350Y-65766715D01*
X90723891Y-65746122D01*
X90780533Y-65683216D01*
X90875179Y-65519284D01*
X90933674Y-65339256D01*
X90953460Y-65151000D01*
X90933674Y-64962744D01*
X90875179Y-64782716D01*
X90780533Y-64618784D01*
X90653871Y-64478112D01*
X90653870Y-64478111D01*
X90500734Y-64366851D01*
X90500729Y-64366848D01*
X90327807Y-64289857D01*
X90327802Y-64289855D01*
X90182001Y-64258865D01*
X90142646Y-64250500D01*
X89953354Y-64250500D01*
X89920897Y-64257398D01*
X89768197Y-64289855D01*
X89768192Y-64289857D01*
X89595270Y-64366848D01*
X89595265Y-64366851D01*
X89442129Y-64478111D01*
X89315466Y-64618785D01*
X89220821Y-64782715D01*
X89220818Y-64782722D01*
X89162327Y-64962740D01*
X89162326Y-64962744D01*
X89142540Y-65151000D01*
X89162326Y-65339256D01*
X89162327Y-65339259D01*
X89220818Y-65519277D01*
X89220821Y-65519284D01*
X89315467Y-65683216D01*
X89358772Y-65731310D01*
X89390650Y-65766715D01*
X89420880Y-65829706D01*
X89422500Y-65849687D01*
X89422500Y-79572547D01*
X89402815Y-79639586D01*
X89386181Y-79660228D01*
X89141269Y-79905140D01*
X89141267Y-79905142D01*
X89097704Y-79948705D01*
X89054141Y-79992267D01*
X89040649Y-80012458D01*
X89040650Y-80012459D01*
X88985689Y-80094712D01*
X88985685Y-80094719D01*
X88954442Y-80170149D01*
X88938538Y-80208543D01*
X88938538Y-80208545D01*
X88938537Y-80208548D01*
X88914500Y-80329394D01*
X88914500Y-80329396D01*
X88914500Y-101934547D01*
X88894815Y-102001586D01*
X88878181Y-102022228D01*
X87159604Y-103740804D01*
X87098281Y-103774289D01*
X87028589Y-103769305D01*
X86972656Y-103727433D01*
X86948347Y-103663365D01*
X86932134Y-103467695D01*
X86875157Y-103242700D01*
X86867599Y-103225470D01*
X86781924Y-103030151D01*
X86654983Y-102835852D01*
X86654980Y-102835849D01*
X86654979Y-102835847D01*
X86497784Y-102665087D01*
X86320180Y-102526853D01*
X86279368Y-102470143D01*
X86275693Y-102400370D01*
X86310324Y-102339687D01*
X86320181Y-102331146D01*
X86324407Y-102327857D01*
X86497784Y-102192913D01*
X86654979Y-102022153D01*
X86781924Y-101827849D01*
X86875157Y-101615300D01*
X86932134Y-101390305D01*
X86932135Y-101390297D01*
X86951300Y-101159006D01*
X86951300Y-101158993D01*
X86932135Y-100927702D01*
X86932133Y-100927691D01*
X86875157Y-100702699D01*
X86781924Y-100490151D01*
X86654983Y-100295852D01*
X86654980Y-100295849D01*
X86654979Y-100295847D01*
X86497784Y-100125087D01*
X86320180Y-99986853D01*
X86279368Y-99930143D01*
X86275693Y-99860370D01*
X86310324Y-99799687D01*
X86320181Y-99791146D01*
X86497784Y-99652913D01*
X86654979Y-99482153D01*
X86781924Y-99287849D01*
X86875157Y-99075300D01*
X86932134Y-98850305D01*
X86932135Y-98850297D01*
X86951300Y-98619006D01*
X86951300Y-98618993D01*
X86932135Y-98387702D01*
X86932133Y-98387691D01*
X86875157Y-98162699D01*
X86781924Y-97950151D01*
X86654983Y-97755852D01*
X86654980Y-97755849D01*
X86654979Y-97755847D01*
X86497784Y-97585087D01*
X86320180Y-97446853D01*
X86279368Y-97390143D01*
X86275693Y-97320370D01*
X86310324Y-97259687D01*
X86320181Y-97251146D01*
X86497784Y-97112913D01*
X86654979Y-96942153D01*
X86781924Y-96747849D01*
X86875157Y-96535300D01*
X86932134Y-96310305D01*
X86932135Y-96310297D01*
X86951300Y-96079006D01*
X86951300Y-96078993D01*
X86932135Y-95847702D01*
X86932133Y-95847691D01*
X86875157Y-95622699D01*
X86781924Y-95410151D01*
X86654983Y-95215852D01*
X86654980Y-95215849D01*
X86654979Y-95215847D01*
X86497784Y-95045087D01*
X86320180Y-94906853D01*
X86279368Y-94850143D01*
X86275693Y-94780370D01*
X86310324Y-94719687D01*
X86320181Y-94711146D01*
X86497784Y-94572913D01*
X86654979Y-94402153D01*
X86781924Y-94207849D01*
X86875157Y-93995300D01*
X86932134Y-93770305D01*
X86933310Y-93756111D01*
X86951300Y-93539006D01*
X86951300Y-93538993D01*
X86932135Y-93307702D01*
X86932133Y-93307691D01*
X86875157Y-93082699D01*
X86781924Y-92870151D01*
X86654983Y-92675852D01*
X86654980Y-92675849D01*
X86654979Y-92675847D01*
X86497784Y-92505087D01*
X86320180Y-92366853D01*
X86279368Y-92310143D01*
X86275693Y-92240370D01*
X86310324Y-92179687D01*
X86320181Y-92171146D01*
X86497784Y-92032913D01*
X86654979Y-91862153D01*
X86781924Y-91667849D01*
X86875157Y-91455300D01*
X86932134Y-91230305D01*
X86932135Y-91230297D01*
X86951300Y-90999006D01*
X86951300Y-90998993D01*
X86932135Y-90767702D01*
X86932133Y-90767691D01*
X86875157Y-90542699D01*
X86781924Y-90330151D01*
X86654983Y-90135852D01*
X86654980Y-90135849D01*
X86654979Y-90135847D01*
X86497784Y-89965087D01*
X86320180Y-89826853D01*
X86279368Y-89770143D01*
X86275693Y-89700370D01*
X86310324Y-89639687D01*
X86320181Y-89631146D01*
X86497784Y-89492913D01*
X86654979Y-89322153D01*
X86781924Y-89127849D01*
X86875157Y-88915300D01*
X86932134Y-88690305D01*
X86932135Y-88690297D01*
X86951300Y-88459006D01*
X86951300Y-88458993D01*
X86932135Y-88227702D01*
X86932133Y-88227691D01*
X86875157Y-88002699D01*
X86781924Y-87790151D01*
X86654983Y-87595852D01*
X86654980Y-87595849D01*
X86654979Y-87595847D01*
X86497784Y-87425087D01*
X86320180Y-87286853D01*
X86279368Y-87230143D01*
X86275693Y-87160370D01*
X86310324Y-87099687D01*
X86320181Y-87091146D01*
X86497784Y-86952913D01*
X86654979Y-86782153D01*
X86781924Y-86587849D01*
X86875157Y-86375300D01*
X86932134Y-86150305D01*
X86936835Y-86093570D01*
X86951300Y-85919006D01*
X86951300Y-85918993D01*
X86932135Y-85687702D01*
X86932133Y-85687691D01*
X86875157Y-85462699D01*
X86781924Y-85250151D01*
X86654983Y-85055852D01*
X86654980Y-85055849D01*
X86654979Y-85055847D01*
X86497784Y-84885087D01*
X86320180Y-84746853D01*
X86279368Y-84690143D01*
X86275693Y-84620370D01*
X86310324Y-84559687D01*
X86320181Y-84551146D01*
X86497784Y-84412913D01*
X86654979Y-84242153D01*
X86781924Y-84047849D01*
X86875157Y-83835300D01*
X86932134Y-83610305D01*
X86936835Y-83553570D01*
X86951300Y-83379006D01*
X86951300Y-83378993D01*
X86932135Y-83147702D01*
X86932133Y-83147691D01*
X86875157Y-82922699D01*
X86781924Y-82710151D01*
X86654983Y-82515852D01*
X86654980Y-82515849D01*
X86654979Y-82515847D01*
X86497784Y-82345087D01*
X86320180Y-82206853D01*
X86279368Y-82150143D01*
X86275693Y-82080370D01*
X86310324Y-82019687D01*
X86320181Y-82011146D01*
X86497784Y-81872913D01*
X86654979Y-81702153D01*
X86781924Y-81507849D01*
X86875157Y-81295300D01*
X86932134Y-81070305D01*
X86934594Y-81040618D01*
X86951300Y-80839006D01*
X86951300Y-80838993D01*
X86932135Y-80607702D01*
X86932133Y-80607691D01*
X86875157Y-80382699D01*
X86781923Y-80170149D01*
X86654983Y-79975852D01*
X86654980Y-79975849D01*
X86654979Y-79975847D01*
X86497784Y-79805087D01*
X86320180Y-79666853D01*
X86279368Y-79610143D01*
X86275693Y-79540370D01*
X86310324Y-79479687D01*
X86320181Y-79471146D01*
X86497784Y-79332913D01*
X86654979Y-79162153D01*
X86781924Y-78967849D01*
X86875157Y-78755300D01*
X86932134Y-78530305D01*
X86934594Y-78500618D01*
X86951300Y-78299006D01*
X86951300Y-78298993D01*
X86932135Y-78067702D01*
X86932133Y-78067691D01*
X86875157Y-77842699D01*
X86781924Y-77630151D01*
X86654983Y-77435852D01*
X86654980Y-77435849D01*
X86654979Y-77435847D01*
X86497784Y-77265087D01*
X86320180Y-77126853D01*
X86279368Y-77070143D01*
X86275693Y-77000370D01*
X86310324Y-76939687D01*
X86320181Y-76931146D01*
X86497784Y-76792913D01*
X86654979Y-76622153D01*
X86781924Y-76427849D01*
X86875157Y-76215300D01*
X86932134Y-75990305D01*
X86934594Y-75960618D01*
X86951300Y-75759006D01*
X86951300Y-75758993D01*
X86932135Y-75527702D01*
X86932133Y-75527691D01*
X86875157Y-75302699D01*
X86781924Y-75090151D01*
X86654983Y-74895852D01*
X86654980Y-74895849D01*
X86654979Y-74895847D01*
X86497784Y-74725087D01*
X86497779Y-74725083D01*
X86497777Y-74725081D01*
X86314634Y-74582535D01*
X86314628Y-74582531D01*
X86110504Y-74472064D01*
X86110495Y-74472061D01*
X85890984Y-74396702D01*
X85719282Y-74368050D01*
X85662049Y-74358500D01*
X85429951Y-74358500D01*
X85384164Y-74366140D01*
X85201015Y-74396702D01*
X84981504Y-74472061D01*
X84981495Y-74472064D01*
X84777371Y-74582531D01*
X84777365Y-74582535D01*
X84594222Y-74725081D01*
X84594219Y-74725084D01*
X84437016Y-74895852D01*
X84310075Y-75090151D01*
X84216842Y-75302699D01*
X84159866Y-75527691D01*
X84159864Y-75527702D01*
X84140700Y-75758993D01*
X77475000Y-75758993D01*
X77475000Y-54854994D01*
X94578498Y-54854994D01*
X94578498Y-54855005D01*
X94598420Y-55063639D01*
X94598423Y-55063656D01*
X94657470Y-55264755D01*
X94753518Y-55451062D01*
X94883079Y-55615810D01*
X94883083Y-55615814D01*
X95041481Y-55753068D01*
X95041492Y-55753076D01*
X95223002Y-55857870D01*
X95223004Y-55857871D01*
X95421075Y-55926424D01*
X95628541Y-55956253D01*
X95837902Y-55946280D01*
X96041593Y-55896865D01*
X96232251Y-55809795D01*
X96402985Y-55688215D01*
X96547625Y-55536522D01*
X96660943Y-55360196D01*
X96738843Y-55165611D01*
X96778510Y-54959799D01*
X96781000Y-54855000D01*
X96778510Y-54750201D01*
X96738843Y-54544389D01*
X96660943Y-54349804D01*
X96547625Y-54173478D01*
X96451799Y-54072979D01*
X96402987Y-54021786D01*
X96402984Y-54021784D01*
X96232253Y-53900206D01*
X96228603Y-53898539D01*
X96133265Y-53855000D01*
X100875723Y-53855000D01*
X100890314Y-54021786D01*
X100894793Y-54072975D01*
X100894793Y-54072979D01*
X100951422Y-54284322D01*
X100951424Y-54284326D01*
X100951425Y-54284330D01*
X100979875Y-54345341D01*
X101043897Y-54482638D01*
X101043898Y-54482639D01*
X101169402Y-54661877D01*
X101324123Y-54816598D01*
X101503361Y-54942102D01*
X101701670Y-55034575D01*
X101913023Y-55091207D01*
X102095926Y-55107208D01*
X102130998Y-55110277D01*
X102131000Y-55110277D01*
X102131002Y-55110277D01*
X102159254Y-55107805D01*
X102348977Y-55091207D01*
X102560330Y-55034575D01*
X102758639Y-54942102D01*
X102937877Y-54816598D01*
X102987656Y-54766819D01*
X103048979Y-54733334D01*
X103075337Y-54730500D01*
X104813500Y-54730500D01*
X104880539Y-54750185D01*
X104926294Y-54802989D01*
X104937500Y-54854500D01*
X104937500Y-60174233D01*
X104971143Y-60343366D01*
X104971146Y-60343378D01*
X105037138Y-60502698D01*
X105037145Y-60502711D01*
X105132954Y-60646098D01*
X105132957Y-60646102D01*
X108671955Y-64185099D01*
X108737356Y-64250500D01*
X108793902Y-64307046D01*
X108937288Y-64402854D01*
X108937301Y-64402861D01*
X109096621Y-64468853D01*
X109096626Y-64468855D01*
X109265766Y-64502499D01*
X109265769Y-64502500D01*
X109265771Y-64502500D01*
X119732994Y-64502500D01*
X119800033Y-64522185D01*
X119820675Y-64538819D01*
X123629217Y-68347361D01*
X123662702Y-68408684D01*
X123657718Y-68478376D01*
X123615846Y-68534309D01*
X123614425Y-68535357D01*
X123605132Y-68542109D01*
X123605129Y-68542111D01*
X123478466Y-68682785D01*
X123383821Y-68846715D01*
X123383818Y-68846722D01*
X123364271Y-68906883D01*
X123325326Y-69026744D01*
X123305540Y-69215000D01*
X123325326Y-69403256D01*
X123325327Y-69403259D01*
X123383818Y-69583277D01*
X123383821Y-69583284D01*
X123478466Y-69747215D01*
X123528649Y-69802948D01*
X123558880Y-69865940D01*
X123560500Y-69885921D01*
X123560500Y-77870944D01*
X123540815Y-77937983D01*
X123488011Y-77983738D01*
X123418853Y-77993682D01*
X123410724Y-77992235D01*
X123289646Y-77966500D01*
X123100354Y-77966500D01*
X123067897Y-77973398D01*
X122915197Y-78005855D01*
X122915192Y-78005857D01*
X122742270Y-78082848D01*
X122742265Y-78082851D01*
X122589130Y-78194110D01*
X122589126Y-78194114D01*
X122583400Y-78200474D01*
X122523913Y-78237121D01*
X122491252Y-78241500D01*
X118561389Y-78241500D01*
X118500971Y-78253518D01*
X118457743Y-78262116D01*
X118440546Y-78265537D01*
X118326716Y-78312687D01*
X118326707Y-78312692D01*
X118224268Y-78381140D01*
X118190280Y-78415129D01*
X118137142Y-78468267D01*
X118137139Y-78468270D01*
X117405229Y-79200181D01*
X117343906Y-79233666D01*
X117317548Y-79236500D01*
X117258354Y-79236500D01*
X117225897Y-79243398D01*
X117073197Y-79275855D01*
X117073192Y-79275857D01*
X116900270Y-79352848D01*
X116900265Y-79352851D01*
X116747129Y-79464111D01*
X116620466Y-79604785D01*
X116525821Y-79768715D01*
X116525818Y-79768722D01*
X116467327Y-79948740D01*
X116467326Y-79948744D01*
X116447540Y-80137000D01*
X116467326Y-80325256D01*
X116467327Y-80325259D01*
X116525818Y-80505277D01*
X116525821Y-80505284D01*
X116620467Y-80669216D01*
X116738693Y-80800519D01*
X116747129Y-80809888D01*
X116900265Y-80921148D01*
X116900270Y-80921151D01*
X117073192Y-80998142D01*
X117073197Y-80998144D01*
X117258354Y-81037500D01*
X117258355Y-81037500D01*
X117447644Y-81037500D01*
X117447646Y-81037500D01*
X117632803Y-80998144D01*
X117805730Y-80921151D01*
X117958871Y-80809888D01*
X118085533Y-80669216D01*
X118180179Y-80505284D01*
X118238674Y-80325256D01*
X118256321Y-80157345D01*
X118282905Y-80092732D01*
X118291951Y-80082637D01*
X118845771Y-79528819D01*
X118907094Y-79495334D01*
X118933452Y-79492500D01*
X122491252Y-79492500D01*
X122558291Y-79512185D01*
X122583400Y-79533526D01*
X122589126Y-79539885D01*
X122589130Y-79539889D01*
X122742265Y-79651148D01*
X122742270Y-79651151D01*
X122915192Y-79728142D01*
X122915197Y-79728144D01*
X123100354Y-79767500D01*
X123100355Y-79767500D01*
X123289644Y-79767500D01*
X123289646Y-79767500D01*
X123410720Y-79741765D01*
X123480386Y-79747081D01*
X123536120Y-79789218D01*
X123560225Y-79854798D01*
X123560500Y-79863055D01*
X123560500Y-89948078D01*
X123540815Y-90015117D01*
X123528650Y-90031050D01*
X123478466Y-90086785D01*
X123383821Y-90250715D01*
X123383818Y-90250722D01*
X123325327Y-90430740D01*
X123325326Y-90430744D01*
X123305540Y-90619000D01*
X123325326Y-90807256D01*
X123325327Y-90807259D01*
X123383818Y-90987277D01*
X123383821Y-90987284D01*
X123478467Y-91151216D01*
X123549682Y-91230308D01*
X123605129Y-91291888D01*
X123758265Y-91403148D01*
X123758270Y-91403151D01*
X123931192Y-91480142D01*
X123931197Y-91480144D01*
X124116354Y-91519500D01*
X124140192Y-91519500D01*
X124207231Y-91539185D01*
X124227873Y-91555819D01*
X129366181Y-96694127D01*
X129399666Y-96755450D01*
X129402500Y-96781808D01*
X129402500Y-99140070D01*
X129417836Y-99217164D01*
X129417836Y-99217166D01*
X129427497Y-99265737D01*
X129427499Y-99265744D01*
X129476534Y-99384125D01*
X129547726Y-99490673D01*
X129547727Y-99490674D01*
X130687506Y-100630452D01*
X130720991Y-100691775D01*
X130720031Y-100748572D01*
X130689865Y-100867696D01*
X130670700Y-101098993D01*
X130670700Y-101099006D01*
X130689864Y-101330297D01*
X130689866Y-101330308D01*
X130746842Y-101555300D01*
X130840075Y-101767848D01*
X130967016Y-101962147D01*
X130967019Y-101962151D01*
X130967021Y-101962153D01*
X131124216Y-102132913D01*
X131124219Y-102132915D01*
X131124222Y-102132918D01*
X131301818Y-102271147D01*
X131342631Y-102327857D01*
X131346306Y-102397630D01*
X131311674Y-102458313D01*
X131301818Y-102466853D01*
X131124222Y-102605081D01*
X131124219Y-102605084D01*
X131124216Y-102605086D01*
X131124216Y-102605087D01*
X131068988Y-102665081D01*
X130967016Y-102775852D01*
X130840075Y-102970151D01*
X130746842Y-103182699D01*
X130689866Y-103407691D01*
X130689864Y-103407702D01*
X130670700Y-103638993D01*
X130670700Y-103639006D01*
X130689864Y-103870297D01*
X130689866Y-103870308D01*
X130746842Y-104095300D01*
X130840075Y-104307848D01*
X130967016Y-104502147D01*
X130967019Y-104502151D01*
X130967021Y-104502153D01*
X131124216Y-104672913D01*
X131124219Y-104672915D01*
X131124222Y-104672918D01*
X131301818Y-104811147D01*
X131342631Y-104867857D01*
X131346306Y-104937630D01*
X131311674Y-104998313D01*
X131301818Y-105006853D01*
X131124222Y-105145081D01*
X131124219Y-105145084D01*
X130967016Y-105315852D01*
X130840075Y-105510151D01*
X130746842Y-105722699D01*
X130689866Y-105947691D01*
X130689864Y-105947702D01*
X130670700Y-106178993D01*
X130670700Y-106179006D01*
X130689864Y-106410297D01*
X130689866Y-106410308D01*
X130746842Y-106635300D01*
X130840075Y-106847848D01*
X130967016Y-107042147D01*
X130967019Y-107042151D01*
X130967021Y-107042153D01*
X131124216Y-107212913D01*
X131124219Y-107212915D01*
X131124222Y-107212918D01*
X131301818Y-107351147D01*
X131342631Y-107407857D01*
X131346306Y-107477630D01*
X131311674Y-107538313D01*
X131301818Y-107546853D01*
X131124222Y-107685081D01*
X131124219Y-107685084D01*
X130967016Y-107855852D01*
X130840075Y-108050151D01*
X130746842Y-108262699D01*
X130689866Y-108487691D01*
X130689864Y-108487702D01*
X130670700Y-108718993D01*
X130670700Y-108719006D01*
X130689864Y-108950297D01*
X130689866Y-108950308D01*
X130746842Y-109175300D01*
X130840075Y-109387848D01*
X130967016Y-109582147D01*
X130967019Y-109582151D01*
X130967021Y-109582153D01*
X131124216Y-109752913D01*
X131124219Y-109752915D01*
X131124222Y-109752918D01*
X131301818Y-109891147D01*
X131342631Y-109947857D01*
X131346306Y-110017630D01*
X131311674Y-110078313D01*
X131301818Y-110086853D01*
X131124222Y-110225081D01*
X131124219Y-110225084D01*
X130967016Y-110395852D01*
X130840075Y-110590151D01*
X130746842Y-110802699D01*
X130689866Y-111027691D01*
X130689864Y-111027702D01*
X130670700Y-111258993D01*
X130670700Y-111259006D01*
X130689864Y-111490297D01*
X130689866Y-111490308D01*
X130746842Y-111715300D01*
X130840075Y-111927848D01*
X130967016Y-112122147D01*
X130967019Y-112122151D01*
X130967021Y-112122153D01*
X131124216Y-112292913D01*
X131124219Y-112292915D01*
X131124222Y-112292918D01*
X131301818Y-112431147D01*
X131342631Y-112487857D01*
X131346306Y-112557630D01*
X131311674Y-112618313D01*
X131301818Y-112626853D01*
X131124222Y-112765081D01*
X131124219Y-112765084D01*
X130967016Y-112935852D01*
X130840075Y-113130151D01*
X130746842Y-113342699D01*
X130689866Y-113567691D01*
X130689864Y-113567702D01*
X130670700Y-113798993D01*
X130670700Y-113799006D01*
X130689864Y-114030297D01*
X130689866Y-114030308D01*
X130746842Y-114255300D01*
X130840075Y-114467848D01*
X130967016Y-114662147D01*
X130967019Y-114662151D01*
X130967021Y-114662153D01*
X131124216Y-114832913D01*
X131124219Y-114832915D01*
X131124222Y-114832918D01*
X131301818Y-114971147D01*
X131342631Y-115027857D01*
X131346306Y-115097630D01*
X131311674Y-115158313D01*
X131301818Y-115166853D01*
X131124222Y-115305081D01*
X131124219Y-115305084D01*
X130967016Y-115475852D01*
X130840075Y-115670151D01*
X130746842Y-115882699D01*
X130689866Y-116107691D01*
X130689864Y-116107702D01*
X130670700Y-116338993D01*
X130670700Y-116339006D01*
X130689864Y-116570297D01*
X130689866Y-116570308D01*
X130746842Y-116795300D01*
X130840075Y-117007848D01*
X130967016Y-117202147D01*
X130967019Y-117202151D01*
X130967021Y-117202153D01*
X131124216Y-117372913D01*
X131124219Y-117372915D01*
X131124222Y-117372918D01*
X131301818Y-117511147D01*
X131342631Y-117567857D01*
X131346306Y-117637630D01*
X131311674Y-117698313D01*
X131301818Y-117706853D01*
X131124222Y-117845081D01*
X131124219Y-117845084D01*
X130967016Y-118015852D01*
X130840075Y-118210151D01*
X130746842Y-118422699D01*
X130689866Y-118647691D01*
X130689864Y-118647702D01*
X130670700Y-118878993D01*
X130670700Y-118879006D01*
X130689864Y-119110297D01*
X130689866Y-119110308D01*
X130746842Y-119335300D01*
X130840075Y-119547848D01*
X130967016Y-119742147D01*
X130967019Y-119742151D01*
X130967021Y-119742153D01*
X131124216Y-119912913D01*
X131124219Y-119912915D01*
X131124222Y-119912918D01*
X131301818Y-120051147D01*
X131342631Y-120107857D01*
X131346306Y-120177630D01*
X131311674Y-120238313D01*
X131301818Y-120246853D01*
X131124222Y-120385081D01*
X131124219Y-120385084D01*
X130967016Y-120555852D01*
X130840075Y-120750151D01*
X130746842Y-120962699D01*
X130689866Y-121187691D01*
X130689864Y-121187702D01*
X130670700Y-121418993D01*
X130670700Y-121419006D01*
X130689864Y-121650297D01*
X130689866Y-121650308D01*
X130746842Y-121875300D01*
X130840075Y-122087848D01*
X130967016Y-122282147D01*
X130967019Y-122282151D01*
X130967021Y-122282153D01*
X131124216Y-122452913D01*
X131124219Y-122452915D01*
X131124222Y-122452918D01*
X131301818Y-122591147D01*
X131342631Y-122647857D01*
X131346306Y-122717630D01*
X131311674Y-122778313D01*
X131301818Y-122786853D01*
X131124222Y-122925081D01*
X131124219Y-122925084D01*
X130967016Y-123095852D01*
X130840075Y-123290151D01*
X130746842Y-123502699D01*
X130689866Y-123727691D01*
X130689864Y-123727702D01*
X130670700Y-123958993D01*
X130670700Y-123959006D01*
X130689864Y-124190297D01*
X130689866Y-124190308D01*
X130746842Y-124415300D01*
X130840075Y-124627848D01*
X130967016Y-124822147D01*
X130967019Y-124822151D01*
X130967021Y-124822153D01*
X131124216Y-124992913D01*
X131124219Y-124992915D01*
X131124222Y-124992918D01*
X131301818Y-125131147D01*
X131342631Y-125187857D01*
X131346306Y-125257630D01*
X131311674Y-125318313D01*
X131301818Y-125326853D01*
X131124222Y-125465081D01*
X131124219Y-125465084D01*
X130967016Y-125635852D01*
X130840075Y-125830151D01*
X130746842Y-126042699D01*
X130689866Y-126267691D01*
X130689864Y-126267702D01*
X130670700Y-126498993D01*
X130670700Y-126499006D01*
X130689864Y-126730297D01*
X130689866Y-126730308D01*
X130746842Y-126955300D01*
X130840075Y-127167848D01*
X130967016Y-127362147D01*
X130967019Y-127362151D01*
X130967021Y-127362153D01*
X131124216Y-127532913D01*
X131124219Y-127532915D01*
X131124222Y-127532918D01*
X131301818Y-127671147D01*
X131342631Y-127727857D01*
X131346306Y-127797630D01*
X131311674Y-127858313D01*
X131301818Y-127866853D01*
X131124222Y-128005081D01*
X131124219Y-128005084D01*
X130967016Y-128175852D01*
X130840075Y-128370151D01*
X130746842Y-128582699D01*
X130689866Y-128807691D01*
X130689864Y-128807702D01*
X130670700Y-129038993D01*
X130670700Y-129039006D01*
X130689864Y-129270297D01*
X130689866Y-129270308D01*
X130746842Y-129495300D01*
X130840075Y-129707848D01*
X130967016Y-129902147D01*
X130967019Y-129902151D01*
X130967021Y-129902153D01*
X131124216Y-130072913D01*
X131124219Y-130072915D01*
X131124222Y-130072918D01*
X131301818Y-130211147D01*
X131342631Y-130267857D01*
X131346306Y-130337630D01*
X131311674Y-130398313D01*
X131301818Y-130406853D01*
X131124222Y-130545081D01*
X131124219Y-130545084D01*
X130967016Y-130715852D01*
X130840075Y-130910151D01*
X130746842Y-131122699D01*
X130689866Y-131347691D01*
X130689864Y-131347702D01*
X130670700Y-131578993D01*
X130670700Y-131579006D01*
X130689864Y-131810297D01*
X130689866Y-131810308D01*
X130746842Y-132035300D01*
X130840075Y-132247848D01*
X130967016Y-132442147D01*
X130967019Y-132442151D01*
X130967021Y-132442153D01*
X131124216Y-132612913D01*
X131124219Y-132612915D01*
X131124222Y-132612918D01*
X131301818Y-132751147D01*
X131342631Y-132807857D01*
X131346306Y-132877630D01*
X131311674Y-132938313D01*
X131301818Y-132946853D01*
X131124222Y-133085081D01*
X131124219Y-133085084D01*
X130967016Y-133255852D01*
X130840075Y-133450151D01*
X130746842Y-133662699D01*
X130689866Y-133887691D01*
X130689864Y-133887702D01*
X130670700Y-134118993D01*
X130670700Y-134119006D01*
X130689864Y-134350297D01*
X130689866Y-134350308D01*
X130746842Y-134575300D01*
X130840075Y-134787848D01*
X130967016Y-134982147D01*
X130967019Y-134982151D01*
X130967021Y-134982153D01*
X131124216Y-135152913D01*
X131124219Y-135152915D01*
X131124222Y-135152918D01*
X131307365Y-135295464D01*
X131307371Y-135295468D01*
X131307374Y-135295470D01*
X131511497Y-135405936D01*
X131625487Y-135445068D01*
X131731015Y-135481297D01*
X131731017Y-135481297D01*
X131731019Y-135481298D01*
X131959951Y-135519500D01*
X131959952Y-135519500D01*
X132192048Y-135519500D01*
X132192049Y-135519500D01*
X132420981Y-135481298D01*
X132640503Y-135405936D01*
X132844626Y-135295470D01*
X133027784Y-135152913D01*
X133184979Y-134982153D01*
X133311924Y-134787849D01*
X133405157Y-134575300D01*
X133462134Y-134350305D01*
X133476328Y-134179006D01*
X133481300Y-134119006D01*
X133481300Y-134118993D01*
X133462135Y-133887702D01*
X133462133Y-133887691D01*
X133405157Y-133662699D01*
X133311924Y-133450151D01*
X133184983Y-133255852D01*
X133184980Y-133255849D01*
X133184979Y-133255847D01*
X133027784Y-133085087D01*
X132850180Y-132946853D01*
X132809368Y-132890143D01*
X132805693Y-132820370D01*
X132840324Y-132759687D01*
X132850181Y-132751146D01*
X133027784Y-132612913D01*
X133184979Y-132442153D01*
X133311924Y-132247849D01*
X133405157Y-132035300D01*
X133462134Y-131810305D01*
X133476328Y-131639006D01*
X133481300Y-131579006D01*
X133481300Y-131578993D01*
X133462135Y-131347702D01*
X133462133Y-131347691D01*
X133405157Y-131122699D01*
X133311924Y-130910151D01*
X133184983Y-130715852D01*
X133184980Y-130715849D01*
X133184979Y-130715847D01*
X133027784Y-130545087D01*
X132850180Y-130406853D01*
X132809368Y-130350143D01*
X132805693Y-130280370D01*
X132840324Y-130219687D01*
X132850181Y-130211146D01*
X133027784Y-130072913D01*
X133184979Y-129902153D01*
X133311924Y-129707849D01*
X133405157Y-129495300D01*
X133462134Y-129270305D01*
X133476328Y-129099006D01*
X133481300Y-129039006D01*
X133481300Y-129038993D01*
X133462135Y-128807702D01*
X133462133Y-128807691D01*
X133405157Y-128582699D01*
X133311924Y-128370151D01*
X133184983Y-128175852D01*
X133184980Y-128175849D01*
X133184979Y-128175847D01*
X133027784Y-128005087D01*
X132850180Y-127866853D01*
X132809368Y-127810143D01*
X132805693Y-127740370D01*
X132840324Y-127679687D01*
X132850181Y-127671146D01*
X133027784Y-127532913D01*
X133184979Y-127362153D01*
X133311924Y-127167849D01*
X133405157Y-126955300D01*
X133462134Y-126730305D01*
X133476328Y-126559006D01*
X133481300Y-126499006D01*
X133481300Y-126498993D01*
X133462135Y-126267702D01*
X133462133Y-126267691D01*
X133431968Y-126148572D01*
X133434593Y-126078752D01*
X133464491Y-126030453D01*
X143503277Y-115991669D01*
X143574466Y-115885126D01*
X143623501Y-115766743D01*
X143641150Y-115678021D01*
X143648500Y-115641069D01*
X143648500Y-86677681D01*
X143668185Y-86610642D01*
X143720989Y-86564887D01*
X143790147Y-86554943D01*
X143817293Y-86562053D01*
X143920469Y-86602024D01*
X144120949Y-86639500D01*
X144120951Y-86639500D01*
X144324899Y-86639500D01*
X144324901Y-86639500D01*
X144525381Y-86602024D01*
X144715562Y-86528348D01*
X144888966Y-86420981D01*
X145039689Y-86283579D01*
X145162598Y-86120821D01*
X145253507Y-85938250D01*
X145309322Y-85742083D01*
X145328140Y-85539000D01*
X145309322Y-85335917D01*
X145253507Y-85139750D01*
X145229504Y-85091546D01*
X145172136Y-84976335D01*
X145162598Y-84957179D01*
X145039689Y-84794421D01*
X145039687Y-84794418D01*
X144913887Y-84679737D01*
X144877605Y-84620026D01*
X144873425Y-84588100D01*
X144873425Y-84262882D01*
X144893110Y-84195843D01*
X144909739Y-84175206D01*
X149370450Y-79714494D01*
X149431771Y-79681011D01*
X149501463Y-79685995D01*
X149557396Y-79727867D01*
X149581813Y-79793331D01*
X149581657Y-79812984D01*
X149575532Y-79882997D01*
X149575532Y-79883001D01*
X149595364Y-80109686D01*
X149595366Y-80109697D01*
X149654258Y-80329488D01*
X149654261Y-80329497D01*
X149750431Y-80535732D01*
X149750432Y-80535734D01*
X149880954Y-80722141D01*
X150041858Y-80883045D01*
X150041861Y-80883047D01*
X150228266Y-81013568D01*
X150286275Y-81040618D01*
X150338714Y-81086791D01*
X150357866Y-81153984D01*
X150337650Y-81220865D01*
X150286275Y-81265382D01*
X150228267Y-81292431D01*
X150228265Y-81292432D01*
X150041858Y-81422954D01*
X149880954Y-81583858D01*
X149750432Y-81770265D01*
X149750431Y-81770267D01*
X149654261Y-81976502D01*
X149654258Y-81976511D01*
X149595366Y-82196302D01*
X149595364Y-82196313D01*
X149575532Y-82422998D01*
X149575532Y-82423001D01*
X149595364Y-82649686D01*
X149595366Y-82649697D01*
X149654258Y-82869488D01*
X149654261Y-82869497D01*
X149750431Y-83075732D01*
X149750432Y-83075734D01*
X149880954Y-83262141D01*
X150041858Y-83423045D01*
X150041861Y-83423047D01*
X150228266Y-83553568D01*
X150286275Y-83580618D01*
X150338714Y-83626791D01*
X150357866Y-83693984D01*
X150337650Y-83760865D01*
X150286275Y-83805382D01*
X150228267Y-83832431D01*
X150228265Y-83832432D01*
X150041858Y-83962954D01*
X149880954Y-84123858D01*
X149750432Y-84310265D01*
X149750431Y-84310267D01*
X149654261Y-84516502D01*
X149654258Y-84516511D01*
X149595366Y-84736302D01*
X149595364Y-84736313D01*
X149575532Y-84962998D01*
X149575532Y-84963001D01*
X149595364Y-85189686D01*
X149595366Y-85189697D01*
X149654258Y-85409488D01*
X149654261Y-85409497D01*
X149750431Y-85615732D01*
X149750432Y-85615734D01*
X149880954Y-85802141D01*
X150041858Y-85963045D01*
X150041861Y-85963047D01*
X150228266Y-86093568D01*
X150286275Y-86120618D01*
X150338714Y-86166791D01*
X150357866Y-86233984D01*
X150337650Y-86300865D01*
X150286275Y-86345382D01*
X150228267Y-86372431D01*
X150228265Y-86372432D01*
X150041858Y-86502954D01*
X149880954Y-86663858D01*
X149750432Y-86850265D01*
X149750431Y-86850267D01*
X149654261Y-87056502D01*
X149654258Y-87056511D01*
X149595366Y-87276302D01*
X149595364Y-87276313D01*
X149575532Y-87502998D01*
X149575532Y-87503001D01*
X149595364Y-87729686D01*
X149595366Y-87729697D01*
X149654258Y-87949488D01*
X149654261Y-87949497D01*
X149750431Y-88155732D01*
X149750432Y-88155734D01*
X149880954Y-88342141D01*
X150041858Y-88503045D01*
X150041861Y-88503047D01*
X150228266Y-88633568D01*
X150434504Y-88729739D01*
X150654308Y-88788635D01*
X150816230Y-88802801D01*
X150880998Y-88808468D01*
X150881000Y-88808468D01*
X150881002Y-88808468D01*
X150937673Y-88803509D01*
X151107692Y-88788635D01*
X151327496Y-88729739D01*
X151533734Y-88633568D01*
X151720139Y-88503047D01*
X151881047Y-88342139D01*
X152011568Y-88155734D01*
X152107739Y-87949496D01*
X152166635Y-87729692D01*
X152186468Y-87503000D01*
X152166635Y-87276308D01*
X152107739Y-87056504D01*
X152011568Y-86850266D01*
X151881047Y-86663861D01*
X151881045Y-86663858D01*
X151720141Y-86502954D01*
X151533734Y-86372432D01*
X151533728Y-86372429D01*
X151475725Y-86345382D01*
X151423285Y-86299210D01*
X151404133Y-86232017D01*
X151424348Y-86165135D01*
X151475725Y-86120618D01*
X151533734Y-86093568D01*
X151720139Y-85963047D01*
X151881047Y-85802139D01*
X152011568Y-85615734D01*
X152107739Y-85409496D01*
X152166635Y-85189692D01*
X152186468Y-84963000D01*
X152166635Y-84736308D01*
X152107739Y-84516504D01*
X152011568Y-84310266D01*
X151881047Y-84123861D01*
X151881045Y-84123858D01*
X151720141Y-83962954D01*
X151533734Y-83832432D01*
X151533728Y-83832429D01*
X151475725Y-83805382D01*
X151423285Y-83759210D01*
X151404133Y-83692017D01*
X151424348Y-83625135D01*
X151475725Y-83580618D01*
X151533734Y-83553568D01*
X151720139Y-83423047D01*
X151881047Y-83262139D01*
X152011568Y-83075734D01*
X152107739Y-82869496D01*
X152166635Y-82649692D01*
X152186468Y-82423000D01*
X152166635Y-82196308D01*
X152107739Y-81976504D01*
X152011568Y-81770266D01*
X151881047Y-81583861D01*
X151881045Y-81583858D01*
X151720141Y-81422954D01*
X151533734Y-81292432D01*
X151533728Y-81292429D01*
X151475725Y-81265382D01*
X151423285Y-81219210D01*
X151404133Y-81152017D01*
X151424348Y-81085135D01*
X151475725Y-81040618D01*
X151533734Y-81013568D01*
X151720139Y-80883047D01*
X151881047Y-80722139D01*
X152011568Y-80535734D01*
X152107739Y-80329496D01*
X152166635Y-80109692D01*
X152186468Y-79883000D01*
X152166635Y-79656308D01*
X152107739Y-79436504D01*
X152011568Y-79230266D01*
X151881047Y-79043861D01*
X151881045Y-79043858D01*
X151720141Y-78882954D01*
X151533734Y-78752432D01*
X151533728Y-78752429D01*
X151475725Y-78725382D01*
X151423285Y-78679210D01*
X151404133Y-78612017D01*
X151424348Y-78545135D01*
X151475725Y-78500618D01*
X151533734Y-78473568D01*
X151720139Y-78343047D01*
X151881047Y-78182139D01*
X152011568Y-77995734D01*
X152107739Y-77789496D01*
X152166635Y-77569692D01*
X152186468Y-77343000D01*
X152166635Y-77116308D01*
X152107739Y-76896504D01*
X152011568Y-76690266D01*
X151906950Y-76540855D01*
X151881045Y-76503858D01*
X151720140Y-76342953D01*
X151584377Y-76247891D01*
X151540752Y-76193314D01*
X151531500Y-76146316D01*
X151531500Y-75999682D01*
X151551185Y-75932643D01*
X151584371Y-75898111D01*
X151720139Y-75803047D01*
X151881047Y-75642139D01*
X152011568Y-75455734D01*
X152107739Y-75249496D01*
X152166635Y-75029692D01*
X152183634Y-74835384D01*
X152186468Y-74803001D01*
X152186468Y-74802998D01*
X152174402Y-74665084D01*
X152166635Y-74576308D01*
X152107739Y-74356504D01*
X152011568Y-74150266D01*
X151881047Y-73963861D01*
X151881045Y-73963858D01*
X151720141Y-73802954D01*
X151533734Y-73672432D01*
X151533728Y-73672429D01*
X151475725Y-73645382D01*
X151423285Y-73599210D01*
X151404133Y-73532017D01*
X151424348Y-73465135D01*
X151475725Y-73420618D01*
X151533734Y-73393568D01*
X151720139Y-73263047D01*
X151881047Y-73102139D01*
X152011568Y-72915734D01*
X152107739Y-72709496D01*
X152166635Y-72489692D01*
X152186468Y-72263000D01*
X152166635Y-72036308D01*
X152107739Y-71816504D01*
X152011568Y-71610266D01*
X151881047Y-71423861D01*
X151881045Y-71423858D01*
X151720141Y-71262954D01*
X151533734Y-71132432D01*
X151533728Y-71132429D01*
X151475725Y-71105382D01*
X151423285Y-71059210D01*
X151404133Y-70992017D01*
X151424348Y-70925135D01*
X151475725Y-70880618D01*
X151533734Y-70853568D01*
X151720139Y-70723047D01*
X151881047Y-70562139D01*
X152011568Y-70375734D01*
X152107739Y-70169496D01*
X152166635Y-69949692D01*
X152186468Y-69723000D01*
X152166635Y-69496308D01*
X152107739Y-69276504D01*
X152011568Y-69070266D01*
X151881047Y-68883861D01*
X151881045Y-68883858D01*
X151720141Y-68722954D01*
X151533734Y-68592432D01*
X151533732Y-68592431D01*
X151327497Y-68496261D01*
X151327488Y-68496258D01*
X151107697Y-68437366D01*
X151107693Y-68437365D01*
X151107692Y-68437365D01*
X151107691Y-68437364D01*
X151107686Y-68437364D01*
X150881002Y-68417532D01*
X150880998Y-68417532D01*
X150654313Y-68437364D01*
X150654302Y-68437366D01*
X150434511Y-68496258D01*
X150434502Y-68496261D01*
X150228267Y-68592431D01*
X150228265Y-68592432D01*
X150041858Y-68722954D01*
X149880954Y-68883858D01*
X149750432Y-69070265D01*
X149750431Y-69070267D01*
X149654261Y-69276502D01*
X149654258Y-69276511D01*
X149595366Y-69496302D01*
X149595364Y-69496313D01*
X149575532Y-69722998D01*
X149575532Y-69723001D01*
X149595364Y-69949686D01*
X149595366Y-69949697D01*
X149654258Y-70169488D01*
X149654261Y-70169497D01*
X149750431Y-70375732D01*
X149750432Y-70375734D01*
X149880954Y-70562141D01*
X150041858Y-70723045D01*
X150041861Y-70723047D01*
X150228266Y-70853568D01*
X150286275Y-70880618D01*
X150338714Y-70926791D01*
X150357866Y-70993984D01*
X150337650Y-71060865D01*
X150286275Y-71105382D01*
X150228267Y-71132431D01*
X150228265Y-71132432D01*
X150041858Y-71262954D01*
X149880954Y-71423858D01*
X149750432Y-71610265D01*
X149750431Y-71610267D01*
X149654261Y-71816502D01*
X149654258Y-71816511D01*
X149595366Y-72036302D01*
X149595364Y-72036313D01*
X149575532Y-72262998D01*
X149575532Y-72263001D01*
X149595364Y-72489686D01*
X149595366Y-72489697D01*
X149654258Y-72709488D01*
X149654261Y-72709497D01*
X149750431Y-72915732D01*
X149750432Y-72915734D01*
X149880954Y-73102141D01*
X150041858Y-73263045D01*
X150041861Y-73263047D01*
X150228266Y-73393568D01*
X150286275Y-73420618D01*
X150338714Y-73466791D01*
X150357866Y-73533984D01*
X150337650Y-73600865D01*
X150286275Y-73645382D01*
X150228267Y-73672431D01*
X150228265Y-73672432D01*
X150041858Y-73802954D01*
X149880954Y-73963858D01*
X149750432Y-74150265D01*
X149750431Y-74150267D01*
X149654261Y-74356502D01*
X149654258Y-74356511D01*
X149595366Y-74576302D01*
X149595364Y-74576313D01*
X149575532Y-74802998D01*
X149575532Y-74803001D01*
X149595364Y-75029686D01*
X149595366Y-75029697D01*
X149654258Y-75249488D01*
X149654261Y-75249497D01*
X149750431Y-75455732D01*
X149750432Y-75455734D01*
X149880954Y-75642141D01*
X150041855Y-75803042D01*
X150041858Y-75803044D01*
X150041861Y-75803047D01*
X150177626Y-75898109D01*
X150221248Y-75952683D01*
X150230500Y-75999682D01*
X150230500Y-76146316D01*
X150210815Y-76213355D01*
X150177623Y-76247891D01*
X150041859Y-76342953D01*
X149880954Y-76503858D01*
X149750432Y-76690265D01*
X149750431Y-76690267D01*
X149654261Y-76896502D01*
X149654258Y-76896511D01*
X149595366Y-77116302D01*
X149595364Y-77116313D01*
X149575532Y-77342998D01*
X149575532Y-77343001D01*
X149595365Y-77569692D01*
X149596147Y-77574127D01*
X149588403Y-77643566D01*
X149561712Y-77683340D01*
X143860181Y-83384872D01*
X143798858Y-83418357D01*
X143729166Y-83413373D01*
X143673233Y-83371501D01*
X143648816Y-83306037D01*
X143648500Y-83297191D01*
X143648500Y-55861822D01*
X143623502Y-55736154D01*
X143623500Y-55736148D01*
X143603189Y-55687115D01*
X143603187Y-55687110D01*
X143574468Y-55617772D01*
X143574462Y-55617762D01*
X143503278Y-55511226D01*
X143503272Y-55511219D01*
X140010819Y-52018766D01*
X139977334Y-51957443D01*
X139974500Y-51931085D01*
X139974500Y-50862140D01*
X140383548Y-50862140D01*
X140383548Y-51147859D01*
X140424209Y-51430669D01*
X140424211Y-51430679D01*
X140504708Y-51704826D01*
X140623393Y-51964710D01*
X140623402Y-51964726D01*
X140777872Y-52205085D01*
X140777878Y-52205092D01*
X140964978Y-52421019D01*
X140964980Y-52421021D01*
X141180907Y-52608121D01*
X141180914Y-52608127D01*
X141421273Y-52762597D01*
X141421289Y-52762606D01*
X141681173Y-52881291D01*
X141681177Y-52881292D01*
X141681179Y-52881293D01*
X141955326Y-52961790D01*
X142238139Y-53002452D01*
X142523858Y-53002452D01*
X142523861Y-53002452D01*
X142806674Y-52961790D01*
X143080821Y-52881293D01*
X143080824Y-52881291D01*
X143080826Y-52881291D01*
X143340710Y-52762606D01*
X143340714Y-52762603D01*
X143340722Y-52762600D01*
X143581086Y-52608127D01*
X143797020Y-52421020D01*
X143984127Y-52205086D01*
X144138600Y-51964722D01*
X144138603Y-51964714D01*
X144138606Y-51964710D01*
X144257291Y-51704826D01*
X144257291Y-51704824D01*
X144257293Y-51704821D01*
X144337790Y-51430674D01*
X144378452Y-51147861D01*
X144381000Y-51005000D01*
X144378452Y-50862139D01*
X144337790Y-50579326D01*
X144257293Y-50305179D01*
X144257292Y-50305177D01*
X144257291Y-50305173D01*
X144138606Y-50045289D01*
X144138597Y-50045273D01*
X143984127Y-49804914D01*
X143984121Y-49804907D01*
X143797021Y-49588980D01*
X143797019Y-49588978D01*
X143581092Y-49401878D01*
X143581085Y-49401872D01*
X143340726Y-49247402D01*
X143340710Y-49247393D01*
X143080826Y-49128708D01*
X142806679Y-49048211D01*
X142806669Y-49048209D01*
X142666865Y-49028108D01*
X142523861Y-49007548D01*
X142523859Y-49007548D01*
X142238140Y-49007548D01*
X142238139Y-49007548D01*
X142166636Y-49017828D01*
X141955330Y-49048209D01*
X141955320Y-49048211D01*
X141681173Y-49128708D01*
X141421289Y-49247393D01*
X141421273Y-49247402D01*
X141180914Y-49401872D01*
X141180907Y-49401878D01*
X140964980Y-49588978D01*
X140964978Y-49588980D01*
X140777878Y-49804907D01*
X140777872Y-49804914D01*
X140623402Y-50045273D01*
X140623393Y-50045289D01*
X140504708Y-50305173D01*
X140424211Y-50579320D01*
X140424209Y-50579330D01*
X140383548Y-50862140D01*
X139974500Y-50862140D01*
X139974500Y-48631821D01*
X139949502Y-48506154D01*
X139949501Y-48506153D01*
X139949501Y-48506149D01*
X139900465Y-48387766D01*
X139900464Y-48387763D01*
X139829277Y-48281224D01*
X139829271Y-48281217D01*
X133587780Y-42039726D01*
X133587776Y-42039723D01*
X133481234Y-41968535D01*
X133362851Y-41919499D01*
X133362845Y-41919497D01*
X133237178Y-41894500D01*
X133237176Y-41894500D01*
X120365741Y-41894500D01*
X120298702Y-41874815D01*
X120260202Y-41835596D01*
X120205340Y-41746650D01*
X120083351Y-41624661D01*
X120083350Y-41624660D01*
X119936516Y-41534092D01*
X119772753Y-41479826D01*
X119772751Y-41479825D01*
X119671684Y-41469500D01*
X119671677Y-41469500D01*
X119280808Y-41469500D01*
X119213769Y-41449815D01*
X119193127Y-41433181D01*
X118783674Y-41023727D01*
X118783673Y-41023726D01*
X118783669Y-41023723D01*
X118677127Y-40952535D01*
X118558744Y-40903499D01*
X118558738Y-40903497D01*
X118433071Y-40878500D01*
X118433069Y-40878500D01*
X115256931Y-40878500D01*
X115256929Y-40878500D01*
X115131261Y-40903497D01*
X115131255Y-40903499D01*
X115012874Y-40952534D01*
X114906329Y-41023724D01*
X114906328Y-41023725D01*
X114534371Y-41395681D01*
X114473048Y-41429166D01*
X114446690Y-41432000D01*
X114018330Y-41432000D01*
X114018312Y-41432001D01*
X113917247Y-41442325D01*
X113753484Y-41496592D01*
X113753481Y-41496593D01*
X113606648Y-41587161D01*
X113484661Y-41709148D01*
X113484660Y-41709150D01*
X113406668Y-41835596D01*
X113391247Y-41860597D01*
X113339299Y-41907321D01*
X113285708Y-41919500D01*
X112784292Y-41919500D01*
X112717253Y-41899815D01*
X112678753Y-41860597D01*
X112675906Y-41855981D01*
X112585340Y-41709150D01*
X112463350Y-41587160D01*
X112316516Y-41496592D01*
X112152753Y-41442326D01*
X112152751Y-41442325D01*
X112051678Y-41432000D01*
X111478330Y-41432000D01*
X111478312Y-41432001D01*
X111377247Y-41442325D01*
X111213484Y-41496592D01*
X111213481Y-41496593D01*
X111066648Y-41587161D01*
X110944661Y-41709148D01*
X110944660Y-41709150D01*
X110866668Y-41835596D01*
X110851247Y-41860597D01*
X110799299Y-41907321D01*
X110745708Y-41919500D01*
X110244292Y-41919500D01*
X110177253Y-41899815D01*
X110138753Y-41860597D01*
X110135906Y-41855981D01*
X110045340Y-41709150D01*
X109923350Y-41587160D01*
X109776516Y-41496592D01*
X109612753Y-41442326D01*
X109612751Y-41442325D01*
X109511678Y-41432000D01*
X108938330Y-41432000D01*
X108938312Y-41432001D01*
X108837247Y-41442325D01*
X108673484Y-41496592D01*
X108673481Y-41496593D01*
X108526648Y-41587161D01*
X108404661Y-41709148D01*
X108314093Y-41855981D01*
X108314091Y-41855986D01*
X108293046Y-41919497D01*
X108259826Y-42019747D01*
X108259826Y-42019748D01*
X108259825Y-42019748D01*
X108249500Y-42120815D01*
X108249500Y-42794169D01*
X108249501Y-42794187D01*
X108259825Y-42895252D01*
X108296109Y-43004749D01*
X108304978Y-43031513D01*
X108314092Y-43059015D01*
X108314093Y-43059018D01*
X108404661Y-43205851D01*
X108443629Y-43244819D01*
X108477114Y-43306142D01*
X108472130Y-43375834D01*
X108443629Y-43420181D01*
X108404661Y-43459148D01*
X108314093Y-43605981D01*
X108314092Y-43605984D01*
X108259826Y-43769747D01*
X108259826Y-43769748D01*
X108259825Y-43769748D01*
X108249500Y-43870815D01*
X108249500Y-44544169D01*
X108249501Y-44544187D01*
X108259825Y-44645252D01*
X108272252Y-44682753D01*
X108314092Y-44809016D01*
X108404660Y-44955850D01*
X108526650Y-45077840D01*
X108538920Y-45085408D01*
X108540596Y-45086442D01*
X108587321Y-45138390D01*
X108599500Y-45191981D01*
X108599500Y-45276071D01*
X108579815Y-45343110D01*
X108546627Y-45377644D01*
X108524124Y-45393401D01*
X108369400Y-45548124D01*
X108243900Y-45727357D01*
X108243898Y-45727361D01*
X108151426Y-45925668D01*
X108151422Y-45925677D01*
X108094793Y-46137020D01*
X108094793Y-46137024D01*
X108075723Y-46354997D01*
X108075723Y-46355002D01*
X108094793Y-46572975D01*
X108094793Y-46572979D01*
X108151422Y-46784322D01*
X108151424Y-46784326D01*
X108151425Y-46784330D01*
X108168929Y-46821867D01*
X108243897Y-46982638D01*
X108243898Y-46982639D01*
X108369402Y-47161877D01*
X108524123Y-47316598D01*
X108703361Y-47442102D01*
X108811693Y-47492618D01*
X108864132Y-47538790D01*
X108883284Y-47605984D01*
X108863068Y-47672865D01*
X108811693Y-47717382D01*
X108703362Y-47767898D01*
X108703357Y-47767900D01*
X108524121Y-47893402D01*
X108369402Y-48048121D01*
X108243900Y-48227357D01*
X108243898Y-48227361D01*
X108151426Y-48425668D01*
X108151422Y-48425677D01*
X108094793Y-48637020D01*
X108094793Y-48637024D01*
X108075723Y-48854997D01*
X108075723Y-48855002D01*
X108094793Y-49072975D01*
X108094793Y-49072979D01*
X108151422Y-49284322D01*
X108151424Y-49284326D01*
X108151425Y-49284330D01*
X108168929Y-49321867D01*
X108243897Y-49482638D01*
X108251548Y-49493565D01*
X108369402Y-49661877D01*
X108524123Y-49816598D01*
X108703361Y-49942102D01*
X108811693Y-49992618D01*
X108864132Y-50038790D01*
X108883284Y-50105984D01*
X108863068Y-50172865D01*
X108811693Y-50217382D01*
X108703362Y-50267898D01*
X108703357Y-50267900D01*
X108524121Y-50393402D01*
X108369402Y-50548121D01*
X108243900Y-50727357D01*
X108243898Y-50727361D01*
X108151426Y-50925668D01*
X108151422Y-50925677D01*
X108094793Y-51137020D01*
X108094793Y-51137024D01*
X108075723Y-51354997D01*
X108075723Y-51355004D01*
X108076415Y-51362916D01*
X108062647Y-51431416D01*
X108040568Y-51461402D01*
X106694212Y-52807758D01*
X106632889Y-52841243D01*
X106563197Y-52836259D01*
X106535407Y-52821652D01*
X106458639Y-52767898D01*
X106260330Y-52675425D01*
X106260326Y-52675424D01*
X106260322Y-52675422D01*
X106048977Y-52618793D01*
X105831002Y-52599723D01*
X105830998Y-52599723D01*
X105710364Y-52610277D01*
X105613023Y-52618793D01*
X105613020Y-52618793D01*
X105401677Y-52675422D01*
X105401668Y-52675426D01*
X105203361Y-52767898D01*
X105203357Y-52767900D01*
X105024121Y-52893402D01*
X104974345Y-52943180D01*
X104913022Y-52976666D01*
X104886663Y-52979500D01*
X103075337Y-52979500D01*
X103008298Y-52959815D01*
X102987656Y-52943181D01*
X102937881Y-52893406D01*
X102937877Y-52893402D01*
X102778018Y-52781467D01*
X102758638Y-52767897D01*
X102603608Y-52695606D01*
X102560330Y-52675425D01*
X102560326Y-52675424D01*
X102560322Y-52675422D01*
X102348977Y-52618793D01*
X102131002Y-52599723D01*
X102130998Y-52599723D01*
X102010364Y-52610277D01*
X101913023Y-52618793D01*
X101913020Y-52618793D01*
X101701677Y-52675422D01*
X101701668Y-52675426D01*
X101503361Y-52767898D01*
X101503357Y-52767900D01*
X101324121Y-52893402D01*
X101169402Y-53048121D01*
X101043900Y-53227357D01*
X101043898Y-53227361D01*
X100951426Y-53425668D01*
X100951422Y-53425677D01*
X100894793Y-53637020D01*
X100894793Y-53637024D01*
X100876197Y-53849586D01*
X100875723Y-53855000D01*
X96133265Y-53855000D01*
X96041593Y-53813135D01*
X95837902Y-53763720D01*
X95648489Y-53754697D01*
X95628543Y-53753747D01*
X95628542Y-53753747D01*
X95628541Y-53753747D01*
X95421075Y-53783576D01*
X95421074Y-53783576D01*
X95421069Y-53783577D01*
X95223002Y-53852129D01*
X95041492Y-53956923D01*
X95041481Y-53956931D01*
X94883083Y-54094185D01*
X94883079Y-54094189D01*
X94753518Y-54258937D01*
X94657470Y-54445244D01*
X94598423Y-54646343D01*
X94598420Y-54646360D01*
X94578498Y-54854994D01*
X77475000Y-54854994D01*
X77475000Y-50862140D01*
X89583548Y-50862140D01*
X89583548Y-51147859D01*
X89624209Y-51430669D01*
X89624211Y-51430679D01*
X89704708Y-51704826D01*
X89823393Y-51964710D01*
X89823402Y-51964726D01*
X89977872Y-52205085D01*
X89977878Y-52205092D01*
X90164978Y-52421019D01*
X90164980Y-52421021D01*
X90380907Y-52608121D01*
X90380914Y-52608127D01*
X90621273Y-52762597D01*
X90621289Y-52762606D01*
X90881173Y-52881291D01*
X90881177Y-52881292D01*
X90881179Y-52881293D01*
X91155326Y-52961790D01*
X91438139Y-53002452D01*
X91723858Y-53002452D01*
X91723861Y-53002452D01*
X92006674Y-52961790D01*
X92280821Y-52881293D01*
X92280824Y-52881291D01*
X92280826Y-52881291D01*
X92540710Y-52762606D01*
X92540714Y-52762603D01*
X92540722Y-52762600D01*
X92781086Y-52608127D01*
X92997020Y-52421020D01*
X93184127Y-52205086D01*
X93338600Y-51964722D01*
X93338603Y-51964714D01*
X93338606Y-51964710D01*
X93457291Y-51704826D01*
X93457291Y-51704824D01*
X93457293Y-51704821D01*
X93537790Y-51430674D01*
X93578452Y-51147861D01*
X93581000Y-51005000D01*
X93578452Y-50862139D01*
X93537790Y-50579326D01*
X93457293Y-50305179D01*
X93457292Y-50305177D01*
X93457291Y-50305173D01*
X93338606Y-50045289D01*
X93338597Y-50045273D01*
X93184127Y-49804914D01*
X93184121Y-49804907D01*
X92997021Y-49588980D01*
X92997019Y-49588978D01*
X92781092Y-49401878D01*
X92781085Y-49401872D01*
X92540726Y-49247402D01*
X92540710Y-49247393D01*
X92280826Y-49128708D01*
X92006679Y-49048211D01*
X92006669Y-49048209D01*
X91866865Y-49028108D01*
X91723861Y-49007548D01*
X91723859Y-49007548D01*
X91438140Y-49007548D01*
X91438139Y-49007548D01*
X91366636Y-49017828D01*
X91155330Y-49048209D01*
X91155320Y-49048211D01*
X90881173Y-49128708D01*
X90621289Y-49247393D01*
X90621273Y-49247402D01*
X90380914Y-49401872D01*
X90380907Y-49401878D01*
X90164980Y-49588978D01*
X90164978Y-49588980D01*
X89977878Y-49804907D01*
X89977872Y-49804914D01*
X89823402Y-50045273D01*
X89823393Y-50045289D01*
X89704708Y-50305173D01*
X89624211Y-50579320D01*
X89624209Y-50579330D01*
X89583548Y-50862140D01*
X77475000Y-50862140D01*
X77475000Y-42342362D01*
X77494685Y-42275323D01*
X77511319Y-42254681D01*
X80994681Y-38771319D01*
X81056004Y-38737834D01*
X81082362Y-38735000D01*
X152607638Y-38735000D01*
X152674677Y-38754685D01*
G37*
%TD.AperFunction*%
%TD*%
M02*
