%TF.GenerationSoftware,KiCad,Pcbnew,8.0.5*%
%TF.CreationDate,2024-11-27T16:11:53+01:00*%
%TF.ProjectId,Core4GPZ_rev0-1,436f7265-3447-4505-9a5f-726576302d31,rev?*%
%TF.SameCoordinates,Original*%
%TF.FileFunction,Drillmap*%
%TF.FilePolarity,Positive*%
%FSLAX45Y45*%
G04 Gerber Fmt 4.5, Leading zero omitted, Abs format (unit mm)*
G04 Created by KiCad (PCBNEW 8.0.5) date 2024-11-27 16:11:53*
%MOMM*%
%LPD*%
G01*
G04 APERTURE LIST*
%ADD10C,0.100000*%
%ADD11C,0.120000*%
%ADD12C,0.200000*%
G04 APERTURE END LIST*
D10*
X15621500Y-14033500D02*
X15265900Y-14389100D01*
X8103100Y-3873500D02*
X15265900Y-3873500D01*
X8103100Y-3873500D02*
X7747500Y-4229100D01*
X15265900Y-14389100D02*
X8103100Y-14389100D01*
X7747500Y-14033500D02*
X8103100Y-14389100D01*
X7747500Y-4229100D02*
X7747500Y-14033500D01*
X15265900Y-3873500D02*
X15621500Y-4229100D01*
X15621500Y-4229100D02*
X15621500Y-14033500D01*
D11*
X9358100Y-5100500D02*
G75*
G02*
X8958100Y-5100500I-200000J0D01*
G01*
X8958100Y-5100500D02*
G75*
G02*
X9358100Y-5100500I200000J0D01*
G01*
X9678100Y-5485500D02*
G75*
G02*
X9458100Y-5485500I-110000J0D01*
G01*
X9458100Y-5485500D02*
G75*
G02*
X9678100Y-5485500I110000J0D01*
G01*
X13938100Y-5485500D02*
G75*
G02*
X13718100Y-5485500I-110000J0D01*
G01*
X13718100Y-5485500D02*
G75*
G02*
X13938100Y-5485500I110000J0D01*
G01*
X14438100Y-5100500D02*
G75*
G02*
X14038100Y-5100500I-200000J0D01*
G01*
X14038100Y-5100500D02*
G75*
G02*
X14438100Y-5100500I200000J0D01*
G01*
D12*
X8003277Y-14705584D02*
X8003277Y-14505584D01*
X8003277Y-14505584D02*
X8050896Y-14505584D01*
X8050896Y-14505584D02*
X8079467Y-14515108D01*
X8079467Y-14515108D02*
X8098515Y-14534155D01*
X8098515Y-14534155D02*
X8108039Y-14553203D01*
X8108039Y-14553203D02*
X8117562Y-14591298D01*
X8117562Y-14591298D02*
X8117562Y-14619869D01*
X8117562Y-14619869D02*
X8108039Y-14657965D01*
X8108039Y-14657965D02*
X8098515Y-14677012D01*
X8098515Y-14677012D02*
X8079467Y-14696060D01*
X8079467Y-14696060D02*
X8050896Y-14705584D01*
X8050896Y-14705584D02*
X8003277Y-14705584D01*
X8203277Y-14705584D02*
X8203277Y-14572250D01*
X8203277Y-14610346D02*
X8212801Y-14591298D01*
X8212801Y-14591298D02*
X8222324Y-14581774D01*
X8222324Y-14581774D02*
X8241372Y-14572250D01*
X8241372Y-14572250D02*
X8260420Y-14572250D01*
X8327086Y-14705584D02*
X8327086Y-14572250D01*
X8327086Y-14505584D02*
X8317562Y-14515108D01*
X8317562Y-14515108D02*
X8327086Y-14524631D01*
X8327086Y-14524631D02*
X8336610Y-14515108D01*
X8336610Y-14515108D02*
X8327086Y-14505584D01*
X8327086Y-14505584D02*
X8327086Y-14524631D01*
X8450896Y-14705584D02*
X8431848Y-14696060D01*
X8431848Y-14696060D02*
X8422324Y-14677012D01*
X8422324Y-14677012D02*
X8422324Y-14505584D01*
X8555658Y-14705584D02*
X8536610Y-14696060D01*
X8536610Y-14696060D02*
X8527086Y-14677012D01*
X8527086Y-14677012D02*
X8527086Y-14505584D01*
X8784229Y-14705584D02*
X8784229Y-14505584D01*
X8784229Y-14505584D02*
X8850896Y-14648441D01*
X8850896Y-14648441D02*
X8917563Y-14505584D01*
X8917563Y-14505584D02*
X8917563Y-14705584D01*
X9098515Y-14705584D02*
X9098515Y-14600822D01*
X9098515Y-14600822D02*
X9088991Y-14581774D01*
X9088991Y-14581774D02*
X9069944Y-14572250D01*
X9069944Y-14572250D02*
X9031848Y-14572250D01*
X9031848Y-14572250D02*
X9012801Y-14581774D01*
X9098515Y-14696060D02*
X9079467Y-14705584D01*
X9079467Y-14705584D02*
X9031848Y-14705584D01*
X9031848Y-14705584D02*
X9012801Y-14696060D01*
X9012801Y-14696060D02*
X9003277Y-14677012D01*
X9003277Y-14677012D02*
X9003277Y-14657965D01*
X9003277Y-14657965D02*
X9012801Y-14638917D01*
X9012801Y-14638917D02*
X9031848Y-14629393D01*
X9031848Y-14629393D02*
X9079467Y-14629393D01*
X9079467Y-14629393D02*
X9098515Y-14619869D01*
X9193753Y-14572250D02*
X9193753Y-14772250D01*
X9193753Y-14581774D02*
X9212801Y-14572250D01*
X9212801Y-14572250D02*
X9250896Y-14572250D01*
X9250896Y-14572250D02*
X9269944Y-14581774D01*
X9269944Y-14581774D02*
X9279467Y-14591298D01*
X9279467Y-14591298D02*
X9288991Y-14610346D01*
X9288991Y-14610346D02*
X9288991Y-14667488D01*
X9288991Y-14667488D02*
X9279467Y-14686536D01*
X9279467Y-14686536D02*
X9269944Y-14696060D01*
X9269944Y-14696060D02*
X9250896Y-14705584D01*
X9250896Y-14705584D02*
X9212801Y-14705584D01*
X9212801Y-14705584D02*
X9193753Y-14696060D01*
X9374705Y-14686536D02*
X9384229Y-14696060D01*
X9384229Y-14696060D02*
X9374705Y-14705584D01*
X9374705Y-14705584D02*
X9365182Y-14696060D01*
X9365182Y-14696060D02*
X9374705Y-14686536D01*
X9374705Y-14686536D02*
X9374705Y-14705584D01*
X9374705Y-14581774D02*
X9384229Y-14591298D01*
X9384229Y-14591298D02*
X9374705Y-14600822D01*
X9374705Y-14600822D02*
X9365182Y-14591298D01*
X9365182Y-14591298D02*
X9374705Y-14581774D01*
X9374705Y-14581774D02*
X9374705Y-14600822D01*
M02*
