%TF.GenerationSoftware,KiCad,Pcbnew,8.0.5*%
%TF.CreationDate,2024-11-15T11:55:52+01:00*%
%TF.ProjectId,Core4GPZ_rev0-1,436f7265-3447-4505-9a5f-726576302d31,rev?*%
%TF.SameCoordinates,Original*%
%TF.FileFunction,Legend,Bot*%
%TF.FilePolarity,Positive*%
%FSLAX46Y46*%
G04 Gerber Fmt 4.6, Leading zero omitted, Abs format (unit mm)*
G04 Created by KiCad (PCBNEW 8.0.5) date 2024-11-15 11:55:52*
%MOMM*%
%LPD*%
G01*
G04 APERTURE LIST*
%ADD10C,0.150000*%
%ADD11C,0.120000*%
G04 APERTURE END LIST*
D10*
X118729819Y-43203333D02*
X118253628Y-42870000D01*
X118729819Y-42631905D02*
X117729819Y-42631905D01*
X117729819Y-42631905D02*
X117729819Y-43012857D01*
X117729819Y-43012857D02*
X117777438Y-43108095D01*
X117777438Y-43108095D02*
X117825057Y-43155714D01*
X117825057Y-43155714D02*
X117920295Y-43203333D01*
X117920295Y-43203333D02*
X118063152Y-43203333D01*
X118063152Y-43203333D02*
X118158390Y-43155714D01*
X118158390Y-43155714D02*
X118206009Y-43108095D01*
X118206009Y-43108095D02*
X118253628Y-43012857D01*
X118253628Y-43012857D02*
X118253628Y-42631905D01*
X117825057Y-43584286D02*
X117777438Y-43631905D01*
X117777438Y-43631905D02*
X117729819Y-43727143D01*
X117729819Y-43727143D02*
X117729819Y-43965238D01*
X117729819Y-43965238D02*
X117777438Y-44060476D01*
X117777438Y-44060476D02*
X117825057Y-44108095D01*
X117825057Y-44108095D02*
X117920295Y-44155714D01*
X117920295Y-44155714D02*
X118015533Y-44155714D01*
X118015533Y-44155714D02*
X118158390Y-44108095D01*
X118158390Y-44108095D02*
X118729819Y-43536667D01*
X118729819Y-43536667D02*
X118729819Y-44155714D01*
X121269819Y-43203333D02*
X120793628Y-42870000D01*
X121269819Y-42631905D02*
X120269819Y-42631905D01*
X120269819Y-42631905D02*
X120269819Y-43012857D01*
X120269819Y-43012857D02*
X120317438Y-43108095D01*
X120317438Y-43108095D02*
X120365057Y-43155714D01*
X120365057Y-43155714D02*
X120460295Y-43203333D01*
X120460295Y-43203333D02*
X120603152Y-43203333D01*
X120603152Y-43203333D02*
X120698390Y-43155714D01*
X120698390Y-43155714D02*
X120746009Y-43108095D01*
X120746009Y-43108095D02*
X120793628Y-43012857D01*
X120793628Y-43012857D02*
X120793628Y-42631905D01*
X121269819Y-44155714D02*
X121269819Y-43584286D01*
X121269819Y-43870000D02*
X120269819Y-43870000D01*
X120269819Y-43870000D02*
X120412676Y-43774762D01*
X120412676Y-43774762D02*
X120507914Y-43679524D01*
X120507914Y-43679524D02*
X120555533Y-43584286D01*
X116189819Y-42594405D02*
X115189819Y-42594405D01*
X115189819Y-42594405D02*
X115189819Y-42832500D01*
X115189819Y-42832500D02*
X115237438Y-42975357D01*
X115237438Y-42975357D02*
X115332676Y-43070595D01*
X115332676Y-43070595D02*
X115427914Y-43118214D01*
X115427914Y-43118214D02*
X115618390Y-43165833D01*
X115618390Y-43165833D02*
X115761247Y-43165833D01*
X115761247Y-43165833D02*
X115951723Y-43118214D01*
X115951723Y-43118214D02*
X116046961Y-43070595D01*
X116046961Y-43070595D02*
X116142200Y-42975357D01*
X116142200Y-42975357D02*
X116189819Y-42832500D01*
X116189819Y-42832500D02*
X116189819Y-42594405D01*
X115189819Y-43499167D02*
X115189819Y-44118214D01*
X115189819Y-44118214D02*
X115570771Y-43784881D01*
X115570771Y-43784881D02*
X115570771Y-43927738D01*
X115570771Y-43927738D02*
X115618390Y-44022976D01*
X115618390Y-44022976D02*
X115666009Y-44070595D01*
X115666009Y-44070595D02*
X115761247Y-44118214D01*
X115761247Y-44118214D02*
X115999342Y-44118214D01*
X115999342Y-44118214D02*
X116094580Y-44070595D01*
X116094580Y-44070595D02*
X116142200Y-44022976D01*
X116142200Y-44022976D02*
X116189819Y-43927738D01*
X116189819Y-43927738D02*
X116189819Y-43642024D01*
X116189819Y-43642024D02*
X116142200Y-43546786D01*
X116142200Y-43546786D02*
X116094580Y-43499167D01*
X113649819Y-42594405D02*
X112649819Y-42594405D01*
X112649819Y-42594405D02*
X112649819Y-42832500D01*
X112649819Y-42832500D02*
X112697438Y-42975357D01*
X112697438Y-42975357D02*
X112792676Y-43070595D01*
X112792676Y-43070595D02*
X112887914Y-43118214D01*
X112887914Y-43118214D02*
X113078390Y-43165833D01*
X113078390Y-43165833D02*
X113221247Y-43165833D01*
X113221247Y-43165833D02*
X113411723Y-43118214D01*
X113411723Y-43118214D02*
X113506961Y-43070595D01*
X113506961Y-43070595D02*
X113602200Y-42975357D01*
X113602200Y-42975357D02*
X113649819Y-42832500D01*
X113649819Y-42832500D02*
X113649819Y-42594405D01*
X112745057Y-43546786D02*
X112697438Y-43594405D01*
X112697438Y-43594405D02*
X112649819Y-43689643D01*
X112649819Y-43689643D02*
X112649819Y-43927738D01*
X112649819Y-43927738D02*
X112697438Y-44022976D01*
X112697438Y-44022976D02*
X112745057Y-44070595D01*
X112745057Y-44070595D02*
X112840295Y-44118214D01*
X112840295Y-44118214D02*
X112935533Y-44118214D01*
X112935533Y-44118214D02*
X113078390Y-44070595D01*
X113078390Y-44070595D02*
X113649819Y-43499167D01*
X113649819Y-43499167D02*
X113649819Y-44118214D01*
X111109819Y-42594405D02*
X110109819Y-42594405D01*
X110109819Y-42594405D02*
X110109819Y-42832500D01*
X110109819Y-42832500D02*
X110157438Y-42975357D01*
X110157438Y-42975357D02*
X110252676Y-43070595D01*
X110252676Y-43070595D02*
X110347914Y-43118214D01*
X110347914Y-43118214D02*
X110538390Y-43165833D01*
X110538390Y-43165833D02*
X110681247Y-43165833D01*
X110681247Y-43165833D02*
X110871723Y-43118214D01*
X110871723Y-43118214D02*
X110966961Y-43070595D01*
X110966961Y-43070595D02*
X111062200Y-42975357D01*
X111062200Y-42975357D02*
X111109819Y-42832500D01*
X111109819Y-42832500D02*
X111109819Y-42594405D01*
X111109819Y-44118214D02*
X111109819Y-43546786D01*
X111109819Y-43832500D02*
X110109819Y-43832500D01*
X110109819Y-43832500D02*
X110252676Y-43737262D01*
X110252676Y-43737262D02*
X110347914Y-43642024D01*
X110347914Y-43642024D02*
X110395533Y-43546786D01*
D11*
%TO.C,R2*%
X117367500Y-43115276D02*
X117367500Y-43624724D01*
X116322500Y-43115276D02*
X116322500Y-43624724D01*
%TO.C,R1*%
X119907500Y-43115276D02*
X119907500Y-43624724D01*
X118862500Y-43115276D02*
X118862500Y-43624724D01*
%TO.C,D3*%
X113570000Y-44992500D02*
X115040000Y-44992500D01*
X113570000Y-42532500D02*
X113570000Y-44992500D01*
X115040000Y-44992500D02*
X115040000Y-42532500D01*
%TO.C,D2*%
X111030000Y-44992500D02*
X112500000Y-44992500D01*
X111030000Y-42532500D02*
X111030000Y-44992500D01*
X112500000Y-44992500D02*
X112500000Y-42532500D01*
%TO.C,D1*%
X108490000Y-44992500D02*
X109960000Y-44992500D01*
X108490000Y-42532500D02*
X108490000Y-44992500D01*
X109960000Y-44992500D02*
X109960000Y-42532500D01*
%TD*%
M02*
